<?xml version="1.0" standalone="no"?>
<!DOCTYPE svg PUBLIC "-//W3C//DTD SVG 1.1//EN" "http://www.w3.org/Graphics/SVG/1.1/DTD/svg11.dtd" >
<svg>
<metadata>
Created by FontForge 20120731 at Wed Sep 28 01:05:38 2016
 By ,,,
(c)2008 Schwartzco Inc.
</metadata>
<defs>
<font id="Stag-SemiboldItalic" horiz-adv-x="600" >
  <font-face 
    font-family="Stag Semibold"
    font-weight="600"
    font-style="italic"
    font-stretch="normal"
    units-per-em="1000"
    panose-1="2 0 7 3 6 0 0 9 0 4"
    ascent="800"
    descent="-200"
    x-height="526"
    cap-height="700"
    bbox="-264 -227 1184 939"
    underline-thickness="20"
    underline-position="-113"
    slope="-12.5"
    unicode-range="U+0020-FB04"
  />
<missing-glyph horiz-adv-x="500" 
 />
    <glyph glyph-name="f_f" unicode="ff" horiz-adv-x="626" 
d="M41 419l24 107h57l6 27q35 153 196 153q57 0 94 -14l-22 -95h-20q-32 0 -48.5 -10t-22.5 -38l-5 -23h115l7 33q18 80 67.5 116.5t133.5 36.5q58 0 97 -15l-22 -96h-27q-34 0 -49.5 -10t-22.5 -38l-7 -27h82l-24 -107h-81l-87 -391q-17 -76 -59 -123t-98 -67h-109l22 94
q50 14 70 99l84 388h-115l-87 -391q-34 -147 -157 -190h-114l22 94q55 16 74 99l84 388h-58z" />
    <glyph glyph-name="f_i" unicode="fi" horiz-adv-x="595" 
d="M422 -8q-128 0 -98 129l69 298h-116l-87 -391q-34 -147 -157 -190h-114l22 94q55 16 74 99l84 388h-58l24 107h58l7 33q34 153 197 153q60 0 96 -15l-22 -96h-25q-31 0 -47.5 -10t-22.5 -38l-6 -27h182q55 0 78.5 -26.5t11.5 -80.5l-68 -293q-2 -8 3.5 -16.5t14.5 -8.5
h30l-20 -88q-44 -21 -110 -21zM522 561q-37 0 -59.5 22.5t-22.5 56.5q0 38 27.5 62.5t65.5 24.5q37 0 60 -22.5t23 -55.5q0 -39 -27.5 -63.5t-66.5 -24.5z" />
    <glyph glyph-name="f_l" unicode="fl" horiz-adv-x="597" 
d="M41 419l24 107h58l7 33q34 153 205 153q45 0 97 -12h176q28 0 20 -38l-124 -536q-2 -8 3.5 -16.5t14.5 -8.5h32l-19 -88q-45 -21 -111 -21q-129 0 -99 129l111 480h-57q-34 0 -50.5 -10t-22.5 -38l-6 -27h78l-24 -107h-77l-87 -391q-34 -147 -157 -190h-114l22 94
q55 16 74 99l84 388h-58z" />
    <glyph glyph-name="f_f_i" unicode="ffi" horiz-adv-x="887" 
d="M715 -8q-128 0 -99 129l69 298h-116l-87 -391q-17 -76 -59 -123t-98 -67h-111l21 94q53 15 73 99l84 388h-115l-87 -391q-34 -147 -157 -190h-114l22 94q55 16 74 99l84 388h-58l24 107h57l6 27q34 153 196 153q57 0 94 -14l-22 -95h-20q-32 0 -48.5 -10t-22.5 -38
l-5 -23h115l7 33q35 153 197 153q59 0 97 -15l-22 -96h-26q-30 0 -46.5 -10t-22.5 -38l-7 -27h182q55 0 78.5 -26.5t11.5 -80.5l-68 -293q-2 -8 4 -16.5t14 -8.5h30l-20 -88q-42 -21 -109 -21zM815 561q-37 0 -60 22.5t-23 56.5q0 38 27.5 62.5t65.5 24.5q37 0 60.5 -22.5
t23.5 -55.5q0 -39 -27.5 -63.5t-66.5 -24.5z" />
    <glyph glyph-name="f_f_l" unicode="ffl" horiz-adv-x="889" 
d="M41 419l24 107h57l6 27q35 153 196 153q57 0 94 -14l-22 -95h-20q-32 0 -48.5 -10t-22.5 -38l-5 -23h115l7 33q35 153 205 153q45 0 97 -12h176q28 0 20 -38l-124 -536q-2 -8 4 -16.5t14 -8.5h33l-20 -88q-45 -21 -111 -21q-129 0 -99 129l111 480h-57q-34 0 -49.5 -10
t-22.5 -38l-7 -27h78l-23 -107h-78l-87 -391q-17 -76 -59 -123t-98 -67h-111l21 94q53 15 73 99l84 388h-115l-87 -391q-34 -147 -157 -190h-114l22 94q55 16 74 99l84 388h-58z" />
    <glyph glyph-name="f_b" unicode="fb" horiz-adv-x="894" 
d="M743 536q66 0 107 -45t41 -131q0 -77 -24.5 -154.5t-66.5 -126.5q-75 -87 -191 -87q-93 0 -141 64q-50 -56 -81 -56h-89l138 601h-57q-34 0 -50.5 -10t-22.5 -38l-6 -27h78l-24 -107h-77l-87 -391q-34 -147 -157 -190h-114l22 94q55 16 74 99l84 388h-58l24 107h58l7 33
q34 153 205 153q45 0 97 -12h176q28 0 20 -38l-46 -201q73 75 161 75zM639 408q-35 0 -76 -27l-61 -266q24 -15 62 -15q70 0 109.5 64.5t39.5 159.5q0 84 -74 84z" />
    <glyph glyph-name="f_h" unicode="fh" horiz-adv-x="903" 
d="M689 345q12 52 -37 52q-40 0 -93 -33l-83 -364h-150q-12 0 -18 9t-3 23l131 569h-57q-34 0 -50.5 -10t-22.5 -38l-6 -27h78l-24 -107h-77l-87 -391q-34 -147 -157 -190h-114l22 94q55 16 74 99l84 388h-58l24 107h58l7 33q34 153 205 153q45 0 97 -12h176q28 0 20 -38
l-51 -221q102 94 199 94q64 0 91 -37.5t12 -100.5l-63 -271q-2 -8 4 -16.5t14 -8.5h27l-19 -88q-45 -21 -107 -21q-128 0 -98 129z" />
    <glyph glyph-name="f_j" unicode="fj" horiz-adv-x="574" 
d="M522 561q-37 0 -59.5 22.5t-22.5 56.5q0 38 27.5 62.5t65.5 24.5q37 0 60 -22.5t23 -55.5q0 -39 -27.5 -63.5t-66.5 -24.5zM296 -6l97 425h-116l-87 -391q-34 -147 -157 -190h-114l22 94q55 16 74 99l84 388h-58l24 107h58l7 33q34 153 197 153q60 0 96 -15l-22 -96h-25
q-31 0 -47.5 -10t-22.5 -38l-6 -27h182q55 0 78.5 -26.5t11.5 -80.5l-100 -434q-19 -84 -64.5 -119t-124.5 -35q-53 0 -96 15l21 87h20q31 0 45.5 13.5t22.5 47.5z" />
    <glyph glyph-name="f_k" unicode="fk" horiz-adv-x="853" 
d="M616 83l-47 115q-10 -6 -28.5 -15.5t-25.5 -13.5l-39 -169h-150q-12 0 -18 9t-3 23l131 569h-57q-34 0 -50.5 -10t-22.5 -38l-6 -27h78l-24 -107h-77l-87 -391q-34 -147 -157 -190h-114l22 94q55 16 74 99l84 388h-58l24 107h58l7 33q34 153 205 153q45 0 97 -12h176
q28 0 20 -38l-83 -359q67 46 118.5 106.5t63.5 116.5h157l-18 -84q-56 -73 -155 -156l71 -160q12 -25 30 -25h19l-20 -88q-35 -21 -86 -21q-33 0 -54.5 13t-31 28.5t-23.5 49.5z" />
    <glyph glyph-name="f_t" unicode="ft" horiz-adv-x="630" 
d="M41 419l24 107h58l7 33q34 153 197 153q54 0 90 -15l-22 -96h-19q-31 0 -47.5 -10t-22.5 -38l-6 -27h112l32 139h178l-32 -139h87l-24 -107h-88l-57 -248q-16 -70 54 -70h23l-22 -96q-42 -14 -90 -14q-90 0 -127 45t-17 131l59 252h-111l-87 -391q-34 -147 -157 -190
h-114l22 94q55 16 74 99l84 388h-58z" />
    <glyph glyph-name="f_f_b" unicode="ffb" horiz-adv-x="1187" 
d="M1035 536q67 0 108 -45t41 -131q0 -77 -25 -154.5t-67 -126.5q-75 -87 -190 -87q-94 0 -142 64q-49 -56 -80 -56h-89l137 601h-57q-34 0 -49.5 -10t-22.5 -38l-7 -27h78l-23 -107h-78l-87 -391q-17 -76 -59 -123t-98 -67h-111l21 94q54 16 73 99l84 388h-115l-87 -391
q-34 -147 -157 -190h-114l22 94q55 16 74 99l84 388h-58l24 107h57l6 27q35 153 196 153q57 0 94 -14l-22 -95h-20q-32 0 -48.5 -10t-22.5 -38l-5 -23h115l7 33q35 153 205 153q45 0 97 -12h176q28 0 20 -38l-46 -201q73 75 161 75zM931 408q-35 0 -75 -27l-62 -266
q26 -15 62 -15q71 0 110 64.5t39 159.5q0 84 -74 84z" />
    <glyph glyph-name="f_f_h" unicode="ffh" horiz-adv-x="1195" 
d="M981 345q12 52 -36 52q-41 0 -93 -33l-84 -364h-149q-12 0 -18.5 9.5t-3.5 22.5l131 569h-57q-34 0 -49.5 -10t-22.5 -38l-7 -27h78l-23 -107h-78l-87 -391q-17 -76 -59 -123t-98 -67h-111l21 94q54 16 73 99l84 388h-115l-87 -391q-34 -147 -157 -190h-114l22 94
q55 16 74 99l84 388h-58l24 107h57l6 27q35 153 196 153q57 0 94 -14l-22 -95h-20q-32 0 -48.5 -10t-22.5 -38l-5 -23h115l7 33q35 153 205 153q45 0 97 -12h176q28 0 20 -38l-51 -221q102 94 200 94q64 0 90.5 -37.5t11.5 -100.5l-62 -271q-2 -8 3.5 -16.5t13.5 -8.5h27
l-19 -88q-44 -21 -106 -21q-128 0 -98 129z" />
    <glyph glyph-name="f_f_j" unicode="ffj" horiz-adv-x="878" 
d="M815 561q-37 0 -60 22.5t-23 56.5q0 38 27.5 62.5t65.5 24.5q37 0 60.5 -22.5t23.5 -55.5q0 -39 -27.5 -63.5t-66.5 -24.5zM588 -6l97 425h-116l-87 -391q-17 -76 -59 -123t-98 -67h-111l21 94q54 16 73 99l84 388h-115l-87 -391q-34 -147 -157 -190h-114l22 94
q55 16 74 99l84 388h-58l24 107h57l6 27q35 153 196 153q57 0 94 -14l-22 -95h-20q-32 0 -48.5 -10t-22.5 -38l-5 -23h115l7 33q35 153 197 153q59 0 97 -15l-22 -96h-26q-30 0 -46.5 -10t-22.5 -38l-7 -27h182q55 0 78.5 -26.5t11.5 -80.5l-100 -434q-19 -84 -64.5 -119
t-125.5 -35q-52 0 -95 15l21 87h20q31 0 45.5 13.5t22.5 47.5z" />
    <glyph glyph-name="f_f_k" unicode="ffk" horiz-adv-x="1146" 
d="M909 83l-48 115q-8 -5 -54 -29l-39 -169h-149q-12 0 -18.5 9.5t-3.5 22.5l131 569h-57q-34 0 -49.5 -10t-22.5 -38l-7 -27h78l-23 -107h-78l-87 -391q-17 -76 -59 -123t-98 -67h-111l21 94q54 16 73 99l84 388h-115l-87 -391q-34 -147 -157 -190h-114l22 94q55 16 74 99
l84 388h-58l24 107h57l6 27q35 153 196 153q57 0 94 -14l-22 -95h-20q-32 0 -48.5 -10t-22.5 -38l-5 -23h115l7 33q35 153 205 153q45 0 97 -12h176q28 0 20 -38l-83 -359q67 46 118.5 106.5t64.5 116.5h157l-19 -84q-58 -77 -155 -156l72 -160q11 -25 30 -25h18l-19 -88
q-37 -21 -87 -21q-47 0 -67.5 21t-40.5 70z" />
    <glyph glyph-name="f_f_t" unicode="fft" horiz-adv-x="922" 
d="M214 -162l21 94q54 16 73 99l84 388h-115l-87 -391q-34 -147 -157 -190h-114l22 94q55 16 74 99l84 388h-58l24 107h57l6 27q35 153 196 153q57 0 94 -14l-22 -95h-20q-32 0 -48.5 -10t-22.5 -38l-5 -23h115l7 33q35 153 197 153q54 0 90 -15l-22 -96h-19
q-30 0 -46.5 -10t-22.5 -38l-7 -27h112l32 139h179l-32 -139h86l-23 -107h-88l-57 -248q-16 -70 53 -70h23l-21 -96q-44 -14 -90 -14q-91 0 -127.5 45t-16.5 131l58 252h-111l-87 -391q-17 -76 -59 -123t-98 -67h-111z" />
    <glyph glyph-name="f_igrave" unicode="f&#xec;" horiz-adv-x="595" 
d="M422 -8q-128 0 -98 129l69 298h-116l-87 -391q-34 -147 -157 -190h-114l22 94q55 16 74 99l84 388h-58l24 107h58l7 33q34 153 186 153q46 0 87 -15l-22 -96h-12q-28 0 -42.5 -10t-20.5 -38l-6 -27h182q55 0 78.5 -26.5t11.5 -80.5l-68 -293q-2 -8 3.5 -16.5t14.5 -8.5
h30l-19 -88q-45 -21 -111 -21zM479 560l-65 87l12 53h141l9 -140h-97z" />
    <glyph glyph-name="f_iacute" unicode="f&#xed;" horiz-adv-x="595" 
d="M422 -8q-128 0 -98 129l69 298h-116l-87 -391q-34 -147 -157 -190h-114l22 94q55 16 74 99l84 388h-58l24 107h58l7 33q34 153 200 153q59 0 98 -15l-22 -96h-27q-34 0 -50.5 -10t-22.5 -38l-6 -27h182q55 0 78.5 -26.5t11.5 -80.5l-68 -293q-2 -8 3.5 -16.5t14.5 -8.5
h30l-19 -88q-45 -21 -111 -21zM447 560l49 140h171l-13 -53l-105 -87h-102z" />
    <glyph glyph-name="f_icircumflex" unicode="f&#xee;" horiz-adv-x="595" 
d="M422 -8q-128 0 -98 129l69 298h-116l-87 -391q-34 -147 -157 -190h-114l22 94q55 16 74 99l84 388h-58l24 107h58l7 33q34 153 191 153q49 0 85 -15l-22 -96h-15q-28 0 -42.5 -10t-20.5 -38l-6 -27h182q55 0 78.5 -26.5t11.5 -80.5l-68 -293q-2 -8 3.5 -16.5t14.5 -8.5
h30l-19 -88q-45 -21 -111 -21zM391 560l9 38l74 102h121l42 -102l-10 -38h-66l-39 54l-60 -54h-71z" />
    <glyph glyph-name="f_idieresis" unicode="f&#xef;" horiz-adv-x="595" 
d="M422 -8q-128 0 -98 129l69 298h-116l-87 -391q-34 -147 -157 -190h-114l22 94q55 16 74 99l84 388h-58l24 107h58l7 33q34 153 187 153q50 0 82 -15l-22 -96h-9q-27 0 -41.5 -10t-20.5 -38l-6 -27h182q55 0 78.5 -26.5t11.5 -80.5l-68 -293q-2 -8 3.5 -16.5t14.5 -8.5h30
l-19 -88q-45 -21 -111 -21zM462 564q-29 0 -46.5 17.5t-17.5 43.5q0 39 23 64t55 25q30 0 48.5 -17.5t18.5 -43.5q0 -39 -23.5 -64t-57.5 -25zM617 564q-28 0 -46 17.5t-18 43.5q0 39 23 64t56 25q29 0 47 -18t18 -44q0 -39 -23 -63.5t-57 -24.5z" />
    <glyph glyph-name="f_iogonek" unicode="f&#x12f;" horiz-adv-x="595" 
d="M-81 -162l22 94q55 16 74 99l84 388h-58l24 107h58l7 33q34 153 197 153q60 0 96 -15l-22 -96h-25q-31 0 -47.5 -10t-22.5 -38l-6 -27h182q55 0 78.5 -26.5t11.5 -80.5l-68 -293q-2 -8 3.5 -16.5t13.5 -8.5h31l-20 -88q-68 -39 -68 -71q0 -23 35 -23h19l-16 -70
q-34 -16 -69 -16q-45 0 -70 18.5t-25 50.5q0 56 86 91h-7q-61 2 -84 35t-9 93l69 298h-116l-87 -391q-34 -147 -157 -190h-114zM522 561q-37 0 -59.5 22.5t-22.5 56.5q0 38 27.5 62.5t65.5 24.5q37 0 60 -22.5t23 -55.5q0 -39 -27.5 -63.5t-66.5 -24.5z" />
    <glyph glyph-name="f_imacron" unicode="f&#x12b;" horiz-adv-x="595" 
d="M422 -8q-128 0 -98 129l69 298h-116l-87 -391q-34 -147 -157 -190h-114l22 94q55 16 74 99l84 388h-58l24 107h58l7 33q34 153 190 153q50 0 87 -15l-22 -96h-16q-28 0 -42.5 -10t-20.5 -38l-6 -27h182q55 0 78.5 -26.5t11.5 -80.5l-68 -293q-2 -8 3.5 -16.5t14.5 -8.5
h30l-19 -88q-45 -21 -111 -21zM403 580l24 105h226l-24 -105h-226z" />
    <glyph glyph-name="f_f_igrave" unicode="ff&#xec;" horiz-adv-x="887" 
d="M214 -162l22 94q53 16 72 99l84 388h-115l-87 -391q-34 -147 -157 -190h-114l22 94q55 16 74 99l84 388h-58l24 107h57l6 27q34 153 196 153q57 0 94 -14l-22 -95h-20q-32 0 -48.5 -10t-22.5 -38l-5 -23h115l7 33q35 153 186 153q48 0 87 -15l-22 -96h-12q-28 0 -42 -10
t-20 -38l-7 -27h182q55 0 78.5 -26.5t11.5 -80.5l-68 -293q-2 -8 4 -16.5t14 -8.5h30l-20 -88q-42 -21 -109 -21q-128 0 -99 129l69 298h-116l-87 -391q-17 -76 -59 -123t-98 -67h-111zM771 560l-65 87l12 53h141l9 -140h-97z" />
    <glyph glyph-name="f_f_iacute" unicode="ff&#xed;" horiz-adv-x="887" 
d="M214 -162l22 94q53 16 72 99l84 388h-115l-87 -391q-34 -147 -157 -190h-114l22 94q55 16 74 99l84 388h-58l24 107h57l6 27q34 153 196 153q57 0 94 -14l-22 -95h-20q-32 0 -48.5 -10t-22.5 -38l-5 -23h115l7 33q18 80 67.5 116.5t133.5 36.5q58 0 97 -15l-22 -96h-27
q-34 0 -49.5 -10t-22.5 -38l-7 -27h182q55 0 78.5 -26.5t11.5 -80.5l-68 -293q-2 -8 4 -16.5t14 -8.5h30l-20 -88q-42 -21 -109 -21q-128 0 -99 129l69 298h-116l-87 -391q-17 -76 -59 -123t-98 -67h-111zM740 560l49 140h170l-12 -53l-106 -87h-101z" />
    <glyph glyph-name="f_f_icircumflex" unicode="ff&#xee;" horiz-adv-x="887" 
d="M214 -162l22 94q53 16 72 99l84 388h-115l-87 -391q-34 -147 -157 -190h-114l22 94q55 16 74 99l84 388h-58l24 107h57l6 27q34 153 196 153q57 0 94 -14l-22 -95h-20q-32 0 -48.5 -10t-22.5 -38l-5 -23h115l7 33q35 153 192 153q48 0 84 -15l-21 -96h-16
q-27 0 -41.5 -10t-20.5 -38l-7 -27h182q55 0 78.5 -26.5t11.5 -80.5l-68 -293q-2 -8 4 -16.5t14 -8.5h30l-20 -88q-42 -21 -109 -21q-128 0 -99 129l69 298h-116l-87 -391q-17 -76 -59 -123t-98 -67h-111zM683 560l9 38l75 102h120l42 -102l-9 -38h-66l-40 54l-59 -54h-72z
" />
    <glyph glyph-name="f_f_idieresis" unicode="ff&#xef;" horiz-adv-x="887" 
d="M214 -162l22 94q53 16 72 99l84 388h-115l-87 -391q-34 -147 -157 -190h-114l22 94q55 16 74 99l84 388h-58l24 107h57l6 27q34 153 196 153q57 0 94 -14l-22 -95h-20q-32 0 -48.5 -10t-22.5 -38l-5 -23h115l7 33q35 153 186 153q49 0 82 -15l-22 -96h-8q-27 0 -41 -10
t-20 -38l-7 -27h182q55 0 78.5 -26.5t11.5 -80.5l-68 -293q-2 -8 4 -16.5t14 -8.5h30l-20 -88q-42 -21 -109 -21q-128 0 -99 129l69 298h-116l-87 -391q-17 -76 -59 -123t-98 -67h-111zM754 564q-29 0 -46.5 17.5t-17.5 43.5q0 39 23 64t56 25q29 0 47.5 -17.5t18.5 -43.5
q0 -39 -23.5 -64t-57.5 -25zM909 564q-28 0 -45.5 17.5t-17.5 43.5q0 39 23 64t55 25q29 0 47.5 -18t18.5 -44q0 -39 -23.5 -63.5t-57.5 -24.5z" />
    <glyph glyph-name="f_f_iogonek" unicode="ff&#x12f;" horiz-adv-x="887" 
d="M-81 -162l22 94q55 16 74 99l84 388h-58l24 107h57l6 27q34 153 196 153q57 0 94 -14l-22 -95h-20q-32 0 -48.5 -10t-22.5 -38l-5 -23h115l7 33q35 153 197 153q59 0 97 -15l-22 -96h-26q-30 0 -46.5 -10t-22.5 -38l-7 -27h182q55 0 78.5 -26.5t11.5 -80.5l-68 -293
q-2 -8 4 -16.5t14 -8.5h30l-20 -88q-68 -40 -68 -71q0 -23 35 -23h20l-17 -70q-32 -16 -69 -16q-44 0 -69 18.5t-25 50.5q0 56 85 91h-7q-61 2 -84 35t-9 93l69 298h-116l-87 -391q-17 -76 -59 -123t-98 -67h-111l22 94q53 16 72 99l84 388h-115l-87 -391
q-34 -147 -157 -190h-114zM815 561q-37 0 -60 22.5t-23 56.5q0 38 27.5 62.5t65.5 24.5q37 0 60.5 -22.5t23.5 -55.5q0 -39 -27.5 -63.5t-66.5 -24.5z" />
    <glyph glyph-name="f_f_imacron" unicode="ff&#x12b;" horiz-adv-x="887" 
d="M214 -162l22 94q53 16 72 99l84 388h-115l-87 -391q-34 -147 -157 -190h-114l22 94q55 16 74 99l84 388h-58l24 107h57l6 27q34 153 196 153q57 0 94 -14l-22 -95h-20q-32 0 -48.5 -10t-22.5 -38l-5 -23h115l7 33q35 153 190 153q50 0 86 -15l-21 -96h-16q-28 0 -42 -10
t-20 -38l-7 -27h182q55 0 78.5 -26.5t11.5 -80.5l-68 -293q-2 -8 4 -16.5t14 -8.5h30l-20 -88q-42 -21 -109 -21q-128 0 -99 129l69 298h-116l-87 -391q-17 -76 -59 -123t-98 -67h-111zM695 580l24 105h226l-24 -105h-226z" />
    <glyph glyph-name=".notdef" horiz-adv-x="500" 
 />
    <glyph glyph-name=".null" horiz-adv-x="0" 
 />
    <glyph glyph-name="nonmarkingreturn" horiz-adv-x="333" 
 />
    <glyph glyph-name="space" unicode=" " horiz-adv-x="155" 
 />
    <glyph glyph-name="exclam" unicode="!" horiz-adv-x="223" 
d="M52 212l45 383l25 105h184l-24 -105l-143 -383h-87zM66 -6q-37 0 -61.5 24.5t-24.5 58.5q0 39 28 65.5t66 26.5t63 -24.5t25 -59.5q0 -39 -28.5 -65t-67.5 -26z" />
    <glyph glyph-name="quotedbl" unicode="&#x22;" horiz-adv-x="393" 
d="M295 456v159l20 85h160l-19 -85l-77 -159h-84zM101 456l1 159l20 85h159l-19 -85l-76 -159h-85z" />
    <glyph glyph-name="numbersign" unicode="#" horiz-adv-x="492" 
d="M62 402l33 137h78l44 161h108l-44 -161h72l44 161h108l-44 -161h74l-32 -137h-79l-22 -80h75l-32 -137h-81l-49 -185h-108l50 185h-73l-49 -185h-108l50 185h-72l31 137h78l22 80h-74zM244 402l-22 -80h72l22 80h-72z" />
    <glyph glyph-name="dollar" unicode="$" horiz-adv-x="528" 
d="M504 232q0 -99 -66 -162t-193 -71l-24 -101h-107l23 102q-96 9 -173 39l35 153h101q12 -44 39 -63.5t81 -19.5q45 0 74 20.5t29 62.5q0 30 -24.5 48.5t-80.5 42.5q-77 33 -114.5 76t-37.5 118q0 97 65 157t185 67l15 66h107l-16 -69q62 -6 148 -31l-35 -150h-93
q-20 80 -110 80q-45 0 -71.5 -20.5t-26.5 -58.5q0 -29 22 -47.5t72 -39.5q88 -37 132 -78.5t44 -120.5z" />
    <glyph glyph-name="percent" unicode="%" horiz-adv-x="811" 
d="M231 411q32 0 55 49.5t23 110.5q0 54 -38 54q-33 0 -56.5 -50t-23.5 -112q0 -52 40 -52zM220 329q-69 0 -110.5 39t-41.5 108q0 102 63.5 167t148.5 65q70 0 112 -39t42 -108q0 -101 -64.5 -166.5t-149.5 -65.5zM52 -34l643 763h103l-643 -763h-103zM582 73q32 0 55 49.5
t23 110.5q0 54 -38 54q-33 0 -56.5 -49.5t-23.5 -112.5q0 -52 40 -52zM570 -8q-69 0 -110 38.5t-41 107.5q0 102 63.5 167.5t147.5 65.5q70 0 112.5 -39.5t42.5 -108.5q0 -101 -64.5 -166t-150.5 -65z" />
    <glyph glyph-name="ampersand" unicode="&#x26;" horiz-adv-x="704" 
d="M247 -8q-124 0 -188 49t-64 129q0 161 198 226q-22 44 -22 93q0 101 66.5 160.5t179.5 59.5q64 0 97 -9h133l-43 -189h-117l-5 69q-18 8 -46 8q-39 0 -60 -21t-21 -59q0 -43 37 -92l108 -147q38 68 59 147h144l-19 -82q-52 -102 -108 -168l30 -40q18 -25 33 -25h18
l-23 -101h-161l-35 46q-90 -54 -191 -54zM277 108q54 0 97 26l-132 180q-59 -41 -59 -116q0 -41 23.5 -65.5t70.5 -24.5z" />
    <glyph glyph-name="quotesingle" unicode="'" horiz-adv-x="205" 
d="M103 456l-1 159l20 85h165l-19 -85l-79 -159h-86z" />
    <glyph glyph-name="parenleft" unicode="(" horiz-adv-x="315" 
d="M174 -49q-63 34 -107 107t-44 184q0 190 97.5 326.5t228.5 172.5h67l-22 -96q-81 -20 -150.5 -135t-69.5 -277q0 -144 81 -191l-21 -91h-60z" />
    <glyph glyph-name="parenright" unicode=")" horiz-adv-x="315" 
d="M-61 -49l21 91q81 24 151 140t70 277q0 141 -81 186l21 96h60q64 -34 107.5 -106.5t43.5 -184.5q0 -190 -96.5 -325.5t-229.5 -173.5h-67z" />
    <glyph glyph-name="asterisk" unicode="*" horiz-adv-x="378" 
d="M174 343l-9 62l77 107l-103 -85l-58 1l-19 62l43 36l134 -4l-125 37l-23 47l47 51l52 -16l56 -110l-22 122l31 47h71l8 -62l-76 -108l102 85h57l20 -62l-43 -37l-134 4l126 -36l22 -47l-45 -51l-53 14l-58 111l23 -121l-31 -47h-70z" />
    <glyph glyph-name="plus" unicode="+" horiz-adv-x="513" 
d="M18 280l31 131h171l43 184h142l-42 -184h171l-31 -131h-171l-42 -184h-142l42 184h-172z" />
    <glyph glyph-name="comma" unicode="," horiz-adv-x="213" 
d="M-71 -114l15 69q33 4 54.5 16t21.5 29q0 5 -2 8.5t-4 5.5t-8 6t-10 7q-23 18 -23 50q0 40 27 66t66 26q38 0 63.5 -24.5t25.5 -65.5q0 -89 -61 -138.5t-165 -54.5z" />
    <glyph glyph-name="hyphen" unicode="-" horiz-adv-x="287" 
d="M15 230l30 128h242l-30 -128h-242z" />
    <glyph glyph-name="period" unicode="." horiz-adv-x="212" 
d="M60 -6q-38 0 -62.5 24.5t-24.5 58.5q0 39 28.5 65.5t66.5 26.5t63 -24.5t25 -59.5q0 -39 -28.5 -65t-67.5 -26z" />
    <glyph glyph-name="slash" unicode="/" horiz-adv-x="346" 
d="M-78 -49l418 790h122l-419 -790h-121z" />
    <glyph glyph-name="zero" unicode="0" horiz-adv-x="663" 
d="M297 -9q-124 0 -196.5 73.5t-72.5 201.5q0 82 26 160.5t71 137.5q54 70 126.5 107t154.5 37q123 0 195 -77t72 -203q0 -84 -26.5 -165t-71.5 -138q-105 -134 -278 -134zM305 110q84 0 131 104q49 110 49 239q0 62 -23 95.5t-66 33.5q-82 0 -130 -106
q-22 -51 -36.5 -117.5t-14.5 -119.5q0 -62 23 -95.5t67 -33.5z" />
    <glyph glyph-name="one" unicode="1" horiz-adv-x="394" 
d="M-47 0l23 101h70q9 0 20 10.5t13 19.5l95 415l-70 -28h-36l24 104l173 78h135l-130 -569q-2 -10 2 -20t13 -10h62l-23 -101h-371z" />
    <glyph glyph-name="two" unicode="2" horiz-adv-x="532" 
d="M-50 0l19 78q21 89 75.5 147t153.5 117q9 5 39.5 23t39 23.5t31 20.5t30 24t19.5 23.5t16 29t4 31.5q0 63 -66 63q-73 0 -120 -68h-99l37 160q100 37 206 37q112 0 175 -44.5t63 -128.5q0 -42 -15 -79t-35.5 -62t-57.5 -51.5t-64 -41.5t-73 -38q-77 -38 -122 -68.5
t-59 -63.5h200l28 67h116l-45 -199h-496z" />
    <glyph glyph-name="three" unicode="3" horiz-adv-x="527" 
d="M194 -9q-139 0 -235 45l33 142h98q9 -29 35 -47.5t68 -18.5q52 0 84.5 27.5t32.5 83.5q0 36 -24.5 55.5t-71.5 19.5h-52l25 111h52q62 0 93 29.5t31 73.5q0 33 -19.5 51.5t-55.5 18.5q-64 0 -106 -58h-96l34 150q103 35 195 35q111 0 173 -44t62 -121q0 -152 -174 -190
v-4q58 -10 89.5 -45t31.5 -87q0 -106 -81.5 -166.5t-221.5 -60.5z" />
    <glyph glyph-name="four" unicode="4" horiz-adv-x="564" 
d="M169 0l23 101h44q9 0 20 10.5t13 19.5l10 43h-289l30 135l389 391h178l-95 -412h68l-26 -114h-68l-10 -43q-3 -10 1.5 -20t14.5 -10h44l-23 -101h-324zM136 292v-4h172l53 231h-4z" />
    <glyph glyph-name="five" unicode="5" horiz-adv-x="521" 
d="M189 -9q-137 0 -231 45l32 139h102q20 -63 98 -63q52 0 86.5 35.5t34.5 98.5q0 81 -80 81q-57 0 -93 -41h-109l96 414h449l-42 -181h-114l-5 47h-186l-37 -161h3q48 39 124 39q85 0 135 -46t50 -130q0 -127 -84.5 -202t-228.5 -75z" />
    <glyph glyph-name="six" unicode="6" horiz-adv-x="598" 
d="M274 -9q-118 0 -185 65.5t-67 179.5q0 103 35 195.5t94 156.5q112 120 295 120q104 0 188 -29l-31 -135h-95q-26 38 -81 38q-89 0 -142 -80q-32 -47 -55 -123q72 66 168 66q86 0 134.5 -43.5t48.5 -121.5q-1 -126 -86 -207.5t-221 -81.5zM309 332q-46 0 -96 -28
q-9 -51 -9 -99q0 -101 76 -101q52 0 81.5 46.5t29.5 107.5q0 74 -82 74z" />
    <glyph glyph-name="seven" unicode="7" horiz-adv-x="517" 
d="M42 0l17 76l392 482v4h-239l-39 -84h-113l51 222h496l-35 -149l-339 -551h-191z" />
    <glyph glyph-name="eight" unicode="8" horiz-adv-x="593" 
d="M264 -9q-133 0 -199.5 50t-66.5 131q0 78 47.5 132t131.5 75v3q-77 35 -77 116q0 96 80.5 153.5t194.5 57.5q112 0 174.5 -46.5t62.5 -120.5q0 -62 -38.5 -107t-106.5 -65v-3q100 -40 100 -136q0 -110 -83 -175t-220 -65zM342 422q41 0 65.5 29t24.5 77q-2 64 -66 64
q-41 0 -66.5 -30t-25.5 -78q0 -28 17 -45t51 -17zM270 107q55 0 85.5 38t30.5 93q0 81 -88 81q-52 0 -82 -38.5t-30 -92.5q0 -81 84 -81z" />
    <glyph glyph-name="nine" unicode="9" horiz-adv-x="597" 
d="M188 -9q-108 0 -188 30l31 131h95q30 -38 81 -38q97 0 150 78q34 52 54 128q-73 -68 -170 -68q-86 0 -134.5 44t-48.5 123q0 125 85.5 207t221.5 82q119 0 185.5 -65t66.5 -180q0 -104 -34 -199t-92 -157q-108 -116 -303 -116zM329 366q50 0 97 27q9 53 9 101
q0 101 -76 101q-52 0 -81 -46.5t-29 -108.5q0 -74 80 -74z" />
    <glyph glyph-name="colon" unicode=":" horiz-adv-x="210" 
d="M125 280q-37 0 -61.5 24.5t-24.5 58.5q0 38 28.5 64.5t66.5 26.5q37 0 61.5 -24.5t24.5 -59.5q0 -38 -28.5 -64t-66.5 -26zM59 -6q-37 0 -61.5 24t-24.5 58q0 38 28 64.5t66 26.5t62.5 -24.5t24.5 -58.5q0 -38 -28.5 -64t-66.5 -26z" />
    <glyph glyph-name="semicolon" unicode=";" horiz-adv-x="211" 
d="M125 280q-37 0 -61.5 24.5t-24.5 58.5q0 38 28.5 64.5t66.5 26.5q37 0 61.5 -24.5t24.5 -59.5q0 -38 -28.5 -64t-66.5 -26zM-71 -114l15 70q33 4 54 16t21 28q0 6 -2 9t-9.5 8.5t-11.5 8.5q-23 20 -23 50q0 40 27 65.5t65 25.5t62.5 -24.5t24.5 -64.5q0 -88 -60 -137.5
t-163 -54.5z" />
    <glyph glyph-name="less" unicode="&#x3c;" horiz-adv-x="446" 
d="M347 84l-329 196l26 109l415 186h42l-31 -135l-266 -113v-3l212 -118l-29 -122h-40z" />
    <glyph glyph-name="equal" unicode="=" horiz-adv-x="489" 
d="M40 351l29 129h453l-30 -129h-452zM-9 144l31 129h452l-30 -129h-453z" />
    <glyph glyph-name="greater" unicode="&#x3e;" horiz-adv-x="446" 
d="M-24 84l31 135l266 112v3l-211 118l28 123h41l328 -196l-25 -109l-415 -186h-43z" />
    <glyph glyph-name="question" unicode="?" horiz-adv-x="447" 
d="M112 212q-1 61 18.5 102.5t74.5 87.5l24 18t30 24.5t25 25t21.5 32.5t6.5 35q0 23 -13.5 36.5t-38.5 13.5q-52 0 -85 -56h-101l34 146q86 32 184 32q100 0 153.5 -41.5t53.5 -112.5t-37.5 -115.5t-112.5 -88.5q-38 -23 -55 -34t-38 -29t-29 -35.5t-10 -40.5h-105zM144 -6
q-38 0 -62.5 24.5t-24.5 58.5q0 39 28.5 65.5t66.5 26.5t63 -24.5t25 -59.5q0 -39 -28.5 -65t-67.5 -26z" />
    <glyph glyph-name="at" unicode="@" horiz-adv-x="867" 
d="M440 -134q-81 0 -153 22t-130.5 66t-93 117.5t-34.5 168.5q0 99 41 182.5t106.5 135.5t142.5 80.5t153 28.5q104 0 191 -37.5t141.5 -114t54.5 -178.5q0 -133 -72 -202t-178 -69q-110 0 -135 69q-50 -67 -127 -67q-56 0 -89 34.5t-33 98.5q0 112 67 188q58 67 151 67
q59 0 98 -41q39 35 67 35h66l-56 -247q-16 -63 29 -63q52 0 87.5 51t35.5 146q0 120 -82 188t-216 68q-65 0 -125.5 -22t-110.5 -64t-80.5 -111.5t-30.5 -155.5q0 -153 85.5 -226.5t229.5 -73.5t237 60h60l-14 -61q-49 -33 -124 -53t-159 -20zM406 154q29 0 62 31l41 176
q-18 6 -40 6q-47 0 -74.5 -48t-27.5 -118q0 -47 39 -47z" />
    <glyph glyph-name="A" unicode="A" horiz-adv-x="731" 
d="M-50 0l23 101h17q28 0 46 31l251 434q15 29 -8 29h-48l24 105h331l51 -574q1 -10 9.5 -17.5t17.5 -7.5h21l-24 -101h-321l23 101h86l-9 114h-217l-14 -24q-16 -30 -20.5 -49.5t3.5 -30t32 -10.5h33l-23 -101h-284zM415 564l-140 -253h159l-17 253h-2z" />
    <glyph glyph-name="B" unicode="B" horiz-adv-x="631" 
d="M-49 0l23 101h35q10 0 21 10.5t13 19.5l100 435q2 10 -2.5 19.5t-14.5 9.5h-39l25 105h290q123 0 185 -40t62 -115q0 -147 -172 -178v-4q134 -22 134 -132q0 -108 -85 -169.5t-226 -61.5h-349zM227 108h63q131 0 131 129q0 74 -93 74h-55zM337 590l-41 -179h50
q116 0 116 111q0 68 -85 68h-40z" />
    <glyph glyph-name="C" unicode="C" horiz-adv-x="621" 
d="M326 -9q-145 0 -221 72.5t-76 200.5q0 124 53.5 225.5t148.5 160.5t212 59q66 0 104 -9h153l-55 -237h-120v109q-32 13 -68 13q-100 0 -167 -87.5t-67 -233.5q0 -150 121 -150q48 0 81.5 18t68.5 54h93l-31 -136q-100 -59 -230 -59z" />
    <glyph glyph-name="D" unicode="D" horiz-adv-x="707" 
d="M-49 0l23 101h34q10 0 21.5 10.5t13.5 19.5l100 435q2 9 -3.5 19t-14.5 10h-38l25 105h282q156 0 240.5 -73t84.5 -210q0 -189 -117 -303t-328 -114h-323zM228 106h57q113 0 178 86t65 235q0 161 -153 161h-37z" />
    <glyph glyph-name="E" unicode="E" horiz-adv-x="598" 
d="M676 700l-48 -207h-112l4 94h-182l-41 -178h88l21 61h103l-53 -229h-101l6 62h-89l-44 -194h190l42 112h118l-51 -221h-576l23 101h35q10 0 21 10.5t13 19.5l100 435q2 10 -2.5 19.5t-14.5 9.5h-39l25 105h564z" />
    <glyph glyph-name="F" unicode="F" horiz-adv-x="581" 
d="M672 700l-50 -216h-113l6 103h-177l-45 -196h86l23 66h103l-56 -243h-100l5 69h-86l-41 -182h81l-23 -101h-334l23 101h35q10 0 21 10.5t13 19.5l100 435q2 10 -2.5 19.5t-14.5 9.5h-39l25 105h560z" />
    <glyph glyph-name="G" unicode="G" horiz-adv-x="676" 
d="M302 -9q-130 0 -201.5 71t-71.5 197q0 189 119.5 319.5t300.5 130.5q67 0 108 -9h150l-53 -230h-122v101q-30 14 -74 14q-100 0 -167 -91t-68 -236q0 -77 27.5 -112.5t84.5 -35.5q34 0 69 10l27 122h-60l24 102h292l-24 -103h-21q-10 0 -21 -10t-13 -20l-48 -211h-98
q-5 21 -23 21q-65 -30 -137 -30z" />
    <glyph glyph-name="H" unicode="H" horiz-adv-x="740" 
d="M-49 0l23 101h35q10 0 21 10.5t13 19.5l100 435q2 10 -2.5 19.5t-14.5 9.5h-39l25 105h321l-24 -105h-69l-43 -188h214l42 188h-68l24 105h322l-24 -105h-36q-10 0 -21 -9.5t-13 -19.5l-99 -435q-2 -10 2.5 -20t13.5 -10h40l-23 -101h-323l23 101h69l47 204h-214
l-46 -204h69l-23 -101h-322z" />
    <glyph glyph-name="I" unicode="I" horiz-adv-x="349" 
d="M-49 0l23 101h42q9 0 20 10.5t13 19.5l100 435q2 10 -2.5 19.5t-13.5 9.5h-46l25 105h328l-24 -105h-43q-10 0 -20.5 -9.5t-12.5 -19.5l-100 -435q-2 -10 2.5 -20t13.5 -10h46l-23 -101h-328z" />
    <glyph glyph-name="J" unicode="J" horiz-adv-x="501" 
d="M144 -8q-112 0 -186 36l29 127h96q18 -43 65 -43q56 0 73 74l87 380q2 10 -2.5 19.5t-13.5 9.5h-44l25 105h320l-25 -105h-36q-10 0 -20.5 -9.5t-12.5 -19.5l-86 -373q-24 -107 -85 -154t-184 -47z" />
    <glyph glyph-name="K" unicode="K" horiz-adv-x="702" 
d="M-49 0l23 101h35q10 0 21 10.5t13 19.5l100 435q2 10 -2.5 19.5t-14.5 9.5h-39l25 105h312l-24 -105h-60l-51 -220l191 163q27 24 23.5 40.5t-29.5 16.5h-5l25 105h285l-23 -105h-13q-19 0 -46 -22l-209 -171l119 -274q11 -27 26 -27h23l-23 -101h-230l17 90l-83 203
l-81 -63l-29 -129h62l-23 -101h-315z" />
    <glyph glyph-name="L" unicode="L" horiz-adv-x="584" 
d="M-49 0l23 101h35q10 0 21 10.5t13 19.5l100 435q2 10 -2.5 19.5t-14.5 9.5h-39l25 105h340l-24 -105h-88l-112 -486h173l50 135h119l-56 -244h-563z" />
    <glyph glyph-name="M" unicode="M" horiz-adv-x="902" 
d="M-49 0l23 101h35q10 0 21 10.5t13 19.5l100 435q2 10 -2.5 19.5t-14.5 9.5h-39l25 105h321l19 -405h3l200 405h338l-24 -105h-36q-10 0 -21 -9.5t-13 -19.5l-99 -435q-3 -10 1.5 -20t14.5 -10h40l-23 -101h-311l23 101h60l105 457h-3l-282 -558h-118l-25 558h-3
l-105 -457h66l-23 -101h-266z" />
    <glyph glyph-name="N" unicode="N" horiz-adv-x="714" 
d="M-49 0l23 101h35q10 0 21 10.5t13 19.5l100 435q2 10 -2.5 19.5t-14.5 9.5h-39l25 105h249l146 -425h3l75 320h-71l25 105h268l-24 -105h-34q-9 0 -20 -10t-13 -19l-129 -566h-161l-166 465h-3l-83 -364h73l-23 -101h-273z" />
    <glyph glyph-name="O" unicode="O" horiz-adv-x="715" 
d="M334 -9q-142 0 -224 75.5t-82 210.5q0 184 116 307.5t282 123.5q137 0 218.5 -76.5t81.5 -208.5q0 -191 -112 -311.5t-280 -120.5zM341 111q87 0 141 93.5t54 220.5q0 76 -31.5 116.5t-90.5 40.5q-88 0 -141.5 -92t-53.5 -222q0 -76 31.5 -116.5t90.5 -40.5z" />
    <glyph glyph-name="P" unicode="P" horiz-adv-x="624" 
d="M-49 0l23 101h35q10 0 21 10.5t13 19.5l100 435q2 10 -2.5 19.5t-14.5 9.5h-39l25 105h295q123 0 190 -48t67 -136q0 -128 -86.5 -193.5t-248.5 -65.5h-67l-35 -156h81l-23 -101h-334zM336 588l-53 -228h54q136 0 136 148q0 80 -85 80h-52z" />
    <glyph glyph-name="Q" unicode="Q" horiz-adv-x="715" 
d="M509 -121q-18 41 -67.5 66.5t-144.5 42.5q-268 47 -268 289q0 186 116 308.5t281 122.5q138 0 219 -77t81 -209q0 -145 -64 -237t-174 -123v-3q146 -23 190 -82l-23 -98h-146zM341 108q86 0 140 94t54 221q0 159 -120 159q-88 0 -142.5 -94t-54.5 -233q0 -68 32 -107.5
t91 -39.5z" />
    <glyph glyph-name="R" unicode="R" horiz-adv-x="681" 
d="M-49 0l23 101h35q10 0 21 10.5t13 19.5l100 435q2 10 -2.5 19.5t-14.5 9.5h-39l25 105h307q123 0 188 -45t65 -125q0 -81 -50 -130t-143 -64v-4q51 -12 73 -41.5t32 -104.5l8 -60q3 -25 19 -25h24l-23 -101h-204l-10 190q-3 58 -18.5 77t-63.5 19h-47l-42 -185h76
l-23 -101h-329zM336 588l-47 -205h59q131 0 131 131q0 74 -91 74h-52z" />
    <glyph glyph-name="S" unicode="S" horiz-adv-x="532" 
d="M223 -9q-53 0 -120 9h-143l48 214h125l-4 -98q33 -12 84 -12q116 0 116 85q0 11 -2 20t-9 17.5t-12 13.5t-19 13t-20.5 11t-26.5 12.5t-28 13.5q-68 32 -103 72t-35 116q0 106 70.5 168.5t200.5 62.5q66 0 122 -9h121l-46 -196h-120v86q-29 11 -74 11q-108 0 -108 -82
q0 -16 5.5 -28.5t18.5 -22.5t25 -16.5t36 -16.5q50 -22 74.5 -35.5t54 -38t41.5 -56.5t12 -77q0 -107 -72.5 -172t-211.5 -65z" />
    <glyph glyph-name="T" unicode="T" horiz-adv-x="646" 
d="M101 0l23 101h41q9 0 20 10.5t13 19.5l105 460h-84l-47 -139h-114l57 248h619l-57 -248h-114l16 139h-85l-105 -460q-2 -10 2.5 -20t13.5 -10h44l-22 -101h-326z" />
    <glyph glyph-name="U" unicode="U" horiz-adv-x="714" 
d="M337 -8q-160 0 -226 73.5t-36 204.5l67 296q2 10 -2.5 19.5t-13.5 9.5h-38l24 105h326l-24 -105h-74l-80 -347q-17 -74 9 -105t87 -31q64 0 96 31.5t49 106.5l79 345h-75l25 105h276l-24 -105h-34q-10 0 -21 -9.5t-13 -19.5l-75 -326q-29 -126 -100 -187t-202 -61z" />
    <glyph glyph-name="V" unicode="V" horiz-adv-x="714" 
d="M199 0l-68 571q-2 24 -23 24h-22l24 105h309l-25 -105h-75l37 -417h2l187 346q20 35 16 53t-35 18h-29l24 105h285l-25 -105h-18q-25 0 -43 -30l-330 -565h-191z" />
    <glyph glyph-name="W" unicode="W" horiz-adv-x="980" 
d="M139 0l-11 571q0 10 -6.5 17t-16.5 7h-18l25 105h303l-25 -105h-74l-1 -369h2l221 474h134l8 -474h3l136 298q18 35 15 53t-32 18h-29l24 105h276l-24 -105h-13q-12 0 -25 -8.5t-19 -21.5l-274 -565h-191l-7 403h-2l-187 -403h-192z" />
    <glyph glyph-name="X" unicode="X" horiz-adv-x="682" 
d="M-49 0l23 101h25q23 0 40 19l210 230l-105 217q-8 17 -13.5 22.5t-15.5 5.5h-28l25 105h305l-24 -101h-56l74 -157l83 99q22 29 17 43.5t-28 14.5h-15l23 101h283l-25 -105h-27q-22 0 -40 -20l-204 -227l107 -219q14 -28 33 -28h18l-23 -101h-306l22 98h63l-77 163
l-95 -112q-18 -23 -13.5 -37t28.5 -14h20l-23 -98h-281z" />
    <glyph glyph-name="Y" unicode="Y" horiz-adv-x="669" 
d="M118 0l23 101h41q10 0 21 10.5t13 19.5l35 155l-118 287q-8 22 -24 22h-22l25 105h302l-24 -105h-71l76 -201h3l101 135q23 31 17 48.5t-37 17.5h-20l24 105h278l-24 -105h-15q-22 0 -45 -27l-238 -292l-32 -145q-3 -10 1.5 -20t14.5 -10h44l-23 -101h-326z" />
    <glyph glyph-name="Z" unicode="Z" horiz-adv-x="563" 
d="M-50 0l29 125l428 458v4h-176l-39 -97h-113l49 210h518l-30 -128l-428 -459v-4h193l43 112h118l-51 -221h-541z" />
    <glyph glyph-name="bracketleft" unicode="[" horiz-adv-x="273" 
d="M-52 -49l182 790h244l-24 -105h-92l-136 -584h94l-24 -101h-244z" />
    <glyph glyph-name="backslash" unicode="\" horiz-adv-x="346" 
d="M172 -49l-66 790h110l66 -790h-110z" />
    <glyph glyph-name="bracketright" unicode="]" horiz-adv-x="273" 
d="M-61 -49l23 101h93l134 584h-92l24 105h244l-182 -790h-244z" />
    <glyph glyph-name="asciicircum" unicode="^" horiz-adv-x="398" 
d="M54 452l12 51l160 197h125l93 -197l-12 -51h-99l-61 115h-3l-105 -115h-110z" />
    <glyph glyph-name="underscore" unicode="_" horiz-adv-x="381" 
d="M-99 -162l22 94h385l-22 -94h-385z" />
    <glyph glyph-name="grave" unicode="`" horiz-adv-x="400" 
d="M231 560l-89 87l12 53h146l27 -140h-96z" />
    <glyph glyph-name="a" unicode="a" horiz-adv-x="537" 
d="M129 -6q-64 0 -102 35t-38 100q0 88 62.5 136t164.5 48q58 0 99 -12l10 45q7 33 -9.5 50.5t-59.5 17.5q-27 0 -48.5 -6.5t-32.5 -13.5t-29 -22h-80l30 132q97 31 202 31q121 0 174 -47t31 -140l-51 -222q-2 -8 4 -16.5t14 -8.5h25l-19 -85q-43 -24 -102 -24q-84 0 -99 68
q-58 -66 -146 -66zM208 95q33 0 66 31l22 94q-26 7 -54 7q-40 0 -62.5 -23t-22.5 -58q0 -51 51 -51z" />
    <glyph glyph-name="b" unicode="b" horiz-adv-x="570" 
d="M285 -8q-94 0 -142 64q-49 -56 -80 -56h-89l130 569q2 8 -4 17t-13 9h-30l24 105h202q28 0 20 -38l-46 -201q73 75 161 75q67 0 108 -45t41 -131q0 -77 -25 -154.5t-67 -126.5q-75 -87 -190 -87zM314 408q-35 0 -75 -27l-62 -266q26 -15 62 -15q71 0 110.5 64.5
t39.5 159.5q0 84 -75 84z" />
    <glyph glyph-name="c" unicode="c" horiz-adv-x="479" 
d="M244 -8q-118 0 -177.5 54t-59.5 149q0 149 92.5 244.5t233.5 95.5q112 0 181 -33l-30 -130h-91q-8 24 -22.5 37t-45.5 13q-63 0 -103 -71.5t-40 -160.5q0 -90 76 -90q58 0 90 51h92l-29 -124q-80 -35 -167 -35z" />
    <glyph glyph-name="d" unicode="d" horiz-adv-x="597" 
d="M159 -9q-71 0 -113 46.5t-42 134.5q0 73 26.5 148.5t73.5 127.5q78 87 184 87q84 0 126 -48l26 108h-61l25 105h209q30 0 20 -38l-123 -536q-2 -8 3.5 -16.5t13.5 -8.5h27l-19 -88q-44 -21 -94 -21q-99 0 -111 79q-73 -80 -171 -80zM253 103q38 0 82 37l60 262
q-24 14 -62 14q-72 0 -111.5 -66.5t-39.5 -166.5q0 -80 71 -80z" />
    <glyph glyph-name="e" unicode="e" horiz-adv-x="512" 
d="M248 -8q-121 0 -180 56.5t-59 153.5q0 143 92 238t225 95q92 0 143.5 -41t51.5 -107q0 -99 -86 -139.5t-255 -46.5q1 -101 78 -101q65 0 108 51h92l-29 -123q-76 -36 -181 -36zM307 431q-44 0 -74 -38.5t-44 -100.5q88 7 128 26.5t40 60.5q0 52 -50 52z" />
    <glyph glyph-name="f" unicode="f" horiz-adv-x="332" 
d="M40 419l24 107h57l7 33q35 153 201 153q58 0 97 -15l-22 -96h-26q-34 0 -50 -10t-23 -38l-6 -27h81l-23 -107h-82l-87 -391q-17 -76 -59 -123t-97 -67h-115l22 94q56 15 75 99l84 388h-58z" />
    <glyph glyph-name="g" unicode="g" horiz-adv-x="497" 
d="M169 -178q-119 0 -176.5 30.5t-57.5 83.5q0 45 32.5 69.5t88.5 42.5q-40 23 -40 70q0 68 85 117q-54 37 -54 106q0 87 66.5 140.5t167.5 53.5q39 0 74 -9h189l-24 -107h-17q-6 0 -13.5 -5t-10.5 -11q2 -14 2 -21q0 -85 -65 -136.5t-164 -51.5q-52 0 -94 13
q-17 -14 -17 -33q0 -23 37 -23h133q74 0 111 -33t37 -89q0 -96 -69 -151.5t-221 -55.5zM252 280q29 0 52 30.5t23 80.5q0 24 -13.5 38t-35.5 14q-29 0 -51 -31t-22 -81q0 -24 12.5 -37.5t34.5 -13.5zM246 10h-143q-15 -19 -15 -41q0 -48 87 -48q59 0 90.5 16t31.5 42
q0 31 -51 31z" />
    <glyph glyph-name="h" unicode="h" horiz-adv-x="604" 
d="M436 -8q-129 0 -97 129l51 224q12 52 -37 52q-40 0 -93 -33l-83 -364h-150q-11 0 -17.5 9.5t-3.5 22.5l124 537q2 9 -4 17.5t-14 8.5h-29l24 105h202q28 0 20 -38l-51 -221q102 94 199 94q64 0 91 -37.5t12 -100.5l-63 -271q-2 -8 4 -16.5t14 -8.5h27l-19 -88
q-44 -21 -107 -21z" />
    <glyph glyph-name="i" unicode="i" horiz-adv-x="299" 
d="M226 561q-37 0 -60 22.5t-23 56.5q0 38 27.5 62.5t66.5 24.5q37 0 60.5 -22.5t23.5 -55.5q0 -39 -27.5 -63.5t-67.5 -24.5zM127 -8q-128 0 -98 129l63 272q2 8 -3.5 17t-13.5 9h-34l21 93q56 20 125 20q54 0 78 -29.5t11 -83.5l-68 -293q-2 -8 4 -16.5t14 -8.5h30
l-19 -88q-44 -21 -110 -21z" />
    <glyph glyph-name="j" unicode="j" horiz-adv-x="278" 
d="M226 561q-37 0 -60 22.5t-23 56.5q0 38 27.5 62.5t66.5 24.5q37 0 60.5 -22.5t23.5 -55.5q0 -39 -27.5 -63.5t-67.5 -24.5zM-14 -169q-58 0 -101 15l21 87h27q31 0 45.5 13.5t22.5 47.5l91 399q2 8 -3.5 17t-13.5 9h-34l21 93q56 20 125 20q54 0 78 -29t11 -84l-99 -434
q-19 -84 -65 -119t-126 -35z" />
    <glyph glyph-name="k" unicode="k" horiz-adv-x="554" 
d="M426 -8q-48 0 -68.5 21t-40.5 70l-47 115q-11 -7 -32.5 -18t-22.5 -11l-38 -169h-150q-12 0 -18.5 9.5t-3.5 22.5l124 537q2 8 -3.5 17t-13.5 9h-30l24 105h202q13 0 18.5 -10t1.5 -28l-82 -359q67 46 118 106.5t64 116.5h157l-19 -84q-54 -74 -155 -156l72 -160
q11 -25 30 -25h19l-20 -88q-37 -21 -86 -21z" />
    <glyph glyph-name="l" unicode="l" horiz-adv-x="301" 
d="M129 -8q-129 0 -99 129l103 448q2 8 -3.5 17t-13.5 9h-33l24 105h205q30 0 20 -38l-123 -536q-2 -8 3.5 -16.5t13.5 -8.5h33l-20 -88q-44 -21 -110 -21z" />
    <glyph glyph-name="m" unicode="m" horiz-adv-x="893" 
d="M725 -8q-128 0 -98 129l52 225q6 27 -1.5 40t-32.5 13q-32 0 -83 -33l-85 -366h-149q-12 0 -18 9t-3 23l72 314q12 53 -33 53q-35 0 -85 -34l-84 -365h-150q-11 0 -17.5 9.5t-3.5 22.5l83 361q2 8 -3.5 17t-13.5 9h-31l21 93q56 20 122 20q44 0 68 -23t23 -68
q92 94 191 94t104 -99q94 99 195 99q64 0 91.5 -37.5t12.5 -100.5l-63 -271q-2 -8 4 -16.5t14 -8.5h27l-20 -88q-44 -21 -106 -21z" />
    <glyph glyph-name="n" unicode="n" horiz-adv-x="604" 
d="M436 -8q-129 0 -97 129l51 224q12 52 -37 52q-40 0 -92 -33l-84 -364h-150q-11 0 -17.5 9.5t-3.5 22.5l83 361q2 8 -3.5 17t-13.5 9h-31l21 93q56 20 122 20q94 0 91 -94q103 97 202 97q64 0 91 -37.5t12 -100.5l-63 -271q-2 -8 4 -16.5t14 -8.5h27l-19 -88
q-44 -21 -107 -21z" />
    <glyph glyph-name="o" unicode="o" horiz-adv-x="560" 
d="M253 -7q-116 0 -180.5 61t-64.5 166q0 137 87 226t214 89q116 0 180 -61t64 -166q0 -138 -84.5 -226.5t-215.5 -88.5zM257 101q55 0 88.5 67t33.5 155q0 96 -74 96q-54 0 -88.5 -68t-34.5 -154q0 -96 75 -96z" />
    <glyph glyph-name="p" unicode="p" 
d="M-93 -162l21 94h31q9 0 19 8.5t12 16.5l99 436q2 8 -3.5 17t-13.5 9h-31l21 93q56 20 122 20q43 0 66.5 -21.5t24.5 -64.5q79 90 174 90q66 0 107 -45.5t41 -130.5q0 -76 -23.5 -147.5t-68.5 -120.5q-72 -81 -184 -81q-83 0 -131 43l-28 -122h58l-22 -94h-291zM344 408
q-40 0 -81 -31l-57 -251q30 -15 68 -15q69 0 107 62t38 151q0 84 -75 84z" />
    <glyph glyph-name="q" unicode="q" horiz-adv-x="582" 
d="M210 -162l22 94h57l33 146q-67 -67 -159 -67q-73 0 -115 44.5t-42 127.5q0 157 93 262q81 90 197 90q49 0 79.5 -16.5t53.5 -49.5q46 57 93 57h80l-129 -569q-2 -8 4.5 -16.5t14.5 -8.5h33l-22 -94h-293zM252 113q44 0 88 42l55 248q-26 13 -61 13q-70 0 -110 -66
t-40 -156q0 -81 68 -81z" />
    <glyph glyph-name="r" unicode="r" horiz-adv-x="405" 
d="M27 0q-11 0 -17.5 9.5t-3.5 22.5l83 361q2 8 -3.5 17t-13.5 9h-31l21 93q56 20 122 20q92 0 88 -97q62 96 151 96q16 0 31 -5l-32 -138h-21q-81 0 -146 -48l-78 -340h-150z" />
    <glyph glyph-name="s" unicode="s" horiz-adv-x="435" 
d="M169 -7q-126 0 -203 42l27 116h87q11 -27 29 -41t54 -14q32 0 53 13t21 39q0 5 -1 10t-4 9t-6 7t-8.5 6t-9.5 5.5t-11.5 5t-12.5 4.5t-14.5 5t-14.5 5q-115 40 -115 142q0 91 62 138.5t166 47.5q107 0 187 -36l-27 -118h-86q-20 52 -80 52q-69 0 -69 -49
q0 -20 17.5 -31.5t58.5 -25.5q64 -22 98.5 -54t34.5 -92q0 -89 -62 -137.5t-171 -48.5z" />
    <glyph glyph-name="t" unicode="t" horiz-adv-x="337" 
d="M41 419l24 107h54l32 139h178l-32 -139h87l-24 -107h-88l-56 -248q-17 -70 53 -70h23l-22 -96q-42 -14 -90 -14q-90 0 -126.5 45t-16.5 131l58 252h-54z" />
    <glyph glyph-name="u" unicode="u" 
d="M431 -8q-106 0 -103 88q-90 -88 -186 -88q-68 0 -97.5 43t-13.5 114l56 244q2 8 -3 17t-13 9h-30l21 93q59 21 120 21q56 0 78.5 -34.5t8.5 -90.5l-53 -231q-12 -57 40 -57q36 0 83 29l87 377h150q12 0 18 -9t3 -23l-85 -368q-2 -8 4 -16.5t14 -8.5h28l-19 -88
q-44 -21 -108 -21z" />
    <glyph glyph-name="v" unicode="v" horiz-adv-x="537" 
d="M138 0l-53 397q-1 9 -7.5 15.5t-13.5 6.5h-23l21 93q53 21 103 21q48 0 68.5 -23t24.5 -72l23 -273h2q102 160 141 361h151l-23 -101q-59 -132 -114.5 -229t-144.5 -196h-155z" />
    <glyph glyph-name="w" unicode="w" horiz-adv-x="779" 
d="M103 0l-20 397q-1 8 -7.5 15t-13.5 7h-21l21 93q53 21 101 21q49 0 69 -22.5t21 -72.5l5 -231h2l138 319h136l22 -336h3q74 131 110 336h149l-23 -101q-91 -251 -238 -425h-133l-16 309h-2l-144 -309h-159z" />
    <glyph glyph-name="x" unicode="x" horiz-adv-x="506" 
d="M-33 0l23 101q70 19 169 150l-76 151q-9 17 -22 17h-27l20 93q42 20 88 20q48 0 71 -18t48 -77l33 -77q76 123 134 166h111l-23 -107q-63 -16 -166 -146l75 -150q11 -22 29 -22h24l-20 -88q-37 -21 -84 -21q-48 0 -72.5 19t-47.5 67l-41 86q-67 -111 -130 -164h-116z" />
    <glyph glyph-name="y" unicode="y" horiz-adv-x="587" 
d="M183 -172q-131 0 -206 30l29 120h102q21 -44 85 -44q97 0 118 90l16 72q-81 -70 -176 -70q-69 0 -99.5 40.5t-14.5 107.5l50 219q2 8 -3 17t-13 9h-30l21 93q59 21 120 21q56 0 78.5 -34.5t8.5 -90.5l-48 -211q-13 -57 39 -57q38 0 84 28l82 358h150q12 0 18 -9t3 -23
l-109 -471q-23 -99 -96.5 -147t-208.5 -48z" />
    <glyph glyph-name="z" unicode="z" horiz-adv-x="487" 
d="M-47 0l26 112l328 305h-132l-35 -77h-98l43 186h451l-26 -115l-331 -305h139l32 77h102l-42 -183h-457z" />
    <glyph glyph-name="braceleft" unicode="{" horiz-adv-x="334" 
d="M174 -49q-74 0 -108 37.5t-19 102.5l36 156q5 22 -3.5 38t-33.5 16h-26l24 104h19q57 0 69 50l37 160q14 64 55 95t114 31h97l-24 -105h-60q-10 0 -20.5 -10t-12.5 -19l-35 -153q-18 -80 -120 -101v-3q90 -25 69 -117l-36 -151q-2 -10 4 -20t16 -10h60l-23 -101h-79z" />
    <glyph glyph-name="bar" unicode="|" horiz-adv-x="162" 
d="M46 -49v790h110v-790h-110z" />
    <glyph glyph-name="braceright" unicode="}" horiz-adv-x="334" 
d="M-61 -49l23 101h60q9 0 20.5 10.5t13.5 19.5l37 159q9 40 36.5 64t82.5 36v3q-90 26 -69 117l34 146q2 9 -4 19t-16 10h-60l24 105h79q74 0 108 -37.5t19 -102.5l-35 -154q-6 -22 3 -37.5t34 -15.5h26l-24 -104h-19q-58 0 -69 -51l-38 -162q-29 -126 -168 -126h-98z" />
    <glyph glyph-name="asciitilde" unicode="~" horiz-adv-x="364" 
d="M0 214l19 87q40 68 108 68q27 0 71.5 -11.5t55.5 -11.5q24 0 40 27h86l-20 -88q-40 -68 -109 -68q-26 0 -70 12.5t-55 12.5q-26 0 -40 -28h-86z" />
    <glyph glyph-name="exclamdown" unicode="&#xa1;" horiz-adv-x="223" 
d="M197 420l-45 -384l-24 -104h-185l24 104l144 384h86zM183 638q38 0 62.5 -24.5t24.5 -59.5q0 -38 -28.5 -65t-66.5 -27t-63 25t-25 60q0 39 28.5 65t67.5 26z" />
    <glyph glyph-name="cent" unicode="&#xa2;" horiz-adv-x="487" 
d="M150 -102l23 101q-82 16 -123.5 67.5t-41.5 129.5q0 142 80 232.5t209 103.5l15 66h109l-16 -66q70 -9 118 -30l-30 -132h-92q-8 26 -23 39t-47 13q-65 0 -106.5 -68.5t-41.5 -162.5q0 -91 83 -91q57 0 91 49h90l-28 -122q-66 -29 -139 -34l-22 -95h-108z" />
    <glyph glyph-name="sterling" unicode="&#xa3;" horiz-adv-x="520" 
d="M399 0q-173 0 -273 46q-32 -24 -89 -46h-87l23 100q57 12 89.5 59.5t33.5 127.5v12h-76l23 102h48q-2 32 -2 49q0 133 80 195.5t211 62.5q132 0 212 -43l-35 -155h-100q-17 70 -86 70q-70 0 -91 -79q-5 -17 -13 -100h147l-23 -102h-135q-3 -35 -11 -66q-11 -49 -30 -84
q73 -15 138 -15l28 68h115l-46 -202h-51z" />
    <glyph glyph-name="yen" unicode="&#xa5;" horiz-adv-x="618" 
d="M58 313l18 78h120l-71 182q-8 22 -26 22h-11l24 105h284l-25 -105h-57l55 -176h2l81 111q21 30 15 47.5t-33 17.5h-15l24 105h267l-25 -105h-16q-21 0 -42 -25l-146 -179h121l-19 -78h-168l-11 -52h167l-17 -79h-169l-11 -51q-3 -10 1.5 -20t14.5 -10h45l-23 -101h-327
l23 101h41q10 0 21 10t13 20l12 51h-167l18 79h167l12 52h-167z" />
    <glyph glyph-name="brokenbar" unicode="&#xa6;" horiz-adv-x="163" 
d="M37 -49v357h111l-1 -357h-110zM37 390v351h110l1 -351h-111z" />
    <glyph glyph-name="section" unicode="&#xa7;" horiz-adv-x="535" 
d="M186 -134q-119 0 -220 44l29 128h105q6 -34 25 -51t62 -17q34 0 54.5 17t20.5 44q0 22 -20 37t-81 40q-77 30 -111.5 64.5t-34.5 89.5q0 56 35 97.5t98 62.5q-28 34 -28 87q0 85 65 142.5t179 57.5q112 0 198 -39l-27 -120h-104q-7 28 -24 42t-58 14q-38 0 -56 -17.5
t-18 -43.5q0 -22 17 -35.5t75 -33.5q89 -31 128.5 -65.5t39.5 -89.5q0 -122 -139 -166q33 -36 33 -86q0 -93 -63 -148t-180 -55zM286 343q-42 14 -76 31q-50 -18 -50 -62q0 -21 18 -37t68 -34q46 -17 82 -36q50 20 50 64q0 22 -21 39t-71 35z" />
    <glyph glyph-name="dieresis" unicode="&#xa8;" horiz-adv-x="400" 
d="M382 561q-35 0 -56.5 21t-21.5 54q0 36 25.5 59t60.5 23t57 -21.5t22 -53.5q0 -36 -25.5 -59t-61.5 -23zM184 561q-34 0 -55.5 21t-21.5 54q0 36 25 59t61 23q35 0 56.5 -21.5t21.5 -53.5q0 -37 -25.5 -59.5t-61.5 -22.5z" />
    <glyph glyph-name="copyright" unicode="&#xa9;" horiz-adv-x="754" 
d="M398 -8q-150 0 -252.5 95.5t-102.5 262.5t102.5 262.5t252.5 95.5t252.5 -95.5t102.5 -262.5t-102.5 -262.5t-252.5 -95.5zM398 31q135 0 221.5 85t86.5 234t-86.5 234t-221.5 85t-221.5 -85t-86.5 -234t86.5 -234t221.5 -85zM406 150q-98 0 -150 50.5t-52 146.5
t52.5 150t139.5 54q39 0 67 -6h88v-136h-80l-12 55q-15 5 -37 5q-83 0 -83 -117q0 -121 78 -121q44 0 75 40h61v-81q-57 -40 -147 -40z" />
    <glyph glyph-name="ordfeminine" unicode="&#xaa;" horiz-adv-x="467" 
d="M165 254q-53 0 -88.5 32t-35.5 86q0 72 53 110t143 38q50 0 83 -10l9 35q6 27 -8 42t-50 15q-55 0 -92 -33h-74l26 114q73 25 175 25t149 -40t28 -121l-40 -178q-2 -7 3 -13.5t12 -6.5h21l-17 -75q-38 -21 -89 -21q-74 0 -87 58q-52 -57 -121 -57zM231 343q28 0 57 27
l17 74q-24 7 -47 7q-33 0 -51.5 -19.5t-18.5 -48.5q0 -40 43 -40z" />
    <glyph glyph-name="guillemotleft" unicode="&#xab;" horiz-adv-x="496" 
d="M337 40l-103 190l18 77l172 173h99l-12 -51l-130 -172v-3l52 -161l-12 -53h-84zM121 40l-104 191l18 77l172 172h99l-12 -51l-130 -171v-3l52 -162l-12 -53h-83z" />
    <glyph glyph-name="registered" unicode="&#xae;" horiz-adv-x="387" 
d="M256 350q-75 0 -128 48.5t-53 130.5t52.5 130.5t128.5 48.5q75 0 128 -48.5t53 -130.5t-53 -130.5t-128 -48.5zM256 383q62 0 102 38.5t40 107.5t-40 107.5t-102 38.5t-102 -38.5t-40 -107.5t40 -107.5t102 -38.5zM173 444v31h8q7 0 7 8v97q0 7 -7 7h-8v32h86
q76 0 76 -50q0 -30 -34 -40v-1q14 -2 21 -9.5t11 -24.5l4 -13q1 -6 6 -6h5v-31h-65l-6 48q-4 20 -22 20h-9v-37h17v-31h-90zM244 585v-43h11q22 0 22 22q0 21 -22 21h-11z" />
    <glyph glyph-name="macron" unicode="&#xaf;" horiz-adv-x="400" 
d="M137 580l24 105h275l-25 -105h-274z" />
    <glyph glyph-name="degree" unicode="&#xb0;" horiz-adv-x="347" 
d="M235 417q-62 0 -102.5 39t-40.5 99q0 68 47 109.5t112 41.5q61 0 102 -39t41 -97q0 -70 -47 -111.5t-112 -41.5zM239 482q34 0 57 23t23 63q0 33 -19.5 53.5t-52.5 20.5q-34 0 -56.5 -23t-22.5 -63q0 -33 19 -53.5t52 -20.5z" />
    <glyph glyph-name="twosuperior" unicode="&#xb2;" horiz-adv-x="323" 
d="M19 310l12 52q11 49 41.5 82t83.5 62q66 36 80 50q14 15 14 33q0 29 -34 29q-38 0 -59 -34h-65l23 101q58 21 124 21q69 0 106.5 -26.5t37.5 -74.5q0 -54 -31 -84.5t-91 -58.5q-73 -34 -88 -49q-7 -7 -10 -14h87l14 28h76l-27 -117h-294z" />
    <glyph glyph-name="threesuperior" unicode="&#xb3;" horiz-adv-x="319" 
d="M166 304q-91 0 -143 27l21 86h65q11 -34 51 -34q24 0 39 13t15 38q0 34 -45 34h-34l18 73h33q28 0 43 13t15 34q0 32 -38 32q-31 0 -53 -27h-63l23 94q60 19 117 19q67 0 103.5 -25t36.5 -69q0 -84 -97 -106v-2q34 -6 52 -25t18 -48q0 -60 -47.5 -93.5t-129.5 -33.5z" />
    <glyph glyph-name="acute" unicode="&#xb4;" horiz-adv-x="400" 
d="M212 560l49 140h171l-13 -53l-105 -87h-102z" />
    <glyph glyph-name="paragraph" unicode="&#xb6;" horiz-adv-x="558" 
d="M151 -91l90 392q-82 9 -128.5 50t-46.5 113q0 121 79 178.5t207 57.5h298l-25 -105h-35q-10 0 -21 -9.5t-13 -19.5l-152 -657h-96l158 685h-62l-158 -685h-95z" />
    <glyph glyph-name="periodcentered" unicode="&#xb7;" horiz-adv-x="212" 
d="M109 207q-37 0 -61.5 25t-24.5 59q0 39 28.5 65.5t66.5 26.5t62.5 -25t24.5 -60q0 -38 -28.5 -64.5t-67.5 -26.5z" />
    <glyph glyph-name="cedilla" unicode="&#xb8;" horiz-adv-x="400" 
d="M109 -175q-52 0 -88 18l14 60h41q6 -14 28 -14q28 0 28 20q0 19 -29 19h-21l17 72h68l-6 -25q69 -4 69 -64q0 -40 -33 -63t-88 -23z" />
    <glyph glyph-name="onesuperior" unicode="&#xb9;" horiz-adv-x="267" 
d="M25 310l17 70h41q4 0 10.5 5.5t8.5 9.5l47 203l-42 -21h-27l18 77l111 46h100l-71 -305q-2 -4 1 -9.5t8 -5.5h44l-17 -70h-249z" />
    <glyph glyph-name="ordmasculine" unicode="&#xba;" horiz-adv-x="471" 
d="M264 253q-100 0 -155 51.5t-55 139.5q0 114 74.5 189t182.5 75q98 0 153.5 -51t55.5 -139q0 -115 -72.5 -190t-183.5 -75zM267 348q45 0 71 54.5t26 127.5q0 76 -57 76q-43 0 -70.5 -54.5t-27.5 -126.5q0 -77 58 -77z" />
    <glyph glyph-name="guillemotright" unicode="&#xbb;" horiz-adv-x="497" 
d="M190 40l12 51l130 171v3l-52 162l12 53h84l103 -191l-18 -77l-171 -172h-100zM-27 40l12 51l130 172v3l-52 161l12 53h84l103 -190l-18 -77l-171 -173h-100z" />
    <glyph glyph-name="onequarter" unicode="&#xbc;" horiz-adv-x="733" 
d="M447 0l16 70h29q4 0 10.5 5.5t7.5 9.5l4 20h-160l20 84l210 201h128l-50 -213h43l-16 -72h-44l-4 -20q-1 -4 1.5 -9.5t7.5 -5.5h30l-16 -70h-217zM451 179v-2h85l25 107h-2zM25 310l17 70h41q4 0 10.5 5.5t8.5 9.5l47 203l-42 -21h-27l18 77l111 46h100l-71 -305
q-2 -4 1 -9.5t8 -5.5h44l-17 -70h-249zM20 -34l644 763h103l-643 -763h-104z" />
    <glyph glyph-name="onehalf" unicode="&#xbd;" horiz-adv-x="773" 
d="M397 0l12 52q11 49 41.5 82t83.5 62q66 36 80 50q14 15 14 33q0 29 -34 29q-38 0 -59 -34h-65l23 101q58 21 124 21q69 0 106.5 -26.5t37.5 -74.5q0 -54 -31 -84.5t-91 -58.5q-73 -34 -88 -49q-7 -7 -10 -14h87l14 28h76l-27 -117h-294zM25 310l17 70h41q4 0 10.5 5.5
t8.5 9.5l47 203l-42 -21h-27l18 77l111 46h100l-71 -305q-2 -4 1 -9.5t8 -5.5h44l-17 -70h-249zM14 -34l644 763h103l-643 -763h-104z" />
    <glyph glyph-name="threequarters" unicode="&#xbe;" horiz-adv-x="737" 
d="M166 304q-91 0 -143 27l21 86h65q11 -34 51 -34q24 0 39 13t15 38q0 34 -45 34h-34l18 73h33q28 0 43 13t15 34q0 32 -38 32q-31 0 -53 -27h-63l23 94q60 19 117 19q67 0 103.5 -25t36.5 -69q0 -84 -97 -106v-2q34 -6 52 -25t18 -48q0 -60 -47.5 -93.5t-129.5 -33.5z
M450 0l16 70h29q4 0 10.5 5.5t7.5 9.5l4 20h-160l20 84l210 201h128l-50 -213h43l-16 -72h-44l-4 -20q-1 -4 1.5 -9.5t7.5 -5.5h30l-16 -70h-217zM454 179v-2h85l25 107h-2zM30 -34l644 763h103l-643 -763h-104z" />
    <glyph glyph-name="questiondown" unicode="&#xbf;" horiz-adv-x="447" 
d="M321 462q-38 0 -63 25t-25 60q0 38 29 64.5t67 26.5q37 0 62 -25t25 -59q0 -38 -28.5 -65t-66.5 -27zM181 -78q-100 0 -153.5 41.5t-53.5 112.5t37.5 115.5t112.5 88.5q39 24 55 35t37.5 29t29.5 35.5t10 40.5h105q1 -61 -19 -103t-75 -88q-5 -4 -24 -18.5t-29.5 -24
t-24.5 -25t-21 -32.5t-7 -35q0 -22 13.5 -35.5t38.5 -13.5q53 0 84 56h101l-33 -146q-84 -33 -184 -33z" />
    <glyph glyph-name="Agrave" unicode="&#xc0;" horiz-adv-x="731" 
d="M-50 0l23 101h17q28 0 46 31l251 434q15 29 -8 29h-48l24 105h331l51 -574q1 -10 9.5 -17.5t17.5 -7.5h21l-24 -101h-321l23 101h86l-9 114h-217l-14 -24q-16 -30 -20.5 -49.5t3.5 -30t32 -10.5h33l-23 -101h-284zM415 564l-140 -253h159l-17 253h-2zM410 733l-89 87
l12 53h146l27 -140h-96z" />
    <glyph glyph-name="Aacute" unicode="&#xc1;" horiz-adv-x="731" 
d="M-50 0l23 101h17q28 0 46 31l251 434q15 29 -8 29h-48l24 105h331l51 -574q1 -10 9.5 -17.5t17.5 -7.5h21l-24 -101h-321l23 101h86l-9 114h-217l-14 -24q-16 -30 -20.5 -49.5t3.5 -30t32 -10.5h33l-23 -101h-284zM415 564l-140 -253h159l-17 253h-2zM391 733l49 140h171
l-13 -53l-105 -87h-102z" />
    <glyph glyph-name="Acircumflex" unicode="&#xc2;" horiz-adv-x="731" 
d="M-50 0l23 101h17q28 0 46 31l251 434q15 29 -8 29h-48l24 105h331l51 -574q1 -10 9.5 -17.5t17.5 -7.5h21l-24 -101h-321l23 101h86l-9 114h-217l-14 -24q-16 -30 -20.5 -49.5t3.5 -30t32 -10.5h33l-23 -101h-284zM415 564l-140 -253h159l-17 253h-2zM310 733l9 38
l90 102h128l57 -102l-9 -38h-65l-60 54l-82 -54h-68z" />
    <glyph glyph-name="Atilde" unicode="&#xc3;" horiz-adv-x="731" 
d="M-50 0l23 101h17q28 0 46 31l251 434q15 29 -8 29h-48l24 105h331l51 -574q1 -10 9.5 -17.5t17.5 -7.5h21l-24 -101h-321l23 101h86l-9 114h-217l-14 -24q-16 -30 -20.5 -49.5t3.5 -30t32 -10.5h33l-23 -101h-284zM415 564l-140 -253h159l-17 253h-2zM281 733l16 73
q36 62 106 62q25 0 69.5 -10t55.5 -10q29 0 43 25h78l-17 -74q-38 -63 -107 -63q-25 0 -69.5 12t-55.5 12q-27 0 -42 -27h-77z" />
    <glyph glyph-name="Adieresis" unicode="&#xc4;" horiz-adv-x="731" 
d="M-50 0l23 101h17q28 0 46 31l251 434q15 29 -8 29h-48l24 105h331l51 -574q1 -10 9.5 -17.5t17.5 -7.5h21l-24 -101h-321l23 101h86l-9 114h-217l-14 -24q-16 -30 -20.5 -49.5t3.5 -30t32 -10.5h33l-23 -101h-284zM415 564l-140 -253h159l-17 253h-2zM561 734
q-35 0 -56.5 21t-21.5 54q0 36 25.5 59t60.5 23t57 -21.5t22 -53.5q0 -36 -25.5 -59t-61.5 -23zM363 734q-34 0 -55.5 21t-21.5 54q0 36 25 59t61 23q35 0 56.5 -21.5t21.5 -53.5q0 -37 -25.5 -59.5t-61.5 -22.5z" />
    <glyph glyph-name="Aring" unicode="&#xc5;" horiz-adv-x="731" 
d="M-50 0l23 101h17q28 0 46 31l251 434q15 29 -8 29h-48l24 105h331l51 -574q1 -10 9.5 -17.5t17.5 -7.5h21l-24 -101h-321l23 101h86l-9 114h-217l-14 -24q-16 -30 -20.5 -49.5t3.5 -30t32 -10.5h33l-23 -101h-284zM415 564l-140 -253h159l-17 253h-2zM456 735
q-44 0 -73.5 26.5t-29.5 69.5q0 50 33 79t79 29q43 0 72 -27t29 -69q0 -50 -32.5 -79t-77.5 -29zM457 785q23 0 38 15t15 40q0 22 -13 36t-35 14q-23 0 -37.5 -15.5t-14.5 -42.5q0 -21 12.5 -34t34.5 -13z" />
    <glyph glyph-name="AE" unicode="&#xc6;" horiz-adv-x="974" 
d="M1052 700l-47 -207h-112l3 94h-178l-41 -178h84l21 61h103l-53 -229h-101l6 62h-84l-45 -194h187l41 112h118l-50 -221h-572l23 101h61l26 114h-203l-19 -25q-31 -43 -27.5 -66t41.5 -23h29l-23 -101h-292l23 101h20q25 0 48 31l329 434q7 10 3.5 19.5t-14.5 9.5h-44
l24 105h715zM520 587l-209 -276h153l64 276h-8z" />
    <glyph glyph-name="Ccedilla" unicode="&#xc7;" horiz-adv-x="621" 
d="M230 -175q-52 0 -88 18l14 60h40q8 -14 28 -14q29 0 29 20q0 19 -30 19h-20l17 75q-94 24 -142.5 91.5t-48.5 169.5q0 124 53.5 225.5t148.5 160.5t212 59q66 0 104 -9h153l-55 -237h-120v109q-32 13 -68 13q-100 0 -167 -87.5t-67 -233.5q0 -150 121 -150q48 0 81.5 18
t68.5 54h93l-31 -136q-100 -59 -230 -59q-14 0 -40 2l-4 -18q69 -4 69 -64q0 -40 -33 -63t-88 -23z" />
    <glyph glyph-name="Egrave" unicode="&#xc8;" horiz-adv-x="598" 
d="M676 700l-48 -207h-112l4 94h-182l-41 -178h88l21 61h103l-53 -229h-101l6 62h-89l-44 -194h190l42 112h118l-51 -221h-576l23 101h35q10 0 21 10.5t13 19.5l100 435q2 10 -2.5 19.5t-14.5 9.5h-39l25 105h564zM371 733l-89 87l12 53h146l27 -140h-96z" />
    <glyph glyph-name="Eacute" unicode="&#xc9;" horiz-adv-x="598" 
d="M352 733l49 140h171l-13 -53l-105 -87h-102zM676 700l-48 -207h-112l4 94h-182l-41 -178h88l21 61h103l-53 -229h-101l6 62h-89l-44 -194h190l42 112h118l-51 -221h-576l23 101h35q10 0 21 10.5t13 19.5l100 435q2 10 -2.5 19.5t-14.5 9.5h-39l25 105h564z" />
    <glyph glyph-name="Ecircumflex" unicode="&#xca;" horiz-adv-x="598" 
d="M271 733l9 38l90 102h128l57 -102l-9 -38h-65l-60 54l-82 -54h-68zM676 700l-48 -207h-112l4 94h-182l-41 -178h88l21 61h103l-53 -229h-101l6 62h-89l-44 -194h190l42 112h118l-51 -221h-576l23 101h35q10 0 21 10.5t13 19.5l100 435q2 10 -2.5 19.5t-14.5 9.5h-39
l25 105h564z" />
    <glyph glyph-name="Edieresis" unicode="&#xcb;" horiz-adv-x="598" 
d="M522 734q-35 0 -56.5 21t-21.5 54q0 36 25.5 59t60.5 23t57 -21.5t22 -53.5q0 -36 -25.5 -59t-61.5 -23zM324 734q-34 0 -55.5 21t-21.5 54q0 36 25 59t61 23q35 0 56.5 -21.5t21.5 -53.5q0 -37 -25.5 -59.5t-61.5 -22.5zM676 700l-48 -207h-112l4 94h-182l-41 -178h88
l21 61h103l-53 -229h-101l6 62h-89l-44 -194h190l42 112h118l-51 -221h-576l23 101h35q10 0 21 10.5t13 19.5l100 435q2 10 -2.5 19.5t-14.5 9.5h-39l25 105h564z" />
    <glyph glyph-name="Igrave" unicode="&#xcc;" horiz-adv-x="349" 
d="M-49 0l23 101h42q9 0 20 10.5t13 19.5l100 435q2 10 -2.5 19.5t-13.5 9.5h-46l25 105h328l-24 -105h-43q-10 0 -20.5 -9.5t-12.5 -19.5l-100 -435q-2 -10 2.5 -20t13.5 -10h46l-23 -101h-328zM244 733l-89 87l12 53h146l27 -140h-96z" />
    <glyph glyph-name="Iacute" unicode="&#xcd;" horiz-adv-x="349" 
d="M-49 0l23 101h42q9 0 20 10.5t13 19.5l100 435q2 10 -2.5 19.5t-13.5 9.5h-46l25 105h328l-24 -105h-43q-10 0 -20.5 -9.5t-12.5 -19.5l-100 -435q-2 -10 2.5 -20t13.5 -10h46l-23 -101h-328zM225 733l49 140h171l-13 -53l-105 -87h-102z" />
    <glyph glyph-name="Icircumflex" unicode="&#xce;" horiz-adv-x="349" 
d="M-49 0l23 101h42q9 0 20 10.5t13 19.5l100 435q2 10 -2.5 19.5t-13.5 9.5h-46l25 105h328l-24 -105h-43q-10 0 -20.5 -9.5t-12.5 -19.5l-100 -435q-2 -10 2.5 -20t13.5 -10h46l-23 -101h-328zM144 733l9 38l90 102h128l57 -102l-9 -38h-65l-60 54l-82 -54h-68z" />
    <glyph glyph-name="Idieresis" unicode="&#xcf;" horiz-adv-x="349" 
d="M-49 0l23 101h42q9 0 20 10.5t13 19.5l100 435q2 10 -2.5 19.5t-13.5 9.5h-46l25 105h328l-24 -105h-43q-10 0 -20.5 -9.5t-12.5 -19.5l-100 -435q-2 -10 2.5 -20t13.5 -10h46l-23 -101h-328zM395 734q-35 0 -56.5 21t-21.5 54q0 36 25.5 59t60.5 23t57 -21.5t22 -53.5
q0 -36 -25.5 -59t-61.5 -23zM197 734q-34 0 -55.5 21t-21.5 54q0 36 25 59t61 23q35 0 56.5 -21.5t21.5 -53.5q0 -37 -25.5 -59.5t-61.5 -22.5z" />
    <glyph glyph-name="Eth" unicode="&#xd0;" horiz-adv-x="707" 
d="M19 296l23 102h62l39 168q2 9 -3.5 19t-14.5 10h-38l25 105h282q156 0 240.5 -73t84.5 -210q0 -189 -117 -303t-328 -114h-323l23 101h34q10 0 21.5 10.5t13.5 19.5l38 165h-62zM228 106h57q113 0 178 86t65 235q0 161 -153 161h-37l-43 -190h122l-23 -102h-123z" />
    <glyph glyph-name="Ntilde" unicode="&#xd1;" horiz-adv-x="714" 
d="M-49 0l23 101h35q10 0 21 10.5t13 19.5l100 435q2 10 -2.5 19.5t-14.5 9.5h-39l25 105h249l146 -425h3l75 320h-71l25 105h268l-24 -105h-34q-9 0 -20 -10t-13 -19l-129 -566h-161l-166 465h-3l-83 -364h73l-23 -101h-273zM298 733l16 73q36 62 106 62q25 0 69.5 -10
t55.5 -10q29 0 43 25h78l-17 -74q-38 -63 -107 -63q-25 0 -69.5 12t-55.5 12q-27 0 -42 -27h-77z" />
    <glyph glyph-name="Ograve" unicode="&#xd2;" horiz-adv-x="715" 
d="M334 -9q-142 0 -224 75.5t-82 210.5q0 184 116 307.5t282 123.5q137 0 218.5 -76.5t81.5 -208.5q0 -191 -112 -311.5t-280 -120.5zM341 111q87 0 141 93.5t54 220.5q0 76 -31.5 116.5t-90.5 40.5q-88 0 -141.5 -92t-53.5 -222q0 -76 31.5 -116.5t90.5 -40.5zM413 741
l-89 87l12 53h146l27 -140h-96z" />
    <glyph glyph-name="Oacute" unicode="&#xd3;" horiz-adv-x="715" 
d="M394 741l49 140h171l-13 -53l-105 -87h-102zM334 -9q-142 0 -224 75.5t-82 210.5q0 184 116 307.5t282 123.5q137 0 218.5 -76.5t81.5 -208.5q0 -191 -112 -311.5t-280 -120.5zM341 111q87 0 141 93.5t54 220.5q0 76 -31.5 116.5t-90.5 40.5q-88 0 -141.5 -92t-53.5 -222
q0 -76 31.5 -116.5t90.5 -40.5z" />
    <glyph glyph-name="Ocircumflex" unicode="&#xd4;" horiz-adv-x="715" 
d="M313 741l9 38l90 102h128l57 -102l-9 -38h-65l-60 54l-82 -54h-68zM334 -9q-142 0 -224 75.5t-82 210.5q0 184 116 307.5t282 123.5q137 0 218.5 -76.5t81.5 -208.5q0 -191 -112 -311.5t-280 -120.5zM341 111q87 0 141 93.5t54 220.5q0 76 -31.5 116.5t-90.5 40.5
q-88 0 -141.5 -92t-53.5 -222q0 -76 31.5 -116.5t90.5 -40.5z" />
    <glyph glyph-name="Otilde" unicode="&#xd5;" horiz-adv-x="715" 
d="M334 -9q-142 0 -224 75.5t-82 210.5q0 184 116 307.5t282 123.5q137 0 218.5 -76.5t81.5 -208.5q0 -191 -112 -311.5t-280 -120.5zM341 111q87 0 141 93.5t54 220.5q0 76 -31.5 116.5t-90.5 40.5q-88 0 -141.5 -92t-53.5 -222q0 -76 31.5 -116.5t90.5 -40.5zM284 741
l16 73q36 62 106 62q25 0 69.5 -10t55.5 -10q29 0 43 25h78l-17 -74q-38 -63 -107 -63q-25 0 -69.5 12t-55.5 12q-27 0 -42 -27h-77z" />
    <glyph glyph-name="Odieresis" unicode="&#xd6;" horiz-adv-x="715" 
d="M559 723q-35 0 -56.5 21t-21.5 54q0 36 25.5 59t60.5 23t57 -21.5t22 -53.5q0 -36 -25.5 -59t-61.5 -23zM361 723q-34 0 -55.5 21t-21.5 54q0 36 25 59t61 23q35 0 56.5 -21.5t21.5 -53.5q0 -37 -25.5 -59.5t-61.5 -22.5zM334 -9q-142 0 -224 75.5t-82 210.5
q0 184 116 307.5t282 123.5q137 0 218.5 -76.5t81.5 -208.5q0 -191 -112 -311.5t-280 -120.5zM341 111q87 0 141 93.5t54 220.5q0 76 -31.5 116.5t-90.5 40.5q-88 0 -141.5 -92t-53.5 -222q0 -76 31.5 -116.5t90.5 -40.5z" />
    <glyph glyph-name="multiply" unicode="&#xd7;" horiz-adv-x="520" 
d="M98 109l-77 93l169 142l-112 142l105 86l110 -141l166 141l76 -92l-167 -143l111 -141l-103 -87l-112 141z" />
    <glyph glyph-name="Oslash" unicode="&#xd8;" horiz-adv-x="715" 
d="M334 -9q-114 0 -189 48l-63 -68h-95l105 114q-64 75 -64 192q0 184 116 307.5t282 123.5q114 0 191 -54l62 67h95l-106 -115q58 -74 58 -183q0 -191 -112 -311.5t-280 -120.5zM215 268q0 -30 5 -45l290 315q-32 46 -95 46q-89 0 -144.5 -93t-55.5 -223zM341 109
q88 0 143 94.5t55 221.5q0 24 -4 37l-288 -312q32 -41 94 -41z" />
    <glyph glyph-name="Ugrave" unicode="&#xd9;" horiz-adv-x="714" 
d="M337 -8q-160 0 -226 73.5t-36 204.5l67 296q2 10 -2.5 19.5t-13.5 9.5h-38l24 105h326l-24 -105h-74l-80 -347q-17 -74 9 -105t87 -31q64 0 96 31.5t49 106.5l79 345h-75l25 105h276l-24 -105h-34q-10 0 -21 -9.5t-13 -19.5l-75 -326q-29 -126 -100 -187t-202 -61z
M441 733l-89 87l12 53h146l27 -140h-96z" />
    <glyph glyph-name="Uacute" unicode="&#xda;" horiz-adv-x="714" 
d="M422 733l49 140h171l-13 -53l-105 -87h-102zM337 -8q-160 0 -226 73.5t-36 204.5l67 296q2 10 -2.5 19.5t-13.5 9.5h-38l24 105h326l-24 -105h-74l-80 -347q-17 -74 9 -105t87 -31q64 0 96 31.5t49 106.5l79 345h-75l25 105h276l-24 -105h-34q-10 0 -21 -9.5t-13 -19.5
l-75 -326q-29 -126 -100 -187t-202 -61z" />
    <glyph glyph-name="Ucircumflex" unicode="&#xdb;" horiz-adv-x="714" 
d="M341 733l9 38l90 102h128l57 -102l-9 -38h-65l-60 54l-82 -54h-68zM337 -8q-160 0 -226 73.5t-36 204.5l67 296q2 10 -2.5 19.5t-13.5 9.5h-38l24 105h326l-24 -105h-74l-80 -347q-17 -74 9 -105t87 -31q64 0 96 31.5t49 106.5l79 345h-75l25 105h276l-24 -105h-34
q-10 0 -21 -9.5t-13 -19.5l-75 -326q-29 -126 -100 -187t-202 -61z" />
    <glyph glyph-name="Udieresis" unicode="&#xdc;" horiz-adv-x="714" 
d="M592 734q-35 0 -56.5 21t-21.5 54q0 36 25.5 59t60.5 23t57 -21.5t22 -53.5q0 -36 -25.5 -59t-61.5 -23zM394 734q-34 0 -55.5 21t-21.5 54q0 36 25 59t61 23q35 0 56.5 -21.5t21.5 -53.5q0 -37 -25.5 -59.5t-61.5 -22.5zM337 -8q-160 0 -226 73.5t-36 204.5l67 296
q2 10 -2.5 19.5t-13.5 9.5h-38l24 105h326l-24 -105h-74l-80 -347q-17 -74 9 -105t87 -31q64 0 96 31.5t49 106.5l79 345h-75l25 105h276l-24 -105h-34q-10 0 -21 -9.5t-13 -19.5l-75 -326q-29 -126 -100 -187t-202 -61z" />
    <glyph glyph-name="Yacute" unicode="&#xdd;" horiz-adv-x="669" 
d="M118 0l23 101h41q10 0 21 10.5t13 19.5l35 155l-118 287q-8 22 -24 22h-22l25 105h302l-24 -105h-71l76 -201h3l101 135q23 31 17 48.5t-37 17.5h-20l24 105h278l-24 -105h-15q-22 0 -45 -27l-238 -292l-32 -145q-3 -10 1.5 -20t14.5 -10h44l-23 -101h-326zM394 733
l49 140h171l-13 -53l-105 -87h-102z" />
    <glyph glyph-name="Thorn" unicode="&#xde;" horiz-adv-x="622" 
d="M-49 0l23 101h34q10 0 21.5 10.5t13.5 19.5l100 435q2 9 -3.5 19t-14.5 10h-38l25 105h324l-25 -105h-70l-14 -56h65q240 0 240 -154q0 -112 -81 -167t-219 -55h-91l-14 -62h76l-23 -101h-329zM358 436h-55l-41 -177h67q55 0 82 29.5t27 78.5q0 69 -80 69z" />
    <glyph glyph-name="germandbls" unicode="&#xdf;" horiz-adv-x="638" 
d="M-100 -162l21 94q58 16 75 99l105 484q20 89 94 142t202 53q101 0 165.5 -37t64.5 -100q0 -39 -22.5 -67.5t-65.5 -57.5q-49 -31 -72.5 -51t-23.5 -34q0 -3 0.5 -5.5t2 -5.5t3.5 -5t5.5 -5t7 -5.5t9.5 -7t11.5 -8t14.5 -10t17 -11.5q44 -29 67.5 -58.5t23.5 -71.5
q0 -75 -59.5 -126t-162.5 -51q-87 0 -157 34l27 117h89q9 -49 52 -49q21 0 35.5 10.5t14.5 29.5q0 5 -1.5 10t-5.5 9.5t-7.5 8t-11 8.5t-12.5 8.5t-15.5 9.5t-16.5 10q-47 30 -66.5 54.5t-19.5 61.5q0 61 83 136q55 52 65 71q9 15 9 29q0 21 -16 33.5t-44 12.5
q-86 0 -106 -95l-107 -474q-32 -144 -155 -190h-117z" />
    <glyph glyph-name="agrave" unicode="&#xe0;" horiz-adv-x="537" 
d="M129 -6q-64 0 -102 35t-38 100q0 88 62.5 136t164.5 48q58 0 99 -12l10 45q7 33 -9.5 50.5t-59.5 17.5q-27 0 -48.5 -6.5t-32.5 -13.5t-29 -22h-80l30 132q97 31 202 31q121 0 174 -47t31 -140l-51 -222q-2 -8 4 -16.5t14 -8.5h25l-19 -85q-43 -24 -102 -24q-84 0 -99 68
q-58 -66 -146 -66zM208 95q33 0 66 31l22 94q-26 7 -54 7q-40 0 -62.5 -23t-22.5 -58q0 -51 51 -51zM284 560l-89 87l12 53h146l27 -140h-96z" />
    <glyph glyph-name="aacute" unicode="&#xe1;" horiz-adv-x="537" 
d="M129 -6q-64 0 -102 35t-38 100q0 88 62.5 136t164.5 48q58 0 99 -12l10 45q7 33 -9.5 50.5t-59.5 17.5q-27 0 -48.5 -6.5t-32.5 -13.5t-29 -22h-80l30 132q97 31 202 31q121 0 174 -47t31 -140l-51 -222q-2 -8 4 -16.5t14 -8.5h25l-19 -85q-43 -24 -102 -24q-84 0 -99 68
q-58 -66 -146 -66zM208 95q33 0 66 31l22 94q-26 7 -54 7q-40 0 -62.5 -23t-22.5 -58q0 -51 51 -51zM265 560l49 140h171l-13 -53l-105 -87h-102z" />
    <glyph glyph-name="acircumflex" unicode="&#xe2;" horiz-adv-x="537" 
d="M129 -6q-64 0 -102 35t-38 100q0 88 62.5 136t164.5 48q58 0 99 -12l10 45q7 33 -9.5 50.5t-59.5 17.5q-27 0 -48.5 -6.5t-32.5 -13.5t-29 -22h-80l30 132q97 31 202 31q121 0 174 -47t31 -140l-51 -222q-2 -8 4 -16.5t14 -8.5h25l-19 -85q-43 -24 -102 -24q-84 0 -99 68
q-58 -66 -146 -66zM208 95q33 0 66 31l22 94q-26 7 -54 7q-40 0 -62.5 -23t-22.5 -58q0 -51 51 -51zM184 560l9 38l90 102h128l57 -102l-9 -38h-65l-60 54l-82 -54h-68z" />
    <glyph glyph-name="atilde" unicode="&#xe3;" horiz-adv-x="537" 
d="M129 -6q-64 0 -102 35t-38 100q0 88 62.5 136t164.5 48q58 0 99 -12l10 45q7 33 -9.5 50.5t-59.5 17.5q-27 0 -48.5 -6.5t-32.5 -13.5t-29 -22h-80l30 132q97 31 202 31q121 0 174 -47t31 -140l-51 -222q-2 -8 4 -16.5t14 -8.5h25l-19 -85q-43 -24 -102 -24q-84 0 -99 68
q-58 -66 -146 -66zM208 95q33 0 66 31l22 94q-26 7 -54 7q-40 0 -62.5 -23t-22.5 -58q0 -51 51 -51zM147 560l16 73q36 62 106 62q25 0 69.5 -10t55.5 -10q29 0 43 25h78l-17 -74q-38 -63 -107 -63q-25 0 -69.5 12t-55.5 12q-27 0 -42 -27h-77z" />
    <glyph glyph-name="adieresis" unicode="&#xe4;" horiz-adv-x="537" 
d="M129 -6q-64 0 -102 35t-38 100q0 88 62.5 136t164.5 48q58 0 99 -12l10 45q7 33 -9.5 50.5t-59.5 17.5q-27 0 -48.5 -6.5t-32.5 -13.5t-29 -22h-80l30 132q97 31 202 31q121 0 174 -47t31 -140l-51 -222q-2 -8 4 -16.5t14 -8.5h25l-19 -85q-43 -24 -102 -24q-84 0 -99 68
q-58 -66 -146 -66zM208 95q33 0 66 31l22 94q-26 7 -54 7q-40 0 -62.5 -23t-22.5 -58q0 -51 51 -51zM427 561q-35 0 -56.5 21t-21.5 54q0 36 25.5 59t60.5 23t57 -21.5t22 -53.5q0 -36 -25.5 -59t-61.5 -23zM229 561q-34 0 -55.5 21t-21.5 54q0 36 25 59t61 23
q35 0 56.5 -21.5t21.5 -53.5q0 -37 -25.5 -59.5t-61.5 -22.5z" />
    <glyph glyph-name="aring" unicode="&#xe5;" horiz-adv-x="537" 
d="M129 -6q-64 0 -102 35t-38 100q0 88 62.5 136t164.5 48q58 0 99 -12l10 45q7 33 -9.5 50.5t-59.5 17.5q-27 0 -48.5 -6.5t-32.5 -13.5t-29 -22h-80l30 132q97 31 202 31q121 0 174 -47t31 -140l-51 -222q-2 -8 4 -16.5t14 -8.5h25l-19 -85q-43 -24 -102 -24q-84 0 -99 68
q-58 -66 -146 -66zM208 95q33 0 66 31l22 94q-26 7 -54 7q-40 0 -62.5 -23t-22.5 -58q0 -51 51 -51zM330 562q-44 0 -73.5 26.5t-29.5 69.5q0 50 33 79t79 29q43 0 72 -27t29 -69q0 -50 -32.5 -79t-77.5 -29zM331 612q23 0 38 15t15 40q0 22 -13 36t-35 14
q-23 0 -37.5 -15.5t-14.5 -42.5q0 -21 12.5 -34t34.5 -13z" />
    <glyph glyph-name="ae" unicode="&#xe6;" horiz-adv-x="799" 
d="M141 -6q-72 0 -112 36t-40 102q0 86 60 133t160 47q59 0 101 -10l10 44q16 68 -64 68q-9 0 -17 -0.5t-14 -1.5t-13 -3t-11 -3t-10.5 -4.5t-9.5 -4.5t-9.5 -5.5t-8 -5.5t-8.5 -6t-8 -6h-81l30 130q97 31 202 31q111 0 149 -51q67 51 168 51q90 0 141.5 -41t51.5 -107
q0 -41 -16 -71.5t-44 -50t-72 -32t-93 -18t-115 -7.5q0 -58 18.5 -83t63.5 -25q67 0 102 49h92l-28 -121q-80 -36 -179 -36q-157 0 -211 91q-69 -89 -185 -89zM595 432q-44 0 -74 -37t-44 -98q89 6 128.5 24t39.5 58q0 24 -12.5 38.5t-37.5 14.5zM302 143q-6 29 -6 63v16
q-21 5 -59 5q-40 0 -60 -23t-20 -58q0 -51 53 -51q46 0 92 48z" />
    <glyph glyph-name="ccedilla" unicode="&#xe7;" horiz-adv-x="479" 
d="M158 -175q-54 0 -88 18l14 60h40q8 -14 28 -14q28 0 28 20q0 19 -29 19h-20l16 76q-140 40 -140 191q0 149 92.5 244.5t233.5 95.5q112 0 181 -33l-30 -130h-91q-8 24 -22.5 37t-45.5 13q-63 0 -103 -71.5t-40 -160.5q0 -90 76 -90q58 0 90 51h92l-29 -124
q-80 -35 -167 -35q-11 0 -31 2l-3 -19q69 -5 69 -64q0 -40 -33 -63t-88 -23z" />
    <glyph glyph-name="egrave" unicode="&#xe8;" horiz-adv-x="512" 
d="M248 -8q-121 0 -180 56.5t-59 153.5q0 143 92 238t225 95q92 0 143.5 -41t51.5 -107q0 -99 -86 -139.5t-255 -46.5q1 -101 78 -101q65 0 108 51h92l-29 -123q-76 -36 -181 -36zM307 431q-44 0 -74 -38.5t-44 -100.5q88 7 128 26.5t40 60.5q0 52 -50 52zM284 560l-89 87
l12 53h146l27 -140h-96z" />
    <glyph glyph-name="eacute" unicode="&#xe9;" horiz-adv-x="512" 
d="M265 560l49 140h171l-13 -53l-105 -87h-102zM248 -8q-121 0 -180 56.5t-59 153.5q0 143 92 238t225 95q92 0 143.5 -41t51.5 -107q0 -99 -86 -139.5t-255 -46.5q1 -101 78 -101q65 0 108 51h92l-29 -123q-76 -36 -181 -36zM307 431q-44 0 -74 -38.5t-44 -100.5
q88 7 128 26.5t40 60.5q0 52 -50 52z" />
    <glyph glyph-name="ecircumflex" unicode="&#xea;" horiz-adv-x="512" 
d="M184 560l9 38l90 102h128l57 -102l-9 -38h-65l-60 54l-82 -54h-68zM248 -8q-121 0 -180 56.5t-59 153.5q0 143 92 238t225 95q92 0 143.5 -41t51.5 -107q0 -99 -86 -139.5t-255 -46.5q1 -101 78 -101q65 0 108 51h92l-29 -123q-76 -36 -181 -36zM307 431q-44 0 -74 -38.5
t-44 -100.5q88 7 128 26.5t40 60.5q0 52 -50 52z" />
    <glyph glyph-name="edieresis" unicode="&#xeb;" horiz-adv-x="512" 
d="M435 561q-35 0 -56.5 21t-21.5 54q0 36 25.5 59t60.5 23t57 -21.5t22 -53.5q0 -36 -25.5 -59t-61.5 -23zM237 561q-34 0 -55.5 21t-21.5 54q0 36 25 59t61 23q35 0 56.5 -21.5t21.5 -53.5q0 -37 -25.5 -59.5t-61.5 -22.5zM248 -8q-121 0 -180 56.5t-59 153.5
q0 143 92 238t225 95q92 0 143.5 -41t51.5 -107q0 -99 -86 -139.5t-255 -46.5q1 -101 78 -101q65 0 108 51h92l-29 -123q-76 -36 -181 -36zM307 431q-44 0 -74 -38.5t-44 -100.5q88 7 128 26.5t40 60.5q0 52 -50 52z" />
    <glyph glyph-name="igrave" unicode="&#xec;" horiz-adv-x="299" 
d="M127 -8q-128 0 -98 129l63 272q2 8 -3.5 17t-13.5 9h-34l21 93q56 20 125 20q54 0 78 -29.5t11 -83.5l-68 -293q-2 -8 4 -16.5t14 -8.5h30l-19 -88q-44 -21 -110 -21zM174 560l-89 87l12 53h146l27 -140h-96z" />
    <glyph glyph-name="iacute" unicode="&#xed;" horiz-adv-x="299" 
d="M155 560l49 140h171l-13 -53l-105 -87h-102zM127 -8q-128 0 -98 129l63 272q2 8 -3.5 17t-13.5 9h-34l21 93q56 20 125 20q54 0 78 -29.5t11 -83.5l-68 -293q-2 -8 4 -16.5t14 -8.5h30l-19 -88q-44 -21 -110 -21z" />
    <glyph glyph-name="icircumflex" unicode="&#xee;" horiz-adv-x="299" 
d="M74 560l9 38l90 102h128l57 -102l-9 -38h-65l-60 54l-82 -54h-68zM127 -8q-128 0 -98 129l63 272q2 8 -3.5 17t-13.5 9h-34l21 93q56 20 125 20q54 0 78 -29.5t11 -83.5l-68 -293q-2 -8 4 -16.5t14 -8.5h30l-19 -88q-44 -21 -110 -21z" />
    <glyph glyph-name="idieresis" unicode="&#xef;" horiz-adv-x="299" 
d="M325 561q-35 0 -56.5 21t-21.5 54q0 36 25.5 59t60.5 23t57 -21.5t22 -53.5q0 -36 -25.5 -59t-61.5 -23zM127 561q-34 0 -55.5 21t-21.5 54q0 36 25 59t61 23q35 0 56.5 -21.5t21.5 -53.5q0 -37 -25.5 -59.5t-61.5 -22.5zM127 -8q-128 0 -98 129l63 272q2 8 -3.5 17
t-13.5 9h-34l21 93q56 20 125 20q54 0 78 -29.5t11 -83.5l-68 -293q-2 -8 4 -16.5t14 -8.5h30l-19 -88q-44 -21 -110 -21z" />
    <glyph glyph-name="eth" unicode="&#xf0;" horiz-adv-x="561" 
d="M169 518l7 27l55 40l-43 12l24 103h72q44 -15 69 -26l36 26h85l-6 -27l-49 -37q140 -100 140 -291q0 -167 -86 -259.5t-223 -92.5q-115 0 -179 60t-64 162q0 125 77 204t168 79q73 0 111 -41q-21 58 -65 92l-43 -31h-86zM256 99q55 0 89 64.5t34 144.5q0 92 -75 92
q-54 0 -88.5 -63t-34.5 -142q0 -96 75 -96z" />
    <glyph glyph-name="ntilde" unicode="&#xf1;" horiz-adv-x="604" 
d="M436 -8q-129 0 -97 129l51 224q12 52 -37 52q-40 0 -92 -33l-84 -364h-150q-11 0 -17.5 9.5t-3.5 22.5l83 361q2 8 -3.5 17t-13.5 9h-31l21 93q56 20 122 20q94 0 91 -94q103 97 202 97q64 0 91 -37.5t12 -100.5l-63 -271q-2 -8 4 -16.5t14 -8.5h27l-19 -88
q-44 -21 -107 -21zM193 560l16 73q36 62 106 62q25 0 69.5 -10t55.5 -10q29 0 43 25h78l-17 -74q-38 -63 -107 -63q-25 0 -69.5 12t-55.5 12q-27 0 -42 -27h-77z" />
    <glyph glyph-name="ograve" unicode="&#xf2;" horiz-adv-x="560" 
d="M253 -7q-116 0 -180.5 61t-64.5 166q0 137 87 226t214 89q116 0 180 -61t64 -166q0 -138 -84.5 -226.5t-215.5 -88.5zM257 101q55 0 88.5 67t33.5 155q0 96 -74 96q-54 0 -88.5 -68t-34.5 -154q0 -96 75 -96zM288 560l-89 87l12 53h146l27 -140h-96z" />
    <glyph glyph-name="oacute" unicode="&#xf3;" horiz-adv-x="560" 
d="M269 560l49 140h171l-13 -53l-105 -87h-102zM253 -7q-116 0 -180.5 61t-64.5 166q0 137 87 226t214 89q116 0 180 -61t64 -166q0 -138 -84.5 -226.5t-215.5 -88.5zM257 101q55 0 88.5 67t33.5 155q0 96 -74 96q-54 0 -88.5 -68t-34.5 -154q0 -96 75 -96z" />
    <glyph glyph-name="ocircumflex" unicode="&#xf4;" horiz-adv-x="560" 
d="M188 560l9 38l90 102h128l57 -102l-9 -38h-65l-60 54l-82 -54h-68zM253 -7q-116 0 -180.5 61t-64.5 166q0 137 87 226t214 89q116 0 180 -61t64 -166q0 -138 -84.5 -226.5t-215.5 -88.5zM257 101q55 0 88.5 67t33.5 155q0 96 -74 96q-54 0 -88.5 -68t-34.5 -154
q0 -96 75 -96z" />
    <glyph glyph-name="otilde" unicode="&#xf5;" horiz-adv-x="560" 
d="M253 -7q-116 0 -180.5 61t-64.5 166q0 137 87 226t214 89q116 0 180 -61t64 -166q0 -138 -84.5 -226.5t-215.5 -88.5zM257 101q55 0 88.5 67t33.5 155q0 96 -74 96q-54 0 -88.5 -68t-34.5 -154q0 -96 75 -96zM159 560l16 73q36 62 106 62q25 0 69.5 -10t55.5 -10
q29 0 43 25h78l-17 -74q-38 -63 -107 -63q-25 0 -69.5 12t-55.5 12q-27 0 -42 -27h-77z" />
    <glyph glyph-name="odieresis" unicode="&#xf6;" horiz-adv-x="560" 
d="M439 561q-35 0 -56.5 21t-21.5 54q0 36 25.5 59t60.5 23t57 -21.5t22 -53.5q0 -36 -25.5 -59t-61.5 -23zM241 561q-34 0 -55.5 21t-21.5 54q0 36 25 59t61 23q35 0 56.5 -21.5t21.5 -53.5q0 -37 -25.5 -59.5t-61.5 -22.5zM253 -7q-116 0 -180.5 61t-64.5 166
q0 137 87 226t214 89q116 0 180 -61t64 -166q0 -138 -84.5 -226.5t-215.5 -88.5zM257 101q55 0 88.5 67t33.5 155q0 96 -74 96q-54 0 -88.5 -68t-34.5 -154q0 -96 75 -96z" />
    <glyph glyph-name="divide" unicode="&#xf7;" horiz-adv-x="513" 
d="M306 444q-38 0 -62.5 25t-22.5 59q1 39 30 65.5t67 26.5t62.5 -25t22.5 -60q-1 -38 -30 -64.5t-67 -26.5zM18 280l31 131h485l-31 -131h-485zM233 71q-38 0 -62 25t-22 60q1 38 29.5 64.5t67.5 26.5q38 0 62.5 -25t22.5 -60q-1 -39 -30 -65t-68 -26z" />
    <glyph glyph-name="oslash" unicode="&#xf8;" horiz-adv-x="560" 
d="M-33 -29l92 97q-51 58 -51 153q0 134 87 224t214 90q90 0 152 -40l48 53h86l-88 -95q46 -57 46 -145q0 -135 -85 -225t-215 -90q-87 0 -146 35l-54 -57h-86zM256 99q56 0 90 62.5t36 147.5l-1 12l-182 -197q20 -25 57 -25zM181 196l183 199q-20 26 -58 26
q-54 0 -89.5 -64t-37.5 -146z" />
    <glyph glyph-name="ugrave" unicode="&#xf9;" 
d="M431 -8q-106 0 -103 88q-90 -88 -186 -88q-68 0 -97.5 43t-13.5 114l56 244q2 8 -3 17t-13 9h-30l21 93q59 21 120 21q56 0 78.5 -34.5t8.5 -90.5l-53 -231q-12 -57 40 -57q36 0 83 29l87 377h150q12 0 18 -9t3 -23l-85 -368q-2 -8 4 -16.5t14 -8.5h28l-19 -88
q-44 -21 -108 -21zM317 560l-89 87l12 53h146l27 -140h-96z" />
    <glyph glyph-name="uacute" unicode="&#xfa;" 
d="M298 560l49 140h171l-13 -53l-105 -87h-102zM431 -8q-106 0 -103 88q-90 -88 -186 -88q-68 0 -97.5 43t-13.5 114l56 244q2 8 -3 17t-13 9h-30l21 93q59 21 120 21q56 0 78.5 -34.5t8.5 -90.5l-53 -231q-12 -57 40 -57q36 0 83 29l87 377h150q12 0 18 -9t3 -23l-85 -368
q-2 -8 4 -16.5t14 -8.5h28l-19 -88q-44 -21 -108 -21z" />
    <glyph glyph-name="ucircumflex" unicode="&#xfb;" 
d="M217 560l9 38l90 102h128l57 -102l-9 -38h-65l-60 54l-82 -54h-68zM431 -8q-106 0 -103 88q-90 -88 -186 -88q-68 0 -97.5 43t-13.5 114l56 244q2 8 -3 17t-13 9h-30l21 93q59 21 120 21q56 0 78.5 -34.5t8.5 -90.5l-53 -231q-12 -57 40 -57q36 0 83 29l87 377h150
q12 0 18 -9t3 -23l-85 -368q-2 -8 4 -16.5t14 -8.5h28l-19 -88q-44 -21 -108 -21z" />
    <glyph glyph-name="udieresis" unicode="&#xfc;" 
d="M468 561q-35 0 -56.5 21t-21.5 54q0 36 25.5 59t60.5 23t57 -21.5t22 -53.5q0 -36 -25.5 -59t-61.5 -23zM270 561q-34 0 -55.5 21t-21.5 54q0 36 25 59t61 23q35 0 56.5 -21.5t21.5 -53.5q0 -37 -25.5 -59.5t-61.5 -22.5zM431 -8q-106 0 -103 88q-90 -88 -186 -88
q-68 0 -97.5 43t-13.5 114l56 244q2 8 -3 17t-13 9h-30l21 93q59 21 120 21q56 0 78.5 -34.5t8.5 -90.5l-53 -231q-12 -57 40 -57q36 0 83 29l87 377h150q12 0 18 -9t3 -23l-85 -368q-2 -8 4 -16.5t14 -8.5h28l-19 -88q-44 -21 -108 -21z" />
    <glyph glyph-name="yacute" unicode="&#xfd;" horiz-adv-x="587" 
d="M183 -172q-131 0 -206 30l29 120h102q21 -44 85 -44q97 0 118 90l16 72q-81 -70 -176 -70q-69 0 -99.5 40.5t-14.5 107.5l50 219q2 8 -3 17t-13 9h-30l21 93q59 21 120 21q56 0 78.5 -34.5t8.5 -90.5l-48 -211q-13 -57 39 -57q38 0 84 28l82 358h150q12 0 18 -9t3 -23
l-109 -471q-23 -99 -96.5 -147t-208.5 -48zM297 560l49 140h171l-13 -53l-105 -87h-102z" />
    <glyph glyph-name="thorn" unicode="&#xfe;" horiz-adv-x="576" 
d="M298 11q-85 0 -132 41l-27 -120h58l-22 -94h-291l22 94h30q8 0 18.5 8.5t12.5 16.5l140 612q2 8 -4 17t-13 9h-30l24 105h202q13 0 18.5 -10t1.5 -28l-47 -207q75 81 166 81q66 0 107 -45.5t41 -130.5q0 -76 -23.5 -147.5t-68.5 -120.5q-72 -81 -183 -81zM320 408
q-38 0 -79 -30l-58 -252q30 -15 67 -15q69 0 107 62t38 150q0 85 -75 85z" />
    <glyph glyph-name="ydieresis" unicode="&#xff;" horiz-adv-x="587" 
d="M183 -172q-131 0 -206 30l29 120h102q21 -44 85 -44q97 0 118 90l16 72q-81 -70 -176 -70q-69 0 -99.5 40.5t-14.5 107.5l50 219q2 8 -3 17t-13 9h-30l21 93q59 21 120 21q56 0 78.5 -34.5t8.5 -90.5l-48 -211q-13 -57 39 -57q38 0 84 28l82 358h150q12 0 18 -9t3 -23
l-109 -471q-23 -99 -96.5 -147t-208.5 -48zM467 561q-35 0 -56.5 21t-21.5 54q0 36 25.5 59t60.5 23t57 -21.5t22 -53.5q0 -36 -25.5 -59t-61.5 -23zM269 561q-34 0 -55.5 21t-21.5 54q0 36 25 59t61 23q35 0 56.5 -21.5t21.5 -53.5q0 -37 -25.5 -59.5t-61.5 -22.5z" />
    <glyph glyph-name="Amacron" unicode="&#x100;" horiz-adv-x="731" 
d="M-50 0l23 101h17q28 0 46 31l251 434q15 29 -8 29h-48l24 105h331l51 -574q1 -10 9.5 -17.5t17.5 -7.5h21l-24 -101h-321l23 101h86l-9 114h-217l-14 -24q-16 -30 -20.5 -49.5t3.5 -30t32 -10.5h33l-23 -101h-284zM415 564l-140 -253h159l-17 253h-2zM309 753l24 105h275
l-25 -105h-274z" />
    <glyph glyph-name="amacron" unicode="&#x101;" horiz-adv-x="537" 
d="M129 -6q-64 0 -102 35t-38 100q0 88 62.5 136t164.5 48q58 0 99 -12l10 45q7 33 -9.5 50.5t-59.5 17.5q-27 0 -48.5 -6.5t-32.5 -13.5t-29 -22h-80l30 132q97 31 202 31q121 0 174 -47t31 -140l-51 -222q-2 -8 4 -16.5t14 -8.5h25l-19 -85q-43 -24 -102 -24q-84 0 -99 68
q-58 -66 -146 -66zM208 95q33 0 66 31l22 94q-26 7 -54 7q-40 0 -62.5 -23t-22.5 -58q0 -51 51 -51zM190 580l24 105h275l-25 -105h-274z" />
    <glyph glyph-name="Abreve" unicode="&#x102;" horiz-adv-x="731" 
d="M-50 0l23 101h17q28 0 46 31l251 434q15 29 -8 29h-48l24 105h331l51 -574q1 -10 9.5 -17.5t17.5 -7.5h21l-24 -101h-321l23 101h86l-9 114h-217l-14 -24q-16 -30 -20.5 -49.5t3.5 -30t32 -10.5h33l-23 -101h-284zM415 564l-140 -253h159l-17 253h-2zM456 732
q-58 0 -90.5 26.5t-41.5 64.5l12 50h84q2 -39 42 -39t54 39h92l-14 -62q-44 -79 -138 -79z" />
    <glyph glyph-name="abreve" unicode="&#x103;" horiz-adv-x="537" 
d="M129 -6q-64 0 -102 35t-38 100q0 88 62.5 136t164.5 48q58 0 99 -12l10 45q7 33 -9.5 50.5t-59.5 17.5q-27 0 -48.5 -6.5t-32.5 -13.5t-29 -22h-80l30 132q97 31 202 31q121 0 174 -47t31 -140l-51 -222q-2 -8 4 -16.5t14 -8.5h25l-19 -85q-43 -24 -102 -24q-84 0 -99 68
q-58 -66 -146 -66zM208 95q33 0 66 31l22 94q-26 7 -54 7q-40 0 -62.5 -23t-22.5 -58q0 -51 51 -51zM319 559q-58 0 -90.5 26.5t-41.5 64.5l12 50h84q2 -39 42 -39t54 39h92l-14 -62q-44 -79 -138 -79z" />
    <glyph glyph-name="Aogonek" unicode="&#x104;" horiz-adv-x="731" 
d="M545 -167q-44 0 -69 18.5t-25 50.5q0 34 30.5 59t74.5 39h-216l23 101h86l-9 114h-217l-14 -24q-16 -30 -20.5 -49.5t3.5 -30t32 -10.5h33l-23 -101h-284l23 101h17q28 0 46 31l251 434q15 29 -8 29h-48l24 105h331l51 -574q1 -10 9.5 -17.5t17.5 -7.5h21l-24 -101h-40
q-45 -38 -45 -59q0 -22 35 -22h20l-17 -70q-32 -16 -69 -16zM415 564l-140 -253h159l-17 253h-2z" />
    <glyph glyph-name="aogonek" unicode="&#x105;" horiz-adv-x="537" 
d="M208 95q33 0 66 31l22 94q-26 7 -54 7q-40 0 -62.5 -23t-22.5 -58q0 -51 51 -51zM275 60q-58 -66 -146 -66q-64 0 -102 35t-38 100q0 88 62.5 136t164.5 48q58 0 99 -12l10 45q7 33 -9.5 50.5t-59.5 17.5q-27 0 -48.5 -6.5t-32.5 -13.5t-29 -22h-80l30 132q97 31 202 31
q121 0 174 -47t31 -140l-51 -222q-2 -8 4 -16.5t14 -8.5h25l-19 -85q-73 -43 -73 -74q0 -23 35 -23h20l-16 -70q-34 -16 -70 -16q-44 0 -69 18.5t-25 50.5q0 55 86 91q-75 3 -89 67z" />
    <glyph glyph-name="Cacute" unicode="&#x106;" horiz-adv-x="621" 
d="M402 741l49 140h171l-13 -53l-105 -87h-102zM326 -9q-145 0 -221 72.5t-76 200.5q0 124 53.5 225.5t148.5 160.5t212 59q66 0 104 -9h153l-55 -237h-120v109q-32 13 -68 13q-100 0 -167 -87.5t-67 -233.5q0 -150 121 -150q48 0 81.5 18t68.5 54h93l-31 -136
q-100 -59 -230 -59z" />
    <glyph glyph-name="cacute" unicode="&#x107;" horiz-adv-x="479" 
d="M272 560l49 140h171l-13 -53l-105 -87h-102zM244 -8q-118 0 -177.5 54t-59.5 149q0 149 92.5 244.5t233.5 95.5q112 0 181 -33l-30 -130h-91q-8 24 -22.5 37t-45.5 13q-63 0 -103 -71.5t-40 -160.5q0 -90 76 -90q58 0 90 51h92l-29 -124q-80 -35 -167 -35z" />
    <glyph glyph-name="Ccircumflex" unicode="&#x108;" horiz-adv-x="621" 
d="M321 741l9 38l90 102h128l57 -102l-9 -38h-65l-60 54l-82 -54h-68zM326 -9q-145 0 -221 72.5t-76 200.5q0 124 53.5 225.5t148.5 160.5t212 59q66 0 104 -9h153l-55 -237h-120v109q-32 13 -68 13q-100 0 -167 -87.5t-67 -233.5q0 -150 121 -150q48 0 81.5 18t68.5 54h93
l-31 -136q-100 -59 -230 -59z" />
    <glyph glyph-name="ccircumflex" unicode="&#x109;" horiz-adv-x="479" 
d="M191 560l9 38l90 102h128l57 -102l-9 -38h-65l-60 54l-82 -54h-68zM244 -8q-118 0 -177.5 54t-59.5 149q0 149 92.5 244.5t233.5 95.5q112 0 181 -33l-30 -130h-91q-8 24 -22.5 37t-45.5 13q-63 0 -103 -71.5t-40 -160.5q0 -90 76 -90q58 0 90 51h92l-29 -124
q-80 -35 -167 -35z" />
    <glyph glyph-name="Cdotaccent" unicode="&#x10a;" horiz-adv-x="621" 
d="M326 -9q-145 0 -221 72.5t-76 200.5q0 124 53.5 225.5t148.5 160.5t212 59q66 0 104 -9h153l-55 -237h-120v109q-32 13 -68 13q-100 0 -167 -87.5t-67 -233.5q0 -150 121 -150q48 0 81.5 18t68.5 54h93l-31 -136q-100 -59 -230 -59zM465 744q-37 0 -60 22t-23 56
q0 39 27 63.5t65 24.5q37 0 60 -22.5t23 -56.5q0 -39 -27 -63t-65 -24z" />
    <glyph glyph-name="cdotaccent" unicode="&#x10b;" horiz-adv-x="479" 
d="M244 -8q-118 0 -177.5 54t-59.5 149q0 149 92.5 244.5t233.5 95.5q112 0 181 -33l-30 -130h-91q-8 24 -22.5 37t-45.5 13q-63 0 -103 -71.5t-40 -160.5q0 -90 76 -90q58 0 90 51h92l-29 -124q-80 -35 -167 -35zM335 563q-37 0 -60 22t-23 56q0 39 27 63.5t65 24.5
q37 0 60 -22.5t23 -56.5q0 -39 -27 -63t-65 -24z" />
    <glyph glyph-name="Ccaron" unicode="&#x10c;" horiz-adv-x="621" 
d="M402 741l-57 102l9 38h65l60 -55l82 55h68l-9 -38l-90 -102h-128zM326 -9q-145 0 -221 72.5t-76 200.5q0 124 53.5 225.5t148.5 160.5t212 59q66 0 104 -9h153l-55 -237h-120v109q-32 13 -68 13q-100 0 -167 -87.5t-67 -233.5q0 -150 121 -150q48 0 81.5 18t68.5 54h93
l-31 -136q-100 -59 -230 -59z" />
    <glyph glyph-name="ccaron" unicode="&#x10d;" horiz-adv-x="479" 
d="M272 560l-57 102l9 38h65l60 -55l82 55h68l-9 -38l-90 -102h-128zM244 -8q-118 0 -177.5 54t-59.5 149q0 149 92.5 244.5t233.5 95.5q112 0 181 -33l-30 -130h-91q-8 24 -22.5 37t-45.5 13q-63 0 -103 -71.5t-40 -160.5q0 -90 76 -90q58 0 90 51h92l-29 -124
q-80 -35 -167 -35z" />
    <glyph glyph-name="Dcaron" unicode="&#x10e;" horiz-adv-x="707" 
d="M340 733l-57 102l9 38h65l60 -55l82 55h68l-9 -38l-90 -102h-128zM-49 0l23 101h34q10 0 21.5 10.5t13.5 19.5l100 435q2 9 -3.5 19t-14.5 10h-38l25 105h282q156 0 240.5 -73t84.5 -210q0 -189 -117 -303t-328 -114h-323zM228 106h57q113 0 178 86t65 235
q0 161 -153 161h-37z" />
    <glyph glyph-name="dcaron" unicode="&#x10f;" horiz-adv-x="597" 
d="M635 556l42 144h133l-11 -53l-72 -91h-92zM159 -9q-71 0 -113 46.5t-42 134.5q0 73 26.5 148.5t73.5 127.5q78 87 184 87q84 0 126 -48l26 108h-61l25 105h209q30 0 20 -38l-123 -536q-2 -8 3.5 -16.5t13.5 -8.5h27l-19 -88q-44 -21 -94 -21q-99 0 -111 79
q-73 -80 -171 -80zM251 103q40 0 84 37l60 262q-24 14 -62 14q-72 0 -111.5 -67.5t-39.5 -170.5q0 -75 69 -75z" />
    <glyph glyph-name="Dcroat" unicode="&#x110;" horiz-adv-x="707" 
d="M19 296l23 102h62l39 168q2 9 -3.5 19t-14.5 10h-38l25 105h282q156 0 240.5 -73t84.5 -210q0 -189 -117 -303t-328 -114h-323l23 101h34q10 0 21.5 10.5t13.5 19.5l38 165h-62zM228 106h57q113 0 178 86t65 235q0 161 -153 161h-37l-43 -190h122l-23 -102h-123z" />
    <glyph glyph-name="dcroat" unicode="&#x111;" horiz-adv-x="597" 
d="M344 556l19 83h87l14 61h149q29 0 21 -36l-6 -25h52l-19 -83h-52l-99 -430q-2 -8 3.5 -16.5t13.5 -8.5h27l-19 -88q-44 -21 -94 -21q-99 0 -111 79q-73 -80 -171 -80q-71 0 -113 46.5t-42 134.5q0 73 26.5 148.5t73.5 127.5q78 87 184 87q84 0 127 -48l16 69h-87z
M251 103q40 0 84 37l60 262q-24 14 -62 14q-72 0 -111.5 -67.5t-39.5 -170.5q0 -75 69 -75z" />
    <glyph glyph-name="Emacron" unicode="&#x112;" horiz-adv-x="598" 
d="M676 700l-48 -207h-112l4 94h-182l-41 -178h88l21 61h103l-53 -229h-101l6 62h-89l-44 -194h190l42 112h118l-51 -221h-576l23 101h35q10 0 21 10.5t13 19.5l100 435q2 10 -2.5 19.5t-14.5 9.5h-39l25 105h564zM277 753l24 105h275l-25 -105h-274z" />
    <glyph glyph-name="emacron" unicode="&#x113;" horiz-adv-x="512" 
d="M248 -8q-121 0 -180 56.5t-59 153.5q0 143 92 238t225 95q92 0 143.5 -41t51.5 -107q0 -99 -86 -139.5t-255 -46.5q1 -101 78 -101q65 0 108 51h92l-29 -123q-76 -36 -181 -36zM307 431q-44 0 -74 -38.5t-44 -100.5q88 7 128 26.5t40 60.5q0 52 -50 52zM190 580l24 105
h275l-25 -105h-274z" />
    <glyph glyph-name="Ebreve" unicode="&#x114;" horiz-adv-x="598" 
d="M676 700l-48 -207h-112l4 94h-182l-41 -178h88l21 61h103l-53 -229h-101l6 62h-89l-44 -194h190l42 112h118l-51 -221h-576l23 101h35q10 0 21 10.5t13 19.5l100 435q2 10 -2.5 19.5t-14.5 9.5h-39l25 105h564zM411 740q-58 0 -90.5 26.5t-41.5 64.5l12 50h84
q2 -39 42 -39t54 39h92l-14 -62q-44 -79 -138 -79z" />
    <glyph glyph-name="ebreve" unicode="&#x115;" horiz-adv-x="512" 
d="M248 -8q-121 0 -180 56.5t-59 153.5q0 143 92 238t225 95q92 0 143.5 -41t51.5 -107q0 -99 -86 -139.5t-255 -46.5q1 -101 78 -101q65 0 108 51h92l-29 -123q-76 -36 -181 -36zM307 431q-44 0 -74 -38.5t-44 -100.5q88 7 128 26.5t40 60.5q0 52 -50 52zM315 559
q-58 0 -90.5 26.5t-41.5 64.5l12 50h84q2 -39 42 -39t54 39h92l-14 -62q-44 -79 -138 -79z" />
    <glyph glyph-name="Edotaccent" unicode="&#x116;" horiz-adv-x="598" 
d="M676 700l-48 -207h-112l4 94h-182l-41 -178h88l21 61h103l-53 -229h-101l6 62h-89l-44 -194h190l42 112h118l-51 -221h-576l23 101h35q10 0 21 10.5t13 19.5l100 435q2 10 -2.5 19.5t-14.5 9.5h-39l25 105h564zM415 736q-37 0 -60 22t-23 56q0 39 27 63.5t65 24.5
q37 0 60 -22.5t23 -56.5q0 -39 -27 -63t-65 -24z" />
    <glyph glyph-name="edotaccent" unicode="&#x117;" horiz-adv-x="512" 
d="M248 -8q-121 0 -180 56.5t-59 153.5q0 143 92 238t225 95q92 0 143.5 -41t51.5 -107q0 -99 -86 -139.5t-255 -46.5q1 -101 78 -101q65 0 108 51h92l-29 -123q-76 -36 -181 -36zM307 431q-44 0 -74 -38.5t-44 -100.5q88 7 128 26.5t40 60.5q0 52 -50 52zM328 563
q-37 0 -60 22t-23 56q0 39 27 63.5t65 24.5q37 0 60 -22.5t23 -56.5q0 -39 -27 -63t-65 -24z" />
    <glyph glyph-name="Eogonek" unicode="&#x118;" horiz-adv-x="598" 
d="M-49 0l23 101h35q10 0 21 10.5t13 19.5l100 435q2 10 -2.5 19.5t-14.5 9.5h-39l25 105h564l-49 -212h-111l4 99h-182l-40 -176h121l11 30l47 -16l-34 -146l-51 -7l2 29h-122l-44 -192h190l42 116h118l-51 -225h-34q-17 -14 -24.5 -21.5t-14.5 -18t-7 -19.5q0 -22 35 -22
h20l-16 -70q-34 -16 -70 -16q-44 0 -69 18.5t-25 50.5q0 34 30.5 59t74.5 39h-476z" />
    <glyph glyph-name="eogonek" unicode="&#x119;" horiz-adv-x="512" 
d="M317 -167q-44 0 -69 18.5t-25 50.5t25 56.5t62 37.5q-34 -4 -62 -4q-122 0 -180.5 57t-58.5 157q0 144 91.5 236.5t225.5 92.5q92 0 143.5 -41t51.5 -107q0 -99 -86 -139.5t-255 -46.5q1 -101 78 -101q65 0 108 51h92l-29 -123q-80 -48 -80 -86q0 -23 34 -23h20l-16 -70
q-34 -16 -70 -16zM307 431q-44 0 -74 -38t-44 -101q88 7 128 26.5t40 60.5q0 52 -50 52z" />
    <glyph glyph-name="Ecaron" unicode="&#x11a;" horiz-adv-x="598" 
d="M352 733l-57 102l9 38h65l60 -55l82 55h68l-9 -38l-90 -102h-128zM676 700l-48 -207h-112l4 94h-182l-41 -178h88l21 61h103l-53 -229h-101l6 62h-89l-44 -194h190l42 112h118l-51 -221h-576l23 101h35q10 0 21 10.5t13 19.5l100 435q2 10 -2.5 19.5t-14.5 9.5h-39
l25 105h564z" />
    <glyph glyph-name="ecaron" unicode="&#x11b;" horiz-adv-x="512" 
d="M265 560l-57 102l9 38h65l60 -55l82 55h68l-9 -38l-90 -102h-128zM248 -8q-121 0 -180 56.5t-59 153.5q0 143 92 238t225 95q92 0 143.5 -41t51.5 -107q0 -99 -86 -139.5t-255 -46.5q1 -101 78 -101q65 0 108 51h92l-29 -123q-76 -36 -181 -36zM307 431q-44 0 -74 -38.5
t-44 -100.5q88 7 128 26.5t40 60.5q0 52 -50 52z" />
    <glyph glyph-name="Gcircumflex" unicode="&#x11c;" horiz-adv-x="676" 
d="M323 741l9 38l90 102h128l57 -102l-9 -38h-65l-60 54l-82 -54h-68zM302 -9q-130 0 -201.5 71t-71.5 197q0 189 119.5 319.5t300.5 130.5q67 0 108 -9h150l-53 -230h-122v101q-30 14 -74 14q-100 0 -167 -91t-68 -236q0 -77 27.5 -112.5t84.5 -35.5q34 0 69 10l27 122h-60
l24 102h292l-24 -103h-21q-10 0 -21 -10t-13 -20l-48 -211h-98q-5 21 -23 21q-65 -30 -137 -30z" />
    <glyph glyph-name="gcircumflex" unicode="&#x11d;" horiz-adv-x="497" 
d="M189 560l9 38l90 102h128l57 -102l-9 -38h-65l-60 54l-82 -54h-68zM169 -178q-119 0 -176.5 30.5t-57.5 83.5q0 45 32.5 69.5t88.5 42.5q-40 23 -40 70q0 68 85 117q-54 37 -54 106q0 87 66.5 140.5t167.5 53.5q39 0 74 -9h189l-24 -107h-17q-6 0 -13.5 -5t-10.5 -11
q2 -14 2 -21q0 -85 -65 -136.5t-164 -51.5q-52 0 -94 13q-17 -14 -17 -33q0 -23 37 -23h133q74 0 111 -33t37 -89q0 -96 -69 -151.5t-221 -55.5zM252 280q29 0 52 30.5t23 80.5q0 24 -13.5 38t-35.5 14q-29 0 -51 -31t-22 -81q0 -24 12.5 -37.5t34.5 -13.5zM246 10h-143
q-15 -19 -15 -41q0 -48 87 -48q59 0 90.5 16t31.5 42q0 31 -51 31z" />
    <glyph glyph-name="Gbreve" unicode="&#x11e;" horiz-adv-x="676" 
d="M302 -9q-130 0 -201.5 71t-71.5 197q0 189 119.5 319.5t300.5 130.5q67 0 108 -9h150l-53 -230h-122v101q-30 14 -74 14q-100 0 -167 -91t-68 -236q0 -77 27.5 -112.5t84.5 -35.5q34 0 69 10l27 122h-60l24 102h292l-24 -103h-21q-10 0 -21 -10t-13 -20l-48 -211h-98
q-5 21 -23 21q-65 -30 -137 -30zM458 740q-58 0 -90.5 26.5t-41.5 64.5l12 50h84q2 -39 42 -39t54 39h92l-14 -62q-44 -79 -138 -79z" />
    <glyph glyph-name="gbreve" unicode="&#x11f;" horiz-adv-x="497" 
d="M169 -178q-119 0 -176.5 30.5t-57.5 83.5q0 45 32.5 69.5t88.5 42.5q-40 23 -40 70q0 68 85 117q-54 37 -54 106q0 87 66.5 140.5t167.5 53.5q39 0 74 -9h189l-24 -107h-17q-6 0 -13.5 -5t-10.5 -11q2 -14 2 -21q0 -85 -65 -136.5t-164 -51.5q-52 0 -94 13
q-17 -14 -17 -33q0 -23 37 -23h133q74 0 111 -33t37 -89q0 -96 -69 -151.5t-221 -55.5zM252 280q29 0 52 30.5t23 80.5q0 24 -13.5 38t-35.5 14q-29 0 -51 -31t-22 -81q0 -24 12.5 -37.5t34.5 -13.5zM246 10h-143q-15 -19 -15 -41q0 -48 87 -48q59 0 90.5 16t31.5 42
q0 31 -51 31zM324 559q-58 0 -90.5 26.5t-41.5 64.5l12 50h84q2 -39 42 -39t54 39h92l-14 -62q-44 -79 -138 -79z" />
    <glyph glyph-name="Gdotaccent" unicode="&#x120;" horiz-adv-x="676" 
d="M302 -9q-130 0 -201.5 71t-71.5 197q0 189 119.5 319.5t300.5 130.5q67 0 108 -9h150l-53 -230h-122v101q-30 14 -74 14q-100 0 -167 -91t-68 -236q0 -77 27.5 -112.5t84.5 -35.5q34 0 69 10l27 122h-60l24 102h292l-24 -103h-21q-10 0 -21 -10t-13 -20l-48 -211h-98
q-5 21 -23 21q-65 -30 -137 -30zM467 744q-37 0 -60 22t-23 56q0 39 27 63.5t65 24.5q37 0 60 -22.5t23 -56.5q0 -39 -27 -63t-65 -24z" />
    <glyph glyph-name="gdotaccent" unicode="&#x121;" horiz-adv-x="497" 
d="M169 -178q-119 0 -176.5 30.5t-57.5 83.5q0 45 32.5 69.5t88.5 42.5q-40 23 -40 70q0 68 85 117q-54 37 -54 106q0 87 66.5 140.5t167.5 53.5q39 0 74 -9h189l-24 -107h-17q-6 0 -13.5 -5t-10.5 -11q2 -14 2 -21q0 -85 -65 -136.5t-164 -51.5q-52 0 -94 13
q-17 -14 -17 -33q0 -23 37 -23h133q74 0 111 -33t37 -89q0 -96 -69 -151.5t-221 -55.5zM252 280q29 0 52 30.5t23 80.5q0 24 -13.5 38t-35.5 14q-29 0 -51 -31t-22 -81q0 -24 12.5 -37.5t34.5 -13.5zM246 10h-143q-15 -19 -15 -41q0 -48 87 -48q59 0 90.5 16t31.5 42
q0 31 -51 31zM333 563q-37 0 -60 22t-23 56q0 39 27 63.5t65 24.5q37 0 60 -22.5t23 -56.5q0 -39 -27 -63t-65 -24z" />
    <glyph glyph-name="Gcommaaccent" unicode="&#x122;" horiz-adv-x="676" 
d="M161 -227l12 55q57 7 57 28q0 7 -18 23.5t-18 36.5q0 29 20.5 47t48.5 18q30 0 50 -19.5t20 -51.5q0 -129 -172 -137zM302 -9q-130 0 -201.5 71t-71.5 197q0 189 119.5 319.5t300.5 130.5q67 0 108 -9h150l-53 -230h-122v101q-30 14 -74 14q-100 0 -167 -91t-68 -236
q0 -77 27.5 -112.5t84.5 -35.5q34 0 69 10l27 122h-60l24 102h292l-24 -103h-21q-10 0 -21 -10t-13 -20l-48 -211h-98q-5 21 -23 21q-65 -30 -137 -30z" />
    <glyph glyph-name="gcommaaccent" unicode="&#x123;" horiz-adv-x="497" 
d="M314 563q-30 0 -50 19.5t-20 50.5q0 130 172 138l-12 -56q-57 -5 -57 -27q0 -6 18 -21.5t18 -38.5q0 -30 -20.5 -47.5t-48.5 -17.5zM169 -178q-119 0 -176.5 30.5t-57.5 83.5q0 45 32.5 69.5t88.5 42.5q-40 23 -40 70q0 68 85 117q-54 37 -54 106q0 87 66.5 140.5
t167.5 53.5q39 0 74 -9h189l-24 -107h-17q-6 0 -13.5 -5t-10.5 -11q2 -14 2 -21q0 -85 -65 -136.5t-164 -51.5q-52 0 -94 13q-17 -14 -17 -33q0 -23 37 -23h133q74 0 111 -33t37 -89q0 -96 -69 -151.5t-221 -55.5zM252 280q29 0 52 30.5t23 80.5q0 24 -13.5 38t-35.5 14
q-29 0 -51 -31t-22 -81q0 -24 12.5 -37.5t34.5 -13.5zM246 10h-143q-15 -19 -15 -41q0 -48 87 -48q59 0 90.5 16t31.5 42q0 31 -51 31z" />
    <glyph glyph-name="Hcircumflex" unicode="&#x124;" horiz-adv-x="740" 
d="M340 733l9 38l90 102h128l57 -102l-9 -38h-65l-60 54l-82 -54h-68zM-49 0l23 101h35q10 0 21 10.5t13 19.5l100 435q2 10 -2.5 19.5t-14.5 9.5h-39l25 105h321l-24 -105h-69l-43 -188h214l42 188h-68l24 105h322l-24 -105h-36q-10 0 -21 -9.5t-13 -19.5l-99 -435
q-2 -10 2.5 -20t13.5 -10h40l-23 -101h-323l23 101h69l47 204h-214l-46 -204h69l-23 -101h-322z" />
    <glyph glyph-name="hcircumflex" unicode="&#x125;" horiz-adv-x="604" 
d="M251 717l9 38l90 102h128l57 -102l-9 -38h-65l-60 54l-82 -54h-68zM436 -8q-129 0 -97 129l51 224q12 52 -37 52q-40 0 -93 -33l-83 -364h-150q-11 0 -17.5 9.5t-3.5 22.5l124 537q2 9 -4 17.5t-14 8.5h-29l24 105h202q28 0 20 -38l-51 -221q102 94 199 94q64 0 91 -37.5
t12 -100.5l-63 -271q-2 -8 4 -16.5t14 -8.5h27l-19 -88q-44 -21 -107 -21z" />
    <glyph glyph-name="Hbar" unicode="&#x126;" horiz-adv-x="741" 
d="M348 0l23 101h69l46 201h-214l-45 -201h69l-23 -101h-322l23 101h35q10 0 21 10.5t13 19.5l77 335h-66l17 68h64l8 32q2 10 -2.5 19.5t-14.5 9.5h-39l25 105h321l-24 -105h-69l-14 -61h213l14 61h-68l24 105h322l-24 -105h-36q-10 0 -21 -9.5t-13 -19.5l-7 -32h65
l-16 -68h-65l-76 -335q-2 -10 2.5 -20t13.5 -10h40l-23 -101h-323zM310 466l-14 -64h213l15 64h-214z" />
    <glyph glyph-name="hbar" unicode="&#x127;" horiz-adv-x="604" 
d="M74 556l19 83h52l14 61h150q28 0 20 -36l-6 -25h87l-19 -83h-87l-26 -115q102 94 199 94q64 0 91 -37.5t12 -100.5l-63 -271q-2 -8 4 -16.5t14 -8.5h27l-19 -88q-44 -21 -106 -21q-130 0 -98 129l51 226q6 27 -2 39.5t-34 13.5q-40 0 -93 -34l-84 -366h-150
q-11 0 -17.5 9.5t-3.5 22.5l120 524h-52z" />
    <glyph glyph-name="Imacron" unicode="&#x12a;" horiz-adv-x="349" 
d="M-49 0l23 101h42q9 0 20 10.5t13 19.5l100 435q2 10 -2.5 19.5t-13.5 9.5h-46l25 105h328l-24 -105h-43q-10 0 -20.5 -9.5t-12.5 -19.5l-100 -435q-2 -10 2.5 -20t13.5 -10h46l-23 -101h-328zM150 753l24 105h275l-25 -105h-274z" />
    <glyph glyph-name="imacron" unicode="&#x12b;" horiz-adv-x="299" 
d="M127 -8q-128 0 -98 129l63 272q2 8 -3.5 17t-13.5 9h-34l21 93q56 20 125 20q54 0 78 -29.5t11 -83.5l-68 -293q-2 -8 4 -16.5t14 -8.5h30l-19 -88q-44 -21 -110 -21zM80 580l24 105h275l-25 -105h-274z" />
    <glyph glyph-name="Iogonek" unicode="&#x12e;" horiz-adv-x="349" 
d="M-49 0l23 101h42q9 0 20 10.5t13 19.5l100 435q2 10 -2.5 19.5t-13.5 9.5h-46l25 105h328l-24 -105h-43q-10 0 -20.5 -9.5t-12.5 -19.5l-100 -435q-2 -10 2.5 -20t13.5 -10h46l-23 -101h-47q-45 -38 -45 -59q0 -22 35 -22h20l-17 -70q-32 -16 -69 -16q-44 0 -69 18.5
t-25 50.5q0 34 30.5 59t74.5 39h-216z" />
    <glyph glyph-name="iogonek" unicode="&#x12f;" horiz-adv-x="299" 
d="M137 -167q-44 0 -69 18.5t-25 50.5q0 56 86 91h-8q-122 5 -92 128l63 272q2 8 -3.5 17t-13.5 9h-34l21 93q56 20 125 20q54 0 78 -29.5t11 -83.5l-67 -293q-2 -8 3.5 -16.5t13.5 -8.5h30l-19 -88q-68 -39 -68 -71q0 -23 34 -23h20l-16 -70q-34 -16 -70 -16zM226 561
q-37 0 -60 22.5t-23 56.5q0 38 27.5 62.5t66.5 24.5q37 0 60.5 -22.5t23.5 -55.5q0 -39 -27.5 -63.5t-67.5 -24.5z" />
    <glyph glyph-name="Idotaccent" unicode="&#x130;" horiz-adv-x="349" 
d="M-49 0l23 101h42q9 0 20 10.5t13 19.5l100 435q2 10 -2.5 19.5t-13.5 9.5h-46l25 105h328l-24 -105h-43q-10 0 -20.5 -9.5t-12.5 -19.5l-100 -435q-2 -10 2.5 -20t13.5 -10h46l-23 -101h-328zM290 736q-37 0 -60 22t-23 56q0 39 27 63.5t65 24.5q37 0 60 -22.5t23 -56.5
q0 -39 -27 -63t-65 -24z" />
    <glyph glyph-name="dotlessi" unicode="&#x131;" horiz-adv-x="299" 
d="M127 -8q-128 0 -98 129l63 272q2 8 -3.5 17t-13.5 9h-34l21 93q56 20 125 20q54 0 78 -29.5t11 -83.5l-68 -293q-2 -8 4 -16.5t14 -8.5h30l-19 -88q-44 -21 -110 -21z" />
    <glyph glyph-name="Jcircumflex" unicode="&#x134;" horiz-adv-x="501" 
d="M302 733l9 38l90 102h128l57 -102l-9 -38h-65l-60 54l-82 -54h-68zM144 -8q-112 0 -186 36l29 127h96q18 -43 65 -43q56 0 73 74l87 380q2 10 -2.5 19.5t-13.5 9.5h-44l25 105h320l-25 -105h-36q-10 0 -20.5 -9.5t-12.5 -19.5l-86 -373q-24 -107 -85 -154t-184 -47z" />
    <glyph glyph-name="jcircumflex" unicode="&#x135;" horiz-adv-x="278" 
d="M-14 -169q-58 0 -101 15l21 87h27q31 0 45.5 13.5t22.5 47.5l91 399q2 8 -3.5 17t-13.5 9h-34l21 93q56 20 125 20q54 0 78 -29t11 -84l-99 -434q-19 -84 -65 -119t-126 -35zM64 560l9 38l90 102h128l57 -102l-9 -38h-65l-60 54l-82 -54h-68z" />
    <glyph glyph-name="Kcommaaccent" unicode="&#x136;" horiz-adv-x="702" 
d="M179 -227l12 55q57 7 57 28q0 7 -18 23.5t-18 36.5q0 29 20.5 47t48.5 18q30 0 50 -19.5t20 -51.5q0 -129 -172 -137zM-49 0l23 101h35q10 0 21 10.5t13 19.5l100 435q2 10 -2.5 19.5t-14.5 9.5h-39l25 105h312l-24 -105h-60l-51 -220l191 163q27 24 23.5 40.5
t-29.5 16.5h-5l25 105h285l-23 -105h-13q-19 0 -46 -22l-209 -171l119 -274q11 -27 26 -27h23l-23 -101h-230l17 90l-83 203l-81 -63l-29 -129h62l-23 -101h-315z" />
    <glyph glyph-name="kcommaaccent" unicode="&#x137;" horiz-adv-x="554" 
d="M115 -227l12 55q57 7 57 28q0 7 -18 23.5t-18 36.5q0 29 20.5 47t48.5 18q30 0 50 -19.5t20 -51.5q0 -129 -172 -137zM426 -8q-48 0 -68.5 21t-40.5 70l-47 115q-11 -7 -32.5 -18t-22.5 -11l-38 -169h-150q-12 0 -18.5 9.5t-3.5 22.5l124 537q2 8 -3.5 17t-13.5 9h-30
l24 105h202q13 0 18.5 -10t1.5 -28l-82 -359q67 46 118 106.5t64 116.5h157l-19 -84q-54 -74 -155 -156l72 -160q11 -25 30 -25h19l-20 -88q-37 -21 -86 -21z" />
    <glyph glyph-name="Lacute" unicode="&#x139;" horiz-adv-x="584" 
d="M227 733l49 140h171l-13 -53l-105 -87h-102zM-49 0l23 101h35q10 0 21 10.5t13 19.5l100 435q2 10 -2.5 19.5t-14.5 9.5h-39l25 105h340l-24 -105h-88l-112 -486h173l50 135h119l-56 -244h-563z" />
    <glyph glyph-name="lacute" unicode="&#x13a;" horiz-adv-x="301" 
d="M186 717l49 140h171l-13 -53l-105 -87h-102zM129 -8q-129 0 -99 129l103 448q2 8 -3.5 17t-13.5 9h-33l24 105h205q30 0 20 -38l-123 -536q-2 -8 3.5 -16.5t13.5 -8.5h33l-20 -88q-44 -21 -110 -21z" />
    <glyph glyph-name="Lcommaaccent" unicode="&#x13b;" horiz-adv-x="584" 
d="M121 -227l12 55q57 7 57 28q0 7 -18 23.5t-18 36.5q0 29 20.5 47t48.5 18q30 0 50 -19.5t20 -51.5q0 -129 -172 -137zM-49 0l23 101h35q10 0 21 10.5t13 19.5l100 435q2 10 -2.5 19.5t-14.5 9.5h-39l25 105h340l-24 -105h-88l-112 -486h173l50 135h119l-56 -244h-563z
" />
    <glyph glyph-name="lcommaaccent" unicode="&#x13c;" horiz-adv-x="301" 
d="M-27 -227l12 55q57 7 57 28q0 7 -18 23.5t-18 36.5q0 29 20.5 47t48.5 18q30 0 50 -19.5t20 -51.5q0 -129 -172 -137zM129 -8q-129 0 -99 129l103 448q2 8 -3.5 17t-13.5 9h-33l24 105h205q30 0 20 -38l-123 -536q-2 -8 3.5 -16.5t13.5 -8.5h33l-20 -88q-44 -21 -110 -21
z" />
    <glyph glyph-name="Lcaron" unicode="&#x13d;" horiz-adv-x="584" 
d="M457 554l40 146h135l-12 -53l-71 -93h-92zM-49 0l23 101h35q10 0 21 10.5t13 19.5l100 435q2 10 -2.5 19.5t-14.5 9.5h-39l25 105h340l-24 -105h-88l-112 -486h173l50 135h119l-56 -244h-563z" />
    <glyph glyph-name="lcaron" unicode="&#x13e;" horiz-adv-x="301" 
d="M334 556l42 144h134l-12 -53l-71 -91h-93zM129 -8q-129 0 -99 129l103 448q2 8 -3.5 17t-13.5 9h-33l24 105h205q30 0 20 -38l-123 -536q-2 -8 3.5 -16.5t13.5 -8.5h33l-20 -88q-44 -21 -110 -21z" />
    <glyph glyph-name="Lslash" unicode="&#x141;" horiz-adv-x="584" 
d="M0 217l24 107l68 21l51 221q2 10 -2.5 19.5t-14.5 9.5h-39l25 105h340l-24 -105h-88l-43 -184l181 58l-26 -107l-179 -57l-45 -196h173l50 135h119l-56 -244h-563l23 101h35q10 0 21 10.5t13 19.5l25 107z" />
    <glyph glyph-name="lslash" unicode="&#x142;" horiz-adv-x="303" 
d="M7 247l23 103l59 30l44 189q2 8 -3.5 17t-13.5 9h-33l24 105h205q30 0 20 -38l-41 -180l59 30l-24 -104l-60 -30l-57 -252q-2 -8 3.5 -16.5t13.5 -8.5h34l-19 -88q-45 -21 -112 -21q-129 0 -99 129l36 156z" />
    <glyph glyph-name="Nacute" unicode="&#x143;" horiz-adv-x="714" 
d="M408 733l49 140h171l-13 -53l-105 -87h-102zM-49 0l23 101h35q10 0 21 10.5t13 19.5l100 435q2 10 -2.5 19.5t-14.5 9.5h-39l25 105h249l146 -425h3l75 320h-71l25 105h268l-24 -105h-34q-9 0 -20 -10t-13 -19l-129 -566h-161l-166 465h-3l-83 -364h73l-23 -101h-273z
" />
    <glyph glyph-name="nacute" unicode="&#x144;" horiz-adv-x="604" 
d="M299 560l49 140h171l-13 -53l-105 -87h-102zM436 -8q-129 0 -97 129l51 224q12 52 -37 52q-40 0 -92 -33l-84 -364h-150q-11 0 -17.5 9.5t-3.5 22.5l83 361q2 8 -3.5 17t-13.5 9h-31l21 93q56 20 122 20q94 0 91 -94q103 97 202 97q64 0 91 -37.5t12 -100.5l-63 -271
q-2 -8 4 -16.5t14 -8.5h27l-19 -88q-44 -21 -107 -21z" />
    <glyph glyph-name="Ncommaaccent" unicode="&#x145;" horiz-adv-x="714" 
d="M192 -227l12 55q57 7 57 28q0 7 -18 23.5t-18 36.5q0 29 20.5 47t48.5 18q30 0 50 -19.5t20 -51.5q0 -129 -172 -137zM-49 0l23 101h35q10 0 21 10.5t13 19.5l100 435q2 10 -2.5 19.5t-14.5 9.5h-39l25 105h249l146 -425h3l75 320h-71l25 105h268l-24 -105h-34
q-9 0 -20 -10t-13 -19l-129 -566h-161l-166 465h-3l-83 -364h73l-23 -101h-273z" />
    <glyph glyph-name="ncommaaccent" unicode="&#x146;" horiz-adv-x="604" 
d="M132 -227l12 55q57 7 57 28q0 7 -18 23.5t-18 36.5q0 29 20.5 47t48.5 18q30 0 50 -19.5t20 -51.5q0 -129 -172 -137zM436 -8q-129 0 -97 129l51 224q12 52 -37 52q-40 0 -92 -33l-84 -364h-150q-11 0 -17.5 9.5t-3.5 22.5l83 361q2 8 -3.5 17t-13.5 9h-31l21 93
q56 20 122 20q94 0 91 -94q103 97 202 97q64 0 91 -37.5t12 -100.5l-63 -271q-2 -8 4 -16.5t14 -8.5h27l-19 -88q-44 -21 -107 -21z" />
    <glyph glyph-name="Ncaron" unicode="&#x147;" horiz-adv-x="714" 
d="M408 733l-57 102l9 38h65l60 -55l82 55h68l-9 -38l-90 -102h-128zM-49 0l23 101h35q10 0 21 10.5t13 19.5l100 435q2 10 -2.5 19.5t-14.5 9.5h-39l25 105h249l146 -425h3l75 320h-71l25 105h268l-24 -105h-34q-9 0 -20 -10t-13 -19l-129 -566h-161l-166 465h-3l-83 -364
h73l-23 -101h-273z" />
    <glyph glyph-name="ncaron" unicode="&#x148;" horiz-adv-x="604" 
d="M292 560l-57 102l9 38h65l60 -55l82 55h68l-9 -38l-90 -102h-128zM436 -8q-129 0 -97 129l51 224q12 52 -37 52q-40 0 -92 -33l-84 -364h-150q-11 0 -17.5 9.5t-3.5 22.5l83 361q2 8 -3.5 17t-13.5 9h-31l21 93q56 20 122 20q94 0 91 -94q103 97 202 97q64 0 91 -37.5
t12 -100.5l-63 -271q-2 -8 4 -16.5t14 -8.5h27l-19 -88q-44 -21 -107 -21z" />
    <glyph glyph-name="Omacron" unicode="&#x14c;" horiz-adv-x="715" 
d="M322 777l24 105h275l-25 -105h-274zM334 -9q-142 0 -224 75.5t-82 210.5q0 184 116 307.5t282 123.5q137 0 218.5 -76.5t81.5 -208.5q0 -191 -112 -311.5t-280 -120.5zM341 111q87 0 141 93.5t54 220.5q0 76 -31.5 116.5t-90.5 40.5q-88 0 -141.5 -92t-53.5 -222
q0 -76 31.5 -116.5t90.5 -40.5z" />
    <glyph glyph-name="omacron" unicode="&#x14d;" horiz-adv-x="560" 
d="M194 580l24 105h275l-25 -105h-274zM253 -7q-116 0 -180.5 61t-64.5 166q0 137 87 226t214 89q116 0 180 -61t64 -166q0 -138 -84.5 -226.5t-215.5 -88.5zM257 101q55 0 88.5 67t33.5 155q0 96 -74 96q-54 0 -88.5 -68t-34.5 -154q0 -96 75 -96z" />
    <glyph glyph-name="Ohungarumlaut" unicode="&#x150;" horiz-adv-x="715" 
d="M485 739l44 140h142l-12 -51l-82 -89h-92zM308 739l44 140h142l-13 -51l-82 -89h-91zM334 -9q-142 0 -224 75.5t-82 210.5q0 184 116 307.5t282 123.5q137 0 218.5 -76.5t81.5 -208.5q0 -191 -112 -311.5t-280 -120.5zM341 111q87 0 141 93.5t54 220.5q0 76 -31.5 116.5
t-90.5 40.5q-88 0 -141.5 -92t-53.5 -222q0 -76 31.5 -116.5t90.5 -40.5z" />
    <glyph glyph-name="ohungarumlaut" unicode="&#x151;" horiz-adv-x="560" 
d="M362 560l44 140h142l-12 -51l-82 -89h-92zM185 560l44 140h142l-13 -51l-82 -89h-91zM253 -7q-116 0 -180.5 61t-64.5 166q0 137 87 226t214 89q116 0 180 -61t64 -166q0 -138 -84.5 -226.5t-215.5 -88.5zM257 101q55 0 88.5 67t33.5 155q0 96 -74 96q-54 0 -88.5 -68
t-34.5 -154q0 -96 75 -96z" />
    <glyph glyph-name="OE" unicode="&#x152;" horiz-adv-x="961" 
d="M1040 700l-48 -207h-112l3 94h-178l-41 -178h84l22 61h103l-53 -229h-102l6 62h-85l-44 -194h187l41 112h118l-50 -221h-536q-156 0 -241 72.5t-85 206.5q0 191 119 306t327 115h565zM515 588h-52q-112 0 -177 -87t-65 -235q0 -157 152 -157h32z" />
    <glyph glyph-name="oe" unicode="&#x153;" horiz-adv-x="870" 
d="M608 -8q-126 0 -179 70q-71 -69 -178 -69q-116 0 -179.5 61t-63.5 166q0 137 86 226t213 89q121 0 173 -81q79 81 204 81q92 0 143.5 -41t51.5 -107q0 -99 -86 -139.5t-255 -46.5q1 -53 20 -77t63 -24q65 0 102 49h92l-28 -121q-80 -36 -179 -36zM255 101q57 0 88.5 66
t31.5 156q0 96 -72 96q-55 0 -88 -67t-33 -155q0 -96 73 -96zM665 431q-44 0 -74 -38t-44 -101q88 7 128.5 26.5t40.5 60.5q0 52 -51 52z" />
    <glyph glyph-name="Racute" unicode="&#x154;" horiz-adv-x="681" 
d="M338 733l49 140h171l-13 -53l-105 -87h-102zM-49 0l23 101h35q10 0 21 10.5t13 19.5l100 435q2 10 -2.5 19.5t-14.5 9.5h-39l25 105h307q123 0 188 -45t65 -125q0 -81 -50 -130t-143 -64v-4q51 -12 73 -41.5t32 -104.5l8 -60q3 -25 19 -25h24l-23 -101h-204l-10 190
q-3 58 -18.5 77t-63.5 19h-47l-42 -185h76l-23 -101h-329zM336 588l-47 -205h59q131 0 131 131q0 74 -91 74h-52z" />
    <glyph glyph-name="racute" unicode="&#x155;" horiz-adv-x="405" 
d="M218 560l49 140h171l-13 -53l-105 -87h-102zM27 0q-11 0 -17.5 9.5t-3.5 22.5l83 361q2 8 -3.5 17t-13.5 9h-31l21 93q56 20 122 20q92 0 88 -97q62 96 151 96q16 0 31 -5l-32 -138h-21q-81 0 -146 -48l-78 -340h-150z" />
    <glyph glyph-name="Rcommaaccent" unicode="&#x156;" horiz-adv-x="681" 
d="M184 -227l12 55q57 7 57 28q0 7 -18 23.5t-18 36.5q0 29 20.5 47t48.5 18q30 0 50 -19.5t20 -51.5q0 -129 -172 -137zM-49 0l23 101h35q10 0 21 10.5t13 19.5l100 435q2 10 -2.5 19.5t-14.5 9.5h-39l25 105h307q123 0 188 -45t65 -125q0 -81 -50 -130t-143 -64v-4
q51 -12 73 -41.5t32 -104.5l8 -60q3 -25 19 -25h24l-23 -101h-204l-10 190q-3 58 -18.5 77t-63.5 19h-47l-42 -185h76l-23 -101h-329zM336 588l-47 -205h59q131 0 131 131q0 74 -91 74h-52z" />
    <glyph glyph-name="rcommaaccent" unicode="&#x157;" horiz-adv-x="405" 
d="M-46 -227l12 55q57 7 57 28q0 7 -18 23.5t-18 36.5q0 29 20.5 47t48.5 18q30 0 50 -19.5t20 -51.5q0 -129 -172 -137zM27 0q-11 0 -17.5 9.5t-3.5 22.5l83 361q2 8 -3.5 17t-13.5 9h-31l21 93q56 20 122 20q92 0 88 -97q62 96 151 96q16 0 31 -5l-32 -138h-21
q-81 0 -146 -48l-78 -340h-150z" />
    <glyph glyph-name="Rcaron" unicode="&#x158;" horiz-adv-x="681" 
d="M338 733l-57 102l9 38h65l60 -55l82 55h68l-9 -38l-90 -102h-128zM-49 0l23 101h35q10 0 21 10.5t13 19.5l100 435q2 10 -2.5 19.5t-14.5 9.5h-39l25 105h307q123 0 188 -45t65 -125q0 -81 -50 -130t-143 -64v-4q51 -12 73 -41.5t32 -104.5l8 -60q3 -25 19 -25h24
l-23 -101h-204l-10 190q-3 58 -18.5 77t-63.5 19h-47l-42 -185h76l-23 -101h-329zM336 588l-47 -205h59q131 0 131 131q0 74 -91 74h-52z" />
    <glyph glyph-name="rcaron" unicode="&#x159;" horiz-adv-x="405" 
d="M218 560l-57 102l9 38h65l60 -55l82 55h68l-9 -38l-90 -102h-128zM27 0q-11 0 -17.5 9.5t-3.5 22.5l83 361q2 8 -3.5 17t-13.5 9h-31l21 93q56 20 122 20q92 0 88 -97q62 96 151 96q16 0 31 -5l-32 -138h-21q-81 0 -146 -48l-78 -340h-150z" />
    <glyph glyph-name="Sacute" unicode="&#x15a;" horiz-adv-x="532" 
d="M316 741l49 140h171l-13 -53l-105 -87h-102zM223 -9q-53 0 -120 9h-143l48 214h125l-4 -98q33 -12 84 -12q116 0 116 85q0 11 -2 20t-9 17.5t-12 13.5t-19 13t-20.5 11t-26.5 12.5t-28 13.5q-68 32 -103 72t-35 116q0 106 70.5 168.5t200.5 62.5q66 0 122 -9h121
l-46 -196h-120v86q-29 11 -74 11q-108 0 -108 -82q0 -16 5.5 -28.5t18.5 -22.5t25 -16.5t36 -16.5q50 -22 74.5 -35.5t54 -38t41.5 -56.5t12 -77q0 -107 -72.5 -172t-211.5 -65z" />
    <glyph glyph-name="sacute" unicode="&#x15b;" horiz-adv-x="435" 
d="M227 560l49 140h171l-13 -53l-105 -87h-102zM169 -7q-126 0 -203 42l27 116h87q11 -27 29 -41t54 -14q32 0 53 13t21 39q0 5 -1 10t-4 9t-6 7t-8.5 6t-9.5 5.5t-11.5 5t-12.5 4.5t-14.5 5t-14.5 5q-115 40 -115 142q0 91 62 138.5t166 47.5q107 0 187 -36l-27 -118h-86
q-20 52 -80 52q-69 0 -69 -49q0 -20 17.5 -31.5t58.5 -25.5q64 -22 98.5 -54t34.5 -92q0 -89 -62 -137.5t-171 -48.5z" />
    <glyph glyph-name="Scircumflex" unicode="&#x15c;" horiz-adv-x="532" 
d="M233 741l9 38l90 102h128l57 -102l-9 -38h-65l-60 54l-82 -54h-68zM223 -9q-53 0 -120 9h-143l48 214h125l-4 -98q33 -12 84 -12q116 0 116 85q0 11 -2 20t-9 17.5t-12 13.5t-19 13t-20.5 11t-26.5 12.5t-28 13.5q-68 32 -103 72t-35 116q0 106 70.5 168.5t200.5 62.5
q66 0 122 -9h121l-46 -196h-120v86q-29 11 -74 11q-108 0 -108 -82q0 -16 5.5 -28.5t18.5 -22.5t25 -16.5t36 -16.5q50 -22 74.5 -35.5t54 -38t41.5 -56.5t12 -77q0 -107 -72.5 -172t-211.5 -65z" />
    <glyph glyph-name="scircumflex" unicode="&#x15d;" horiz-adv-x="435" 
d="M146 560l9 38l90 102h128l57 -102l-9 -38h-65l-60 54l-82 -54h-68zM169 -7q-126 0 -203 42l27 116h87q11 -27 29 -41t54 -14q32 0 53 13t21 39q0 5 -1 10t-4 9t-6 7t-8.5 6t-9.5 5.5t-11.5 5t-12.5 4.5t-14.5 5t-14.5 5q-115 40 -115 142q0 91 62 138.5t166 47.5
q107 0 187 -36l-27 -118h-86q-20 52 -80 52q-69 0 -69 -49q0 -20 17.5 -31.5t58.5 -25.5q64 -22 98.5 -54t34.5 -92q0 -89 -62 -137.5t-171 -48.5z" />
    <glyph glyph-name="Scedilla" unicode="&#x15e;" horiz-adv-x="532" 
d="M180 -175q-53 0 -87 18l13 60h41q6 -14 28 -14q28 0 28 20q0 19 -29 19h-21l15 65q-24 1 -65 7h-143l48 214h125l-4 -98q33 -12 84 -12q116 0 116 88q0 10 -2.5 18.5t-5 14.5t-10 13t-12 11t-16.5 10.5t-19 10t-23.5 11.5t-24.5 12q-70 32 -106 71t-36 114
q0 106 70.5 168.5t200.5 62.5q66 0 122 -9h121l-46 -196h-120v86q-29 11 -74 11q-52 0 -80 -21.5t-28 -62.5q0 -31 18 -47t63 -37q41 -18 60.5 -27.5t49 -28.5t42.5 -37t23.5 -47t10.5 -65q0 -105 -69.5 -169.5t-201.5 -67.5l-3 -16q34 -2 51 -19t17 -45q0 -40 -32.5 -63
t-88.5 -23z" />
    <glyph glyph-name="scedilla" unicode="&#x15f;" horiz-adv-x="435" 
d="M121 -175q-53 0 -87 18l14 60h40q6 -14 28 -14q28 0 28 20q0 19 -29 19h-20l15 68q-86 7 -144 39l27 116h87q11 -27 29 -41t54 -14q32 0 53 14t21 40q0 16 -12 27t-25 16t-43 14q-56 19 -86.5 50.5t-30.5 87.5q0 92 62.5 140t165.5 48q107 0 187 -36l-27 -118h-86
q-20 52 -80 52q-69 0 -69 -51q0 -20 16.5 -32t56.5 -26q66 -21 101 -50.5t35 -89.5q0 -88 -60 -137.5t-164 -51.5l-4 -18q69 -5 69 -64q0 -40 -33 -63t-89 -23z" />
    <glyph glyph-name="Scaron" unicode="&#x160;" horiz-adv-x="532" 
d="M310 741l-57 102l9 38h65l60 -55l82 55h68l-9 -38l-90 -102h-128zM223 -9q-53 0 -120 9h-143l48 214h125l-4 -98q33 -12 84 -12q116 0 116 85q0 11 -2 20t-9 17.5t-12 13.5t-19 13t-20.5 11t-26.5 12.5t-28 13.5q-68 32 -103 72t-35 116q0 106 70.5 168.5t200.5 62.5
q66 0 122 -9h121l-46 -196h-120v86q-29 11 -74 11q-108 0 -108 -82q0 -16 5.5 -28.5t18.5 -22.5t25 -16.5t36 -16.5q50 -22 74.5 -35.5t54 -38t41.5 -56.5t12 -77q0 -107 -72.5 -172t-211.5 -65z" />
    <glyph glyph-name="scaron" unicode="&#x161;" horiz-adv-x="435" 
d="M227 560l-57 102l9 38h65l60 -55l82 55h68l-9 -38l-90 -102h-128zM169 -7q-126 0 -203 42l27 116h87q11 -27 29 -41t54 -14q32 0 53 13t21 39q0 5 -1 10t-4 9t-6 7t-8.5 6t-9.5 5.5t-11.5 5t-12.5 4.5t-14.5 5t-14.5 5q-115 40 -115 142q0 91 62 138.5t166 47.5
q107 0 187 -36l-27 -118h-86q-20 52 -80 52q-69 0 -69 -49q0 -20 17.5 -31.5t58.5 -25.5q64 -22 98.5 -54t34.5 -92q0 -89 -62 -137.5t-171 -48.5z" />
    <glyph glyph-name="Tcommaaccent" unicode="&#x162;" horiz-adv-x="646" 
d="M132 -227l12 55q57 7 57 28q0 7 -18 23.5t-18 36.5q0 29 20.5 47t48.5 18q30 0 50 -19.5t20 -51.5q0 -129 -172 -137zM101 0l23 101h41q9 0 20 10.5t13 19.5l105 460h-84l-47 -139h-114l57 248h619l-57 -248h-114l16 139h-85l-105 -460q-2 -10 2.5 -20t13.5 -10h44
l-22 -101h-326z" />
    <glyph glyph-name="tcommaaccent" unicode="&#x163;" horiz-adv-x="337" 
d="M-7 -227l12 55q57 7 57 28q0 7 -18 23.5t-18 36.5q0 29 20.5 47t48.5 18q30 0 50 -19.5t20 -51.5q0 -129 -172 -137zM41 419l24 107h54l32 139h178l-32 -139h87l-24 -107h-88l-56 -248q-17 -70 53 -70h23l-22 -96q-42 -14 -90 -14q-90 0 -126.5 45t-16.5 131l58 252h-54z
" />
    <glyph glyph-name="Tcaron" unicode="&#x164;" horiz-adv-x="646" 
d="M355 733l-57 102l9 38h65l60 -55l82 55h68l-9 -38l-90 -102h-128zM101 0l23 101h41q9 0 20 10.5t13 19.5l105 460h-84l-47 -139h-114l57 248h619l-57 -248h-114l16 139h-85l-105 -460q-2 -10 2.5 -20t13.5 -10h44l-22 -101h-326z" />
    <glyph glyph-name="tcaron" unicode="&#x165;" horiz-adv-x="337" 
d="M331 556l41 144h134l-12 -53l-71 -91h-92zM41 419l24 107h54l32 139h178l-32 -139h87l-24 -107h-88l-56 -248q-17 -70 53 -70h23l-22 -96q-42 -14 -90 -14q-90 0 -126.5 45t-16.5 131l58 252h-54z" />
    <glyph glyph-name="Umacron" unicode="&#x16a;" horiz-adv-x="714" 
d="M337 -8q-160 0 -226 73.5t-36 204.5l67 296q2 10 -2.5 19.5t-13.5 9.5h-38l24 105h326l-24 -105h-74l-80 -347q-17 -74 9 -105t87 -31q64 0 96 31.5t49 106.5l79 345h-75l25 105h276l-24 -105h-34q-10 0 -21 -9.5t-13 -19.5l-75 -326q-29 -126 -100 -187t-202 -61z
M347 753l24 105h275l-25 -105h-274z" />
    <glyph glyph-name="umacron" unicode="&#x16b;" 
d="M431 -8q-106 0 -103 88q-90 -88 -186 -88q-68 0 -97.5 43t-13.5 114l56 244q2 8 -3 17t-13 9h-30l21 93q59 21 120 21q56 0 78.5 -34.5t8.5 -90.5l-53 -231q-12 -57 40 -57q36 0 83 29l87 377h150q12 0 18 -9t3 -23l-85 -368q-2 -8 4 -16.5t14 -8.5h28l-19 -88
q-44 -21 -108 -21zM223 580l24 105h275l-25 -105h-274z" />
    <glyph glyph-name="Ubreve" unicode="&#x16c;" horiz-adv-x="714" 
d="M337 -8q-160 0 -226 73.5t-36 204.5l67 296q2 10 -2.5 19.5t-13.5 9.5h-38l24 105h326l-24 -105h-74l-80 -347q-17 -74 9 -105t87 -31q64 0 96 31.5t49 106.5l79 345h-75l25 105h276l-24 -105h-34q-10 0 -21 -9.5t-13 -19.5l-75 -326q-29 -126 -100 -187t-202 -61z
M476 732q-58 0 -90.5 26.5t-41.5 64.5l12 50h84q2 -39 42 -39t54 39h92l-14 -62q-44 -79 -138 -79z" />
    <glyph glyph-name="ubreve" unicode="&#x16d;" 
d="M431 -8q-106 0 -103 88q-90 -88 -186 -88q-68 0 -97.5 43t-13.5 114l56 244q2 8 -3 17t-13 9h-30l21 93q59 21 120 21q56 0 78.5 -34.5t8.5 -90.5l-53 -231q-12 -57 40 -57q36 0 83 29l87 377h150q12 0 18 -9t3 -23l-85 -368q-2 -8 4 -16.5t14 -8.5h28l-19 -88
q-44 -21 -108 -21zM352 559q-58 0 -90.5 26.5t-41.5 64.5l12 50h84q2 -39 42 -39t54 39h92l-14 -62q-44 -79 -138 -79z" />
    <glyph glyph-name="Uring" unicode="&#x16e;" horiz-adv-x="714" 
d="M486 722q-44 0 -73.5 26.5t-29.5 69.5q0 50 33 79t79 29q43 0 72 -27t29 -69q0 -50 -32.5 -79t-77.5 -29zM487 772q23 0 38 15t15 40q0 22 -13 36t-35 14q-23 0 -37.5 -15.5t-14.5 -42.5q0 -21 12.5 -34t34.5 -13zM337 -8q-160 0 -226 73.5t-36 204.5l67 296
q2 10 -2.5 19.5t-13.5 9.5h-38l24 105h326l-24 -105h-74l-80 -347q-17 -74 9 -105t87 -31q64 0 96 31.5t49 106.5l79 345h-75l25 105h276l-24 -105h-34q-10 0 -21 -9.5t-13 -19.5l-75 -326q-29 -126 -100 -187t-202 -61z" />
    <glyph glyph-name="uring" unicode="&#x16f;" 
d="M360 562q-44 0 -73.5 26.5t-29.5 69.5q0 50 33 79t79 29q43 0 72 -27t29 -69q0 -50 -32.5 -79t-77.5 -29zM361 612q23 0 38 15t15 40q0 22 -13 36t-35 14q-23 0 -37.5 -15.5t-14.5 -42.5q0 -21 12.5 -34t34.5 -13zM431 -8q-106 0 -103 88q-90 -88 -186 -88
q-68 0 -97.5 43t-13.5 114l56 244q2 8 -3 17t-13 9h-30l21 93q59 21 120 21q56 0 78.5 -34.5t8.5 -90.5l-53 -231q-12 -57 40 -57q36 0 83 29l87 377h150q12 0 18 -9t3 -23l-85 -368q-2 -8 4 -16.5t14 -8.5h28l-19 -88q-44 -21 -108 -21z" />
    <glyph glyph-name="Uhungarumlaut" unicode="&#x170;" horiz-adv-x="714" 
d="M337 -8q-160 0 -226 73.5t-36 204.5l67 296q2 10 -2.5 19.5t-13.5 9.5h-38l24 105h326l-24 -105h-74l-80 -347q-17 -74 9 -105t87 -31q64 0 96 31.5t49 106.5l79 345h-75l25 105h276l-24 -105h-34q-10 0 -21 -9.5t-13 -19.5l-75 -326q-29 -126 -100 -187t-202 -61z
M515 733l44 140h142l-12 -51l-82 -89h-92zM338 733l44 140h142l-13 -51l-82 -89h-91z" />
    <glyph glyph-name="uhungarumlaut" unicode="&#x171;" 
d="M431 -8q-106 0 -103 88q-90 -88 -186 -88q-68 0 -97.5 43t-13.5 114l56 244q2 8 -3 17t-13 9h-30l21 93q59 21 120 21q56 0 78.5 -34.5t8.5 -90.5l-53 -231q-12 -57 40 -57q36 0 83 29l87 377h150q12 0 18 -9t3 -23l-85 -368q-2 -8 4 -16.5t14 -8.5h28l-19 -88
q-44 -21 -108 -21zM391 560l44 140h142l-12 -51l-82 -89h-92zM214 560l44 140h142l-13 -51l-82 -89h-91z" />
    <glyph glyph-name="Uogonek" unicode="&#x172;" horiz-adv-x="714" 
d="M341 -167q-44 0 -69 18.5t-25 50.5q0 59 81 90q-155 2 -219 75.5t-34 202.5l67 296q2 10 -2.5 19.5t-14.5 9.5h-38l24 105h327l-25 -105h-74l-79 -347q-17 -74 9 -105t87 -31q63 0 95 31.5t49 106.5l79 345h-74l24 105h276l-24 -105h-34q-9 0 -20 -10t-13 -19l-76 -326
q-24 -103 -71 -157t-138 -83q-24 -8 -40.5 -24.5t-16.5 -34.5q0 -22 35 -22h19l-16 -70q-32 -16 -69 -16z" />
    <glyph glyph-name="uogonek" unicode="&#x173;" 
d="M441 -167q-44 0 -69.5 18.5t-25.5 50.5q0 57 85 90h-5q-101 3 -98 88q-90 -88 -186 -88q-68 0 -97.5 43t-13.5 114l56 244q2 8 -3 17t-13 9h-30l21 93q59 21 120 21q56 0 78.5 -34.5t8.5 -90.5l-53 -231q-12 -57 40 -57q36 0 83 29l87 377h150q12 0 18 -9t3 -23l-85 -368
q-2 -8 4 -16.5t14 -8.5h28l-19 -85q-67 -41 -67 -74q0 -23 35 -23h20l-17 -70q-32 -16 -69 -16z" />
    <glyph glyph-name="Ydieresis" unicode="&#x178;" horiz-adv-x="669" 
d="M118 0l23 101h41q10 0 21 10.5t13 19.5l35 155l-118 287q-8 22 -24 22h-22l25 105h302l-24 -105h-71l76 -201h3l101 135q23 31 17 48.5t-37 17.5h-20l24 105h278l-24 -105h-15q-22 0 -45 -27l-238 -292l-32 -145q-3 -10 1.5 -20t14.5 -10h44l-23 -101h-326zM564 734
q-35 0 -56.5 21t-21.5 54q0 36 25.5 59t60.5 23t57 -21.5t22 -53.5q0 -36 -25.5 -59t-61.5 -23zM366 734q-34 0 -55.5 21t-21.5 54q0 36 25 59t61 23q35 0 56.5 -21.5t21.5 -53.5q0 -37 -25.5 -59.5t-61.5 -22.5z" />
    <glyph glyph-name="Zacute" unicode="&#x179;" horiz-adv-x="563" 
d="M331 733l49 140h171l-13 -53l-105 -87h-102zM-50 0l29 125l428 458v4h-176l-39 -97h-113l49 210h518l-30 -128l-428 -459v-4h193l43 112h118l-51 -221h-541z" />
    <glyph glyph-name="zacute" unicode="&#x17a;" horiz-adv-x="487" 
d="M257 560l49 140h171l-13 -53l-105 -87h-102zM-47 0l26 112l328 305h-132l-35 -77h-98l43 186h451l-26 -115l-331 -305h139l32 77h102l-42 -183h-457z" />
    <glyph glyph-name="Zdotaccent" unicode="&#x17b;" horiz-adv-x="563" 
d="M-50 0l29 125l428 458v4h-176l-39 -97h-113l49 210h518l-30 -128l-428 -459v-4h193l43 112h118l-51 -221h-541zM392 736q-37 0 -60 22t-23 56q0 39 27 63.5t65 24.5q37 0 60 -22.5t23 -56.5q0 -39 -27 -63t-65 -24z" />
    <glyph glyph-name="zdotaccent" unicode="&#x17c;" horiz-adv-x="487" 
d="M-47 0l26 112l328 305h-132l-35 -77h-98l43 186h451l-26 -115l-331 -305h139l32 77h102l-42 -183h-457zM320 563q-37 0 -60 22t-23 56q0 39 27 63.5t65 24.5q37 0 60 -22.5t23 -56.5q0 -39 -27 -63t-65 -24z" />
    <glyph glyph-name="Zcaron" unicode="&#x17d;" horiz-adv-x="563" 
d="M323 733l-57 102l9 38h65l60 -55l82 55h68l-9 -38l-90 -102h-128zM-50 0l29 125l428 458v4h-176l-39 -97h-113l49 210h518l-30 -128l-428 -459v-4h193l43 112h118l-51 -221h-541z" />
    <glyph glyph-name="zcaron" unicode="&#x17e;" horiz-adv-x="487" 
d="M257 560l-57 102l9 38h65l60 -55l82 55h68l-9 -38l-90 -102h-128zM-47 0l26 112l328 305h-132l-35 -77h-98l43 186h451l-26 -115l-331 -305h139l32 77h102l-42 -183h-457z" />
    <glyph glyph-name="florin" unicode="&#x192;" horiz-adv-x="372" 
d="M40 337l24 103h60l28 121q34 151 215 151q46 0 89 -15l-23 -96h-25q-61 0 -73 -52l-27 -109h87l-24 -103h-87l-66 -274q-27 -121 -161 -163h-99l21 94q47 16 60 76l61 267h-60z" />
    <glyph glyph-name="Scommaaccent" unicode="&#x218;" horiz-adv-x="532" 
d="M90 -227l12 55q57 7 57 28q0 7 -18 23.5t-18 36.5q0 29 20.5 47t48.5 18q30 0 50 -19.5t20 -51.5q0 -129 -172 -137zM223 -9q-53 0 -120 9h-143l48 214h125l-4 -98q33 -12 84 -12q116 0 116 85q0 11 -2 20t-9 17.5t-12 13.5t-19 13t-20.5 11t-26.5 12.5t-28 13.5
q-68 32 -103 72t-35 116q0 106 70.5 168.5t200.5 62.5q66 0 122 -9h121l-46 -196h-120v86q-29 11 -74 11q-108 0 -108 -82q0 -16 5.5 -28.5t18.5 -22.5t25 -16.5t36 -16.5q50 -22 74.5 -35.5t54 -38t41.5 -56.5t12 -77q0 -107 -72.5 -172t-211.5 -65z" />
    <glyph glyph-name="scommaaccent" unicode="&#x219;" horiz-adv-x="435" 
d="M20 -227l12 55q57 7 57 28q0 7 -18 23.5t-18 36.5q0 29 20.5 47t48.5 18q30 0 50 -19.5t20 -51.5q0 -129 -172 -137zM169 -7q-126 0 -203 42l27 116h87q11 -27 29 -41t54 -14q32 0 53 13t21 39q0 5 -1 10t-4 9t-6 7t-8.5 6t-9.5 5.5t-11.5 5t-12.5 4.5t-14.5 5t-14.5 5
q-115 40 -115 142q0 91 62 138.5t166 47.5q107 0 187 -36l-27 -118h-86q-20 52 -80 52q-69 0 -69 -49q0 -20 17.5 -31.5t58.5 -25.5q64 -22 98.5 -54t34.5 -92q0 -89 -62 -137.5t-171 -48.5z" />
    <glyph glyph-name="uni0237" unicode="&#x237;" horiz-adv-x="278" 
d="M-14 -169q-58 0 -101 15l21 87h27q31 0 45.5 13.5t22.5 47.5l91 399q2 8 -3.5 17t-13.5 9h-34l21 93q56 20 125 20q54 0 78 -29t11 -84l-99 -434q-19 -84 -65 -119t-126 -35z" />
    <glyph glyph-name="circumflex" unicode="&#x2c6;" horiz-adv-x="400" 
d="M131 560l9 38l90 102h128l57 -102l-9 -38h-65l-60 54l-82 -54h-68z" />
    <glyph glyph-name="caron" unicode="&#x2c7;" horiz-adv-x="400" 
d="M212 560l-57 102l9 38h65l60 -55l82 55h68l-9 -38l-90 -102h-128z" />
    <glyph glyph-name="breve" unicode="&#x2d8;" horiz-adv-x="400" 
d="M286 559q-58 0 -90.5 26.5t-41.5 64.5l12 50h84q2 -39 42 -39t54 39h92l-14 -62q-44 -79 -138 -79z" />
    <glyph glyph-name="dotaccent" unicode="&#x2d9;" horiz-adv-x="400" 
d="M283 563q-37 0 -60 22t-23 56q0 39 27 63.5t65 24.5q37 0 60 -22.5t23 -56.5q0 -39 -27 -63t-65 -24z" />
    <glyph glyph-name="ring" unicode="&#x2da;" horiz-adv-x="400" 
d="M290 562q-44 0 -73.5 26.5t-29.5 69.5q0 50 33 79t79 29q43 0 72 -27t29 -69q0 -50 -32.5 -79t-77.5 -29zM291 612q23 0 38 15t15 40q0 22 -13 36t-35 14q-23 0 -37.5 -15.5t-14.5 -42.5q0 -21 12.5 -34t34.5 -13z" />
    <glyph glyph-name="ogonek" unicode="&#x2db;" horiz-adv-x="400" 
d="M136 -167q-44 0 -69 18.5t-25 50.5q0 34 30.5 59t74.5 39h65q-45 -38 -45 -59q0 -22 35 -22h20l-17 -70q-32 -16 -69 -16z" />
    <glyph glyph-name="tilde" unicode="&#x2dc;" horiz-adv-x="400" 
d="M102 560l16 73q36 62 106 62q25 0 69.5 -10t55.5 -10q29 0 43 25h78l-17 -74q-38 -63 -107 -63q-25 0 -69.5 12t-55.5 12q-27 0 -42 -27h-77z" />
    <glyph glyph-name="hungarumlaut" unicode="&#x2dd;" horiz-adv-x="400" 
d="M305 560l44 140h142l-12 -51l-82 -89h-92zM128 560l44 140h142l-13 -51l-82 -89h-91z" />
    <glyph glyph-name="uni2009" unicode="&#x2009;" horiz-adv-x="93" 
 />
    <glyph glyph-name="endash" unicode="&#x2013;" horiz-adv-x="413" 
d="M15 228l27 122h370l-28 -122h-369z" />
    <glyph glyph-name="emdash" unicode="&#x2014;" horiz-adv-x="679" 
d="M15 228l27 122h636l-28 -122h-635z" />
    <glyph glyph-name="quoteleft" unicode="&#x2018;" horiz-adv-x="196" 
d="M158 435q-36 0 -60 23.5t-24 61.5q0 84 58 131t156 52l-15 -67q-71 -9 -71 -41q0 -4 2 -7.5t3.5 -5.5t7 -6t9.5 -7q22 -17 22 -47q0 -38 -25.5 -62.5t-62.5 -24.5z" />
    <glyph glyph-name="quoteright" unicode="&#x2019;" horiz-adv-x="196" 
d="M52 441l15 67q71 9 71 41q0 4 -1.5 7.5t-3.5 5t-7.5 5.5t-8.5 7q-23 18 -23 48q0 38 25.5 62t62.5 24q36 0 60.5 -23t24.5 -62q0 -83 -58 -130t-157 -52z" />
    <glyph glyph-name="quotesinglbase" unicode="&#x201a;" horiz-adv-x="196" 
d="M-74 -105l15 67q71 9 71 41q0 4 -2 7.5t-3.5 5.5t-7 6t-9.5 7q-22 17 -22 47q0 38 25.5 62t62.5 24q36 0 60 -23t24 -62q0 -83 -58 -130t-156 -52z" />
    <glyph glyph-name="quotedblleft" unicode="&#x201c;" horiz-adv-x="391" 
d="M353 435q-36 0 -60.5 23.5t-24.5 61.5q0 84 58 131t157 52l-15 -67q-71 -9 -71 -41q0 -4 1.5 -7.5t3.5 -5.5t7.5 -6t8.5 -7q23 -16 23 -47q0 -38 -25.5 -62.5t-62.5 -24.5zM158 435q-36 0 -60 23.5t-24 61.5q0 84 58 131t156 52l-15 -67q-71 -9 -71 -41q0 -4 2 -7.5
t3.5 -5.5t7 -6t9.5 -7q22 -17 22 -47q0 -38 -25.5 -62.5t-62.5 -24.5z" />
    <glyph glyph-name="quotedblright" unicode="&#x201d;" horiz-adv-x="391" 
d="M247 441l15 67q71 9 71 41q0 4 -2 7.5t-3.5 5t-7.5 5.5t-9 7q-22 19 -22 48q0 38 25.5 62t62.5 24q36 0 60 -23t24 -62q0 -83 -58 -130t-156 -52zM52 441l15 67q71 9 71 41q0 4 -1.5 7.5t-3.5 5t-7.5 5.5t-8.5 7q-23 18 -23 48q0 38 25.5 62t62.5 24q36 0 60.5 -23
t24.5 -62q0 -83 -58 -130t-157 -52z" />
    <glyph glyph-name="quotedblbase" unicode="&#x201e;" horiz-adv-x="390" 
d="M121 -105l15 67q70 9 70 41q0 4 -1.5 7.5t-3.5 5.5t-7.5 6t-8.5 7q-22 17 -22 47q0 38 25.5 62t62.5 24q36 0 60 -23t24 -62q0 -83 -58 -130t-156 -52zM-74 -105l15 67q71 9 71 41q0 4 -2 7.5t-3.5 5.5t-7 6t-9.5 7q-22 17 -22 47q0 38 25.5 62t62.5 24q36 0 60 -23
t24 -62q0 -83 -58 -130t-156 -52z" />
    <glyph glyph-name="dagger" unicode="&#x2020;" horiz-adv-x="456" 
d="M128 -49l6 312l12 54l98 128l-152 -51l-43 32l25 112l58 24l121 -73l-27 128l9 38l37 45h113l17 -58l-8 -38l-89 -121l153 52l44 -32l-26 -113l-58 -23l-121 74l35 -138l-12 -53l-129 -299h-63z" />
    <glyph glyph-name="daggerdbl" unicode="&#x2021;" horiz-adv-x="456" 
d="M101 -49l-17 61l9 38l84 114l-150 -50l-44 32l26 111l57 25l119 -72l-35 98l11 48l79 89l-148 -49l-43 32l26 112l57 24l122 -74l-29 124l9 39l38 47h113l17 -61l-9 -38l-86 -115l152 51l43 -32l-25 -111l-57 -25l-120 72l36 -98l-11 -48l-80 -90l148 50l44 -32l-26 -112
l-57 -24l-123 74l29 -125l-8 -38l-38 -47h-113z" />
    <glyph glyph-name="bullet" unicode="&#x2022;" horiz-adv-x="331" 
d="M159 135q-59 0 -98.5 36t-39.5 93q0 74 47 117.5t114 43.5q59 0 98 -35.5t39 -92.5q0 -75 -45.5 -118.5t-114.5 -43.5z" />
    <glyph glyph-name="ellipsis" unicode="&#x2026;" horiz-adv-x="621" 
d="M470 -6q-38 0 -62.5 24.5t-24.5 58.5q0 39 28.5 65.5t66.5 26.5t63 -24.5t25 -59.5q0 -39 -28.5 -65t-67.5 -26zM265 -6q-38 0 -62.5 24.5t-24.5 58.5q0 39 28.5 65.5t66.5 26.5t63 -24.5t25 -59.5q0 -39 -28.5 -65t-67.5 -26zM60 -6q-38 0 -62.5 24.5t-24.5 58.5
q0 39 28.5 65.5t66.5 26.5t63 -24.5t25 -59.5q0 -39 -28.5 -65t-67.5 -26z" />
    <glyph glyph-name="perthousand" unicode="&#x2030;" horiz-adv-x="1192" 
d="M231 411q32 0 55 49.5t23 110.5q0 54 -38 54q-33 0 -56.5 -50t-23.5 -112q0 -52 40 -52zM220 329q-69 0 -110.5 39t-41.5 108q0 102 63.5 167t148.5 65q70 0 112 -39t42 -108q0 -101 -64.5 -166.5t-149.5 -65.5zM52 -34l643 763h103l-643 -763h-103zM582 73q32 0 55 49.5
t23 110.5q0 54 -38 54q-33 0 -56.5 -49.5t-23.5 -112.5q0 -52 40 -52zM570 -8q-69 0 -110 38.5t-41 107.5q0 102 63.5 167.5t147.5 65.5q70 0 112.5 -39.5t42.5 -108.5q0 -101 -64.5 -166t-150.5 -65zM963 73q32 0 55 49.5t23 110.5q0 54 -38 54q-33 0 -56.5 -49.5
t-23.5 -112.5q0 -52 40 -52zM951 -8q-69 0 -110 38.5t-41 107.5q0 102 63.5 167.5t147.5 65.5q70 0 112 -39.5t42 -108.5q0 -101 -64 -166t-150 -65z" />
    <glyph glyph-name="guilsinglleft" unicode="&#x2039;" horiz-adv-x="285" 
d="M123 40l-105 191l18 77l174 172h101l-12 -51l-132 -171v-3l54 -162l-12 -53h-86z" />
    <glyph glyph-name="guilsinglright" unicode="&#x203a;" horiz-adv-x="285" 
d="M-27 40l12 51l133 171v3l-55 162l12 53h86l106 -191l-18 -77l-174 -172h-102z" />
    <glyph glyph-name="fraction" unicode="&#x2044;" horiz-adv-x="182" 
d="M-264 -34l644 763h103l-643 -763h-104z" />
    <glyph glyph-name="Euro" unicode="&#x20ac;" horiz-adv-x="601" 
d="M40 369l18 79h46q20 59 55 108q112 153 298 153q125 0 211 -40l-37 -157h-99q-20 73 -82 73q-76 0 -126 -87q-12 -20 -22 -50h179l-33 -79h-171q-2 -10 -5 -28.5t-4 -22.5h158l-32 -79h-134v-15q0 -56 23 -83t73 -27q67 0 115 60h94l-31 -139q-90 -44 -192 -44
q-130 0 -201 66t-71 182h-60l18 79h46q1 17 7 51h-41z" />
    <glyph glyph-name="trademark" unicode="&#x2122;" horiz-adv-x="697" 
d="M336 420l11 49h13q4 0 8.5 4t5.5 8l36 157q3 11 -6 11h-15l12 51h149l6 -141h1l71 141h160l-12 -51h-14q-10 0 -13 -11l-37 -157q-2 -12 6 -12h16l-11 -49h-143l11 49h25l37 161h-1l-108 -210h-56l-12 210h-1l-37 -161h25l-11 -49h-116zM112 420l11 49h15q4 0 8 4t5 8
l39 166h-28l-18 -51h-53l24 104h272l-24 -104h-55l6 51h-28l-39 -166q-2 -12 7 -12h17l-11 -49h-148z" />
    <glyph glyph-name="onethird" unicode="&#x2153;" horiz-adv-x="768" 
d="M25 310l17 70h41q4 0 10.5 5.5t8.5 9.5l47 203l-42 -21h-27l18 77l111 46h100l-71 -305q-2 -4 1 -9.5t8 -5.5h44l-17 -70h-249zM14 -34l644 763h103l-643 -763h-104zM544 -6q-91 0 -143 27l21 86h65q11 -34 51 -34q24 0 39 13t15 38q0 34 -45 34h-34l18 73h33q28 0 43 13
t15 34q0 32 -38 32q-31 0 -53 -27h-63l23 94q60 19 117 19q67 0 103.5 -25t36.5 -69q0 -84 -97 -106v-2q34 -6 52 -25t18 -48q0 -60 -47.5 -93.5t-129.5 -33.5z" />
    <glyph glyph-name="twothirds" unicode="&#x2154;" horiz-adv-x="805" 
d="M19 310l12 52q11 49 41.5 82t83.5 62q66 36 80 50q14 15 14 33q0 29 -34 29q-38 0 -59 -34h-65l23 101q58 21 124 21q69 0 106.5 -26.5t37.5 -74.5q0 -54 -31 -84.5t-91 -58.5q-73 -34 -88 -49q-7 -7 -10 -14h87l14 28h76l-27 -117h-294zM49 -34l644 763h103l-643 -763
h-104zM581 -6q-91 0 -143 27l21 86h65q11 -34 51 -34q24 0 39 13t15 38q0 34 -45 34h-34l18 73h33q28 0 43 13t15 34q0 32 -38 32q-31 0 -53 -27h-63l23 94q60 19 117 19q67 0 103.5 -25t36.5 -69q0 -84 -97 -106v-2q34 -6 52 -25t18 -48q0 -60 -47.5 -93.5t-129.5 -33.5z
" />
    <glyph glyph-name="oneeighth" unicode="&#x215b;" horiz-adv-x="784" 
d="M25 310l17 70h41q4 0 10.5 5.5t8.5 9.5l47 203l-42 -21h-27l18 77l111 46h100l-71 -305q-2 -4 1 -9.5t8 -5.5h44l-17 -70h-249zM12 -34l644 763h103l-643 -763h-104zM554 -7q-80 0 -122.5 29t-42.5 75q0 43 27.5 72t75.5 40v3q-45 18 -45 63q0 56 48.5 88.5t120.5 32.5
q68 0 107 -26.5t39 -70.5q0 -71 -83 -94v-2q59 -20 59 -74q0 -62 -49.5 -99t-134.5 -37zM557 69q26 0 42 19.5t16 45.5q0 42 -42 42q-25 0 -40.5 -20t-15.5 -46q0 -41 40 -41zM596 235q21 0 33 14.5t12 37.5q0 14 -8.5 23.5t-23.5 9.5q-21 0 -34 -15.5t-13 -38.5
q0 -31 34 -31z" />
    <glyph glyph-name="threeeighths" unicode="&#x215c;" horiz-adv-x="786" 
d="M166 304q-91 0 -143 27l21 86h65q11 -34 51 -34q24 0 39 13t15 38q0 34 -45 34h-34l18 73h33q28 0 43 13t15 34q0 32 -38 32q-31 0 -53 -27h-63l23 94q60 19 117 19q67 0 103.5 -25t36.5 -69q0 -84 -97 -106v-2q34 -6 52 -25t18 -48q0 -60 -47.5 -93.5t-129.5 -33.5z
M19 -34l644 763h103l-643 -763h-104zM556 -7q-80 0 -122.5 29t-42.5 75q0 43 27.5 72t75.5 40v3q-45 18 -45 63q0 56 48.5 88.5t120.5 32.5q68 0 107 -26.5t39 -70.5q0 -71 -83 -94v-2q59 -20 59 -74q0 -62 -49.5 -99t-134.5 -37zM559 69q26 0 42 19.5t16 45.5q0 42 -42 42
q-25 0 -40.5 -20t-15.5 -46q0 -41 40 -41zM598 235q21 0 33 14.5t12 37.5q0 14 -8.5 23.5t-23.5 9.5q-21 0 -34 -15.5t-13 -38.5q0 -31 34 -31z" />
    <glyph glyph-name="fiveeighths" unicode="&#x215d;" horiz-adv-x="781" 
d="M164 303q-85 0 -141 26l20 86h67q12 -32 50 -32q24 0 41 16.5t17 45.5q0 37 -40 37q-27 0 -45 -20h-72l56 238h269l-26 -110h-77l-4 22h-93l-18 -80h1q32 24 74 24q49 0 78 -26.5t29 -71.5q0 -71 -51 -113t-135 -42zM12 -34l644 763h103l-643 -763h-104zM551 -7
q-80 0 -122.5 29t-42.5 75q0 43 27.5 72t75.5 40v3q-45 18 -45 63q0 56 48.5 88.5t120.5 32.5q68 0 107 -26.5t39 -70.5q0 -71 -83 -94v-2q59 -20 59 -74q0 -62 -49.5 -99t-134.5 -37zM554 69q26 0 42 19.5t16 45.5q0 42 -42 42q-25 0 -40.5 -20t-15.5 -46q0 -41 40 -41z
M593 235q21 0 33 14.5t12 37.5q0 14 -8.5 23.5t-23.5 9.5q-21 0 -34 -15.5t-13 -38.5q0 -31 34 -31z" />
    <glyph glyph-name="seveneighths" unicode="&#x215e;" horiz-adv-x="761" 
d="M-13 -34l644 763h103l-643 -763h-104zM531 -7q-80 0 -122.5 29t-42.5 75q0 43 27.5 72t75.5 40v3q-45 18 -45 63q0 56 48.5 88.5t120.5 32.5q68 0 107 -26.5t39 -70.5q0 -71 -83 -94v-2q59 -20 59 -74q0 -62 -49.5 -99t-134.5 -37zM534 69q26 0 42 19.5t16 45.5
q0 42 -42 42q-25 0 -40.5 -20t-15.5 -46q0 -41 40 -41zM573 235q21 0 33 14.5t12 37.5q0 14 -8.5 23.5t-23.5 9.5q-21 0 -34 -15.5t-13 -38.5q0 -31 34 -31zM70 310l13 52l209 241v3h-118l-21 -42h-78l33 136h295l-24 -100l-175 -290h-134z" />
    <glyph glyph-name="minus" unicode="&#x2212;" horiz-adv-x="513" 
d="M18 280l31 131h485l-31 -131h-485z" />
    <glyph glyph-name="space_uni0326" unicode="&#xf6c3;" horiz-adv-x="400" 
d="M26 -227l12 55q57 7 57 28q0 7 -18 23.5t-18 36.5q0 29 20.5 47t48.5 18q30 0 50 -19.5t20 -51.5q0 -129 -172 -137z" />
    <glyph glyph-name="paragraph.cap" horiz-adv-x="558" 
d="M172 0l69 301q-82 9 -128.5 50t-46.5 113q0 121 79 178.5t207 57.5h298l-25 -105h-35q-10 0 -21 -9.5t-13 -19.5l-131 -566h-96l137 594h-62l-137 -594h-95z" />
    <glyph glyph-name="bullet.cap" horiz-adv-x="331" 
d="M171 182q-59 0 -98.5 34.5t-39.5 92.5q0 73 47 118t114 45q59 0 98 -34t39 -91q0 -76 -46 -120.5t-114 -44.5z" />
    <glyph glyph-name="at.cap" horiz-adv-x="785" 
d="M410 -9q-73 0 -137.5 20t-117 59.5t-83.5 106t-31 151.5q0 89 37 164t95.5 122t128 72.5t137.5 25.5q145 0 247 -80t102 -217q0 -120 -63 -183t-159 -63q-100 0 -125 64q-44 -63 -114 -63q-51 0 -81.5 33t-30.5 91q0 99 59 169q54 62 135 62q59 0 93 -41q37 35 62 35h60
l-51 -224q-7 -25 -2 -40.5t25 -15.5q48 0 78 44t30 129q0 106 -72.5 166.5t-191.5 60.5q-57 0 -110.5 -19.5t-97.5 -56.5t-70.5 -98.5t-26.5 -137.5q0 -135 75 -200t202 -65q126 0 210 53h55l-13 -59q-94 -65 -254 -65zM381 252q26 0 53 27l36 157q-20 5 -34 5
q-42 0 -65.5 -41t-23.5 -102q0 -46 34 -46z" />
    <glyph glyph-name="dagger.cap" horiz-adv-x="456" 
d="M139 0l3 295l12 53l94 115l-155 -51l-43 31l26 113l57 24l124 -73l-31 113l9 35l37 45h113l17 -58l-7 -35l-84 -105l155 52l43 -32l-26 -113l-57 -24l-125 74l38 -124l-12 -53l-125 -282h-63z" />
    <glyph glyph-name="daggerdbl.cap" horiz-adv-x="456" 
d="M113 0l-18 59l9 38l80 98l-149 -48l-44 32l25 107l57 24l119 -70l-36 99l8 34l82 91l-148 -48l-44 32l25 108l57 24l122 -72l-33 108l9 37l37 47h113l18 -59l-8 -38l-80 -99l149 49l44 -32l-25 -107l-57 -24l-121 70l36 -99l-7 -35l-82 -91l149 49l44 -32l-26 -108
l-56 -23l-122 71l32 -109l-9 -36l-37 -47h-113z" />
    <glyph glyph-name="less.cap" horiz-adv-x="447" 
d="M304 0l-281 303l27 113l402 284h80l-24 -103l-291 -251v-3l176 -242l-23 -101h-66z" />
    <glyph glyph-name="greater.cap" horiz-adv-x="447" 
d="M-43 0l22 101l293 253v3l-178 239l24 104h66l281 -303l-26 -113l-403 -284h-79z" />
    <glyph glyph-name="guillemotleft.cap" horiz-adv-x="710" 
d="M569 0l-249 302l26 111l371 287h77l-24 -103l-261 -255v-3l147 -238l-23 -101h-64zM272 0l-248 307l26 110l370 283h77l-24 -103l-261 -252v-3l147 -241l-23 -101h-64z" />
    <glyph glyph-name="guillemotright.cap" horiz-adv-x="709" 
d="M253 0l23 101l261 252v3l-146 240l23 104h65l247 -306l-26 -111l-370 -283h-77zM-44 0l23 101l261 256v3l-146 236l23 104h65l248 -302l-26 -111l-371 -287h-77z" />
    <glyph glyph-name="quotedblleft.cap" horiz-adv-x="1021" 
d="M760 -8q-110 0 -174.5 64t-64.5 174q0 195 154.5 328t426.5 144l-24 -107q-124 -11 -183 -55.5t-59 -99.5q0 -22 12.5 -36.5t44 -33.5t47.5 -32q54 -44 54 -123q0 -98 -66.5 -160.5t-167.5 -62.5zM252 -8q-110 0 -174.5 64t-64.5 174q0 195 154.5 328t426.5 144l-24 -107
q-124 -11 -183 -55.5t-59 -99.5q0 -22 12.5 -36.5t44 -33.5t47.5 -32q54 -44 54 -123q0 -98 -66.5 -160.5t-167.5 -62.5z" />
    <glyph glyph-name="quotedblright.cap" horiz-adv-x="1020" 
d="M468 -2l24 103q64 6 112.5 23t76 40t40.5 47t13 49q0 23 -13 37t-44 32.5t-47 32.5q-54 44 -54 123q0 99 66 161.5t167 62.5q110 0 175 -64.5t65 -174.5q0 -195 -154 -327.5t-427 -144.5zM-40 -2l23 103q124 12 183 58t59 101q0 23 -12.5 37t-43.5 33t-47 32
q-55 45 -55 123q0 99 66.5 161.5t167.5 62.5q110 0 175 -64.5t65 -174.5q0 -194 -154.5 -327t-426.5 -145z" />
    <glyph glyph-name="quoteleft.cap" horiz-adv-x="512" 
d="M252 -8q-110 0 -174.5 64t-64.5 174q0 195 154.5 328t426.5 144l-24 -107q-124 -11 -183 -55.5t-59 -99.5q0 -22 12.5 -36.5t44 -33.5t47.5 -32q54 -44 54 -123q0 -98 -66.5 -160.5t-167.5 -62.5z" />
    <glyph glyph-name="quoteright.cap" horiz-adv-x="512" 
d="M-40 -2l23 103q124 12 183 58t59 101q0 23 -12.5 37t-43.5 33t-47 32q-55 45 -55 123q0 99 65 161.5t165 62.5q110 0 177 -64.5t67 -174.5q0 -194 -154.5 -327t-426.5 -145z" />
    <glyph glyph-name="hyphen.cap" horiz-adv-x="289" 
d="M23 266l30 129h245l-30 -129h-245z" />
    <glyph glyph-name="endash.cap" horiz-adv-x="413" 
d="M24 270l28 121h370l-28 -121h-370z" />
    <glyph glyph-name="emdash.cap" horiz-adv-x="679" 
d="M24 270l28 121h636l-28 -121h-636z" />
    <glyph glyph-name="questiondown.cap" horiz-adv-x="447" 
d="M336 531q-38 0 -62.5 25t-24.5 60q0 38 28.5 64t66.5 26t62.5 -24.5t24.5 -58.5q0 -39 -28.5 -65.5t-66.5 -26.5zM197 -9q-100 0 -154 41.5t-54 112.5t38 115.5t112 87.5q40 24 55.5 34.5t37.5 29t30 36t10 40.5h104q2 -61 -18 -102.5t-75 -87.5q-5 -4 -24 -18.5
t-29.5 -24t-24.5 -25t-21 -32.5t-7 -35q0 -23 13.5 -36.5t37.5 -13.5q52 0 85 56h101l-33 -146q-83 -32 -184 -32z" />
    <glyph glyph-name="exclamdown.cap" horiz-adv-x="223" 
d="M213 488l-45 -383l-24 -105h-185l24 105l144 383h86zM199 706q38 0 62.5 -24.5t24.5 -58.5q0 -39 -28.5 -65.5t-66.5 -26.5t-63 25t-25 60q0 38 29 64t67 26z" />
    <glyph glyph-name="R.alt" horiz-adv-x="689" 
d="M529 -8q-66 0 -96.5 29.5t-32.5 97.5l-3 74q-1 55 -22 74t-66 19h-40l-42 -185h76l-23 -101h-329l23 101h35q10 0 21 10.5t13 19.5l100 435q2 9 -4.5 19t-15.5 10h-36l25 105h307q123 0 188 -45t65 -125q0 -81 -50 -130t-143 -64v-4q43 -12 67.5 -43t38.5 -103l13 -66
q1 -8 8 -13.5t14 -5.5h21l-20 -90q-44 -19 -92 -19zM336 588l-47 -205h59q131 0 131 131q0 74 -91 74h-52z" />
    <glyph glyph-name="a.alt" horiz-adv-x="588" 
d="M434 -8q-96 0 -111 78q-66 -79 -162 -79q-71 0 -113.5 46.5t-42.5 135.5q0 73 25 146.5t73 125.5q81 90 193 90q88 0 137 -58q49 49 97 49h64l-92 -400q-2 -8 3.5 -16.5t13.5 -8.5h27l-19 -88q-44 -21 -93 -21zM252 104q36 0 74 33l62 270q-27 9 -54 9q-71 0 -111 -67
t-40 -166q0 -39 18.5 -59t50.5 -20z" />
    <glyph glyph-name="f.alt" horiz-adv-x="334" 
d="M41 419l24 107h58l7 33q18 80 67 116.5t133 36.5q59 0 98 -15l-22 -96h-27q-34 0 -50.5 -10t-22.5 -38l-6 -27h82l-24 -107h-81l-96 -434q-36 -153 -184 -153q-53 0 -93 16l21 94h18q27 0 41 11t21 39l94 427h-58z" />
    <glyph glyph-name="g.alt" horiz-adv-x="584" 
d="M180 -172q-131 0 -206 30l29 120h102q22 -44 85 -44q100 0 121 90l16 72q-67 -70 -162 -70q-73 0 -115 44.5t-42 127.5q0 141 88 244q77 93 196 93q90 0 138 -66q44 57 93 57h81l-116 -503q-23 -99 -97.5 -147t-210.5 -48zM255 126q42 0 88 41l54 235q-26 14 -62 14
q-69 0 -108.5 -64t-39.5 -148q0 -76 68 -78z" />
    <glyph glyph-name="y.alt" horiz-adv-x="533" 
d="M-38 -162l20 91q110 27 171 83l-68 385q-1 9 -7.5 15.5t-13.5 6.5h-23l21 93q53 21 105 21q43 0 63 -23.5t27 -72.5l33 -257q94 161 131 346h151l-23 -101q-40 -97 -83 -174.5t-127 -190.5q-61 -80 -115 -131t-121 -91h-141z" />
    <glyph glyph-name="z.alt" horiz-adv-x="478" 
d="M314 -8q-43 0 -109.5 22.5t-94.5 22.5q-43 0 -68 -37h-89l22 99l309 272v4q-26 0 -61 2.5t-52 2.5q-32 0 -44 -29h-89l39 170q41 13 87 13q42 0 112 -20.5t98 -20.5q39 0 64 33h88l-21 -95l-313 -280v-4q24 0 57 -3t50 -3q36 0 54 36h88l-38 -165q-36 -20 -89 -20z" />
    <glyph glyph-name="germandbls.alt" horiz-adv-x="637" 
d="M-21 -168q-53 0 -93 16l22 94h18q27 0 41 11t20 39l115 523q19 89 93.5 142t201.5 53q102 0 166.5 -37t64.5 -100q0 -39 -23 -67.5t-66 -57.5q-95 -61 -95 -85q0 -3 0.5 -5.5t2 -5.5t3.5 -5t5.5 -5t7 -5.5t9.5 -7t11.5 -8t14.5 -10t17 -11.5q44 -30 67 -59t23 -71
q0 -75 -59.5 -126t-162.5 -51q-86 0 -156 34l27 117h88q9 -49 52 -49q21 0 35.5 10.5t14.5 29.5q0 5 -1.5 10t-5.5 9.5t-7.5 8t-11 8.5t-12.5 8.5t-15 9.5t-16 10q-47 30 -66.5 54.5t-19.5 61.5q0 62 82 136q30 28 40.5 38.5t22.5 28.5t12 33q0 21 -16 33.5t-44 12.5
q-85 0 -107 -95l-115 -517q-34 -153 -185 -153z" />
    <glyph glyph-name="ampersand.alt" horiz-adv-x="710" 
d="M242 -8q-121 0 -184 49t-63 129q0 162 197 225q-21 47 -21 94q0 101 66.5 160.5t179.5 59.5q64 0 97 -9h133l-43 -187h-117l-5 67q-18 8 -46 8q-39 0 -60 -21t-21 -59q0 -43 37 -92l110 -150q23 37 39 81h-36l21 92h215l-23 -97h-21q-25 0 -37 -25q-43 -90 -86 -147
l32 -44q18 -25 33 -25h18l-23 -101h-161l-34 46q-86 -54 -197 -54zM275 109q50 0 96 29l-130 176q-58 -42 -58 -116q0 -41 22.5 -65t69.5 -24z" />
    <glyph glyph-name="f_i.alt" horiz-adv-x="593" 
d="M422 -8q-128 0 -98 129l68 298h-115l-96 -434q-36 -153 -184 -153q-53 0 -93 16l21 94h18q27 0 41.5 11t20.5 39l94 427h-58l24 107h58l7 33q34 153 197 153q59 0 95 -15l-21 -96h-25q-31 0 -47.5 -10t-22.5 -38l-6 -27h182q54 0 78 -27t11 -80l-68 -293q-2 -8 4 -16.5
t14 -8.5h31l-20 -88q-44 -21 -110 -21zM522 561q-37 0 -60 22.5t-23 56.5q0 38 27.5 62.5t66.5 24.5q37 0 60 -22.5t23 -55.5q0 -39 -27.5 -63.5t-66.5 -24.5z" />
    <glyph glyph-name="f_l.alt" horiz-adv-x="595" 
d="M41 419l24 107h58l7 33q18 80 68 116.5t135 36.5q45 0 95 -12h177q29 0 21 -38l-124 -536q-2 -8 3.5 -16.5t13.5 -8.5h33l-19 -88q-45 -21 -111 -21q-129 0 -99 129l111 480h-55q-34 0 -50.5 -10t-22.5 -38l-6 -27h78l-24 -107h-77l-96 -434q-36 -153 -184 -153
q-53 0 -93 16l21 94h18q27 0 41 11t21 39l94 427h-58z" />
    <glyph glyph-name="f_f.alt" horiz-adv-x="626" 
d="M41 419l24 107h57l6 27q35 153 196 153q57 0 94 -14l-22 -95h-20q-32 0 -48.5 -10t-22.5 -38l-5 -23h115l7 33q18 80 67.5 116.5t133.5 36.5q58 0 97 -15l-22 -96h-27q-34 0 -49.5 -10t-22.5 -38l-7 -27h82l-24 -107h-81l-94 -428q-36 -153 -184 -153q-50 0 -88 16l21 94
h13q27 0 41 11t21 39l93 421h-115l-96 -434q-34 -153 -184 -153q-53 0 -93 16l21 94h19q26 0 40.5 11t20.5 39l93 427h-57z" />
    <glyph glyph-name="f_b.alt" horiz-adv-x="893" 
d="M741 536q67 0 108 -45t41 -131q0 -77 -25 -154.5t-67 -126.5q-75 -87 -190 -87q-94 0 -142 64q-49 -56 -80 -56h-89l137 601h-55q-34 0 -50.5 -10t-22.5 -38l-6 -27h78l-24 -107h-77l-96 -434q-36 -153 -184 -153q-53 0 -93 16l21 94h18q27 0 41.5 11t20.5 39l94 427h-58
l24 107h58l7 33q18 80 68 116.5t135 36.5q46 0 96 -12h177q28 0 20 -38l-46 -201q73 75 161 75zM637 408q-35 0 -75 -27l-62 -266q26 -15 62 -15q71 0 110 64.5t39 159.5q0 84 -74 84z" />
    <glyph glyph-name="f_h.alt" horiz-adv-x="901" 
d="M687 345q12 52 -36 52q-41 0 -93 -33l-84 -364h-149q-12 0 -18.5 9.5t-3.5 22.5l131 569h-55q-34 0 -50.5 -10t-22.5 -38l-6 -27h78l-24 -107h-77l-96 -434q-36 -153 -184 -153q-53 0 -93 16l21 94h18q27 0 41.5 11t20.5 39l94 427h-58l24 107h58l7 33q18 80 68 116.5
t135 36.5q46 0 96 -12h177q28 0 20 -38l-51 -221q102 94 200 94q63 0 90 -37.5t12 -100.5l-62 -271q-2 -8 3.5 -16.5t13.5 -8.5h27l-19 -88q-44 -21 -106 -21q-128 0 -98 129z" />
    <glyph glyph-name="f_j.alt" horiz-adv-x="573" 
d="M521 561q-37 0 -60 22.5t-23 56.5q0 38 27.5 62.5t66.5 24.5q37 0 60 -22.5t23 -55.5q0 -39 -27.5 -63.5t-66.5 -24.5zM295 -6l97 425h-115l-96 -434q-36 -153 -184 -153q-53 0 -93 16l21 94h18q27 0 41.5 11t20.5 39l94 427h-58l24 107h58l7 33q34 153 196 153
q59 0 95 -15l-22 -96h-24q-31 0 -47 -10t-22 -38l-6 -27h181q52 0 77 -27t13 -80l-100 -434q-19 -85 -64 -119.5t-125 -34.5q-51 0 -94 15l21 87h18q31 0 45.5 13.5t22.5 47.5z" />
    <glyph glyph-name="f_k.alt" horiz-adv-x="852" 
d="M615 83l-48 115q-8 -5 -54 -29l-39 -169h-149q-12 0 -18.5 9.5t-3.5 22.5l131 569h-55q-34 0 -50.5 -10t-22.5 -38l-6 -27h78l-24 -107h-77l-96 -434q-36 -153 -184 -153q-53 0 -93 16l21 94h18q27 0 41.5 11t20.5 39l94 427h-58l24 107h58l7 33q18 80 68 116.5t135 36.5
q46 0 96 -12h177q28 0 20 -38l-83 -359q67 46 118.5 106.5t64.5 116.5h156l-18 -84q-58 -77 -155 -156l72 -160q11 -25 29 -25h19l-19 -88q-37 -21 -87 -21q-47 0 -67.5 21t-40.5 70z" />
    <glyph glyph-name="f_t.alt" horiz-adv-x="629" 
d="M41 419l24 107h58l7 33q34 153 196 153q55 0 91 -15l-22 -96h-20q-31 0 -47 -10t-22 -38l-6 -27h111l32 139h179l-32 -139h86l-23 -107h-88l-57 -248q-16 -70 53 -70h23l-21 -96q-44 -14 -90 -14q-91 0 -127.5 45t-16.5 131l58 252h-110l-96 -434q-36 -153 -184 -153
q-53 0 -93 16l21 94h18q27 0 41.5 11t20.5 39l94 427h-58z" />
    <glyph glyph-name="f_f_i.alt" horiz-adv-x="886" 
d="M685 419h-116l-94 -428q-36 -153 -184 -153q-50 0 -88 16l21 94h13q27 0 41 11t21 39l93 421h-115l-96 -434q-34 -153 -184 -153q-53 0 -93 16l21 94h19q26 0 40.5 11t20.5 39l93 427h-57l24 107h57l6 27q34 153 196 153q57 0 94 -14l-22 -95h-20q-32 0 -48.5 -10
t-22.5 -38l-5 -23h115l7 33q35 153 197 153q59 0 96 -15l-22 -96h-25q-31 0 -47 -10t-22 -38l-7 -27h182q54 0 78 -27t12 -80l-68 -293q-2 -8 3.5 -16.5t14.5 -8.5h30l-20 -88q-44 -21 -110 -21q-128 0 -98 129zM814 561q-36 0 -59.5 22.5t-23.5 56.5q0 38 27.5 62.5
t66.5 24.5q37 0 60 -22.5t23 -55.5q0 -39 -27.5 -63.5t-66.5 -24.5z" />
    <glyph glyph-name="f_f_l.alt" horiz-adv-x="887" 
d="M41 419l24 107h57l6 27q35 153 196 153q57 0 94 -14l-22 -95h-20q-32 0 -48.5 -10t-22.5 -38l-5 -23h115l7 33q18 80 68 116.5t135 36.5q44 0 96 -12h177q28 0 20 -38l-124 -536q-2 -8 4 -16.5t14 -8.5h32l-19 -88q-45 -21 -111 -21q-129 0 -99 129l111 480h-55
q-34 0 -49.5 -10t-22.5 -38l-7 -27h78l-23 -107h-78l-94 -428q-36 -153 -184 -153q-50 0 -88 16l21 94h13q27 0 41 11t21 39l93 421h-115l-96 -434q-34 -153 -184 -153q-53 0 -93 16l21 94h19q26 0 40.5 11t20.5 39l93 427h-57z" />
    <glyph glyph-name="f_f_b.alt" horiz-adv-x="1185" 
d="M1033 536q67 0 108 -45t41 -131q0 -77 -25 -154.5t-67 -126.5q-75 -87 -190 -87q-93 0 -141 64q-21 -23 -44 -39.5t-37 -16.5h-89l137 601h-55q-34 0 -50 -10t-22 -38l-7 -27h78l-23 -107h-78l-94 -428q-36 -153 -184 -153q-50 0 -88 16l21 94h13q27 0 41 11t21 39
l93 421h-115l-96 -434q-34 -153 -184 -153q-53 0 -93 16l21 94h19q26 0 40.5 11t20.5 39l93 427h-57l24 107h57l6 27q35 153 196 153q57 0 94 -14l-22 -95h-20q-32 0 -48.5 -10t-22.5 -38l-5 -23h115l7 33q18 80 68.5 116.5t135.5 36.5q44 0 96 -12h176q30 0 20 -38
l-45 -201q73 75 160 75zM930 408q-35 0 -76 -27l-61 -266q24 -15 61 -15q71 0 110.5 64.5t39.5 159.5q0 84 -74 84z" />
    <glyph glyph-name="f_f_h.alt" horiz-adv-x="1194" 
d="M980 345q11 52 -37 52q-41 0 -93 -33l-83 -364h-150q-12 0 -18.5 9.5t-2.5 22.5l130 569h-55q-34 0 -50 -10t-22 -38l-7 -27h78l-23 -107h-78l-94 -428q-36 -153 -184 -153q-50 0 -88 16l21 94h13q27 0 41 11t21 39l93 421h-115l-96 -434q-34 -153 -184 -153
q-53 0 -93 16l21 94h19q26 0 40.5 11t20.5 39l93 427h-57l24 107h57l6 27q35 153 196 153q57 0 94 -14l-22 -95h-20q-32 0 -48.5 -10t-22.5 -38l-5 -23h115l7 33q18 80 68.5 116.5t135.5 36.5q44 0 96 -12h176q30 0 20 -38l-50 -221q102 94 199 94q64 0 91 -37.5t12 -100.5
l-63 -271q-2 -8 3.5 -16.5t14.5 -8.5h27l-20 -88q-44 -21 -106 -21q-128 0 -98 129z" />
    <glyph glyph-name="f_f_j.alt" horiz-adv-x="877" 
d="M574 -169q-53 0 -94 15l20 87h19q31 0 45.5 13.5t22.5 47.5l98 425h-116l-94 -428q-36 -153 -184 -153q-50 0 -88 16l21 94h13q27 0 41 11t21 39l93 421h-115l-96 -434q-34 -153 -184 -153q-53 0 -93 16l21 94h19q26 0 40.5 11t20.5 39l93 427h-57l24 107h57l6 27
q35 153 196 153q57 0 94 -14l-22 -95h-20q-32 0 -48.5 -10t-22.5 -38l-5 -23h115l7 33q34 153 196 153q59 0 95 -15l-22 -96h-24q-30 0 -46 -10t-22 -38l-7 -27h181q52 0 77 -27t13 -80l-100 -434q-19 -84 -64.5 -119t-124.5 -35zM814 561q-38 0 -60.5 22.5t-22.5 56.5
q0 38 27.5 62.5t65.5 24.5q37 0 60.5 -22.5t23.5 -55.5q0 -39 -27.5 -63.5t-66.5 -24.5z" />
    <glyph glyph-name="f_f_k.alt" horiz-adv-x="1144" 
d="M907 83l-47 115q-11 -7 -32.5 -18t-22.5 -11l-38 -169h-150q-12 0 -18.5 9.5t-2.5 22.5l130 569h-55q-34 0 -50 -10t-22 -38l-7 -27h78l-23 -107h-78l-94 -428q-36 -153 -184 -153q-50 0 -88 16l21 94h13q27 0 41 11t21 39l93 421h-115l-96 -434q-34 -153 -184 -153
q-53 0 -93 16l21 94h19q26 0 40.5 11t20.5 39l93 427h-57l24 107h57l6 27q35 153 196 153q57 0 94 -14l-22 -95h-20q-32 0 -48.5 -10t-22.5 -38l-5 -23h115l7 33q18 80 68.5 116.5t135.5 36.5q44 0 96 -12h176q30 0 20 -38l-82 -359q67 46 118.5 106.5t63.5 116.5h157
l-19 -84q-53 -72 -154 -156l71 -160q11 -25 30 -25h19l-20 -88q-37 -21 -86 -21q-48 0 -68.5 21t-40.5 70z" />
    <glyph glyph-name="f_f_t.alt" horiz-adv-x="922" 
d="M41 419l24 107h57l6 27q35 153 196 153q57 0 94 -14l-22 -95h-20q-32 0 -48.5 -10t-22.5 -38l-5 -23h115l7 33q34 153 196 153q54 0 92 -15l-22 -96h-21q-30 0 -46 -10t-22 -38l-7 -27h112l32 139h178l-32 -139h87l-24 -107h-88l-57 -248q-16 -70 54 -70h23l-22 -96
q-44 -14 -90 -14q-91 0 -127.5 45t-16.5 131l58 252h-110l-96 -431q-34 -153 -183 -153q-55 0 -91 16l21 94h16q27 0 41 11t21 39l94 424h-115l-96 -434q-34 -153 -184 -153q-53 0 -93 16l21 94h19q26 0 40.5 11t20.5 39l93 427h-57z" />
    <glyph glyph-name="f_igrave.alt" horiz-adv-x="593" 
d="M422 -8q-128 0 -98 129l69 298h-116l-96 -434q-36 -153 -184 -153q-53 0 -93 16l21 94h18q27 0 41.5 11t20.5 39l94 427h-58l24 107h58l7 33q34 153 186 153q46 0 87 -15l-22 -96h-12q-28 0 -42.5 -10t-20.5 -38l-6 -27h182q55 0 78.5 -26.5t11.5 -80.5l-68 -293
q-2 -8 3.5 -16.5t14.5 -8.5h30l-19 -88q-45 -21 -111 -21zM479 560l-65 87l12 53h141l9 -140h-97z" />
    <glyph glyph-name="f_iacute.alt" horiz-adv-x="593" 
d="M422 -8q-128 0 -98 129l69 298h-116l-96 -434q-36 -153 -184 -153q-53 0 -93 16l21 94h18q27 0 41.5 11t20.5 39l94 427h-58l24 107h58l7 33q34 153 200 153q59 0 98 -15l-22 -96h-27q-34 0 -50.5 -10t-22.5 -38l-6 -27h182q55 0 78.5 -26.5t11.5 -80.5l-68 -293
q-2 -8 3.5 -16.5t14.5 -8.5h30l-19 -88q-45 -21 -111 -21zM447 560l49 140h171l-13 -53l-105 -87h-102z" />
    <glyph glyph-name="f_icircumflex.alt" horiz-adv-x="593" 
d="M422 -8q-128 0 -98 129l69 298h-116l-96 -434q-36 -153 -184 -153q-53 0 -93 16l21 94h18q27 0 41.5 11t20.5 39l94 427h-58l24 107h58l7 33q34 153 191 153q49 0 85 -15l-22 -96h-15q-28 0 -42.5 -10t-20.5 -38l-6 -27h182q55 0 78.5 -26.5t11.5 -80.5l-68 -293
q-2 -8 3.5 -16.5t14.5 -8.5h30l-19 -88q-45 -21 -111 -21zM391 560l9 38l74 102h121l42 -102l-10 -38h-66l-39 54l-60 -54h-71z" />
    <glyph glyph-name="f_idieresis.alt" horiz-adv-x="593" 
d="M422 -8q-128 0 -98 129l69 298h-116l-96 -434q-36 -153 -184 -153q-53 0 -93 16l21 94h18q27 0 41.5 11t20.5 39l94 427h-58l24 107h58l7 33q34 153 187 153q50 0 82 -15l-22 -96h-9q-27 0 -41.5 -10t-20.5 -38l-6 -27h182q55 0 78.5 -26.5t11.5 -80.5l-68 -293
q-2 -8 3.5 -16.5t14.5 -8.5h30l-19 -88q-45 -21 -111 -21zM462 564q-29 0 -46.5 17.5t-17.5 43.5q0 39 23 64t55 25q30 0 48.5 -17.5t18.5 -43.5q0 -39 -23.5 -64t-57.5 -25zM617 564q-28 0 -46 17.5t-18 43.5q0 39 23 64t56 25q29 0 47 -18t18 -44q0 -39 -23 -63.5
t-57 -24.5z" />
    <glyph glyph-name="f_iogonek.alt" horiz-adv-x="593" 
d="M-3 -168q-53 0 -93 16l21 94h18q27 0 41.5 11t20.5 39l94 427h-58l24 107h58l7 33q34 153 197 153q60 0 96 -15l-22 -96h-25q-31 0 -47.5 -10t-22.5 -38l-6 -27h182q55 0 78.5 -26.5t11.5 -80.5l-68 -293q-2 -8 3.5 -16.5t13.5 -8.5h31l-20 -88q-68 -39 -68 -71
q0 -23 35 -23h19l-16 -70q-34 -16 -69 -16q-45 0 -70 18.5t-25 50.5q0 56 86 91h-7q-61 2 -84 35t-9 93l69 298h-116l-96 -434q-36 -153 -184 -153zM522 561q-37 0 -59.5 22.5t-22.5 56.5q0 38 27.5 62.5t65.5 24.5q37 0 60 -22.5t23 -55.5q0 -39 -27.5 -63.5t-66.5 -24.5z
" />
    <glyph glyph-name="f_imacron.alt" horiz-adv-x="593" 
d="M422 -8q-128 0 -98 129l69 298h-116l-96 -434q-36 -153 -184 -153q-53 0 -93 16l21 94h18q27 0 41.5 11t20.5 39l94 427h-58l24 107h58l7 33q34 153 190 153q50 0 87 -15l-22 -96h-16q-28 0 -42.5 -10t-20.5 -38l-6 -27h182q55 0 78.5 -26.5t11.5 -80.5l-68 -293
q-2 -8 3.5 -16.5t14.5 -8.5h30l-19 -88q-45 -21 -111 -21zM403 580l24 105h226l-24 -105h-226z" />
    <glyph glyph-name="f_f_igrave.alt" horiz-adv-x="886" 
d="M291 -162q-50 0 -88 16l21 94h13q27 0 41.5 11t20.5 39l93 421h-115l-96 -434q-34 -153 -184 -153q-53 0 -93 16l21 94h19q26 0 40.5 11t20.5 39l93 427h-57l24 107h57l6 27q34 153 196 153q57 0 94 -14l-22 -95h-20q-32 0 -48.5 -10t-22.5 -38l-5 -23h115l7 33
q35 153 186 153q48 0 87 -15l-22 -96h-12q-28 0 -42 -10t-20 -38l-7 -27h182q55 0 78.5 -26.5t11.5 -80.5l-68 -293q-2 -8 4 -16.5t14 -8.5h30l-20 -88q-42 -21 -109 -21q-128 0 -99 129l69 298h-116l-94 -428q-34 -153 -184 -153zM771 560l-65 87l12 53h141l9 -140h-97z
" />
    <glyph glyph-name="f_f_iacute.alt" horiz-adv-x="886" 
d="M291 -162q-50 0 -88 16l21 94h13q27 0 41.5 11t20.5 39l93 421h-115l-96 -434q-34 -153 -184 -153q-53 0 -93 16l21 94h19q26 0 40.5 11t20.5 39l93 427h-57l24 107h57l6 27q34 153 196 153q57 0 94 -14l-22 -95h-20q-32 0 -48.5 -10t-22.5 -38l-5 -23h115l7 33
q18 80 67.5 116.5t133.5 36.5q58 0 97 -15l-22 -96h-27q-34 0 -49.5 -10t-22.5 -38l-7 -27h182q55 0 78.5 -26.5t11.5 -80.5l-68 -293q-2 -8 4 -16.5t14 -8.5h30l-20 -88q-42 -21 -109 -21q-128 0 -99 129l69 298h-116l-94 -428q-36 -153 -184 -153zM740 560l49 140h170
l-12 -53l-106 -87h-101z" />
    <glyph glyph-name="f_f_icircumflex.alt" horiz-adv-x="886" 
d="M291 -162q-50 0 -88 16l21 94h13q27 0 41.5 11t20.5 39l93 421h-115l-96 -434q-34 -153 -184 -153q-53 0 -93 16l21 94h19q26 0 40.5 11t20.5 39l93 427h-57l24 107h57l6 27q34 153 196 153q57 0 94 -14l-22 -95h-20q-32 0 -48.5 -10t-22.5 -38l-5 -23h115l7 33
q35 153 192 153q48 0 84 -15l-21 -96h-16q-27 0 -41.5 -10t-20.5 -38l-7 -27h182q55 0 78.5 -26.5t11.5 -80.5l-68 -293q-2 -8 4 -16.5t14 -8.5h30l-20 -88q-42 -21 -109 -21q-128 0 -99 129l69 298h-116l-94 -428q-36 -153 -184 -153zM683 560l9 38l75 102h120l42 -102
l-9 -38h-66l-40 54l-59 -54h-72z" />
    <glyph glyph-name="f_f_idieresis.alt" horiz-adv-x="886" 
d="M291 -162q-50 0 -88 16l21 94h13q27 0 41.5 11t20.5 39l93 421h-115l-96 -434q-34 -153 -184 -153q-53 0 -93 16l21 94h19q26 0 40.5 11t20.5 39l93 427h-57l24 107h57l6 27q34 153 196 153q57 0 94 -14l-22 -95h-20q-32 0 -48.5 -10t-22.5 -38l-5 -23h115l7 33
q35 153 186 153q49 0 82 -15l-22 -96h-8q-27 0 -41 -10t-20 -38l-7 -27h182q55 0 78.5 -26.5t11.5 -80.5l-68 -293q-2 -8 4 -16.5t14 -8.5h30l-20 -88q-42 -21 -109 -21q-128 0 -99 129l69 298h-116l-94 -428q-36 -153 -184 -153zM754 564q-29 0 -46.5 17.5t-17.5 43.5
q0 39 23 64t56 25q29 0 47.5 -17.5t18.5 -43.5q0 -39 -23.5 -64t-57.5 -25zM909 564q-28 0 -45.5 17.5t-17.5 43.5q0 39 23 64t55 25q29 0 47.5 -18t18.5 -44q0 -39 -23.5 -63.5t-57.5 -24.5z" />
    <glyph glyph-name="f_f_iogonek.alt" horiz-adv-x="886" 
d="M-3 -168q-53 0 -93 16l21 94h19q26 0 40.5 11t20.5 39l93 427h-57l24 107h57l6 27q34 153 196 153q57 0 94 -14l-22 -95h-20q-32 0 -48.5 -10t-22.5 -38l-5 -23h115l7 33q35 153 197 153q59 0 97 -15l-22 -96h-26q-30 0 -46.5 -10t-22.5 -38l-7 -27h182q55 0 78.5 -26.5
t11.5 -80.5l-68 -293q-2 -8 4 -16.5t14 -8.5h30l-20 -88q-68 -40 -68 -71q0 -23 35 -23h20l-17 -70q-32 -16 -69 -16q-44 0 -69 18.5t-25 50.5q0 56 85 91h-7q-61 2 -84 35t-9 93l69 298h-116l-94 -428q-36 -153 -184 -153q-50 0 -88 16l21 94h13q27 0 41.5 11t20.5 39
l93 421h-115l-96 -434q-34 -153 -184 -153zM815 561q-37 0 -60 22.5t-23 56.5q0 38 27.5 62.5t65.5 24.5q37 0 60.5 -22.5t23.5 -55.5q0 -39 -27.5 -63.5t-66.5 -24.5z" />
    <glyph glyph-name="f_f_imacron.alt" horiz-adv-x="886" 
d="M291 -162q-50 0 -88 16l21 94h13q27 0 41.5 11t20.5 39l93 421h-115l-96 -434q-34 -153 -184 -153q-53 0 -93 16l21 94h19q26 0 40.5 11t20.5 39l93 427h-57l24 107h57l6 27q34 153 196 153q57 0 94 -14l-22 -95h-20q-32 0 -48.5 -10t-22.5 -38l-5 -23h115l7 33
q35 153 190 153q50 0 86 -15l-21 -96h-16q-28 0 -42 -10t-20 -38l-7 -27h182q55 0 78.5 -26.5t11.5 -80.5l-68 -293q-2 -8 4 -16.5t14 -8.5h30l-20 -88q-42 -21 -109 -21q-128 0 -99 129l69 298h-116l-94 -428q-36 -153 -184 -153zM695 580l24 105h226l-24 -105h-226z" />
    <glyph glyph-name="zero.num" horiz-adv-x="407" 
d="M229 303q-75 0 -118.5 42.5t-44.5 114.5q0 98 59 168q67 78 167 78q74 0 117 -44t43 -116q0 -100 -60 -168q-65 -75 -163 -75zM235 385q36 0 59 49q27 61 27 128q0 56 -39 56q-35 0 -58 -49q-28 -61 -28 -128q0 -56 39 -56z" />
    <glyph glyph-name="one.num" horiz-adv-x="271" 
d="M25 310l17 70h41q4 0 10.5 5.5t8.5 9.5l47 203l-42 -21h-27l18 77l111 46h100l-71 -305q-2 -4 1 -9.5t8 -5.5h44l-17 -70h-249z" />
    <glyph glyph-name="two.num" horiz-adv-x="321" 
d="M19 310l12 52q11 49 41.5 82t83.5 62q66 36 80 50q14 15 14 33q0 29 -34 29q-38 0 -59 -34h-65l23 101q58 21 124 21q69 0 106.5 -26.5t37.5 -74.5q0 -54 -31 -84.5t-91 -58.5q-73 -34 -88 -49q-7 -7 -10 -14h87l14 28h76l-27 -117h-294z" />
    <glyph glyph-name="three.num" horiz-adv-x="320" 
d="M166 304q-91 0 -143 27l21 86h65q11 -34 51 -34q24 0 39 13t15 38q0 34 -45 34h-34l18 73h33q28 0 43 13t15 34q0 32 -38 32q-31 0 -53 -27h-63l23 94q60 19 117 19q67 0 103.5 -25t36.5 -69q0 -84 -97 -106v-2q34 -6 52 -25t18 -48q0 -60 -47.5 -93.5t-129.5 -33.5z" />
    <glyph glyph-name="four.num" horiz-adv-x="350" 
d="M136 310l16 70h29q4 0 10.5 5.5t7.5 9.5l4 20h-160l20 84l210 201h128l-50 -213h43l-16 -72h-44l-4 -20q-1 -4 1.5 -9.5t7.5 -5.5h30l-16 -70h-217zM140 489v-2h85l25 107h-2z" />
    <glyph glyph-name="five.num" horiz-adv-x="320" 
d="M164 303q-85 0 -141 26l20 86h67q12 -32 50 -32q24 0 41 16.5t17 45.5q0 37 -40 37q-27 0 -45 -20h-72l56 238h269l-26 -110h-77l-4 22h-93l-18 -80h1q32 24 74 24q49 0 78 -26.5t29 -71.5q0 -71 -51 -113t-135 -42z" />
    <glyph glyph-name="six.num" horiz-adv-x="373" 
d="M220 303q-74 0 -115 38.5t-41 103.5q0 112 68 187q67 73 183 73q72 0 116 -17l-21 -90h-61q-16 20 -46 20q-48 0 -74 -42q-14 -20 -24 -51q41 33 97 33q47 0 74.5 -25t27.5 -69q0 -70 -52 -115.5t-132 -45.5zM235 487q-18 0 -42 -11q-4 -24 -4 -51q0 -47 34 -47
q24 0 38 21t14 53q0 35 -40 35z" />
    <glyph glyph-name="seven.num" horiz-adv-x="312" 
d="M70 310l13 52l209 241v3h-118l-21 -42h-78l33 136h295l-24 -100l-175 -290h-134z" />
    <glyph glyph-name="eight.num" horiz-adv-x="370" 
d="M213 303q-80 0 -122.5 29t-42.5 75q0 43 27.5 72t75.5 40v3q-45 18 -45 63q0 56 48.5 88.5t120.5 32.5q68 0 107 -26.5t39 -70.5q0 -71 -83 -94v-2q59 -20 59 -74q0 -62 -49.5 -99t-134.5 -37zM216 379q26 0 42 19.5t16 45.5q0 42 -42 42q-25 0 -40.5 -20t-15.5 -46
q0 -41 40 -41zM255 545q21 0 33 14.5t12 37.5q0 14 -8.5 23.5t-23.5 9.5q-21 0 -34 -15.5t-13 -38.5q0 -31 34 -31z" />
    <glyph glyph-name="nine.num" horiz-adv-x="373" 
d="M169 304q-73 0 -119 18l21 88h62q14 -20 48 -20q51 0 78 41q12 19 23 54q-40 -35 -96 -35q-48 0 -76 25t-28 70q0 71 51.5 115.5t132.5 44.5q74 0 114.5 -40t40.5 -107q0 -111 -64 -183q-66 -71 -188 -71zM250 522q18 0 42 11q4 23 4 49q0 48 -34 48q-25 0 -38.5 -20
t-13.5 -52q0 -36 40 -36z" />
    <glyph glyph-name="zero.den" horiz-adv-x="407" 
d="M158 -7q-75 0 -118.5 42.5t-44.5 114.5q0 98 59 168q67 78 167 78q74 0 117 -44t43 -116q0 -100 -60 -168q-65 -75 -163 -75zM164 75q36 0 59 49q27 61 27 128q0 56 -39 56q-35 0 -58 -49q-28 -61 -28 -128q0 -56 39 -56z" />
    <glyph glyph-name="one.den" horiz-adv-x="271" 
d="M-46 0l17 70h41q4 0 10.5 5.5t8.5 9.5l47 203l-42 -21h-27l18 77l111 46h100l-71 -305q-2 -4 1 -9.5t8 -5.5h44l-17 -70h-249z" />
    <glyph glyph-name="two.den" horiz-adv-x="321" 
d="M-52 0l12 52q11 49 41.5 82t83.5 62q66 36 80 50q14 15 14 33q0 29 -34 29q-38 0 -59 -34h-65l23 101q58 21 124 21q69 0 106.5 -26.5t37.5 -74.5q0 -54 -31 -84.5t-91 -58.5q-73 -34 -88 -49q-7 -7 -10 -14h87l14 28h76l-27 -117h-294z" />
    <glyph glyph-name="three.den" horiz-adv-x="320" 
d="M95 -6q-91 0 -143 27l21 86h65q11 -34 51 -34q24 0 39 13t15 38q0 34 -45 34h-34l18 73h33q28 0 43 13t15 34q0 32 -38 32q-31 0 -53 -27h-63l23 94q60 19 117 19q67 0 103.5 -25t36.5 -69q0 -84 -97 -106v-2q34 -6 52 -25t18 -48q0 -60 -47.5 -93.5t-129.5 -33.5z" />
    <glyph glyph-name="four.den" horiz-adv-x="350" 
d="M65 0l16 70h29q4 0 10.5 5.5t7.5 9.5l4 20h-160l20 84l210 201h128l-50 -213h43l-16 -72h-44l-4 -20q-1 -4 1.5 -9.5t7.5 -5.5h30l-16 -70h-217zM69 179v-2h85l25 107h-2z" />
    <glyph glyph-name="five.den" horiz-adv-x="320" 
d="M93 -7q-85 0 -141 26l20 86h67q12 -32 50 -32q24 0 41 16.5t17 45.5q0 37 -40 37q-27 0 -45 -20h-72l56 238h269l-26 -110h-77l-4 22h-93l-18 -80h1q32 24 74 24q49 0 78 -26.5t29 -71.5q0 -71 -51 -113t-135 -42z" />
    <glyph glyph-name="six.den" horiz-adv-x="373" 
d="M149 -7q-74 0 -115 38.5t-41 103.5q0 112 68 187q67 73 183 73q72 0 116 -17l-21 -90h-61q-16 20 -46 20q-48 0 -74 -42q-14 -20 -24 -51q41 33 97 33q47 0 74.5 -25t27.5 -69q0 -70 -52 -115.5t-132 -45.5zM164 177q-18 0 -42 -11q-4 -24 -4 -51q0 -47 34 -47
q24 0 38 21t14 53q0 35 -40 35z" />
    <glyph glyph-name="seven.den" horiz-adv-x="312" 
d="M-1 0l13 52l209 241v3h-118l-21 -42h-78l33 136h295l-24 -100l-175 -290h-134z" />
    <glyph glyph-name="eight.den" horiz-adv-x="370" 
d="M142 -7q-80 0 -122.5 29t-42.5 75q0 43 27.5 72t75.5 40v3q-45 18 -45 63q0 56 48.5 88.5t120.5 32.5q68 0 107 -26.5t39 -70.5q0 -71 -83 -94v-2q59 -20 59 -74q0 -62 -49.5 -99t-134.5 -37zM145 69q26 0 42 19.5t16 45.5q0 42 -42 42q-25 0 -40.5 -20t-15.5 -46
q0 -41 40 -41zM184 235q21 0 33 14.5t12 37.5q0 14 -8.5 23.5t-23.5 9.5q-21 0 -34 -15.5t-13 -38.5q0 -31 34 -31z" />
    <glyph glyph-name="nine.den" horiz-adv-x="373" 
d="M98 -6q-73 0 -119 18l21 88h62q14 -20 48 -20q51 0 78 41q12 19 23 54q-40 -35 -96 -35q-48 0 -76 25t-28 70q0 71 51.5 115.5t132.5 44.5q74 0 114.5 -40t40.5 -107q0 -111 -64 -183q-66 -71 -188 -71zM179 212q18 0 42 11q4 23 4 49q0 48 -34 48q-25 0 -38.5 -20
t-13.5 -52q0 -36 40 -36z" />
    <glyph glyph-name="dollar.tab" 
d="M541 232q0 -99 -66 -162t-193 -71l-24 -101h-107l23 102q-96 9 -173 39l35 153h101q12 -44 39 -63.5t81 -19.5q45 0 74 20.5t29 62.5q0 30 -24.5 48.5t-80.5 42.5q-77 33 -114.5 76t-37.5 118q0 97 65 157t185 67l15 66h107l-16 -69q62 -6 148 -31l-35 -150h-93
q-20 80 -110 80q-45 0 -71.5 -20.5t-26.5 -58.5q0 -29 22 -47.5t72 -39.5q88 -37 132 -78.5t44 -120.5z" />
    <glyph glyph-name="Euro.tab" 
d="M49 369l19 79h40q23 63 55 108q109 153 294 153q111 0 197 -40l-38 -157h-99q-12 73 -69 73q-75 0 -122 -89q-8 -14 -20 -48h165l-33 -79h-157l-9 -51h144l-32 -79h-119q-1 -5 -1 -15q0 -56 20.5 -83t67.5 -27q58 0 105 60h93l-31 -139q-90 -44 -181 -44
q-125 0 -193.5 65.5t-70.5 182.5h-54l17 79h41q1 23 8 51h-37z" />
    <glyph glyph-name="sterling.tab" 
d="M439 0q-174 0 -273 46q-32 -24 -89 -46h-87l23 100q57 12 89.5 59.5t33.5 127.5v12h-76l23 102h48q-2 32 -2 49q0 133 79.5 195.5t210.5 62.5q132 0 213 -43l-36 -155h-99q-17 70 -86 70q-71 0 -92 -79q-4 -16 -12 -100h147l-23 -102h-135q-6 -46 -11 -66
q-14 -55 -30 -84q73 -15 138 -15l28 68h115l-47 -202h-50z" />
    <glyph glyph-name="yen.tab" 
d="M55 313l18 78h121l-65 182q-6 22 -26 22h-11l24 105h271l-25 -105h-48l46 -171h2l71 106q20 32 14.5 48.5t-31.5 16.5h-6l24 105h253l-24 -105h-16q-22 0 -42 -25l-140 -179h121l-19 -78h-161l-11 -52h161l-18 -79h-162l-11 -51q-3 -10 1.5 -20t14.5 -10h44l-23 -101
h-326l23 101h41q10 0 21 10t13 20l12 51h-161l18 79h161l12 52h-161z" />
    <glyph glyph-name="zero.tab" 
d="M258 -9q-107 0 -166 63t-59 174q0 90 28.5 184t76.5 163q94 134 241 134q107 0 164 -64.5t57 -174.5q0 -78 -22.5 -165.5t-63.5 -155.5q-94 -158 -256 -158zM267 111q29 0 52 24.5t44 83.5q24 70 41 150.5t17 131.5q0 83 -56 83q-54 0 -90 -96q-26 -66 -45.5 -155
t-19.5 -140q0 -82 57 -82z" />
    <glyph glyph-name="one.tab" 
d="M27 0l23 101h98q9 0 20 10t13 20l95 415l-101 -42h-36l24 104l204 92h136l-131 -569q-2 -10 2.5 -20t13.5 -10h102l-23 -101h-440z" />
    <glyph glyph-name="two.tab" 
d="M-17 0l18 78q21 89 75.5 147t153.5 117q10 6 35 20.5t34.5 20t29.5 18.5t28 20.5t21 20t18 23t9.5 24t4.5 28.5q0 63 -66 63q-73 0 -120 -68h-99l36 160q102 37 206 37q113 0 176 -44.5t63 -128.5q0 -42 -15 -79t-35.5 -62t-57.5 -51.5t-64 -41.5t-73 -38
q-77 -38 -122 -68.5t-60 -63.5h200l29 67h115l-45 -199h-495z" />
    <glyph glyph-name="three.tab" 
d="M230 -9q-139 0 -235 45l33 142h98q9 -29 35 -47.5t68 -18.5q52 0 84.5 27.5t32.5 83.5q0 36 -24.5 55.5t-71.5 19.5h-51l25 111h51q62 0 93.5 29.5t31.5 73.5q0 33 -19.5 51.5t-56.5 18.5q-63 0 -105 -58h-97l35 150q102 35 194 35q111 0 173 -44t62 -121
q0 -153 -174 -190v-4q58 -10 89.5 -45t31.5 -87q0 -106 -81 -166.5t-222 -60.5z" />
    <glyph glyph-name="four.tab" 
d="M174 0l23 101h43q9 0 20.5 10.5t13.5 19.5l9 43h-263l29 135l364 391h179l-96 -412h65l-26 -114h-65l-9 -43q-3 -10 1.5 -20t14.5 -10h40l-22 -101h-321zM162 292v-4h151l52 229h-4z" />
    <glyph glyph-name="five.tab" 
d="M229 -9q-134 0 -228 45l32 139h102q20 -63 95 -63q51 0 85.5 35.5t34.5 98.5q0 81 -78 81q-55 0 -91 -41h-109l96 414h444l-42 -181h-114l-5 47h-181l-37 -161h1q48 39 124 39q83 0 133 -46t50 -130q0 -126 -85 -201.5t-227 -75.5z" />
    <glyph glyph-name="six.tab" 
d="M273 -9q-110 0 -172.5 62t-62.5 176q0 100 34.5 196.5t95.5 164.5q108 118 283 118q101 0 176 -29l-31 -134h-93q-21 38 -76 38q-85 0 -135 -81q-27 -43 -50 -123q66 66 156 66q77 0 123 -43.5t46 -119.5q0 -128 -81.5 -209.5t-212.5 -81.5zM312 332q-40 0 -87 -28
q-11 -62 -11 -102q0 -50 16 -74t52 -24q47 0 74 47t27 109q0 72 -71 72z" />
    <glyph glyph-name="seven.tab" 
d="M76 0l17 76l400 482v4h-247l-39 -84h-113l50 222h505l-34 -149l-348 -551h-191z" />
    <glyph glyph-name="eight.tab" 
d="M269 -9q-123 0 -187 50.5t-64 130.5q0 79 46 132.5t128 74.5v3q-75 35 -75 117q1 95 78 152.5t185 57.5q105 0 164.5 -46t59.5 -121q0 -62 -38 -107t-105 -65v-3q97 -40 97 -136q0 -109 -80 -174.5t-209 -65.5zM344 422q36 0 61 29t25 77q0 28 -15 46t-44 18
q-37 0 -61.5 -30t-24.5 -77q0 -63 59 -63zM275 107q49 0 78.5 38.5t29.5 92.5q0 81 -79 81q-48 0 -77 -38.5t-29 -91.5q0 -82 77 -82z" />
    <glyph glyph-name="nine.tab" 
d="M361 708q111 0 173.5 -62t62.5 -176q0 -102 -33 -200t-93 -165q-102 -114 -290 -114q-101 0 -175 31l31 130h92q8 -14 27.5 -26t46.5 -12q49 0 81 18t58 59q29 45 52 129q-68 -68 -158 -68q-77 0 -123 44.5t-46 120.5q0 127 83 209t211 82zM322 366q41 0 88 27
q10 70 10 105q0 50 -16 73.5t-51 23.5q-47 0 -74.5 -47t-27.5 -108q0 -36 15.5 -55t55.5 -19z" />
    <glyph glyph-name="plus.tab" 
d="M62 280l31 131h172l42 184h142l-42 -184h171l-30 -131h-172l-42 -184h-142l42 184h-172z" />
    <glyph glyph-name="minus.tab" 
d="M62 280l31 131h485l-30 -131h-486z" />
    <glyph glyph-name="multiply.tab" 
d="M139 109l-78 93l169 142l-112 142l105 86l110 -141l167 141l76 -92l-168 -143l111 -141l-103 -87l-111 141z" />
    <glyph glyph-name="divide.tab" 
d="M350 444q-37 0 -61.5 24.5t-23.5 59.5q1 39 30 65.5t68 26.5q38 0 62 -25t22 -60q-1 -38 -30 -64.5t-67 -26.5zM62 280l31 131h485l-30 -131h-486zM277 71q-37 0 -61.5 25t-22.5 60q1 38 30 64.5t67 26.5t62.5 -25t22.5 -60q-1 -39 -30 -65t-68 -26z" />
    <glyph glyph-name="less.tab" 
d="M424 84l-328 196l25 109l415 186h43l-32 -135l-265 -113v-3l211 -118l-28 -122h-41z" />
    <glyph glyph-name="equal.tab" 
d="M95 351l30 129h453l-30 -129h-453zM47 144l30 129h453l-30 -129h-453z" />
    <glyph glyph-name="greater.tab" 
d="M54 84l31 135l265 112v3l-211 118l28 123h41l328 -196l-25 -109l-415 -186h-42z" />
    <glyph glyph-name="comma.tab" horiz-adv-x="300" 
d="M-29 -114l16 69q33 4 54 16t21 29q0 5 -2 8.5t-4 5.5t-7.5 6t-9.5 7q-24 19 -24 50q0 40 27 66t67 26q38 0 63 -24.5t25 -65.5q0 -89 -61 -138.5t-165 -54.5z" />
    <glyph glyph-name="period.tab" horiz-adv-x="300" 
d="M103 -6q-38 0 -62.5 24.5t-24.5 58.5q0 39 28.5 65.5t66.5 26.5t62.5 -24.5t24.5 -59.5q0 -39 -28.5 -65t-66.5 -26z" />
    <glyph glyph-name="colon.tab" horiz-adv-x="300" 
d="M169 280q-37 0 -61.5 24t-24.5 59q0 38 28 64.5t66 26.5q37 0 61.5 -24.5t24.5 -59.5q0 -38 -28 -64t-66 -26zM103 -6q-37 0 -61.5 24t-24.5 58q0 38 28 64.5t66 26.5q37 0 61.5 -24.5t24.5 -58.5q0 -38 -28 -64t-66 -26z" />
    <glyph glyph-name="semicolon.tab" horiz-adv-x="300" 
d="M168 280q-37 0 -61.5 24.5t-24.5 58.5q0 38 28 64.5t66 26.5t62.5 -25t24.5 -59q0 -38 -28.5 -64t-66.5 -26zM-29 -114l16 70q33 4 54 16t21 28q0 6 -2 9t-9.5 8.5t-11.5 8.5q-23 20 -23 50q0 40 26.5 65.5t65.5 25.5q38 0 62.5 -24.5t24.5 -64.5q0 -88 -60.5 -137.5
t-163.5 -54.5z" />
    <glyph glyph-name="percent.tab" horiz-adv-x="800" 
d="M217 329q-66 0 -106.5 38t-40.5 105q1 104 64 170t146 66q68 0 108.5 -39t39.5 -108q-1 -101 -65 -166.5t-146 -65.5zM46 -34l643 763h104l-644 -763h-103zM229 411q30 0 53 50.5t23 112.5q0 51 -35 51q-30 0 -54 -52t-24 -114q0 -48 37 -48zM559 -8q-66 0 -106.5 38
t-40.5 105q1 103 64 169.5t146 66.5q68 0 108.5 -39.5t39.5 -108.5q-1 -101 -65 -166t-146 -65zM571 74q30 0 53 50.5t23 112.5q0 50 -35 50q-30 0 -54 -51.5t-24 -113.5q0 -48 37 -48z" />
    <glyph glyph-name="perthousand.tab" horiz-adv-x="1200" 
d="M226 329q-66 0 -106.5 38.5t-39.5 104.5q0 104 63.5 170t146.5 66q67 0 108 -39t40 -108q-1 -101 -65 -166.5t-147 -65.5zM58 -34l643 763h104l-643 -763h-104zM238 411q30 0 53.5 51t23.5 112q0 51 -36 51q-30 0 -54 -52t-24 -114q0 -48 37 -48zM573 -8q-66 0 -106 38
t-40 105q1 103 64 169.5t146 66.5q67 0 108 -39.5t40 -108.5q-1 -101 -65 -166t-147 -65zM586 74q29 0 52.5 51t23.5 112q0 50 -35 50q-31 0 -55 -51.5t-24 -113.5q0 -48 38 -48zM950 -8q-66 0 -106.5 38.5t-39.5 104.5q0 103 63 169.5t146 66.5q68 0 108.5 -39.5
t39.5 -108.5q-1 -101 -65 -166t-146 -65zM962 74q30 0 53.5 51t23.5 112q0 50 -36 50q-30 0 -54 -51.5t-24 -113.5q0 -48 37 -48z" />
    <glyph glyph-name="cent.tab" 
d="M207 -102l23 101q-82 16 -124 67.5t-42 129.5q0 142 80.5 232.5t209.5 103.5l15 66h108l-16 -66q69 -8 119 -30l-30 -132h-92q-8 26 -23 39t-47 13q-65 0 -107 -68.5t-42 -162.5q0 -91 83 -91q58 0 91 49h90l-28 -122q-64 -29 -138 -34l-22 -95h-108z" />
    <glyph glyph-name="florin.tab" 
d="M131 337l24 103h72l27 114q35 158 214 158q61 0 107 -16l-22 -95h-42q-31 0 -49 -13.5t-27 -46.5l-24 -101h106l-24 -103h-106l-65 -274q-29 -122 -162 -163h-99l21 94q47 16 60 76l61 267h-72z" />
    <glyph glyph-name="space.tab" horiz-adv-x="300" 
 />
    <glyph glyph-name="idotaccent" horiz-adv-x="299" 
d="M127 -8q-128 0 -98 129l63 272q2 8 -3.5 17t-13.5 9h-34l21 93q56 20 125 20q54 0 78 -29.5t11 -83.5l-68 -293q-2 -8 4 -16.5t14 -8.5h30l-19 -88q-44 -21 -110 -21zM226 561q-37 0 -60 22.5t-23 56.5q0 38 27.5 62.5t66.5 24.5q37 0 60.5 -22.5t23.5 -55.5
q0 -39 -27.5 -63.5t-67.5 -24.5z" />
    <glyph glyph-name="Racute.alt" horiz-adv-x="689" 
d="M343 733l49 140h171l-13 -53l-105 -87h-102zM529 -8q-66 0 -96.5 29.5t-32.5 97.5l-3 74q-1 55 -22 74t-66 19h-40l-42 -185h76l-23 -101h-329l23 101h35q10 0 21 10.5t13 19.5l100 435q2 9 -4.5 19t-15.5 10h-36l25 105h307q123 0 188 -45t65 -125q0 -81 -50 -130
t-143 -64v-4q43 -12 67.5 -43t38.5 -103l13 -66q1 -8 8 -13.5t14 -5.5h21l-20 -90q-44 -19 -92 -19zM336 588l-47 -205h59q131 0 131 131q0 74 -91 74h-52z" />
    <glyph glyph-name="Rcommaaccent.alt" horiz-adv-x="689" 
d="M190 -227l12 55q57 7 57 28q0 7 -18 23.5t-18 36.5q0 29 20.5 47t48.5 18q30 0 50 -19.5t20 -51.5q0 -129 -172 -137zM529 -8q-66 0 -96.5 29.5t-32.5 97.5l-3 74q-1 55 -22 74t-66 19h-40l-42 -185h76l-23 -101h-329l23 101h35q10 0 21 10.5t13 19.5l100 435
q2 9 -4.5 19t-15.5 10h-36l25 105h307q123 0 188 -45t65 -125q0 -81 -50 -130t-143 -64v-4q43 -12 67.5 -43t38.5 -103l13 -66q1 -8 8 -13.5t14 -5.5h21l-20 -90q-44 -19 -92 -19zM336 588l-47 -205h59q131 0 131 131q0 74 -91 74h-52z" />
    <glyph glyph-name="Rcaron.alt" horiz-adv-x="689" 
d="M339 733l-57 102l9 38h65l60 -55l82 55h68l-9 -38l-90 -102h-128zM529 -8q-66 0 -96.5 29.5t-32.5 97.5l-3 74q-1 55 -22 74t-66 19h-40l-42 -185h76l-23 -101h-329l23 101h35q10 0 21 10.5t13 19.5l100 435q2 9 -4.5 19t-15.5 10h-36l25 105h307q123 0 188 -45t65 -125
q0 -81 -50 -130t-143 -64v-4q43 -12 67.5 -43t38.5 -103l13 -66q1 -8 8 -13.5t14 -5.5h21l-20 -90q-44 -19 -92 -19zM336 588l-47 -205h59q131 0 131 131q0 74 -91 74h-52z" />
    <glyph glyph-name="aacute.alt" horiz-adv-x="588" 
d="M300 560l49 140h171l-13 -53l-105 -87h-102zM434 -8q-96 0 -111 78q-66 -79 -162 -79q-71 0 -113.5 46.5t-42.5 135.5q0 73 25 146.5t73 125.5q81 90 193 90q88 0 137 -58q49 49 97 49h64l-92 -400q-2 -8 3.5 -16.5t13.5 -8.5h27l-19 -88q-44 -21 -93 -21zM252 104
q36 0 74 33l62 270q-27 9 -54 9q-71 0 -111 -67t-40 -166q0 -39 18.5 -59t50.5 -20z" />
    <glyph glyph-name="agrave.alt" horiz-adv-x="588" 
d="M434 -8q-96 0 -111 78q-66 -79 -162 -79q-71 0 -113.5 46.5t-42.5 135.5q0 73 25 146.5t73 125.5q81 90 193 90q88 0 137 -58q49 49 97 49h64l-92 -400q-2 -8 3.5 -16.5t13.5 -8.5h27l-19 -88q-44 -21 -93 -21zM252 104q36 0 74 33l62 270q-27 9 -54 9q-71 0 -111 -67
t-40 -166q0 -39 18.5 -59t50.5 -20zM319 560l-89 87l12 53h146l27 -140h-96z" />
    <glyph glyph-name="acircumflex.alt" horiz-adv-x="588" 
d="M219 560l9 38l90 102h128l57 -102l-9 -38h-65l-60 54l-82 -54h-68zM434 -8q-96 0 -111 78q-66 -79 -162 -79q-71 0 -113.5 46.5t-42.5 135.5q0 73 25 146.5t73 125.5q81 90 193 90q88 0 137 -58q49 49 97 49h64l-92 -400q-2 -8 3.5 -16.5t13.5 -8.5h27l-19 -88
q-44 -21 -93 -21zM252 104q36 0 74 33l62 270q-27 9 -54 9q-71 0 -111 -67t-40 -166q0 -39 18.5 -59t50.5 -20z" />
    <glyph glyph-name="adieresis.alt" horiz-adv-x="588" 
d="M467 561q-35 0 -56.5 21t-21.5 54q0 36 25.5 59t60.5 23t57 -21.5t22 -53.5q0 -36 -25.5 -59t-61.5 -23zM269 561q-34 0 -55.5 21t-21.5 54q0 36 25 59t61 23q35 0 56.5 -21.5t21.5 -53.5q0 -37 -25.5 -59.5t-61.5 -22.5zM434 -8q-96 0 -111 78q-66 -79 -162 -79
q-71 0 -113.5 46.5t-42.5 135.5q0 73 25 146.5t73 125.5q81 90 193 90q88 0 137 -58q49 49 97 49h64l-92 -400q-2 -8 3.5 -16.5t13.5 -8.5h27l-19 -88q-44 -21 -93 -21zM252 104q36 0 74 33l62 270q-27 9 -54 9q-71 0 -111 -67t-40 -166q0 -39 18.5 -59t50.5 -20z" />
    <glyph glyph-name="atilde.alt" horiz-adv-x="588" 
d="M434 -8q-96 0 -111 78q-66 -79 -162 -79q-71 0 -113.5 46.5t-42.5 135.5q0 73 25 146.5t73 125.5q81 90 193 90q88 0 137 -58q49 49 97 49h64l-92 -400q-2 -8 3.5 -16.5t13.5 -8.5h27l-19 -88q-44 -21 -93 -21zM252 104q36 0 74 33l62 270q-27 9 -54 9q-71 0 -111 -67
t-40 -166q0 -39 18.5 -59t50.5 -20zM188 560l16 73q36 62 106 62q25 0 69.5 -10t55.5 -10q29 0 43 25h78l-17 -74q-38 -63 -107 -63q-25 0 -69.5 12t-55.5 12q-27 0 -42 -27h-77z" />
    <glyph glyph-name="aring.alt" horiz-adv-x="588" 
d="M365 562q-44 0 -73.5 26.5t-29.5 69.5q0 50 33 79t79 29q43 0 72 -27t29 -69q0 -50 -32.5 -79t-77.5 -29zM366 612q23 0 38 15t15 40q0 22 -13 36t-35 14q-23 0 -37.5 -15.5t-14.5 -42.5q0 -21 12.5 -34t34.5 -13zM434 -8q-96 0 -111 78q-66 -79 -162 -79
q-71 0 -113.5 46.5t-42.5 135.5q0 73 25 146.5t73 125.5q81 90 193 90q88 0 137 -58q49 49 97 49h64l-92 -400q-2 -8 3.5 -16.5t13.5 -8.5h27l-19 -88q-44 -21 -93 -21zM252 104q36 0 74 33l62 270q-27 9 -54 9q-71 0 -111 -67t-40 -166q0 -39 18.5 -59t50.5 -20z" />
    <glyph glyph-name="aogonek.alt" horiz-adv-x="588" 
d="M546 101l-18 -86q-71 -37 -71 -73q0 -23 35 -23h20l-17 -70q-32 -16 -69 -16q-44 0 -69 18.5t-25 50.5q0 58 86 91q-80 5 -95 77q-66 -79 -162 -79q-71 0 -113.5 46.5t-42.5 135.5q0 72 26 147t73 126q80 89 192 89q88 0 137 -58q49 49 97 49h64l-92 -400
q-2 -8 3.5 -16.5t13.5 -8.5h27zM252 104q36 0 74 33l62 270q-27 9 -54 9q-71 0 -111 -67t-40 -166q0 -39 18.5 -59t50.5 -20z" />
    <glyph glyph-name="amacron.alt" horiz-adv-x="588" 
d="M434 -8q-96 0 -111 78q-66 -79 -162 -79q-71 0 -113.5 46.5t-42.5 135.5q0 73 25 146.5t73 125.5q81 90 193 90q88 0 137 -58q49 49 97 49h64l-92 -400q-2 -8 3.5 -16.5t13.5 -8.5h27l-19 -88q-44 -21 -93 -21zM252 104q36 0 74 33l62 270q-27 9 -54 9q-71 0 -111 -67
t-40 -166q0 -39 18.5 -59t50.5 -20zM225 580l24 105h275l-25 -105h-274z" />
    <glyph glyph-name="abreve.alt" horiz-adv-x="588" 
d="M434 -8q-96 0 -111 78q-66 -79 -162 -79q-71 0 -113.5 46.5t-42.5 135.5q0 73 25 146.5t73 125.5q81 90 193 90q88 0 137 -58q49 49 97 49h64l-92 -400q-2 -8 3.5 -16.5t13.5 -8.5h27l-19 -88q-44 -21 -93 -21zM252 104q36 0 74 33l62 270q-27 9 -54 9q-71 0 -111 -67
t-40 -166q0 -39 18.5 -59t50.5 -20zM354 559q-58 0 -90.5 26.5t-41.5 64.5l12 50h84q2 -39 42 -39t54 39h92l-14 -62q-44 -79 -138 -79z" />
    <glyph glyph-name="gcircumflex.alt" horiz-adv-x="584" 
d="M215 560l9 38l90 102h128l57 -102l-9 -38h-65l-60 54l-82 -54h-68zM180 -172q-131 0 -206 30l29 120h102q22 -44 85 -44q100 0 121 90l16 72q-67 -70 -162 -70q-73 0 -115 44.5t-42 127.5q0 141 88 244q77 93 196 93q90 0 138 -66q44 57 93 57h81l-116 -503
q-23 -99 -97.5 -147t-210.5 -48zM255 126q42 0 88 41l54 235q-26 14 -62 14q-69 0 -108.5 -64t-39.5 -148q0 -76 68 -78z" />
    <glyph glyph-name="gbreve.alt" horiz-adv-x="584" 
d="M180 -172q-131 0 -206 30l29 120h102q22 -44 85 -44q100 0 121 90l16 72q-67 -70 -162 -70q-73 0 -115 44.5t-42 127.5q0 141 88 244q77 93 196 93q90 0 138 -66q44 57 93 57h81l-116 -503q-23 -99 -97.5 -147t-210.5 -48zM255 126q42 0 88 41l54 235q-26 14 -62 14
q-69 0 -108.5 -64t-39.5 -148q0 -76 68 -78zM365 559q-58 0 -90.5 26.5t-41.5 64.5l12 50h84q2 -39 42 -39t54 39h92l-14 -62q-44 -79 -138 -79z" />
    <glyph glyph-name="gdotaccent.alt" horiz-adv-x="584" 
d="M180 -172q-131 0 -206 30l29 120h102q22 -44 85 -44q100 0 121 90l16 72q-67 -70 -162 -70q-73 0 -115 44.5t-42 127.5q0 141 88 244q77 93 196 93q90 0 138 -66q44 57 93 57h81l-116 -503q-23 -99 -97.5 -147t-210.5 -48zM255 126q42 0 88 41l54 235q-26 14 -62 14
q-69 0 -108.5 -64t-39.5 -148q0 -76 68 -78zM365 563q-37 0 -60 22t-23 56q0 39 27 63.5t65 24.5q37 0 60 -22.5t23 -56.5q0 -39 -27 -63t-65 -24z" />
    <glyph glyph-name="gcommaaccent.alt" horiz-adv-x="584" 
d="M357 563q-30 0 -50 19.5t-20 50.5q0 130 172 138l-12 -56q-57 -5 -57 -27q0 -6 18 -21.5t18 -38.5q0 -30 -20 -47.5t-49 -17.5zM180 -172q-131 0 -206 30l29 120h102q22 -44 85 -44q100 0 121 90l16 72q-67 -70 -162 -70q-73 0 -115 44.5t-42 127.5q0 141 88 244
q77 93 196 93q90 0 138 -66q44 57 93 57h81l-116 -503q-23 -99 -97.5 -147t-210.5 -48zM255 126q42 0 88 41l54 235q-26 14 -62 14q-69 0 -108.5 -64t-39.5 -148q0 -76 68 -78z" />
    <glyph glyph-name="yacute.alt" horiz-adv-x="533" 
d="M275 560l49 140h171l-13 -53l-105 -87h-102zM-38 -162l20 91q110 27 171 83l-68 385q-1 9 -7.5 15.5t-13.5 6.5h-23l21 93q53 21 105 21q43 0 63 -23.5t27 -72.5l33 -257q94 161 131 346h151l-23 -101q-40 -97 -83 -174.5t-127 -190.5q-61 -80 -115 -131t-121 -91h-141z
" />
    <glyph glyph-name="ydieresis.alt" horiz-adv-x="533" 
d="M445 561q-35 0 -56.5 21t-21.5 54q0 36 25.5 59t60.5 23t57 -21.5t22 -53.5q0 -36 -25.5 -59t-61.5 -23zM247 561q-34 0 -55.5 21t-21.5 54q0 36 25 59t61 23q35 0 56.5 -21.5t21.5 -53.5q0 -37 -25.5 -59.5t-61.5 -22.5zM-38 -162l20 91q110 27 171 83l-68 385
q-1 9 -7.5 15.5t-13.5 6.5h-23l21 93q53 21 105 21q43 0 63 -23.5t27 -72.5l33 -257q94 161 131 346h151l-23 -101q-40 -97 -83 -174.5t-127 -190.5q-61 -80 -115 -131t-121 -91h-141z" />
    <glyph glyph-name="zcaron.alt" horiz-adv-x="478" 
d="M246 560l-57 102l9 38h65l60 -55l82 55h68l-9 -38l-90 -102h-128zM314 -8q-43 0 -109.5 22.5t-94.5 22.5q-43 0 -68 -37h-89l22 99l309 272v4q-26 0 -61 2.5t-52 2.5q-32 0 -44 -29h-89l39 170q41 13 87 13q42 0 112 -20.5t98 -20.5q39 0 64 33h88l-21 -95l-313 -280v-4
q24 0 57 -3t50 -3q36 0 54 36h88l-38 -165q-36 -20 -89 -20z" />
    <glyph glyph-name="zacute.alt" horiz-adv-x="478" 
d="M246 560l49 140h171l-13 -53l-105 -87h-102zM314 -8q-43 0 -109.5 22.5t-94.5 22.5q-43 0 -68 -37h-89l22 99l309 272v4q-26 0 -61 2.5t-52 2.5q-32 0 -44 -29h-89l39 170q41 13 87 13q42 0 112 -20.5t98 -20.5q39 0 64 33h88l-21 -95l-313 -280v-4q24 0 57 -3t50 -3
q36 0 54 36h88l-38 -165q-36 -20 -89 -20z" />
    <glyph glyph-name="zdotaccent.alt" horiz-adv-x="478" 
d="M314 -8q-43 0 -109.5 22.5t-94.5 22.5q-43 0 -68 -37h-89l22 99l309 272v4q-26 0 -61 2.5t-52 2.5q-32 0 -44 -29h-89l39 170q41 13 87 13q42 0 112 -20.5t98 -20.5q39 0 64 33h88l-21 -95l-313 -280v-4q24 0 57 -3t50 -3q36 0 54 36h88l-38 -165q-36 -20 -89 -20z
M309 563q-37 0 -60 22t-23 56q0 39 27 63.5t65 24.5q37 0 60 -22.5t23 -56.5q0 -39 -27 -63t-65 -24z" />
    <glyph glyph-name="Scaron.titling" horiz-adv-x="538" 
d="M290 722l-57 102l9 38h65l60 -55l82 55h68l-9 -38l-90 -102h-128zM223 -9q-53 0 -120 9h-143l48 214h125l-4 -98q33 -12 84 -12q116 0 116 85q0 11 -2 20t-9 17.5t-12 13.5t-19 13t-20.5 11t-26.5 12.5t-28 13.5q-68 32 -103 72t-35 116q0 106 70.5 168.5t200.5 62.5
q66 0 122 -9h121l-46 -196h-120v86q-29 11 -74 11q-108 0 -108 -82q0 -16 5.5 -28.5t18.5 -22.5t25 -16.5t36 -16.5q50 -22 74.5 -35.5t54 -38t41.5 -56.5t12 -77q0 -107 -72.5 -172t-211.5 -65z" />
    <glyph glyph-name="Yacute.titling" horiz-adv-x="678" 
d="M118 0l23 101h41q10 0 21 10.5t13 19.5l35 155l-118 287q-8 22 -24 22h-22l25 105h302l-24 -105h-71l76 -201h3l101 135q23 31 17 48.5t-37 17.5h-20l24 105h278l-24 -105h-15q-22 0 -45 -27l-238 -292l-32 -145q-3 -10 1.5 -20t14.5 -10h44l-23 -101h-326zM389 717
l49 140h171l-13 -53l-105 -87h-102z" />
    <glyph glyph-name="Zcaron.titling" horiz-adv-x="563" 
d="M324 717l-57 102l9 38h65l60 -55l82 55h68l-9 -38l-90 -102h-128zM-50 0l29 125l428 458v4h-176l-39 -97h-113l49 210h518l-30 -128l-428 -459v-4h193l43 112h118l-51 -221h-541z" />
    <glyph glyph-name="Adieresis.titling" horiz-adv-x="739" 
d="M-50 0l23 101h17q28 0 46 31l251 434q15 29 -8 29h-48l24 105h331l51 -574q1 -10 9.5 -17.5t17.5 -7.5h21l-24 -101h-321l23 101h86l-9 114h-217l-14 -24q-16 -30 -20.5 -49.5t3.5 -30t32 -10.5h33l-23 -101h-284zM415 564l-140 -253h159l-17 253h-2zM541 718
q-35 0 -56.5 21t-21.5 54q0 36 25.5 59t60.5 23t57 -21.5t22 -53.5q0 -36 -25.5 -59t-61.5 -23zM343 718q-34 0 -55.5 21t-21.5 54q0 36 25 59t61 23q35 0 56.5 -21.5t21.5 -53.5q0 -37 -25.5 -59.5t-61.5 -22.5z" />
    <glyph glyph-name="Aring.titling" horiz-adv-x="739" 
d="M-50 0l23 101h17q28 0 46 31l251 434q15 29 -8 29h-48l24 105h331l51 -574q1 -10 9.5 -17.5t17.5 -7.5h21l-24 -101h-321l23 101h86l-9 114h-217l-14 -24q-16 -30 -20.5 -49.5t3.5 -30t32 -10.5h33l-23 -101h-284zM415 564l-140 -253h159l-17 253h-2zM449 719
q-44 0 -73.5 26.5t-29.5 69.5q0 50 33 79t79 29q43 0 72 -27t29 -69q0 -50 -32.5 -79t-77.5 -29zM450 769q23 0 38 15t15 40q0 22 -13 36t-35 14q-23 0 -37.5 -15.5t-14.5 -42.5q0 -21 12.5 -34t34.5 -13z" />
    <glyph glyph-name="Eacute.titling" horiz-adv-x="605" 
d="M339 717l49 140h171l-13 -53l-105 -87h-102zM676 700l-48 -207h-112l4 94h-182l-41 -178h88l21 61h103l-53 -229h-101l6 62h-89l-44 -194h190l42 112h118l-51 -221h-576l23 101h35q10 0 21 10.5t13 19.5l100 435q2 10 -2.5 19.5t-14.5 9.5h-39l25 105h564z" />
    <glyph glyph-name="Ntilde.titling" horiz-adv-x="716" 
d="M-49 0l23 101h35q10 0 21 10.5t13 19.5l100 435q2 10 -2.5 19.5t-14.5 9.5h-39l25 105h249l146 -425h3l75 320h-71l25 105h268l-24 -105h-34q-9 0 -20 -10t-13 -19l-129 -566h-161l-166 465h-3l-83 -364h73l-23 -101h-273zM281 717l16 73q36 62 106 62q25 0 69.5 -10
t55.5 -10q29 0 43 25h78l-17 -74q-38 -63 -107 -63q-25 0 -69.5 12t-55.5 12q-27 0 -42 -27h-77z" />
    <glyph glyph-name="Odieresis.titling" horiz-adv-x="729" 
d="M542 723q-35 0 -56.5 21t-21.5 54q0 36 25.5 59t60.5 23t57 -21.5t22 -53.5q0 -36 -25.5 -59t-61.5 -23zM344 723q-34 0 -55.5 21t-21.5 54q0 36 25 59t61 23q35 0 56.5 -21.5t21.5 -53.5q0 -37 -25.5 -59.5t-61.5 -22.5zM334 -9q-142 0 -224 75.5t-82 210.5
q0 184 116 307.5t282 123.5q137 0 218.5 -76.5t81.5 -208.5q0 -191 -112 -311.5t-280 -120.5zM341 111q87 0 141 93.5t54 220.5q0 76 -31.5 116.5t-90.5 40.5q-88 0 -141.5 -92t-53.5 -222q0 -76 31.5 -116.5t90.5 -40.5z" />
    <glyph glyph-name="Udieresis.titling" horiz-adv-x="715" 
d="M587 718q-35 0 -56.5 21t-21.5 54q0 36 25.5 59t60.5 23t57 -21.5t22 -53.5q0 -36 -25.5 -59t-61.5 -23zM389 718q-34 0 -55.5 21t-21.5 54q0 36 25 59t61 23q35 0 56.5 -21.5t21.5 -53.5q0 -37 -25.5 -59.5t-61.5 -22.5zM337 -8q-160 0 -226 73.5t-36 204.5l67 296
q2 10 -2.5 19.5t-13.5 9.5h-38l24 105h326l-24 -105h-74l-80 -347q-17 -74 9 -105t87 -31q64 0 96 31.5t49 106.5l79 345h-75l25 105h276l-24 -105h-34q-10 0 -21 -9.5t-13 -19.5l-75 -326q-29 -126 -100 -187t-202 -61z" />
    <glyph glyph-name="Agrave.titling" horiz-adv-x="739" 
d="M-50 0l23 101h17q28 0 46 31l251 434q15 29 -8 29h-48l24 105h331l51 -574q1 -10 9.5 -17.5t17.5 -7.5h21l-24 -101h-321l23 101h86l-9 114h-217l-14 -24q-16 -30 -20.5 -49.5t3.5 -30t32 -10.5h33l-23 -101h-284zM415 564l-140 -253h159l-17 253h-2zM397 717l-89 87
l12 53h146l27 -140h-96z" />
    <glyph glyph-name="Atilde.titling" horiz-adv-x="739" 
d="M-50 0l23 101h17q28 0 46 31l251 434q15 29 -8 29h-48l24 105h331l51 -574q1 -10 9.5 -17.5t17.5 -7.5h21l-24 -101h-321l23 101h86l-9 114h-217l-14 -24q-16 -30 -20.5 -49.5t3.5 -30t32 -10.5h33l-23 -101h-284zM415 564l-140 -253h159l-17 253h-2zM259 717l16 73
q36 62 106 62q25 0 69.5 -10t55.5 -10q29 0 43 25h78l-17 -74q-38 -63 -107 -63q-25 0 -69.5 12t-55.5 12q-27 0 -42 -27h-77z" />
    <glyph glyph-name="Otilde.titling" horiz-adv-x="729" 
d="M334 -9q-142 0 -224 75.5t-82 210.5q0 184 116 307.5t282 123.5q137 0 218.5 -76.5t81.5 -208.5q0 -191 -112 -311.5t-280 -120.5zM341 111q87 0 141 93.5t54 220.5q0 76 -31.5 116.5t-90.5 40.5q-88 0 -141.5 -92t-53.5 -222q0 -76 31.5 -116.5t90.5 -40.5zM262 722
l16 73q36 62 106 62q25 0 69.5 -10t55.5 -10q29 0 43 25h78l-17 -74q-38 -63 -107 -63q-25 0 -69.5 12t-55.5 12q-27 0 -42 -27h-77z" />
    <glyph glyph-name="Acircumflex.titling" horiz-adv-x="739" 
d="M-50 0l23 101h17q28 0 46 31l251 434q15 29 -8 29h-48l24 105h331l51 -574q1 -10 9.5 -17.5t17.5 -7.5h21l-24 -101h-321l23 101h86l-9 114h-217l-14 -24q-16 -30 -20.5 -49.5t3.5 -30t32 -10.5h33l-23 -101h-284zM415 564l-140 -253h159l-17 253h-2zM290 717l9 38
l90 102h128l57 -102l-9 -38h-65l-60 54l-82 -54h-68z" />
    <glyph glyph-name="Ecircumflex.titling" horiz-adv-x="605" 
d="M265 717l9 38l90 102h128l57 -102l-9 -38h-65l-60 54l-82 -54h-68zM676 700l-48 -207h-112l4 94h-182l-41 -178h88l21 61h103l-53 -229h-101l6 62h-89l-44 -194h190l42 112h118l-51 -221h-576l23 101h35q10 0 21 10.5t13 19.5l100 435q2 10 -2.5 19.5t-14.5 9.5h-39
l25 105h564z" />
    <glyph glyph-name="Aacute.titling" horiz-adv-x="739" 
d="M-50 0l23 101h17q28 0 46 31l251 434q15 29 -8 29h-48l24 105h331l51 -574q1 -10 9.5 -17.5t17.5 -7.5h21l-24 -101h-321l23 101h86l-9 114h-217l-14 -24q-16 -30 -20.5 -49.5t3.5 -30t32 -10.5h33l-23 -101h-284zM415 564l-140 -253h159l-17 253h-2zM378 717l49 140h171
l-13 -53l-105 -87h-102z" />
    <glyph glyph-name="Edieresis.titling" horiz-adv-x="605" 
d="M516 718q-35 0 -56.5 21t-21.5 54q0 36 25.5 59t60.5 23t57 -21.5t22 -53.5q0 -36 -25.5 -59t-61.5 -23zM318 718q-34 0 -55.5 21t-21.5 54q0 36 25 59t61 23q35 0 56.5 -21.5t21.5 -53.5q0 -37 -25.5 -59.5t-61.5 -22.5zM676 700l-48 -207h-112l4 94h-182l-41 -178h88
l21 61h103l-53 -229h-101l6 62h-89l-44 -194h190l42 112h118l-51 -221h-576l23 101h35q10 0 21 10.5t13 19.5l100 435q2 10 -2.5 19.5t-14.5 9.5h-39l25 105h564z" />
    <glyph glyph-name="Egrave.titling" horiz-adv-x="605" 
d="M676 700l-48 -207h-112l4 94h-182l-41 -178h88l21 61h103l-53 -229h-101l6 62h-89l-44 -194h190l42 112h118l-51 -221h-576l23 101h35q10 0 21 10.5t13 19.5l100 435q2 10 -2.5 19.5t-14.5 9.5h-39l25 105h564zM365 717l-89 87l12 53h146l27 -140h-96z" />
    <glyph glyph-name="Iacute.titling" horiz-adv-x="349" 
d="M-49 0l23 101h42q9 0 20 10.5t13 19.5l100 435q2 10 -2.5 19.5t-13.5 9.5h-46l25 105h328l-24 -105h-43q-10 0 -20.5 -9.5t-12.5 -19.5l-100 -435q-2 -10 2.5 -20t13.5 -10h46l-23 -101h-328zM214 717l49 140h171l-13 -53l-105 -87h-102z" />
    <glyph glyph-name="Icircumflex.titling" horiz-adv-x="349" 
d="M-49 0l23 101h42q9 0 20 10.5t13 19.5l100 435q2 10 -2.5 19.5t-13.5 9.5h-46l25 105h328l-24 -105h-43q-10 0 -20.5 -9.5t-12.5 -19.5l-100 -435q-2 -10 2.5 -20t13.5 -10h46l-23 -101h-328zM140 717l9 38l90 102h128l57 -102l-9 -38h-65l-60 54l-82 -54h-68z" />
    <glyph glyph-name="Idieresis.titling" horiz-adv-x="349" 
d="M-49 0l23 101h42q9 0 20 10.5t13 19.5l100 435q2 10 -2.5 19.5t-13.5 9.5h-46l25 105h328l-24 -105h-43q-10 0 -20.5 -9.5t-12.5 -19.5l-100 -435q-2 -10 2.5 -20t13.5 -10h46l-23 -101h-328zM386 718q-35 0 -56.5 21t-21.5 54q0 36 25.5 59t60.5 23t57 -21.5t22 -53.5
q0 -36 -25.5 -59t-61.5 -23zM188 718q-34 0 -55.5 21t-21.5 54q0 36 25 59t61 23q35 0 56.5 -21.5t21.5 -53.5q0 -37 -25.5 -59.5t-61.5 -22.5z" />
    <glyph glyph-name="Igrave.titling" horiz-adv-x="349" 
d="M-49 0l23 101h42q9 0 20 10.5t13 19.5l100 435q2 10 -2.5 19.5t-13.5 9.5h-46l25 105h328l-24 -105h-43q-10 0 -20.5 -9.5t-12.5 -19.5l-100 -435q-2 -10 2.5 -20t13.5 -10h46l-23 -101h-328zM237 717l-89 87l12 53h146l27 -140h-96z" />
    <glyph glyph-name="Oacute.titling" horiz-adv-x="729" 
d="M372 722l49 140h171l-13 -53l-105 -87h-102zM334 -9q-142 0 -224 75.5t-82 210.5q0 184 116 307.5t282 123.5q137 0 218.5 -76.5t81.5 -208.5q0 -191 -112 -311.5t-280 -120.5zM341 111q87 0 141 93.5t54 220.5q0 76 -31.5 116.5t-90.5 40.5q-88 0 -141.5 -92t-53.5 -222
q0 -76 31.5 -116.5t90.5 -40.5z" />
    <glyph glyph-name="Ocircumflex.titling" horiz-adv-x="729" 
d="M288 722l9 38l90 102h128l57 -102l-9 -38h-65l-60 54l-82 -54h-68zM334 -9q-142 0 -224 75.5t-82 210.5q0 184 116 307.5t282 123.5q137 0 218.5 -76.5t81.5 -208.5q0 -191 -112 -311.5t-280 -120.5zM341 111q87 0 141 93.5t54 220.5q0 76 -31.5 116.5t-90.5 40.5
q-88 0 -141.5 -92t-53.5 -222q0 -76 31.5 -116.5t90.5 -40.5z" />
    <glyph glyph-name="Ograve.titling" horiz-adv-x="729" 
d="M334 -9q-142 0 -224 75.5t-82 210.5q0 184 116 307.5t282 123.5q137 0 218.5 -76.5t81.5 -208.5q0 -191 -112 -311.5t-280 -120.5zM341 111q87 0 141 93.5t54 220.5q0 76 -31.5 116.5t-90.5 40.5q-88 0 -141.5 -92t-53.5 -222q0 -76 31.5 -116.5t90.5 -40.5zM391 722
l-89 87l12 53h146l27 -140h-96z" />
    <glyph glyph-name="Uacute.titling" horiz-adv-x="715" 
d="M420 717l49 140h171l-13 -53l-105 -87h-102zM337 -8q-160 0 -226 73.5t-36 204.5l67 296q2 10 -2.5 19.5t-13.5 9.5h-38l24 105h326l-24 -105h-74l-80 -347q-17 -74 9 -105t87 -31q64 0 96 31.5t49 106.5l79 345h-75l25 105h276l-24 -105h-34q-10 0 -21 -9.5t-13 -19.5
l-75 -326q-29 -126 -100 -187t-202 -61z" />
    <glyph glyph-name="Ucircumflex.titling" horiz-adv-x="715" 
d="M345 717l9 38l90 102h128l57 -102l-9 -38h-65l-60 54l-82 -54h-68zM337 -8q-160 0 -226 73.5t-36 204.5l67 296q2 10 -2.5 19.5t-13.5 9.5h-38l24 105h326l-24 -105h-74l-80 -347q-17 -74 9 -105t87 -31q64 0 96 31.5t49 106.5l79 345h-75l25 105h276l-24 -105h-34
q-10 0 -21 -9.5t-13 -19.5l-75 -326q-29 -126 -100 -187t-202 -61z" />
    <glyph glyph-name="Ugrave.titling" horiz-adv-x="715" 
d="M337 -8q-160 0 -226 73.5t-36 204.5l67 296q2 10 -2.5 19.5t-13.5 9.5h-38l24 105h326l-24 -105h-74l-80 -347q-17 -74 9 -105t87 -31q64 0 96 31.5t49 106.5l79 345h-75l25 105h276l-24 -105h-34q-10 0 -21 -9.5t-13 -19.5l-75 -326q-29 -126 -100 -187t-202 -61z
M443 717l-89 87l12 53h146l27 -140h-96z" />
    <glyph glyph-name="Ydieresis.titling" horiz-adv-x="678" 
d="M118 0l23 101h41q10 0 21 10.5t13 19.5l35 155l-118 287q-8 22 -24 22h-22l25 105h302l-24 -105h-71l76 -201h3l101 135q23 31 17 48.5t-37 17.5h-20l24 105h278l-24 -105h-15q-22 0 -45 -27l-238 -292l-32 -145q-3 -10 1.5 -20t14.5 -10h44l-23 -101h-326zM559 718
q-35 0 -56.5 21t-21.5 54q0 36 25.5 59t60.5 23t57 -21.5t22 -53.5q0 -36 -25.5 -59t-61.5 -23zM361 718q-34 0 -55.5 21t-21.5 54q0 36 25 59t61 23q35 0 56.5 -21.5t21.5 -53.5q0 -37 -25.5 -59.5t-61.5 -22.5z" />
    <glyph glyph-name="Amacron.titling" horiz-adv-x="739" 
d="M-50 0l23 101h17q28 0 46 31l251 434q15 29 -8 29h-48l24 105h331l51 -574q1 -10 9.5 -17.5t17.5 -7.5h21l-24 -101h-321l23 101h86l-9 114h-217l-14 -24q-16 -30 -20.5 -49.5t3.5 -30t32 -10.5h33l-23 -101h-284zM415 564l-140 -253h159l-17 253h-2zM296 737l24 105h275
l-25 -105h-274z" />
    <glyph glyph-name="Abreve.titling" horiz-adv-x="739" 
d="M-50 0l23 101h17q28 0 46 31l251 434q15 29 -8 29h-48l24 105h331l51 -574q1 -10 9.5 -17.5t17.5 -7.5h21l-24 -101h-321l23 101h86l-9 114h-217l-14 -24q-16 -30 -20.5 -49.5t3.5 -30t32 -10.5h33l-23 -101h-284zM415 564l-140 -253h159l-17 253h-2zM448 716
q-58 0 -90.5 26.5t-41.5 64.5l12 50h84q2 -39 42 -39t54 39h92l-14 -62q-44 -79 -138 -79z" />
    <glyph glyph-name="Cacute.titling" horiz-adv-x="629" 
d="M382 722l49 140h171l-13 -53l-105 -87h-102zM326 -9q-145 0 -221 72.5t-76 200.5q0 124 53.5 225.5t148.5 160.5t212 59q66 0 104 -9h153l-55 -237h-120v109q-32 13 -68 13q-100 0 -167 -87.5t-67 -233.5q0 -150 121 -150q48 0 81.5 18t68.5 54h93l-31 -136
q-100 -59 -230 -59z" />
    <glyph glyph-name="Ccircumflex.titling" horiz-adv-x="629" 
d="M323 722l9 38l90 102h128l57 -102l-9 -38h-65l-60 54l-82 -54h-68zM326 -9q-145 0 -221 72.5t-76 200.5q0 124 53.5 225.5t148.5 160.5t212 59q66 0 104 -9h153l-55 -237h-120v109q-32 13 -68 13q-100 0 -167 -87.5t-67 -233.5q0 -150 121 -150q48 0 81.5 18t68.5 54h93
l-31 -136q-100 -59 -230 -59z" />
    <glyph glyph-name="Cdotaccent.titling" horiz-adv-x="629" 
d="M326 -9q-145 0 -221 72.5t-76 200.5q0 124 53.5 225.5t148.5 160.5t212 59q66 0 104 -9h153l-55 -237h-120v109q-32 13 -68 13q-100 0 -167 -87.5t-67 -233.5q0 -150 121 -150q48 0 81.5 18t68.5 54h93l-31 -136q-100 -59 -230 -59zM461 725q-37 0 -60 22t-23 56
q0 39 27 63.5t65 24.5q37 0 60 -22.5t23 -56.5q0 -39 -27 -63t-65 -24z" />
    <glyph glyph-name="Ccaron.titling" horiz-adv-x="629" 
d="M397 722l-57 102l9 38h65l60 -55l82 55h68l-9 -38l-90 -102h-128zM326 -9q-145 0 -221 72.5t-76 200.5q0 124 53.5 225.5t148.5 160.5t212 59q66 0 104 -9h153l-55 -237h-120v109q-32 13 -68 13q-100 0 -167 -87.5t-67 -233.5q0 -150 121 -150q48 0 81.5 18t68.5 54h93
l-31 -136q-100 -59 -230 -59z" />
    <glyph glyph-name="Dcaron.titling" horiz-adv-x="710" 
d="M328 717l-57 102l9 38h65l60 -55l82 55h68l-9 -38l-90 -102h-128zM-49 0l23 101h34q10 0 21.5 10.5t13.5 19.5l100 435q2 9 -3.5 19t-14.5 10h-38l25 105h282q156 0 240.5 -73t84.5 -210q0 -189 -117 -303t-328 -114h-323zM228 106h57q113 0 178 86t65 235
q0 161 -153 161h-37z" />
    <glyph glyph-name="Emacron.titling" horiz-adv-x="605" 
d="M676 700l-48 -207h-112l4 94h-182l-41 -178h88l21 61h103l-53 -229h-101l6 62h-89l-44 -194h190l42 112h118l-51 -221h-576l23 101h35q10 0 21 10.5t13 19.5l100 435q2 10 -2.5 19.5t-14.5 9.5h-39l25 105h564zM264 737l24 105h275l-25 -105h-274z" />
    <glyph glyph-name="Edotaccent.titling" horiz-adv-x="605" 
d="M676 700l-48 -207h-112l4 94h-182l-41 -178h88l21 61h103l-53 -229h-101l6 62h-89l-44 -194h190l42 112h118l-51 -221h-576l23 101h35q10 0 21 10.5t13 19.5l100 435q2 10 -2.5 19.5t-14.5 9.5h-39l25 105h564zM410 720q-37 0 -60 22t-23 56q0 39 27 63.5t65 24.5
q37 0 60 -22.5t23 -56.5q0 -39 -27 -63t-65 -24z" />
    <glyph glyph-name="Ecaron.titling" horiz-adv-x="605" 
d="M339 717l-57 102l9 38h65l60 -55l82 55h68l-9 -38l-90 -102h-128zM676 700l-48 -207h-112l4 94h-182l-41 -178h88l21 61h103l-53 -229h-101l6 62h-89l-44 -194h190l42 112h118l-51 -221h-576l23 101h35q10 0 21 10.5t13 19.5l100 435q2 10 -2.5 19.5t-14.5 9.5h-39
l25 105h564z" />
    <glyph glyph-name="Ebreve.titling" horiz-adv-x="598" 
d="M676 700l-48 -207h-112l4 94h-182l-41 -178h88l21 61h103l-53 -229h-101l6 62h-89l-44 -194h190l42 112h118l-51 -221h-576l23 101h35q10 0 21 10.5t13 19.5l100 435q2 10 -2.5 19.5t-14.5 9.5h-39l25 105h564zM407 721q-58 0 -90.5 26.5t-41.5 64.5l12 50h84
q2 -39 42 -39t54 39h92l-14 -62q-44 -79 -138 -79z" />
    <glyph glyph-name="Gcircumflex.titling" horiz-adv-x="676" 
d="M323 722l9 38l90 102h128l57 -102l-9 -38h-65l-60 54l-82 -54h-68zM302 -9q-130 0 -201.5 71t-71.5 197q0 189 119.5 319.5t300.5 130.5q67 0 108 -9h150l-53 -230h-122v101q-30 14 -74 14q-100 0 -167 -91t-68 -236q0 -77 27.5 -112.5t84.5 -35.5q34 0 69 10l27 122h-60
l24 102h292l-24 -103h-21q-10 0 -21 -10t-13 -20l-48 -211h-98q-5 21 -23 21q-65 -30 -137 -30z" />
    <glyph glyph-name="Gbreve.titling" horiz-adv-x="676" 
d="M302 -9q-130 0 -201.5 71t-71.5 197q0 189 119.5 319.5t300.5 130.5q67 0 108 -9h150l-53 -230h-122v101q-30 14 -74 14q-100 0 -167 -91t-68 -236q0 -77 27.5 -112.5t84.5 -35.5q34 0 69 10l27 122h-60l24 102h292l-24 -103h-21q-10 0 -21 -10t-13 -20l-48 -211h-98
q-5 21 -23 21q-65 -30 -137 -30zM471 721q-58 0 -90.5 26.5t-41.5 64.5l12 50h84q2 -39 42 -39t54 39h92l-14 -62q-44 -79 -138 -79z" />
    <glyph glyph-name="Gdotaccent.titling" horiz-adv-x="676" 
d="M302 -9q-130 0 -201.5 71t-71.5 197q0 189 119.5 319.5t300.5 130.5q67 0 108 -9h150l-53 -230h-122v101q-30 14 -74 14q-100 0 -167 -91t-68 -236q0 -77 27.5 -112.5t84.5 -35.5q34 0 69 10l27 122h-60l24 102h292l-24 -103h-21q-10 0 -21 -10t-13 -20l-48 -211h-98
q-5 21 -23 21q-65 -30 -137 -30zM468 725q-37 0 -60 22t-23 56q0 39 27 63.5t65 24.5q37 0 60 -22.5t23 -56.5q0 -39 -27 -63t-65 -24z" />
    <glyph glyph-name="Hcircumflex.titling" horiz-adv-x="741" 
d="M336 717l9 38l90 102h128l57 -102l-9 -38h-65l-60 54l-82 -54h-68zM-49 0l23 101h35q10 0 21 10.5t13 19.5l100 435q2 10 -2.5 19.5t-14.5 9.5h-39l25 105h321l-24 -105h-69l-43 -188h214l42 188h-68l24 105h322l-24 -105h-36q-10 0 -21 -9.5t-13 -19.5l-99 -435
q-2 -10 2.5 -20t13.5 -10h40l-23 -101h-323l23 101h69l47 204h-214l-46 -204h69l-23 -101h-322z" />
    <glyph glyph-name="Imacron.titling" horiz-adv-x="349" 
d="M-49 0l23 101h42q9 0 20 10.5t13 19.5l100 435q2 10 -2.5 19.5t-13.5 9.5h-46l25 105h328l-24 -105h-43q-10 0 -20.5 -9.5t-12.5 -19.5l-100 -435q-2 -10 2.5 -20t13.5 -10h46l-23 -101h-328zM146 737l24 105h275l-25 -105h-274z" />
    <glyph glyph-name="Idotaccent.titling" horiz-adv-x="349" 
d="M-49 0l23 101h42q9 0 20 10.5t13 19.5l100 435q2 10 -2.5 19.5t-13.5 9.5h-46l25 105h328l-24 -105h-43q-10 0 -20.5 -9.5t-12.5 -19.5l-100 -435q-2 -10 2.5 -20t13.5 -10h46l-23 -101h-328zM281 720q-37 0 -60 22t-23 56q0 39 27 63.5t65 24.5q37 0 60 -22.5t23 -56.5
q0 -39 -27 -63t-65 -24z" />
    <glyph glyph-name="Jcircumflex.titling" horiz-adv-x="501" 
d="M298 717l9 38l90 102h128l57 -102l-9 -38h-65l-60 54l-82 -54h-68zM144 -8q-112 0 -186 36l29 127h96q18 -43 65 -43q56 0 73 74l87 380q2 10 -2.5 19.5t-13.5 9.5h-44l25 105h320l-25 -105h-36q-10 0 -20.5 -9.5t-12.5 -19.5l-86 -373q-24 -107 -85 -154t-184 -47z" />
    <glyph glyph-name="Lacute.titling" horiz-adv-x="584" 
d="M205 717l49 140h171l-13 -53l-105 -87h-102zM-49 0l23 101h35q10 0 21 10.5t13 19.5l100 435q2 10 -2.5 19.5t-14.5 9.5h-39l25 105h340l-24 -105h-88l-112 -486h173l50 135h119l-56 -244h-563z" />
    <glyph glyph-name="Nacute.titling" horiz-adv-x="716" 
d="M388 717l49 140h171l-13 -53l-105 -87h-102zM-49 0l23 101h35q10 0 21 10.5t13 19.5l100 435q2 10 -2.5 19.5t-14.5 9.5h-39l25 105h249l146 -425h3l75 320h-71l25 105h268l-24 -105h-34q-9 0 -20 -10t-13 -19l-129 -566h-161l-166 465h-3l-83 -364h73l-23 -101h-273z
" />
    <glyph glyph-name="Ncaron.titling" horiz-adv-x="716" 
d="M388 717l-57 102l9 38h65l60 -55l82 55h68l-9 -38l-90 -102h-128zM-49 0l23 101h35q10 0 21 10.5t13 19.5l100 435q2 10 -2.5 19.5t-14.5 9.5h-39l25 105h249l146 -425h3l75 320h-71l25 105h268l-24 -105h-34q-9 0 -20 -10t-13 -19l-129 -566h-161l-166 465h-3l-83 -364
h73l-23 -101h-273z" />
    <glyph glyph-name="Omacron.titling" horiz-adv-x="729" 
d="M301 742l24 105h275l-25 -105h-274zM334 -9q-142 0 -224 75.5t-82 210.5q0 184 116 307.5t282 123.5q137 0 218.5 -76.5t81.5 -208.5q0 -191 -112 -311.5t-280 -120.5zM341 111q87 0 141 93.5t54 220.5q0 76 -31.5 116.5t-90.5 40.5q-88 0 -141.5 -92t-53.5 -222
q0 -76 31.5 -116.5t90.5 -40.5z" />
    <glyph glyph-name="Ohungarumlaut.titling" horiz-adv-x="729" 
d="M469 722l44 140h142l-12 -51l-82 -89h-92zM292 722l44 140h142l-13 -51l-82 -89h-91zM334 -9q-142 0 -224 75.5t-82 210.5q0 184 116 307.5t282 123.5q137 0 218.5 -76.5t81.5 -208.5q0 -191 -112 -311.5t-280 -120.5zM341 111q87 0 141 93.5t54 220.5q0 76 -31.5 116.5
t-90.5 40.5q-88 0 -141.5 -92t-53.5 -222q0 -76 31.5 -116.5t90.5 -40.5z" />
    <glyph glyph-name="Racute.titling" horiz-adv-x="682" 
d="M333 717l49 140h171l-13 -53l-105 -87h-102zM-49 0l23 101h35q10 0 21 10.5t13 19.5l100 435q2 10 -2.5 19.5t-14.5 9.5h-39l25 105h307q123 0 188 -45t65 -125q0 -81 -50 -130t-143 -64v-4q51 -12 73 -41.5t32 -104.5l8 -60q3 -25 19 -25h24l-23 -101h-204l-10 190
q-3 58 -18.5 77t-63.5 19h-47l-42 -185h76l-23 -101h-329zM336 588l-47 -205h59q131 0 131 131q0 74 -91 74h-52z" />
    <glyph glyph-name="Rcaron.titling" horiz-adv-x="682" 
d="M333 717l-57 102l9 38h65l60 -55l82 55h68l-9 -38l-90 -102h-128zM-49 0l23 101h35q10 0 21 10.5t13 19.5l100 435q2 10 -2.5 19.5t-14.5 9.5h-39l25 105h307q123 0 188 -45t65 -125q0 -81 -50 -130t-143 -64v-4q51 -12 73 -41.5t32 -104.5l8 -60q3 -25 19 -25h24
l-23 -101h-204l-10 190q-3 58 -18.5 77t-63.5 19h-47l-42 -185h76l-23 -101h-329zM336 588l-47 -205h59q131 0 131 131q0 74 -91 74h-52z" />
    <glyph glyph-name="Sacute.titling" horiz-adv-x="538" 
d="M301 722l49 140h171l-13 -53l-105 -87h-102zM223 -9q-53 0 -120 9h-143l48 214h125l-4 -98q33 -12 84 -12q116 0 116 85q0 11 -2 20t-9 17.5t-12 13.5t-19 13t-20.5 11t-26.5 12.5t-28 13.5q-68 32 -103 72t-35 116q0 106 70.5 168.5t200.5 62.5q66 0 122 -9h121
l-46 -196h-120v86q-29 11 -74 11q-108 0 -108 -82q0 -16 5.5 -28.5t18.5 -22.5t25 -16.5t36 -16.5q50 -22 74.5 -35.5t54 -38t41.5 -56.5t12 -77q0 -107 -72.5 -172t-211.5 -65z" />
    <glyph glyph-name="Scircumflex.titling" horiz-adv-x="538" 
d="M225 722l9 38l90 102h128l57 -102l-9 -38h-65l-60 54l-82 -54h-68zM223 -9q-53 0 -120 9h-143l48 214h125l-4 -98q33 -12 84 -12q116 0 116 85q0 11 -2 20t-9 17.5t-12 13.5t-19 13t-20.5 11t-26.5 12.5t-28 13.5q-68 32 -103 72t-35 116q0 106 70.5 168.5t200.5 62.5
q66 0 122 -9h121l-46 -196h-120v86q-29 11 -74 11q-108 0 -108 -82q0 -16 5.5 -28.5t18.5 -22.5t25 -16.5t36 -16.5q50 -22 74.5 -35.5t54 -38t41.5 -56.5t12 -77q0 -107 -72.5 -172t-211.5 -65z" />
    <glyph glyph-name="Tcaron.titling" horiz-adv-x="652" 
d="M354 717l-57 102l9 38h65l60 -55l82 55h68l-9 -38l-90 -102h-128zM101 0l23 101h41q9 0 20 10.5t13 19.5l105 460h-84l-47 -139h-114l57 248h619l-57 -248h-114l16 139h-85l-105 -460q-2 -10 2.5 -20t13.5 -10h44l-22 -101h-326z" />
    <glyph glyph-name="Umacron.titling" horiz-adv-x="715" 
d="M337 -8q-160 0 -226 73.5t-36 204.5l67 296q2 10 -2.5 19.5t-13.5 9.5h-38l24 105h326l-24 -105h-74l-80 -347q-17 -74 9 -105t87 -31q64 0 96 31.5t49 106.5l79 345h-75l25 105h276l-24 -105h-34q-10 0 -21 -9.5t-13 -19.5l-75 -326q-29 -126 -100 -187t-202 -61z
M348 737l24 105h275l-25 -105h-274z" />
    <glyph glyph-name="Ubreve.titling" horiz-adv-x="715" 
d="M337 -8q-160 0 -226 73.5t-36 204.5l67 296q2 10 -2.5 19.5t-13.5 9.5h-38l24 105h326l-24 -105h-74l-80 -347q-17 -74 9 -105t87 -31q64 0 96 31.5t49 106.5l79 345h-75l25 105h276l-24 -105h-34q-10 0 -21 -9.5t-13 -19.5l-75 -326q-29 -126 -100 -187t-202 -61z
M489 716q-58 0 -90.5 26.5t-41.5 64.5l12 50h84q2 -39 42 -39t54 39h92l-14 -62q-44 -79 -138 -79z" />
    <glyph glyph-name="Uring.titling" horiz-adv-x="715" 
d="M484 704q-44 0 -73.5 26.5t-29.5 69.5q0 50 33 79t79 29q43 0 72 -27t29 -69q0 -50 -32.5 -79t-77.5 -29zM485 754q23 0 38 15t15 40q0 22 -13 36t-35 14q-23 0 -37.5 -15.5t-14.5 -42.5q0 -21 12.5 -34t34.5 -13zM337 -8q-160 0 -226 73.5t-36 204.5l67 296
q2 10 -2.5 19.5t-13.5 9.5h-38l24 105h326l-24 -105h-74l-80 -347q-17 -74 9 -105t87 -31q64 0 96 31.5t49 106.5l79 345h-75l25 105h276l-24 -105h-34q-10 0 -21 -9.5t-13 -19.5l-75 -326q-29 -126 -100 -187t-202 -61z" />
    <glyph glyph-name="Uhungarumlaut.titling" horiz-adv-x="715" 
d="M337 -8q-160 0 -226 73.5t-36 204.5l67 296q2 10 -2.5 19.5t-13.5 9.5h-38l24 105h326l-24 -105h-74l-80 -347q-17 -74 9 -105t87 -31q64 0 96 31.5t49 106.5l79 345h-75l25 105h276l-24 -105h-34q-10 0 -21 -9.5t-13 -19.5l-75 -326q-29 -126 -100 -187t-202 -61z
M524 717l44 140h142l-12 -51l-82 -89h-92zM347 717l44 140h142l-13 -51l-82 -89h-91z" />
    <glyph glyph-name="Zacute.titling" horiz-adv-x="563" 
d="M324 717l49 140h171l-13 -53l-105 -87h-102zM-50 0l29 125l428 458v4h-176l-39 -97h-113l49 210h518l-30 -128l-428 -459v-4h193l43 112h118l-51 -221h-541z" />
    <glyph glyph-name="Zdotaccent.titling" horiz-adv-x="563" 
d="M-50 0l29 125l428 458v4h-176l-39 -97h-113l49 210h518l-30 -128l-428 -459v-4h193l43 112h118l-51 -221h-541zM395 720q-37 0 -60 22t-23 56q0 39 27 63.5t65 24.5q37 0 60 -22.5t23 -56.5q0 -39 -27 -63t-65 -24z" />
    <glyph glyph-name="Racute.titlingalt" horiz-adv-x="689" 
d="M331 717l49 140h171l-13 -53l-105 -87h-102zM529 -8q-66 0 -96.5 29.5t-32.5 97.5l-3 74q-1 55 -22 74t-66 19h-40l-42 -185h76l-23 -101h-329l23 101h35q10 0 21 10.5t13 19.5l100 435q2 9 -4.5 19t-15.5 10h-36l25 105h307q123 0 188 -45t65 -125q0 -81 -50 -130
t-143 -64v-4q43 -12 67.5 -43t38.5 -103l13 -66q1 -8 8 -13.5t14 -5.5h21l-20 -90q-44 -19 -92 -19zM336 588l-47 -205h59q131 0 131 131q0 74 -91 74h-52z" />
    <glyph glyph-name="Rcaron.titlingalt" horiz-adv-x="689" 
d="M331 717l-57 102l9 38h65l60 -55l82 55h68l-9 -38l-90 -102h-128zM529 -8q-66 0 -96.5 29.5t-32.5 97.5l-3 74q-1 55 -22 74t-66 19h-40l-42 -185h76l-23 -101h-329l23 101h35q10 0 21 10.5t13 19.5l100 435q2 9 -4.5 19t-15.5 10h-36l25 105h307q123 0 188 -45t65 -125
q0 -81 -50 -130t-143 -64v-4q43 -12 67.5 -43t38.5 -103l13 -66q1 -8 8 -13.5t14 -5.5h21l-20 -90q-44 -19 -92 -19zM336 588l-47 -205h59q131 0 131 131q0 74 -91 74h-52z" />
    </font>
</defs>
</svg>
