<?xml version="1.0" standalone="no"?>
<!DOCTYPE svg PUBLIC "-//W3C//DTD SVG 1.1//EN" "http://www.w3.org/Graphics/SVG/1.1/DTD/svg11.dtd" >
<svg>
<metadata>
Created by FontForge 20120731 at Wed Sep 28 01:05:27 2016
 By ,,,
(c)2008 Schwartzco Inc.
</metadata>
<defs>
<font id="Stag-MediumItalic" horiz-adv-x="600" >
  <font-face 
    font-family="Stag Medium"
    font-weight="500"
    font-style="italic"
    font-stretch="normal"
    units-per-em="1000"
    panose-1="2 0 6 3 6 0 0 2 0 4"
    ascent="800"
    descent="-200"
    x-height="525"
    cap-height="700"
    bbox="-268 -219 1144 942"
    underline-thickness="20"
    underline-position="-113"
    slope="-12.5"
    unicode-range="U+0020-FB04"
  />
<missing-glyph horiz-adv-x="500" 
 />
    <glyph glyph-name="f_f" unicode="ff" horiz-adv-x="597" 
d="M206 -162l18 78q56 15 76 107l89 414h-135l-93 -417q-32 -139 -148 -182h-90l18 78q59 16 79 107l89 414h-62l19 88h62l8 36q33 145 181 145q55 0 87 -14l-18 -82h-26q-35 0 -53.5 -11.5t-25.5 -42.5l-7 -31h134l9 40q33 145 183 145q58 0 90 -14l-18 -82h-31
q-35 0 -53.5 -11.5t-25.5 -42.5l-8 -35h90l-19 -88h-91l-93 -417q-32 -139 -148 -182h-87z" />
    <glyph glyph-name="f_i" unicode="fi" horiz-adv-x="561" 
d="M282 560l-8 -35h179q106 0 82 -101l-73 -316q-2 -9 4 -17t15 -8h30l-16 -74q-38 -16 -89 -16q-60 0 -81 33t-8 90l74 321h-137l-93 -417q-32 -139 -148 -182h-90l18 78q59 16 79 107l89 414h-62l19 88h62l9 40q32 145 183 145q58 0 90 -14l-18 -82h-31q-35 0 -53.5 -11.5
t-25.5 -42.5zM506 567q-32 0 -53 21.5t-21 52.5q0 33 24.5 56t58.5 23q32 0 53.5 -21.5t21.5 -52.5q0 -34 -25 -56.5t-59 -22.5z" />
    <glyph glyph-name="f_l" unicode="fl" horiz-adv-x="564" 
d="M47 437l19 88h62l9 40q33 145 186 145q49 0 87 -10h164q25 0 17 -34l-129 -558q-2 -9 4 -17t15 -8h33l-16 -74q-40 -16 -90 -16q-60 0 -81.5 33t-8.5 90l115 498h-72q-35 0 -53.5 -11.5t-25.5 -42.5l-8 -35h90l-19 -88h-91l-93 -417q-32 -139 -148 -182h-90l18 78
q59 16 79 107l89 414h-62z" />
    <glyph glyph-name="f_f_i" unicode="ffi" horiz-adv-x="841" 
d="M562 560l-8 -35h179q106 0 82 -101l-73 -316q-2 -9 4 -17t15 -8h30l-16 -74q-38 -16 -89 -16q-60 0 -81 33t-8 90l74 321h-137l-93 -417q-32 -139 -148 -182h-90l18 78q59 16 79 107l89 414h-135l-93 -417q-32 -139 -148 -182h-90l18 78q59 16 79 107l89 414h-62l19 88
h62l8 36q32 145 181 145q55 0 87 -14l-18 -82h-26q-35 0 -53.5 -11.5t-25.5 -42.5l-7 -31h134l9 40q33 145 183 145q58 0 90 -14l-18 -82h-31q-35 0 -53.5 -11.5t-25.5 -42.5zM786 567q-32 0 -53 21.5t-21 52.5q0 33 24.5 56t58.5 23q32 0 53.5 -21.5t21.5 -52.5
q0 -34 -25 -56.5t-59 -22.5z" />
    <glyph glyph-name="f_f_l" unicode="ffl" horiz-adv-x="844" 
d="M47 437l19 88h62l8 36q33 145 181 145q55 0 87 -14l-18 -82h-26q-35 0 -53.5 -11.5t-25.5 -42.5l-7 -31h134l9 40q33 145 186 145q49 0 87 -10h164q25 0 17 -34l-129 -558q-2 -9 4 -17t15 -8h33l-16 -74q-40 -16 -90 -16q-60 0 -81.5 33t-8.5 90l115 498h-72
q-35 0 -53.5 -11.5t-25.5 -42.5l-8 -35h90l-19 -88h-91l-93 -417q-32 -139 -148 -182h-90l18 78q59 16 79 107l89 414h-135l-93 -417q-32 -139 -148 -182h-90l18 78q59 16 79 107l89 414h-62z" />
    <glyph glyph-name="f_b" unicode="fb" horiz-adv-x="864" 
d="M711 534q67 0 107.5 -45t40.5 -133q0 -67 -25.5 -145.5t-69.5 -129.5q-77 -88 -194 -88q-88 0 -137 59q-19 -21 -42 -36.5t-34 -15.5h-64l140 614h-72q-35 0 -53.5 -11.5t-25.5 -42.5l-8 -35h90l-19 -88h-91l-93 -417q-32 -139 -148 -182h-90l18 78q59 16 79 107l89 414
h-62l19 88h62l9 40q33 145 186 145q49 0 87 -10h164q25 0 17 -34l-47 -208q76 76 167 76zM638 430q-53 0 -111 -44l-66 -288q30 -18 77 -18q85 0 130.5 73.5t45.5 182.5q0 46 -20.5 70t-55.5 24z" />
    <glyph glyph-name="f_h" unicode="fh" horiz-adv-x="870" 
d="M686 365q12 56 -32 56q-58 0 -131 -53l-84 -368h-115q-14 0 -21 10t-3 25l133 579h-72q-35 0 -53.5 -11.5t-25.5 -42.5l-8 -35h90l-19 -88h-91l-93 -417q-32 -139 -148 -182h-90l18 78q59 16 79 107l89 414h-62l19 88h62l9 40q33 145 186 145q49 0 87 -10h164
q25 0 17 -34l-52 -226q105 93 201 93q65 0 89.5 -37.5t10.5 -97.5l-67 -290q-2 -9 4 -17t15 -8h28l-16 -74q-38 -16 -86 -16q-60 0 -81 33t-8 90z" />
    <glyph glyph-name="f_j" unicode="fj" horiz-adv-x="543" 
d="M506 567q-32 0 -53 21.5t-21 52.5q0 33 24.5 56t58.5 23q32 0 53.5 -21.5t21.5 -52.5q0 -34 -25 -56.5t-59 -22.5zM289 -13l102 450h-137l-93 -417q-32 -139 -148 -182h-90l18 78q59 16 79 107l89 414h-62l19 88h62l9 40q33 145 183 145q58 0 90 -14l-18 -82h-31
q-35 0 -53.5 -11.5t-25.5 -42.5l-8 -35h179q104 0 82 -101l-101 -446q-18 -80 -59.5 -113t-114.5 -33q-46 0 -84 14l17 70h19q36 0 52 16t25 55z" />
    <glyph glyph-name="f_k" unicode="fk" horiz-adv-x="815" 
d="M603 75l-57 136q-37 -22 -68 -38l-39 -173h-115q-14 0 -21 10t-3 25l133 579h-72q-35 0 -53.5 -11.5t-25.5 -42.5l-8 -35h90l-19 -88h-91l-93 -417q-32 -139 -148 -182h-90l18 78q59 16 79 107l89 414h-62l19 88h62l9 40q33 145 186 145q49 0 87 -10h164q25 0 17 -34
l-87 -378q175 116 202 237h138l-15 -68q-61 -79 -172 -168l84 -181q12 -25 31 -25h17l-16 -74q-34 -16 -74 -16q-22 0 -37.5 5.5t-26.5 18.5t-17 25t-15 33z" />
    <glyph glyph-name="f_t" unicode="ft" horiz-adv-x="595" 
d="M47 437l19 88h62l9 40q33 145 183 145q50 0 81 -14l-18 -82h-22q-35 0 -53.5 -11.5t-25.5 -42.5l-8 -35h127l32 140h146l-32 -140h94l-19 -88h-96l-63 -277q-17 -77 57 -77h25l-17 -78q-37 -13 -79 -13q-84 0 -116.5 45t-14.5 126l63 274h-127l-93 -417
q-32 -139 -148 -182h-90l18 78q59 16 79 107l89 414h-62z" />
    <glyph glyph-name="f_f_b" unicode="ffb" horiz-adv-x="1144" 
d="M991 534q67 0 107.5 -45t40.5 -133q0 -67 -25.5 -145.5t-69.5 -129.5q-77 -88 -194 -88q-88 0 -137 59q-19 -21 -42 -36.5t-34 -15.5h-64l140 614h-72q-35 0 -53.5 -11.5t-25.5 -42.5l-8 -35h90l-19 -88h-91l-93 -417q-32 -139 -148 -182h-90l18 78q59 16 79 107l89 414
h-135l-93 -417q-32 -139 -148 -182h-90l18 78q59 16 79 107l89 414h-62l19 88h62l8 36q33 145 181 145q55 0 87 -14l-18 -82h-26q-35 0 -53.5 -11.5t-25.5 -42.5l-7 -31h134l9 40q33 145 186 145q49 0 87 -10h164q25 0 17 -34l-47 -208q76 76 167 76zM918 430
q-53 0 -111 -44l-66 -288q30 -18 77 -18q85 0 130.5 73.5t45.5 182.5q0 46 -20.5 70t-55.5 24z" />
    <glyph glyph-name="f_f_h" unicode="ffh" horiz-adv-x="1150" 
d="M966 365q12 56 -32 56q-58 0 -131 -53l-84 -368h-115q-14 0 -21 10t-3 25l133 579h-72q-35 0 -53.5 -11.5t-25.5 -42.5l-8 -35h90l-19 -88h-91l-93 -417q-32 -139 -148 -182h-90l18 78q59 16 79 107l89 414h-135l-93 -417q-32 -139 -148 -182h-90l18 78q59 16 79 107
l89 414h-62l19 88h62l8 36q33 145 181 145q55 0 87 -14l-18 -82h-26q-35 0 -53.5 -11.5t-25.5 -42.5l-7 -31h134l9 40q33 145 186 145q49 0 87 -10h164q25 0 17 -34l-52 -226q105 93 201 93q65 0 89.5 -37.5t10.5 -97.5l-67 -290q-2 -9 4 -17t15 -8h28l-16 -74
q-38 -16 -86 -16q-60 0 -81 33t-8 90z" />
    <glyph glyph-name="f_f_j" unicode="ffj" horiz-adv-x="823" 
d="M786 567q-32 0 -53 21.5t-21 52.5q0 33 24.5 56t58.5 23q32 0 53.5 -21.5t21.5 -52.5q0 -34 -25 -56.5t-59 -22.5zM568 -13l103 450h-137l-93 -417q-32 -139 -148 -182h-90l18 78q59 16 79 107l89 414h-135l-93 -417q-32 -139 -148 -182h-90l18 78q59 16 79 107l89 414
h-62l19 88h62l8 36q33 145 181 145q55 0 87 -14l-18 -82h-26q-35 0 -53.5 -11.5t-25.5 -42.5l-7 -31h134l9 40q33 145 183 145q58 0 90 -14l-18 -82h-31q-35 0 -53.5 -11.5t-25.5 -42.5l-8 -35h179q104 0 82 -101l-102 -446q-18 -80 -59.5 -113t-115.5 -33q-45 0 -83 14
l17 70h19q36 0 52 16t25 55z" />
    <glyph glyph-name="f_f_k" unicode="ffk" horiz-adv-x="1095" 
d="M883 75l-57 136q-37 -22 -68 -38l-39 -173h-115q-14 0 -21 10t-3 25l133 579h-72q-35 0 -53.5 -11.5t-25.5 -42.5l-8 -35h90l-19 -88h-91l-93 -417q-32 -139 -148 -182h-90l18 78q59 16 79 107l89 414h-135l-93 -417q-32 -139 -148 -182h-90l18 78q59 16 79 107l89 414
h-62l19 88h62l8 36q33 145 181 145q55 0 87 -14l-18 -82h-26q-35 0 -53.5 -11.5t-25.5 -42.5l-7 -31h134l9 40q33 145 186 145q49 0 87 -10h164q25 0 17 -34l-87 -378q175 116 202 237h138l-15 -68q-61 -79 -172 -168l84 -181q12 -25 31 -25h17l-16 -74q-34 -16 -74 -16
q-22 0 -37.5 5.5t-26.5 18.5t-17 25t-15 33z" />
    <glyph glyph-name="f_f_t" unicode="fft" horiz-adv-x="875" 
d="M203 -162l18 78q59 16 79 107l89 414h-135l-93 -417q-32 -139 -148 -182h-90l18 78q59 16 79 107l89 414h-62l19 88h62l8 36q33 145 181 145q55 0 87 -14l-18 -82h-26q-35 0 -53.5 -11.5t-25.5 -42.5l-7 -31h134l9 40q33 145 183 145q50 0 81 -14l-18 -82h-22
q-35 0 -53.5 -11.5t-25.5 -42.5l-8 -35h127l32 140h146l-32 -140h94l-19 -88h-96l-63 -277q-17 -77 57 -77h25l-17 -78q-37 -13 -79 -13q-84 0 -116.5 45t-14.5 126l63 274h-127l-93 -417q-32 -139 -148 -182h-90z" />
    <glyph glyph-name="f_igrave" unicode="f&#xec;" horiz-adv-x="561" 
d="M406 -7q-60 0 -81 33t-8 90l74 321h-137l-93 -417q-32 -139 -148 -182h-90l18 78q59 16 79 107l89 414h-62l19 88h62l9 40q17 73 61.5 109t106.5 36q44 0 76 -14l-18 -82h-12q-31 0 -46.5 -11t-22.5 -43l-8 -35h179q106 0 82 -101l-73 -316q-2 -9 4 -17t15 -8h30l-16 -74
q-38 -16 -89 -16zM465 562l-69 88l11 50h122l13 -138h-77z" />
    <glyph glyph-name="f_iacute" unicode="f&#xed;" horiz-adv-x="561" 
d="M406 -7q-60 0 -81 33t-8 90l74 321h-137l-93 -417q-32 -139 -148 -182h-90l18 78q59 16 79 107l89 414h-62l19 88h62l9 40q33 145 183 145q58 0 90 -14l-18 -82h-31q-35 0 -53.5 -11.5t-25.5 -42.5l-8 -35h179q106 0 82 -101l-73 -316q-2 -9 4 -17t15 -8h30l-16 -74
q-38 -16 -89 -16zM438 562l49 138h147l-12 -50l-102 -88h-82z" />
    <glyph glyph-name="f_icircumflex" unicode="f&#xee;" horiz-adv-x="561" 
d="M406 -7q-60 0 -81 33t-8 90l74 321h-137l-93 -417q-32 -139 -148 -182h-90l18 78q59 16 79 107l89 414h-62l19 88h62l9 40q33 145 175 145q48 0 80 -14l-18 -82h-21q-31 0 -47.5 -11.5t-23.5 -42.5l-8 -35h179q106 0 82 -101l-73 -316q-2 -9 4 -17t15 -8h30l-16 -74
q-38 -16 -89 -16zM378 562l9 37l71 101h114l39 -101l-9 -37h-50l-47 60l-69 -60h-58z" />
    <glyph glyph-name="f_idieresis" unicode="f&#xef;" horiz-adv-x="561" 
d="M406 -7q-60 0 -81 33t-8 90l74 321h-137l-93 -417q-32 -139 -148 -182h-90l18 78q59 16 79 107l89 414h-62l19 88h62l9 40q33 145 168 145q45 0 75 -14l-18 -82h-10q-31 0 -47 -11t-23 -43l-8 -35h179q106 0 82 -101l-73 -316q-2 -9 4 -17t15 -8h30l-16 -74
q-38 -16 -89 -16zM446 571q-28 0 -46 18t-18 43q0 32 21 53t50 21q28 0 47.5 -18.5t19.5 -42.5q0 -33 -22 -53.5t-52 -20.5zM597 571q-28 0 -46 18t-18 43q0 32 21 53t50 21q28 0 47.5 -18.5t19.5 -42.5q0 -33 -22 -53.5t-52 -20.5z" />
    <glyph glyph-name="f_iogonek" unicode="f&#x12f;" horiz-adv-x="561" 
d="M-77 -162l18 78q59 16 79 107l89 414h-62l19 88h62l9 40q32 145 183 145q58 0 90 -14l-18 -82h-31q-35 0 -53.5 -11.5t-25.5 -42.5l-8 -35h179q106 0 82 -101l-73 -316q-2 -9 4 -17t15 -8h30l-16 -74q-66 -35 -66 -70q0 -23 36 -23h19l-15 -64q-34 -17 -70 -17
q-42 0 -64 18t-22 49q0 57 85 92q-54 3 -74 35.5t-7 86.5l74 321h-137l-93 -417q-32 -139 -148 -182h-90zM506 567q-32 0 -53 21.5t-21 52.5q0 33 24.5 56t58.5 23q32 0 53.5 -21.5t21.5 -52.5q0 -34 -25 -56.5t-59 -22.5z" />
    <glyph glyph-name="f_imacron" unicode="f&#x12b;" horiz-adv-x="561" 
d="M406 -7q-60 0 -81 33t-8 90l74 321h-137l-93 -417q-32 -139 -148 -182h-90l18 78q59 16 79 107l89 414h-62l19 88h62l9 40q33 145 175 145q48 0 80 -14l-18 -82h-21q-32 0 -48 -11t-23 -43l-8 -35h179q106 0 82 -101l-73 -316q-2 -9 4 -17t15 -8h30l-16 -74
q-38 -16 -89 -16zM393 585l21 94h213l-21 -94h-213z" />
    <glyph glyph-name="f_f_igrave" unicode="ff&#xec;" horiz-adv-x="841" 
d="M203 -162l18 78q59 16 79 107l89 414h-135l-93 -417q-32 -139 -148 -182h-90l18 78q59 16 79 107l89 414h-62l19 88h62l8 36q32 145 181 145q55 0 87 -14l-18 -82h-26q-35 0 -53.5 -11.5t-25.5 -42.5l-7 -31h134l9 40q17 73 61.5 109t106.5 36q44 0 76 -14l-18 -82h-12
q-31 0 -46.5 -11t-22.5 -43l-8 -35h179q106 0 82 -101l-73 -316q-2 -9 4 -17t15 -8h30l-16 -74q-38 -16 -89 -16q-60 0 -81 33t-8 90l74 321h-137l-93 -417q-32 -139 -148 -182h-90zM745 562l-69 88l11 50h122l13 -138h-77z" />
    <glyph glyph-name="f_f_iacute" unicode="ff&#xed;" horiz-adv-x="841" 
d="M203 -162l18 78q59 16 79 107l89 414h-135l-93 -417q-32 -139 -148 -182h-90l18 78q59 16 79 107l89 414h-62l19 88h62l8 36q32 145 181 145q55 0 87 -14l-18 -82h-26q-35 0 -53.5 -11.5t-25.5 -42.5l-7 -31h134l9 40q33 145 183 145q58 0 90 -14l-18 -82h-31
q-35 0 -53.5 -11.5t-25.5 -42.5l-8 -35h179q106 0 82 -101l-73 -316q-2 -9 4 -17t15 -8h30l-16 -74q-38 -16 -89 -16q-60 0 -81 33t-8 90l74 321h-137l-93 -417q-32 -139 -148 -182h-90zM718 562l49 138h147l-12 -50l-102 -88h-82z" />
    <glyph glyph-name="f_f_icircumflex" unicode="ff&#xee;" horiz-adv-x="841" 
d="M203 -162l18 78q59 16 79 107l89 414h-135l-93 -417q-32 -139 -148 -182h-90l18 78q59 16 79 107l89 414h-62l19 88h62l8 36q32 145 181 145q55 0 87 -14l-18 -82h-26q-35 0 -53.5 -11.5t-25.5 -42.5l-7 -31h134l9 40q33 145 175 145q48 0 80 -14l-18 -82h-21
q-31 0 -47.5 -11.5t-23.5 -42.5l-8 -35h179q106 0 82 -101l-73 -316q-2 -9 4 -17t15 -8h30l-16 -74q-38 -16 -89 -16q-60 0 -81 33t-8 90l74 321h-137l-93 -417q-32 -139 -148 -182h-90zM658 562l9 37l71 101h114l39 -101l-9 -37h-50l-47 60l-69 -60h-58z" />
    <glyph glyph-name="f_f_idieresis" unicode="ff&#xef;" horiz-adv-x="841" 
d="M203 -162l18 78q59 16 79 107l89 414h-135l-93 -417q-32 -139 -148 -182h-90l18 78q59 16 79 107l89 414h-62l19 88h62l8 36q32 145 181 145q55 0 87 -14l-18 -82h-26q-35 0 -53.5 -11.5t-25.5 -42.5l-7 -31h134l9 40q33 145 168 145q45 0 75 -14l-18 -82h-10
q-31 0 -47 -11t-23 -43l-8 -35h179q106 0 82 -101l-73 -316q-2 -9 4 -17t15 -8h30l-16 -74q-38 -16 -89 -16q-60 0 -81 33t-8 90l74 321h-137l-93 -417q-32 -139 -148 -182h-90zM726 571q-28 0 -46 18t-18 43q0 32 21 53t50 21q28 0 47.5 -18.5t19.5 -42.5q0 -33 -22 -53.5
t-52 -20.5zM877 571q-28 0 -46 18t-18 43q0 32 21 53t50 21q28 0 47.5 -18.5t19.5 -42.5q0 -33 -22 -53.5t-52 -20.5z" />
    <glyph glyph-name="f_f_iogonek" unicode="ff&#x12f;" horiz-adv-x="841" 
d="M-77 -162l18 78q59 16 79 107l89 414h-62l19 88h62l8 36q32 145 181 145q55 0 87 -14l-18 -82h-26q-35 0 -53.5 -11.5t-25.5 -42.5l-7 -31h134l9 40q33 145 183 145q58 0 90 -14l-18 -82h-31q-35 0 -53.5 -11.5t-25.5 -42.5l-8 -35h179q106 0 82 -101l-73 -316
q-2 -9 4 -17t15 -8h30l-16 -74q-66 -35 -66 -70q0 -23 36 -23h19l-15 -64q-34 -17 -70 -17q-42 0 -64 18t-22 49q0 57 85 92q-54 3 -74 35.5t-7 86.5l74 321h-137l-93 -417q-32 -139 -148 -182h-90l18 78q59 16 79 107l89 414h-135l-93 -417q-32 -139 -148 -182h-90z
M786 567q-32 0 -53 21.5t-21 52.5q0 33 24.5 56t58.5 23q32 0 53.5 -21.5t21.5 -52.5q0 -34 -25 -56.5t-59 -22.5z" />
    <glyph glyph-name="f_f_imacron" unicode="ff&#x12b;" horiz-adv-x="841" 
d="M203 -162l18 78q59 16 79 107l89 414h-135l-93 -417q-32 -139 -148 -182h-90l18 78q59 16 79 107l89 414h-62l19 88h62l8 36q32 145 181 145q55 0 87 -14l-18 -82h-26q-35 0 -53.5 -11.5t-25.5 -42.5l-7 -31h134l9 40q33 145 175 145q48 0 80 -14l-18 -82h-21
q-32 0 -48 -11t-23 -43l-8 -35h179q106 0 82 -101l-73 -316q-2 -9 4 -17t15 -8h30l-16 -74q-38 -16 -89 -16q-60 0 -81 33t-8 90l74 321h-137l-93 -417q-32 -139 -148 -182h-90zM673 585l21 94h213l-21 -94h-213z" />
    <glyph glyph-name=".notdef" horiz-adv-x="500" 
 />
    <glyph glyph-name=".null" horiz-adv-x="0" 
 />
    <glyph glyph-name="nonmarkingreturn" horiz-adv-x="333" 
 />
    <glyph glyph-name="space" unicode=" " horiz-adv-x="169" 
 />
    <glyph glyph-name="exclam" unicode="!" horiz-adv-x="204" 
d="M48 206l58 408l20 86h156l-20 -86l-142 -408h-72zM54 -6q-34 0 -56 22.5t-22 55.5q0 35 26 59t61 24q34 0 56.5 -23t22.5 -55q0 -35 -26.5 -59t-61.5 -24z" />
    <glyph glyph-name="quotedbl" unicode="&#x22;" horiz-adv-x="369" 
d="M106 476l3 151l17 73h140l-17 -73l-71 -151h-72zM287 476l3 151l17 73h140l-17 -73l-71 -151h-72z" />
    <glyph glyph-name="numbersign" unicode="#" horiz-adv-x="494" 
d="M66 408l29 123h81l46 169h99l-46 -169h81l46 169h99l-46 -169h78l-29 -123h-82l-25 -92h78l-28 -123h-84l-52 -193h-99l52 193h-81l-52 -193h-99l52 193h-75l28 123h81l25 92h-77zM242 408l-25 -92h81l25 92h-81z" />
    <glyph glyph-name="dollar" unicode="$" horiz-adv-x="510" 
d="M336 764h74l-14 -60q57 -6 152 -34l-33 -142h-81q-15 60 -60 78l-46 -199q39 -18 58 -29t45.5 -33.5t38 -53t11.5 -72.5q0 -100 -68.5 -161.5t-195.5 -65.5l-22 -94h-74l22 97q-94 7 -177 43l32 140h88q12 -40 30 -60.5t50 -27.5l49 214l-10 6q-67 34 -101 72t-34 110
q0 95 65 154.5t188 61.5zM339 192q0 28 -14.5 46t-43.5 33l-42 -182q100 14 100 103zM201 519q0 -28 14.5 -45.5t45.5 -34.5l40 176q-47 -5 -73.5 -29.5t-26.5 -66.5z" />
    <glyph glyph-name="percent" unicode="%" horiz-adv-x="776" 
d="M778 729l-649 -763h-92l649 763h92zM212 334q-66 0 -104.5 37.5t-38.5 104.5q0 100 60.5 166t142.5 66q67 0 106 -38.5t39 -105.5q0 -99 -61 -164.5t-144 -65.5zM223 407q34 0 59.5 49t25.5 117q0 60 -43 60q-36 0 -62 -49.5t-26 -119.5q0 -57 46 -57zM543 -8
q-66 0 -104.5 37.5t-38.5 104.5q0 100 60.5 166t142.5 66q67 0 106 -38.5t39 -105.5q0 -99 -61 -164.5t-144 -65.5zM554 65q34 0 59.5 49t25.5 117q0 60 -43 60q-36 0 -62 -49.5t-26 -119.5q0 -57 46 -57z" />
    <glyph glyph-name="ampersand" unicode="&#x26;" horiz-adv-x="680" 
d="M227 -8q-110 0 -171 48.5t-61 126.5q0 151 192 221q-27 54 -27 106q0 98 64.5 156t176.5 58q63 0 90 -8h118l-42 -180h-100l-4 74q-26 12 -60 12q-44 0 -68.5 -23.5t-24.5 -67.5q0 -48 36 -96l127 -172q28 45 49 103h-46l19 83h214l-19 -83h-26q-26 0 -38 -25
q-48 -103 -90 -162l39 -53q8 -11 12 -15.5t10 -8t13 -3.5h18l-19 -83h-139l-40 54q-87 -62 -203 -62zM254 91q60 0 117 42l-142 192q-72 -49 -72 -137q0 -43 23.5 -70t73.5 -27z" />
    <glyph glyph-name="quotesingle" unicode="'" horiz-adv-x="188" 
d="M106 476l3 151l17 73h140l-17 -73l-71 -151h-72z" />
    <glyph glyph-name="parenleft" unicode="(" horiz-adv-x="302" 
d="M402 741l-18 -80q-37 -8 -76.5 -41t-75.5 -85t-59 -132t-23 -170q0 -155 87 -206l-17 -76h-42q-63 30 -107.5 102.5t-44.5 184.5q0 195 99.5 332t231.5 171h45z" />
    <glyph glyph-name="parenright" unicode=")" horiz-adv-x="302" 
d="M-60 -49l17 76q36 8 76 41.5t76 86.5t59.5 133.5t23.5 170.5q0 150 -88 202l18 80h42q63 -30 107.5 -102.5t44.5 -184.5q0 -195 -99.5 -332t-231.5 -171h-45z" />
    <glyph glyph-name="asterisk" unicode="*" horiz-adv-x="364" 
d="M174 357l-8 58l72 106l-103 -82l-51 2l-18 56l39 33l131 -1l-121 39l-21 44l43 46l47 -15l58 -108l-18 122l29 43h62l7 -58l-72 -108l102 82h51l19 -56l-39 -34l-131 1l121 -39l21 -43l-42 -46l-47 13l-59 108l18 -120l-28 -43h-62z" />
    <glyph glyph-name="plus" unicode="+" horiz-adv-x="509" 
d="M499 288h-177l-43 -188h-122l43 188h-178l27 115h178l43 188h122l-43 -188h177z" />
    <glyph glyph-name="comma" unicode="," horiz-adv-x="204" 
d="M-53 -46q33 3 54 15t21 28q0 4 -1 6.5t-3 4.5t-4 3.5t-6.5 4.5l-7.5 5q-25 17 -25 50q0 37 24.5 60.5t59.5 23.5t58.5 -23t23.5 -60q0 -83 -56 -130t-152 -52z" />
    <glyph glyph-name="hyphen" unicode="-" horiz-adv-x="283" 
d="M21 238l25 109h231l-25 -109h-231z" />
    <glyph glyph-name="period" unicode="." horiz-adv-x="203" 
d="M54 -6q-34 0 -56 22.5t-22 55.5q0 35 26 59t61 24q34 0 56.5 -23t22.5 -55q0 -35 -26.5 -59t-61.5 -24z" />
    <glyph glyph-name="slash" unicode="/" horiz-adv-x="332" 
d="M446 741l-420 -790h-103l420 790h103z" />
    <glyph glyph-name="zero" unicode="0" horiz-adv-x="642" 
d="M288 -8q-118 0 -188 72t-70 200q0 169 91 294q50 71 121.5 110t150.5 39q119 0 187.5 -76t68.5 -201q0 -85 -25 -165t-68 -137q-50 -68 -120.5 -102t-147.5 -34zM292 91q101 0 154 116q49 107 49 245q0 73 -27.5 112.5t-79.5 39.5q-97 0 -153 -121q-51 -113 -51 -240
q0 -73 28 -112.5t80 -39.5z" />
    <glyph glyph-name="one" unicode="1" horiz-adv-x="374" 
d="M-49 0l19 83h76q10 0 21.5 10.5t13.5 20.5l102 448l-76 -29h-35l19 83l176 84h105l-134 -586q-3 -11 1.5 -21t14.5 -10h68l-19 -83h-352z" />
    <glyph glyph-name="two" unicode="2" horiz-adv-x="517" 
d="M-49 0l15 63q21 88 76.5 146.5t159.5 123.5q10 7 47 29t48.5 30t37 28t34.5 33.5t18 35t9 44.5q0 33 -18.5 53t-54.5 20q-81 0 -133 -79h-87l33 145q103 36 196 36q102 0 163 -43.5t61 -123.5q0 -52 -21 -94.5t-61 -75t-79.5 -56t-93.5 -50.5q-10 -5 -15 -7
q-147 -75 -175 -143h232l28 76h99l-43 -191h-476z" />
    <glyph glyph-name="three" unicode="3" horiz-adv-x="508" 
d="M180 -8q-122 0 -220 43l30 132h83q9 -34 38.5 -54.5t74.5 -20.5q60 0 97.5 32t37.5 98q0 42 -28.5 65t-81.5 23h-45l20 93h47q71 0 107.5 35t36.5 86q0 80 -85 80q-71 0 -115 -65h-85l31 133q38 13 58.5 19t54.5 11.5t71 5.5q103 0 162.5 -44t59.5 -119q0 -148 -176 -191
v-4q58 -8 89.5 -43.5t31.5 -88.5q0 -105 -79 -165.5t-215 -60.5z" />
    <glyph glyph-name="four" unicode="4" horiz-adv-x="541" 
d="M169 0l19 83h46q10 0 21.5 10.5t13.5 20.5l12 53h-291l26 119l395 414h145l-100 -435h75l-22 -98h-75l-12 -53q-3 -11 1.5 -21t14.5 -10h51l-19 -83h-301zM108 269v-4h195l62 270h-4z" />
    <glyph glyph-name="five" unicode="5" horiz-adv-x="501" 
d="M175 -8q-124 0 -216 45l29 126h87q21 -71 107 -71q60 0 100 41t40 116q0 94 -91 94q-65 0 -105 -47h-93l93 404h428l-39 -167h-97l-3 53h-203l-41 -178h3q46 35 120 35q83 0 133.5 -45.5t50.5 -129.5q0 -124 -81.5 -200t-221.5 -76z" />
    <glyph glyph-name="six" unicode="6" horiz-adv-x="573" 
d="M260 -8q-110 0 -173 64t-63 177q0 106 37 202t99 160q108 112 275 112q92 0 173 -28l-26 -113h-84q-24 42 -80 42q-98 0 -156 -86q-40 -59 -66 -149q73 71 171 71q86 0 135.5 -44t49.5 -123q0 -122 -80.5 -203.5t-211.5 -81.5zM300 346q-61 0 -117 -36q-9 -52 -9 -105
q0 -61 22 -90.5t71 -29.5q61 0 94.5 52.5t33.5 121.5q0 87 -95 87z" />
    <glyph glyph-name="seven" unicode="7" horiz-adv-x="501" 
d="M42 0l13 61l404 519l1 4h-262l-39 -91h-95l47 207h479l-30 -127l-361 -573h-157z" />
    <glyph glyph-name="eight" unicode="8" horiz-adv-x="567" 
d="M249 -8q-125 0 -186.5 49.5t-61.5 129.5t48 135t134 76q-78 37 -78 119q0 92 75.5 149.5t181.5 57.5t162.5 -45t56.5 -117q0 -64 -39 -110.5t-109 -66.5q105 -42 105 -141q0 -107 -80 -171.5t-209 -64.5zM255 88q63 0 98 42t35 104q0 92 -104 92q-60 0 -94.5 -42
t-34.5 -103q0 -93 100 -93zM330 419q47 0 74.5 31t27.5 87q0 33 -19 52.5t-57 19.5q-47 0 -76 -32.5t-29 -87.5q0 -70 79 -70z" />
    <glyph glyph-name="nine" unicode="9" horiz-adv-x="572" 
d="M354 707q110 0 173 -64t63 -177q0 -107 -35.5 -205.5t-96.5 -161.5q-104 -107 -279 -107q-92 0 -173 28l26 113h84q24 -42 80 -42q106 0 160 81q44 65 65 157q-72 -74 -174 -74q-86 0 -135.5 44t-49.5 123q0 122 80.5 203.5t211.5 81.5zM314 353q60 0 118 36q8 56 8 105
q0 61 -22 90.5t-71 29.5q-61 0 -94.5 -52.5t-33.5 -121.5q0 -87 95 -87z" />
    <glyph glyph-name="colon" unicode=":" horiz-adv-x="203" 
d="M54 -6q-34 0 -56 22.5t-22 55.5q0 35 26 59t61 24q34 0 56.5 -23t22.5 -55q0 -35 -26.5 -59t-61.5 -24zM121 284q-34 0 -56 22.5t-22 55.5q0 35 26 59t61 24q34 0 56.5 -23t22.5 -55q0 -35 -26.5 -59t-61.5 -24z" />
    <glyph glyph-name="semicolon" unicode=";" horiz-adv-x="203" 
d="M121 284q-34 0 -56 22.5t-22 55.5q0 35 26 59t61 24q34 0 56.5 -23t22.5 -55q0 -35 -26.5 -59t-61.5 -24zM-53 -46q33 3 54 15t21 28q0 4 -1 6.5t-3 4.5t-4 3.5t-6.5 4.5l-7.5 5q-25 17 -25 50q0 37 25 60.5t60 23.5q34 0 57.5 -23t23.5 -60q0 -83 -56 -130t-152 -52z
" />
    <glyph glyph-name="less" unicode="&#x3c;" horiz-adv-x="446" 
d="M22 284l22 97l420 190h34l-27 -114l-293 -130v-3l232 -132l-24 -104h-34z" />
    <glyph glyph-name="equal" unicode="=" horiz-adv-x="487" 
d="M491 362h-447l26 115h447zM442 152h-447l27 115h447z" />
    <glyph glyph-name="greater" unicode="&#x3e;" horiz-adv-x="446" 
d="M456 375l-22 -97l-420 -190h-34l26 114l293 130v3l-231 132l24 104h34z" />
    <glyph glyph-name="question" unicode="?" horiz-adv-x="428" 
d="M136 -6q-34 0 -56 22.5t-22 55.5q0 35 26 59t61 24q34 0 56.5 -23t22.5 -55q0 -35 -26.5 -59t-61.5 -24zM113 206q0 61 17.5 100.5t78.5 91.5q3 2 24 18.5t31.5 26.5t26.5 27.5t23.5 37t7.5 40.5q0 26 -16 42t-44 16q-60 0 -97 -61h-87l30 132q83 31 175 31
q93 0 144.5 -40.5t51.5 -110.5q0 -63 -34 -107.5t-101 -86.5q-45 -29 -62.5 -41t-41.5 -32.5t-32.5 -39.5t-10.5 -44h-84z" />
    <glyph glyph-name="at" unicode="@" horiz-adv-x="867" 
d="M441 -134q-81 0 -153 22t-130.5 66t-93 117.5t-34.5 168.5q0 99 41 182.5t106.5 135.5t142.5 80.5t153 28.5q104 0 191 -37.5t141.5 -114t54.5 -178.5q0 -132 -69 -201.5t-168 -69.5q-114 0 -137 71q-49 -71 -129 -71q-57 0 -90 35t-33 99q0 111 65 188q60 71 159 71
q57 0 97 -40q40 34 72 34h41l-58 -251q-17 -69 33 -69q57 0 92.5 52t35.5 152q0 120 -82 188t-216 68q-65 0 -125.5 -22t-110.5 -64t-80.5 -111.5t-30.5 -155.5q0 -153 85.5 -226.5t229.5 -73.5t237 60h60l-14 -61q-49 -33 -124 -53t-159 -20zM400 142q39 0 80 43l44 186
q-22 8 -50 8q-55 0 -86.5 -52t-31.5 -132q0 -53 44 -53z" />
    <glyph glyph-name="A" unicode="A" horiz-adv-x="717" 
d="M-50 0l19 83h22q28 0 46 31l270 469q18 31 -6 31h-58l20 86h295l56 -589q2 -12 10 -20t18 -8h24l-19 -83h-295l19 83h91l-11 133h-238l-24 -43q-50 -90 13 -90h40l-19 -83h-273zM421 592l-160 -289h184l-22 289h-2z" />
    <glyph glyph-name="B" unicode="B" horiz-adv-x="604" 
d="M-48 0l19 83h38q11 0 22.5 10.5t13.5 20.5l107 469q2 12 -2 21.5t-15 9.5h-43l20 86h268q239 0 239 -151q0 -152 -175 -181v-4q139 -18 139 -131q0 -109 -82.5 -171t-222.5 -62h-326zM196 92h78q152 0 152 146q0 84 -108 84h-70zM314 608l-46 -201h59q74 0 104.5 32.5
t30.5 92.5q0 39 -23.5 57.5t-75.5 18.5h-49z" />
    <glyph glyph-name="C" unicode="C" horiz-adv-x="612" 
d="M317 -8q-136 0 -210 73t-74 202q0 186 120.5 313.5t300.5 127.5q61 0 93 -8h139l-52 -226h-101l4 115q-40 17 -81 17q-114 0 -190 -92t-76 -248q0 -175 139 -175q55 0 92 18.5t76 57.5h75l-27 -115q-95 -60 -228 -60z" />
    <glyph glyph-name="D" unicode="D" horiz-adv-x="685" 
d="M-48 0l19 83h38q11 0 22.5 10.5t13.5 20.5l107 469q2 12 -2 21.5t-15 9.5h-43l20 86h268q151 0 233 -72t82 -210q0 -194 -116.5 -306t-318.5 -112h-308zM195 87h74q126 0 198 91t72 252q0 178 -179 178h-46z" />
    <glyph glyph-name="E" unicode="E" horiz-adv-x="581" 
d="M-48 0l19 83h38q11 0 22.5 10.5t13.5 20.5l107 469q2 12 -2 21.5t-15 9.5h-43l20 86h547l-46 -200h-94l8 107h-213l-48 -208h93l27 80h90l-57 -247h-88l9 80h-94l-51 -222h223l42 123h99l-48 -213h-559z" />
    <glyph glyph-name="F" unicode="F" horiz-adv-x="565" 
d="M326 211l9 86h-92l-49 -214h87l-19 -83h-310l19 83h38q11 0 22.5 10.5t13.5 20.5l107 469q2 12 -2 21.5t-15 9.5h-43l20 86h543l-48 -208h-94l10 115h-209l-51 -223h91l28 80h90l-58 -253h-88z" />
    <glyph glyph-name="G" unicode="G" horiz-adv-x="660" 
d="M298 -8q-127 0 -196 71t-69 200q0 185 121.5 315t297.5 130q70 0 102 -8h137l-51 -220h-102l5 108q-38 18 -90 18q-111 0 -187 -92t-76 -248q0 -91 32.5 -133t100.5 -42q47 0 87 12l32 144h-69l20 86h275l-20 -86h-24q-11 0 -22 -10.5t-13 -20.5l-50 -216h-82
q-6 22 -23 22q-27 -12 -41.5 -17t-38.5 -9t-56 -4z" />
    <glyph glyph-name="H" unicode="H" horiz-adv-x="726" 
d="M-48 0l19 83h38q11 0 22.5 10.5t13.5 20.5l107 469q2 12 -2 21.5t-15 9.5h-43l20 86h302l-20 -86h-79l-48 -212h257l48 212h-79l20 86h303l-20 -86h-39q-11 0 -22.5 -10t-13.5 -21l-107 -469q-3 -11 2 -21t15 -10h44l-19 -83h-303l19 83h79l52 230h-257l-52 -230h79
l-19 -83h-302z" />
    <glyph glyph-name="I" unicode="I" horiz-adv-x="327" 
d="M-48 0l19 83h46q10 0 21.5 10.5t13.5 20.5l107 469q2 11 -2 21t-14 10h-51l20 86h305l-20 -86h-46q-11 0 -22 -10t-13 -21l-107 -469q-3 -11 1.5 -21t14.5 -10h51l-19 -83h-305z" />
    <glyph glyph-name="J" unicode="J" horiz-adv-x="472" 
d="M131 -8q-103 0 -173 35l25 108h83q21 -43 71 -43q35 0 54 20.5t29 64.5l92 406q2 11 -2 21t-14 10h-44l20 86h290l-20 -86h-38q-11 0 -22 -10t-13 -21l-94 -409q-22 -95 -78.5 -138.5t-165.5 -43.5z" />
    <glyph glyph-name="K" unicode="K" horiz-adv-x="682" 
d="M-48 0l19 83h38q11 0 22.5 10.5t13.5 20.5l107 469q2 12 -2 21.5t-15 9.5h-43l20 86h291l-20 -86h-68l-60 -262l226 200q30 28 26.5 45t-31.5 17h-2l20 86h259l-20 -86h-16q-19 0 -43 -19l-228 -187l133 -298q11 -27 26 -27h26l-19 -83h-201l17 75l-100 236l-101 -83
l-33 -145h68l-19 -83h-291z" />
    <glyph glyph-name="L" unicode="L" horiz-adv-x="567" 
d="M-48 0l19 83h38q11 0 22.5 10.5t13.5 20.5l107 469q2 12 -2 21.5t-15 9.5h-43l20 86h317l-20 -86h-94l-120 -524h204l51 143h100l-53 -233h-545z" />
    <glyph glyph-name="M" unicode="M" horiz-adv-x="878" 
d="M-48 0l19 83h38q11 0 22.5 10.5t13.5 20.5l107 469q2 12 -2 21.5t-15 9.5h-43l20 86h290l24 -472h3l241 472h298l-20 -86h-39q-11 0 -22.5 -10t-13.5 -21l-107 -469q-3 -11 2 -21t15 -10h44l-19 -83h-293l19 83h69l118 516h-3l-307 -599h-108l-30 599h-3l-118 -516h70
l-19 -83h-251z" />
    <glyph glyph-name="N" unicode="N" horiz-adv-x="705" 
d="M-48 0l19 83h38q11 0 22.5 10.5t13.5 20.5l107 469q2 12 -2 21.5t-15 9.5h-43l20 86h224l170 -466h3l88 380h-78l20 86h258l-20 -86h-37q-10 0 -21.5 -10t-13.5 -21l-133 -583h-132l-189 505h-3l-96 -422h80l-19 -83h-261z" />
    <glyph glyph-name="O" unicode="O" horiz-adv-x="698" 
d="M326 -8q-136 0 -215.5 75t-79.5 210q0 182 110.5 306t272.5 124q134 0 213 -76t79 -208q0 -190 -108 -310.5t-272 -120.5zM330 92q100 0 160 97.5t60 235.5q0 86 -36.5 132.5t-105.5 46.5q-100 0 -160.5 -96t-60.5 -236q0 -86 37.5 -133t105.5 -47z" />
    <glyph glyph-name="P" unicode="P" horiz-adv-x="598" 
d="M-48 0l19 83h38q11 0 22.5 10.5t13.5 20.5l107 469q2 12 -2 21.5t-15 9.5h-43l20 86h279q113 0 179.5 -48.5t66.5 -133.5q0 -125 -86 -190.5t-241 -65.5h-76l-40 -179h87l-19 -83h-310zM314 608l-60 -259h66q161 0 161 167q-2 92 -102 92h-65z" />
    <glyph glyph-name="Q" unicode="Q" horiz-adv-x="698" 
d="M297 -13q-130 23 -198 93t-68 197q0 183 110.5 306.5t272.5 123.5q136 0 213.5 -75.5t77.5 -208.5q0 -151 -63 -248t-174 -128v-2q152 -28 191 -90l-19 -79h-129q-16 40 -66.5 66.5t-147.5 44.5zM330 89q97 0 158 98t61 234q0 183 -142 183q-99 0 -160 -99.5t-61 -253.5
q0 -73 37 -117.5t107 -44.5z" />
    <glyph glyph-name="R" unicode="R" horiz-adv-x="660" 
d="M-48 0l19 83h38q11 0 22.5 10.5t13.5 20.5l107 469q2 12 -2 21.5t-15 9.5h-43l20 86h286q117 0 181 -44t64 -122q0 -84 -51.5 -133t-147.5 -62v-4q55 -12 77 -42.5t32 -112.5l9 -72q3 -25 18 -25h29l-19 -83h-179l-11 190q-4 68 -21.5 89.5t-76.5 21.5h-58l-50 -218h87
l-19 -83h-310zM314 608l-52 -229h74q149 0 149 146q0 83 -105 83h-66z" />
    <glyph glyph-name="S" unicode="S" horiz-adv-x="516" 
d="M205 -8q-52 0 -106 8h-135l48 209h104l-10 -107q43 -15 102 -15q135 0 135 105q0 15 -5 28t-10.5 21t-21 18.5t-24.5 15.5t-33.5 17t-36.5 18q-65 33 -97.5 71.5t-32.5 110.5q0 97 65.5 156.5t191.5 59.5q66 0 112 -8h114l-45 -191h-100l5 93q-33 14 -91 14
q-121 0 -121 -97q0 -36 20 -54.5t74 -44.5q6 -3 31 -14.5t33 -16t29 -16.5t29 -20t21.5 -23t19 -30t10.5 -36t5 -45q0 -103 -71.5 -165t-208.5 -62z" />
    <glyph glyph-name="T" unicode="T" horiz-adv-x="624" 
d="M102 0l19 83h44q11 0 22.5 10.5t13.5 20.5l113 496h-108l-46 -146h-97l54 236h593l-54 -236h-96l20 146h-110l-113 -496q-3 -11 2 -21t15 -10h49l-19 -83h-302z" />
    <glyph glyph-name="U" unicode="U" horiz-adv-x="706" 
d="M332 -8q-149 0 -213.5 73t-35.5 203l71 315q2 12 -2 21.5t-15 9.5h-44l20 86h303l-20 -86h-79l-82 -363q-20 -89 10.5 -124t97.5 -35q77 0 114.5 37t58.5 128l81 357h-79l20 86h260l-20 -86h-38q-11 0 -22.5 -10t-13.5 -21l-78 -338q-20 -84 -52 -137.5t-92 -84.5
t-150 -31z" />
    <glyph glyph-name="V" unicode="V" horiz-adv-x="702" 
d="M208 0l-68 587q-3 27 -24 27h-26l20 86h285l-20 -86h-83l45 -470h2l220 402q39 68 -15 68h-40l20 86h268l-20 -86h-21q-26 0 -45 -31l-339 -583h-159z" />
    <glyph glyph-name="W" unicode="W" horiz-adv-x="964" 
d="M145 0l-10 587q0 27 -24 27h-19l20 86h283l-22 -86h-83l-1 -435h2l245 521h119l8 -521h2l168 367q17 34 15 51t-30 17h-40l20 86h258l-20 -86h-14q-30 0 -45 -31l-281 -583h-169l-7 440h-2l-204 -440h-169z" />
    <glyph glyph-name="X" unicode="X" horiz-adv-x="661" 
d="M-48 0l19 83h28q24 0 41 19l224 252l-107 232q-8 17 -13.5 22.5t-15.5 5.5h-36l20 86h283l-20 -86h-60l85 -181l100 123q23 32 17.5 45t-28.5 13h-16l20 86h258l-20 -86h-32q-23 0 -39 -19l-216 -247l112 -237q13 -28 32 -28h22l-19 -83h-283l19 83h70l-90 189l-116 -139
q-18 -23 -13.5 -36.5t27.5 -13.5h24l-19 -83h-258z" />
    <glyph glyph-name="Y" unicode="Y" horiz-adv-x="655" 
d="M126 0l19 83h44q11 0 22.5 10.5t13.5 20.5l40 181l-123 296q-10 23 -24 23h-26l20 86h283l-20 -86h-79l90 -231h2l122 161q24 34 18 52t-39 18h-26l20 86h264l-20 -86h-17q-24 0 -46 -27l-245 -303l-38 -170q-3 -11 2 -21t15 -10h49l-19 -83h-302z" />
    <glyph glyph-name="Z" unicode="Z" horiz-adv-x="542" 
d="M-49 0l24 103l454 500v4h-212l-40 -107h-94l46 200h494l-25 -106l-454 -500v-4h234l42 123h99l-48 -213h-520z" />
    <glyph glyph-name="bracketleft" unicode="[" horiz-adv-x="260" 
d="M-49 -49l182 790h227l-20 -86h-101l-143 -621h101l-19 -83h-227z" />
    <glyph glyph-name="backslash" unicode="\" horiz-adv-x="332" 
d="M267 -49h-95l-64 790h94z" />
    <glyph glyph-name="bracketright" unicode="]" horiz-adv-x="260" 
d="M349 741l-182 -790h-227l19 83h101l143 621h-101l20 86h227z" />
    <glyph glyph-name="asciicircum" unicode="^" horiz-adv-x="394" 
d="M55 452l8 34l168 214h105l99 -214l-8 -34h-90l-66 132h-3l-115 -132h-98z" />
    <glyph glyph-name="underscore" unicode="_" horiz-adv-x="373" 
d="M-99 -162l18 78h377l-18 -78h-377z" />
    <glyph glyph-name="grave" unicode="`" horiz-adv-x="400" 
d="M238 562l-87 88l12 50h125l27 -138h-77z" />
    <glyph glyph-name="a" unicode="a" horiz-adv-x="514" 
d="M130 -6q-64 0 -101 34.5t-37 101.5q0 85 62 133.5t166 48.5q49 0 94 -13l13 56q8 37 -10.5 57.5t-64.5 20.5q-30 0 -52.5 -7.5t-33 -14.5t-30.5 -24h-67l27 117q89 29 184 29q112 0 162.5 -46t29.5 -135l-56 -244q-2 -9 4 -17t15 -8h28l-15 -70q-38 -20 -87 -20
q-82 0 -92 68q-58 -67 -139 -67zM189 80q44 0 84 42l24 105q-38 8 -65 8q-49 0 -76 -26.5t-27 -66.5q0 -62 60 -62z" />
    <glyph glyph-name="b" unicode="b" horiz-adv-x="550" 
d="M397 534q67 0 107.5 -45t40.5 -133q0 -67 -25.5 -145.5t-69.5 -129.5q-77 -88 -194 -88q-88 0 -137 59q-19 -21 -42 -36.5t-34 -15.5h-64l134 587q2 9 -4 18t-15 9h-31l20 86h177q25 0 17 -34l-47 -208q76 76 167 76zM324 430q-53 0 -111 -44l-66 -288q30 -18 77 -18
q85 0 130.5 73.5t45.5 182.5q0 46 -20.5 70t-55.5 24z" />
    <glyph glyph-name="c" unicode="c" horiz-adv-x="464" 
d="M230 -7q-108 0 -164.5 53t-56.5 145q0 149 92 245.5t226 96.5q99 0 168 -33l-26 -113h-74q-10 26 -26.5 39.5t-51.5 13.5q-74 0 -120 -76t-46 -178t88 -102q65 0 100 56h79l-26 -113q-79 -34 -162 -34z" />
    <glyph glyph-name="d" unicode="d" horiz-adv-x="577" 
d="M159 -8q-71 0 -112.5 44.5t-41.5 129.5q0 68 25.5 144t70.5 128q83 95 194 95q83 0 126 -46l30 127h-68l20 86h189q25 0 17 -34l-129 -558q-2 -9 4 -17t15 -8h28l-16 -74q-38 -16 -71 -16q-96 0 -104 82q-74 -83 -177 -83zM222 84q58 0 121 61l62 272q-29 20 -79 20
q-85 0 -130.5 -75.5t-45.5 -188.5q0 -89 72 -89z" />
    <glyph glyph-name="e" unicode="e" horiz-adv-x="491" 
d="M233 -7q-108 0 -165 56t-57 155q0 136 90.5 232.5t214.5 96.5q84 0 133 -39t49 -102q0 -50 -23 -84.5t-70 -55t-107.5 -31t-144.5 -14.5q0 -123 88 -123q70 0 112 56h77l-26 -113q-72 -34 -171 -34zM162 289q104 7 151.5 29t47.5 68q0 27 -15 43.5t-44 16.5
q-53 0 -89.5 -44t-50.5 -113z" />
    <glyph glyph-name="f" unicode="f" horiz-adv-x="315" 
d="M45 437l19 88h62l9 40q33 145 183 145q58 0 90 -14l-18 -82h-31q-35 0 -53.5 -11.5t-25.5 -42.5l-8 -35h90l-19 -88h-91l-93 -417q-32 -139 -148 -182h-90l18 78q59 16 79 107l89 414h-62z" />
    <glyph glyph-name="g" unicode="g" horiz-adv-x="470" 
d="M157 -175q-107 0 -163.5 31.5t-56.5 81.5q0 46 32.5 72t90.5 43q-17 9 -28 27t-11 40q0 65 93 110q-62 40 -62 114q0 85 65 137t152 52q33 0 63 -8h184l-20 -88h-21q-7 0 -15 -5.5t-11 -12.5q5 -20 5 -37q0 -85 -64 -135t-152 -50q-44 0 -85 13q-22 -19 -22 -36
q0 -29 39 -29h120q70 0 105 -33t35 -87q0 -90 -64.5 -145t-208.5 -55zM232 26h-142q-25 -28 -25 -60q0 -24 23 -39.5t72 -15.5q69 0 101 20.5t32 52.5q0 42 -61 42zM237 272q36 0 63 32t27 86q0 29 -16 45.5t-44 16.5q-36 0 -62 -32t-26 -87q0 -28 14.5 -44.5t43.5 -16.5z
" />
    <glyph glyph-name="h" unicode="h" horiz-adv-x="580" 
d="M137 587q2 8 -4 17.5t-15 9.5h-31l20 86h177q25 0 17 -34l-52 -226q105 93 201 93q65 0 89.5 -37.5t10.5 -97.5l-67 -290q-2 -9 4 -17t15 -8h28l-16 -74q-38 -16 -86 -16q-60 0 -81 33t-8 90l57 249q12 56 -32 56q-58 0 -131 -53l-84 -368h-115q-14 0 -21 10t-3 25z" />
    <glyph glyph-name="i" unicode="i" horiz-adv-x="276" 
d="M221 567q-32 0 -53 21.5t-21 52.5q0 33 24.5 56t58.5 23q32 0 53.5 -21.5t21.5 -52.5q0 -34 -25 -56.5t-59 -22.5zM100 410q2 9 -3.5 18t-14.5 9h-35l17 78q46 16 104 16q51 0 72.5 -27t9.5 -80l-73 -316q-2 -9 4 -17t15 -8h30l-16 -74q-38 -16 -89 -16q-60 0 -81 33
t-8 90z" />
    <glyph glyph-name="j" unicode="j" horiz-adv-x="258" 
d="M221 567q-32 0 -53 21.5t-21 52.5q0 33 24.5 56t58.5 23q32 0 53.5 -21.5t21.5 -52.5q0 -34 -25 -56.5t-59 -22.5zM82 437h-35l17 78q46 16 104 16q51 0 72.5 -27t9.5 -80l-101 -446q-18 -80 -60.5 -113t-116.5 -33q-50 0 -89 14l17 70h27q36 0 52 16t25 55l96 423
q2 9 -3.5 18t-14.5 9z" />
    <glyph glyph-name="k" unicode="k" horiz-adv-x="524" 
d="M408 -7q-22 0 -37.5 5.5t-26.5 18.5t-17 25t-15 33l-57 136q-37 -22 -68 -38l-39 -173h-115q-14 0 -21 10t-3 25l127 552q2 8 -4 17.5t-15 9.5h-31l20 86h177q25 0 17 -34l-87 -378q175 116 202 237h138l-15 -68q-61 -79 -172 -168l84 -181q12 -25 31 -25h17l-16 -74
q-34 -16 -74 -16z" />
    <glyph glyph-name="l" unicode="l" horiz-adv-x="278" 
d="M141 587q2 8 -4 17.5t-15 9.5h-35l20 86h181q25 0 17 -34l-129 -558q-2 -9 4 -17t15 -8h33l-16 -74q-40 -16 -90 -16q-60 0 -81.5 33t-8.5 90z" />
    <glyph glyph-name="m" unicode="m" horiz-adv-x="864" 
d="M446 0h-114q-14 0 -21 10t-3 25l76 330q12 57 -31 57q-50 0 -120 -54l-84 -368h-115q-14 0 -21 10t-3 25l86 375q2 9 -3.5 18t-14.5 9h-31l17 78q46 16 99 16q89 0 83 -92q92 94 191 94q93 0 100 -99q93 99 196 99q65 0 90 -37.5t11 -97.5l-67 -290q-2 -9 4 -17t15 -8h28
l-16 -74q-38 -16 -86 -16q-60 0 -81 33t-8 90l57 249q12 57 -31 57q-48 0 -118 -52z" />
    <glyph glyph-name="n" unicode="n" horiz-adv-x="580" 
d="M64 515q46 16 99 16q89 0 83 -95q105 97 204 97q65 0 89.5 -37.5t10.5 -97.5l-67 -290q-2 -9 4 -17t15 -8h28l-16 -74q-38 -16 -86 -16q-60 0 -81 33t-8 90l57 249q12 56 -32 56q-58 0 -131 -53l-84 -368h-115q-14 0 -21 10t-3 25l86 375q2 9 -3.5 18t-14.5 9h-31z" />
    <glyph glyph-name="o" unicode="o" horiz-adv-x="538" 
d="M238 -6q-108 0 -168.5 60t-60.5 163q0 141 86.5 228.5t205.5 87.5q108 0 168 -60t60 -163q0 -142 -83.5 -229t-207.5 -87zM244 85q65 0 104 69.5t39 167.5q0 115 -91 115q-63 0 -103.5 -70.5t-40.5 -166.5q0 -115 92 -115z" />
    <glyph glyph-name="p" unicode="p" horiz-adv-x="580" 
d="M130 -84h67l-18 -78h-273l18 78h35q9 0 19 8t12 17l106 469q2 9 -3.5 18t-14.5 9h-31l17 78q46 16 99 16q86 0 83 -87q82 90 181 90q67 0 107.5 -45t40.5 -133q0 -67 -23 -139.5t-68 -122.5q-74 -84 -189 -84q-85 0 -134 44zM354 430q-28 0 -61 -14t-58 -36l-60 -266
q34 -19 85 -19q83 0 126.5 70.5t43.5 169.5q0 46 -20.5 70.5t-55.5 24.5z" />
    <glyph glyph-name="q" unicode="q" horiz-adv-x="564" 
d="M207 -162l18 78h67l38 169q-71 -75 -170 -75q-71 0 -112 44t-41 129q0 150 92 254q84 96 204 96q50 0 78.5 -15t54.5 -47q47 54 95 54h45l-132 -584q-2 -9 4 -17t15 -8h38l-18 -78h-276zM219 97q67 0 130 70l56 251q-30 19 -78 19q-84 0 -129.5 -75t-45.5 -178
q0 -87 67 -87z" />
    <glyph glyph-name="r" unicode="r" horiz-adv-x="381" 
d="M64 515q46 16 99 16q92 0 82 -100q68 99 153 99q15 0 30 -5l-24 -108h-18q-89 0 -155 -58l-82 -359h-115q-14 0 -21 10t-3 25l86 375q2 9 -3.5 18t-14.5 9h-31z" />
    <glyph glyph-name="s" unicode="s" horiz-adv-x="410" 
d="M152 -6q-117 0 -185 41l24 105h74q10 -30 28.5 -45t55.5 -15q38 0 62 17.5t24 48.5q0 10 -4 18t-8.5 13.5t-15.5 11.5t-17 8.5t-21 8.5l-20 8q-49 21 -76 51.5t-27 84.5q0 86 58 133t156 47q94 0 168 -35l-25 -108h-69q-22 56 -86 56q-78 0 -78 -62q0 -13 5 -23t19 -18.5
t23 -13t33 -14.5q28 -12 44.5 -21t37 -25.5t30.5 -40.5t10 -55q0 -82 -60.5 -129t-159.5 -47z" />
    <glyph glyph-name="t" unicode="t" horiz-adv-x="318" 
d="M47 437l19 88h58l32 140h146l-32 -140h94l-19 -88h-96l-63 -277q-17 -77 57 -77h25l-17 -78q-37 -13 -79 -13q-84 0 -116.5 45t-14.5 126l63 274h-57z" />
    <glyph glyph-name="u" unicode="u" horiz-adv-x="576" 
d="M510 9q-38 -16 -88 -16q-49 0 -72 20t-22 63q-89 -84 -184 -84q-69 0 -97 45t-12 116l59 257q2 9 -3.5 18t-14.5 9h-29l17 78q49 17 97 17q54 0 73 -33.5t6 -89.5l-57 -249q-13 -60 37 -60q51 0 119 46l87 379h115q14 0 21 -10t3 -25l-88 -382q-2 -9 4 -17t15 -8h30z" />
    <glyph glyph-name="v" unicode="v" horiz-adv-x="516" 
d="M148 0l-58 414q-1 10 -8 16.5t-15 6.5h-20l17 78q49 17 86 17q46 0 63 -22.5t21 -69.5l27 -305h2q116 177 162 390h124l-20 -88q-58 -133 -114.5 -234t-140.5 -203h-126z" />
    <glyph glyph-name="w" unicode="w" horiz-adv-x="743" 
d="M653 525h123l-20 -88q-91 -256 -236 -437h-109l-16 342h-2l-161 -342h-129l-15 414q-1 9 -8 16t-15 7h-18l17 78q49 17 84 17q47 0 63 -22t16 -70l3 -258h2l155 343h117l22 -365h2q86 148 125 365z" />
    <glyph glyph-name="x" unicode="x" horiz-adv-x="479" 
d="M257 77l-50 102q-81 -131 -139 -179h-97l19 83q72 24 178 168l-82 168q-8 18 -22 18h-27l17 78q34 16 75 16q42 0 58.5 -16.5t47.5 -81.5l39 -82q85 135 142 174h89l-19 -88q-62 -17 -173 -161l81 -169q11 -24 31 -24h23l-16 -74q-32 -16 -69 -16q-42 0 -62 17.5
t-44 66.5z" />
    <glyph glyph-name="y" unicode="y" horiz-adv-x="561" 
d="M426 525h115q14 0 21 -10t3 -25l-109 -471q-23 -100 -92.5 -145.5t-193.5 -45.5q-114 0 -190 28l26 107h84q24 -49 92 -49q105 0 126 91l20 88q-80 -71 -174 -71q-70 0 -100 42t-14 111l54 235q2 9 -3.5 18t-14.5 9h-29l17 78q49 17 97 17q54 0 73 -33.5t6 -89.5
l-52 -227q-13 -60 37 -60q52 0 120 46z" />
    <glyph glyph-name="z" unicode="z" horiz-adv-x="466" 
d="M-49 0l21 91l354 345h-160l-35 -88h-84l41 177h426l-21 -94l-355 -344h169l32 88h87l-40 -175h-435z" />
    <glyph glyph-name="braceleft" unicode="{" horiz-adv-x="328" 
d="M50 84l40 174q5 21 -4 35.5t-33 14.5h-31l20 86h22q58 0 70 51l40 173q28 123 161 123h93l-20 -86h-72q-11 0 -22.5 -10.5t-13.5 -20.5l-40 -174q-9 -40 -34.5 -63t-77.5 -36v-3q45 -13 58.5 -41.5t3.5 -73.5l-39 -168q-2 -10 4 -20.5t17 -10.5h73l-19 -83h-76
q-71 0 -102.5 35.5t-17.5 97.5z" />
    <glyph glyph-name="bar" unicode="|" horiz-adv-x="155" 
d="M145 741v-790h-95v790h95z" />
    <glyph glyph-name="braceright" unicode="}" horiz-adv-x="328" 
d="M318 608l-40 -174q-5 -21 3.5 -35.5t33.5 -14.5h31l-20 -86h-22q-58 0 -70 -51l-40 -173q-28 -123 -161 -123h-93l19 83h72q11 0 22.5 10.5t13.5 20.5l41 177q9 40 34.5 63t77.5 36v3q-45 13 -58.5 41.5t-3.5 73.5l38 165q2 10 -4 20.5t-17 10.5h-73l20 86h76
q71 0 102.5 -35.5t17.5 -97.5z" />
    <glyph glyph-name="asciitilde" unicode="~" horiz-adv-x="361" 
d="M2 219l18 81q39 62 107 62q26 0 71 -11.5t56 -11.5q27 0 43 28h78l-19 -81q-40 -64 -107 -64q-26 0 -71 13.5t-56 13.5q-26 0 -42 -30h-78z" />
    <glyph glyph-name="exclamdown" unicode="&#xa1;" horiz-adv-x="204" 
d="M180 422l-58 -408l-20 -86h-156l20 86l142 408h72zM174 634q34 0 56 -22.5t22 -55.5q0 -35 -26 -59t-61 -24q-34 0 -56.5 23t-22.5 55q0 35 26.5 59t61.5 24z" />
    <glyph glyph-name="cent" unicode="&#xa2;" horiz-adv-x="478" 
d="M325 589h74l-14 -58q75 -7 126 -31l-26 -115h-75q-14 39 -47 50l-81 -349q44 8 72 50h77l-25 -109q-69 -31 -145 -33l-22 -96h-74l23 99q-86 13 -132 65t-46 132q0 146 85.5 237.5t216.5 100.5zM152 189q0 -78 58 -98l79 344q-62 -18 -99.5 -85.5t-37.5 -160.5z" />
    <glyph glyph-name="sterling" unicode="&#xa3;" horiz-adv-x="500" 
d="M376 0q-159 0 -260 48q-34 -26 -88 -48h-77l19 82q60 11 93.5 64.5t33.5 141.5v21h-75l20 87h51q-1 17 -1 50q0 73 23 125.5t63.5 81t86.5 41.5t101 13q124 0 204 -45l-31 -137h-86q-19 81 -98 81q-81 0 -101 -90q-4 -18 -12 -120h161l-20 -87h-148q-7 -65 -16 -102
q-11 -44 -29 -76q80 -16 156 -16l30 76h97l-44 -191h-53z" />
    <glyph glyph-name="yen" unicode="&#xa5;" horiz-adv-x="598" 
d="M60 313l17 72h134l-79 206q-9 23 -28 23h-11l20 86h263l-20 -86h-65l64 -202h2l95 132q23 33 16.5 51.5t-34.5 18.5h-19l20 86h254l-20 -86h-19q-22 0 -44 -27l-162 -202h135l-17 -72h-173l-14 -60h173l-16 -72h-174l-15 -67q-3 -11 2 -21t15 -10h49l-19 -83h-302l19 83
h44q11 0 22.5 10.5t13.5 20.5l15 67h-172l16 72h173l14 60h-173z" />
    <glyph glyph-name="brokenbar" unicode="&#xa6;" horiz-adv-x="156" 
d="M50 -49v357h96l-1 -357h-95zM50 393v348h95l1 -348h-96z" />
    <glyph glyph-name="section" unicode="&#xa7;" horiz-adv-x="510" 
d="M170 -133q-119 0 -213 43l28 121h91q5 -37 25.5 -56.5t68.5 -19.5q41 0 65 20.5t24 53.5q0 26 -23 44t-93 47q-66 27 -96.5 61t-30.5 86q0 53 35.5 94.5t101.5 61.5q-32 36 -32 92q0 81 62.5 137t169.5 56q51 0 90 -6.5t57 -12.5t45 -19l-26 -114h-90q-5 32 -23.5 47.5
t-64.5 15.5q-47 0 -68 -21.5t-21 -53.5q0 -28 19.5 -44.5t85.5 -38.5q79 -27 115 -62t36 -87q0 -56 -36 -98t-107 -63q39 -39 39 -91q0 -89 -60.5 -141t-173.5 -52zM278 351q-36 13 -64 27q-71 -19 -71 -75q0 -22 17.5 -40t65.5 -36q35 -13 72 -31q69 22 70 80
q0 23 -21.5 40.5t-68.5 34.5z" />
    <glyph glyph-name="dieresis" unicode="&#xa8;" horiz-adv-x="400" 
d="M188 567q-30 0 -50 20t-20 50q0 31 23.5 52.5t54.5 21.5t51 -20.5t20 -49.5q0 -31 -23.5 -52.5t-55.5 -21.5zM378 567q-30 0 -50 20t-20 50q0 31 23.5 52.5t54.5 21.5t51 -20.5t20 -49.5q0 -31 -23.5 -52.5t-55.5 -21.5z" />
    <glyph glyph-name="copyright" unicode="&#xa9;" horiz-adv-x="750" 
d="M396 -8q-150 0 -251.5 95.5t-101.5 262.5t101.5 262.5t251.5 95.5t251.5 -95.5t101.5 -262.5t-101.5 -262.5t-251.5 -95.5zM396 31q134 0 220 85t86 234t-86 234t-220 85t-220 -85t-86 -234t86 -234t220 -85zM403 154q-93 0 -143 50t-50 145q0 94 50.5 147t133.5 53
q37 0 67 -5h81v-131h-70l-11 59q-19 7 -46 7q-90 0 -90 -126q0 -130 86 -130q49 0 82 42h51v-71q-55 -40 -141 -40z" />
    <glyph glyph-name="ordfeminine" unicode="&#xaa;" horiz-adv-x="450" 
d="M168 254q-53 0 -89.5 32.5t-36.5 88.5q0 68 53.5 107t146.5 39q48 0 81 -10l10 40q15 65 -62 65q-56 0 -98 -35h-66l23 103q72 24 164 24q96 0 141.5 -40t27.5 -119l-44 -193q-2 -8 3.5 -14.5t12.5 -6.5h24l-14 -64q-34 -18 -78 -18q-71 0 -81 58q-51 -57 -118 -57z
M218 332q37 0 73 38l18 78q-30 7 -57 7q-41 0 -63 -21t-22 -54q0 -48 51 -48z" />
    <glyph glyph-name="guillemotleft" unicode="&#xab;" horiz-adv-x="489" 
d="M299 480l-12 -51l-136 -172v-3l58 -161l-12 -53h-72l-103 190l18 77l173 173h86zM510 480l-12 -51l-136 -172v-3l58 -161l-12 -53h-72l-103 190l18 77l173 173h86z" />
    <glyph glyph-name="registered" unicode="&#xae;" horiz-adv-x="386" 
d="M255 350q-75 0 -128 48.5t-53 130.5t52.5 130.5t128.5 48.5q75 0 128 -48.5t53 -130.5t-53 -130.5t-128 -48.5zM255 383q62 0 102 38.5t40 107.5t-40 107.5t-102 38.5t-102 -38.5t-40 -107.5t40 -107.5t102 -38.5zM174 444v29h8q7 0 7 8v101q0 7 -7 7h-8v30h86
q73 0 73 -50q0 -30 -35 -40v-1q14 -2 21 -9.5t12 -26.5l3 -13q2 -6 6 -6h6v-29h-62l-6 48q-4 20 -22 20h-11v-39h17v-29h-88zM243 587v-46h12q23 0 23 23t-23 23h-12z" />
    <glyph glyph-name="macron" unicode="&#xaf;" horiz-adv-x="400" 
d="M142 585l22 94h266l-22 -94h-266z" />
    <glyph glyph-name="degree" unicode="&#xb0;" horiz-adv-x="348" 
d="M236 424q-60 0 -99.5 38.5t-39.5 96.5q0 66 46 106.5t109 40.5q60 0 99.5 -38.5t39.5 -96.5q0 -67 -46 -107t-109 -40zM240 483q35 0 58.5 23.5t23.5 64.5q0 33 -20.5 54.5t-53.5 21.5q-35 0 -57.5 -23.5t-22.5 -63.5q0 -34 19.5 -55.5t52.5 -21.5z" />
    <glyph glyph-name="twosuperior" unicode="&#xb2;" horiz-adv-x="307" 
d="M20 315l11 45q12 49 42 81t83 63q8 5 25 15t24.5 14.5t19.5 13t17 15t9 16t4 19.5q0 34 -38 34q-39 0 -64 -37h-56l21 91q56 20 114 20q64 0 98.5 -24.5t34.5 -71.5q0 -28 -10 -50.5t-32.5 -40.5t-40 -28t-49.5 -26q-80 -39 -94 -69h102l14 31h66l-25 -111h-276z" />
    <glyph glyph-name="threesuperior" unicode="&#xb3;" horiz-adv-x="300" 
d="M156 310q-80 0 -132 25l19 80h56q11 -36 55 -36q27 0 44.5 14.5t17.5 44.5q0 38 -52 38h-29l15 65h30q32 0 49 15.5t17 38.5q0 37 -42 37q-33 0 -56 -30h-55l20 84q59 19 108 19q61 0 95.5 -24.5t34.5 -66.5q0 -84 -94 -105v-2q31 -5 49 -24t18 -48q0 -58 -45 -91.5
t-123 -33.5z" />
    <glyph glyph-name="acute" unicode="&#xb4;" horiz-adv-x="400" 
d="M225 562l49 138h147l-12 -50l-102 -88h-82z" />
    <glyph glyph-name="paragraph" unicode="&#xb6;" horiz-adv-x="551" 
d="M156 -91l91 394q-85 7 -132.5 46.5t-47.5 112.5q0 121 80 179.5t206 58.5h289l-20 -86h-38q-11 0 -22.5 -10.5t-13.5 -20.5l-156 -674h-84l161 699h-68l-161 -699h-84z" />
    <glyph glyph-name="periodcentered" unicode="&#xb7;" horiz-adv-x="203" 
d="M105 215q-34 0 -56 22.5t-22 55.5q0 35 26 59t61 24q34 0 56.5 -23t22.5 -55q0 -35 -26.5 -59t-61.5 -24z" />
    <glyph glyph-name="cedilla" unicode="&#xb8;" horiz-adv-x="400" 
d="M106 -175q-47 0 -81 18l13 57h34q9 -15 32 -15q33 0 33 23q0 9 -9 15t-25 6h-19l16 71h63l-6 -25q33 -2 50.5 -19t17.5 -45q0 -40 -32.5 -63t-86.5 -23z" />
    <glyph glyph-name="onesuperior" unicode="&#xb9;" horiz-adv-x="247" 
d="M25 315l14 60h45q4 0 10 5.5t8 10.5l51 222l-44 -21h-26l15 63l107 45h82l-71 -309q-2 -5 0.5 -10.5t7.5 -5.5h48l-14 -60h-233z" />
    <glyph glyph-name="ordmasculine" unicode="&#xba;" horiz-adv-x="456" 
d="M253 253q-94 0 -146.5 51.5t-52.5 137.5q0 118 75 192t177 74q93 0 145.5 -51t52.5 -137q0 -119 -72.5 -193t-178.5 -74zM258 336q53 0 83 55.5t30 138.5q0 90 -69 90q-51 0 -82.5 -56t-31.5 -136q0 -92 70 -92z" />
    <glyph glyph-name="guillemotright" unicode="&#xbb;" horiz-adv-x="490" 
d="M190 40l12 51l136 172v3l-58 161l12 53h72l103 -190l-18 -77l-173 -173h-86zM-21 40l12 51l136 172v3l-58 161l12 53h72l103 -190l-18 -77l-173 -173h-86z" />
    <glyph glyph-name="onequarter" unicode="&#xbc;" horiz-adv-x="677" 
d="M25 315l14 60h45q4 0 10 5.5t8 10.5l51 222l-44 -21h-26l15 63l107 45h82l-71 -309q-2 -5 0.5 -10.5t7.5 -5.5h48l-14 -60h-233zM740 729l-649 -763h-92l649 763h92zM412 0l14 60h29q4 0 10 5.5t7 10.5l5 24h-160l18 76l211 209h107l-51 -221h45l-15 -64h-45l-5 -24
q-2 -5 0.5 -10.5t7.5 -5.5h33l-14 -60h-197zM402 166v-2h93l28 123h-2z" />
    <glyph glyph-name="onehalf" unicode="&#xbd;" horiz-adv-x="717" 
d="M25 315l14 60h45q4 0 10 5.5t8 10.5l51 222l-44 -21h-26l15 63l107 45h82l-71 -309q-2 -5 0.5 -10.5t7.5 -5.5h48l-14 -60h-233zM732 729l-649 -763h-92l649 763h92zM357 0l11 45q12 49 42 81t83 63q8 5 25 15t24.5 14.5t19.5 13t17 15t9 16t4 19.5q0 34 -38 34
q-39 0 -64 -37h-56l21 91q56 20 114 20q64 0 98.5 -24.5t34.5 -71.5q0 -28 -10 -50.5t-32.5 -40.5t-40 -28t-49.5 -26q-80 -39 -94 -69h102l14 31h66l-25 -111h-276z" />
    <glyph glyph-name="threequarters" unicode="&#xbe;" horiz-adv-x="678" 
d="M156 310q-80 0 -132 25l19 80h56q11 -36 55 -36q27 0 44.5 14.5t17.5 44.5q0 38 -52 38h-29l15 65h30q32 0 49 15.5t17 38.5q0 37 -42 37q-33 0 -56 -30h-55l20 84q59 19 108 19q61 0 95.5 -24.5t34.5 -66.5q0 -84 -94 -105v-2q31 -5 49 -24t18 -48q0 -58 -45 -91.5
t-123 -33.5zM747 729l-649 -763h-92l649 763h92zM413 0l14 60h29q4 0 10 5.5t7 10.5l5 24h-160l18 76l211 209h107l-51 -221h45l-15 -64h-45l-5 -24q-2 -5 0.5 -10.5t7.5 -5.5h33l-14 -60h-197zM403 166v-2h93l28 123h-2z" />
    <glyph glyph-name="questiondown" unicode="&#xbf;" horiz-adv-x="428" 
d="M317 634q34 0 56 -22.5t22 -55.5q0 -35 -26 -59t-61 -24q-34 0 -56.5 23t-22.5 55q0 35 26.5 59t61.5 24zM340 422q0 -61 -17.5 -100.5t-78.5 -91.5q-3 -2 -24 -18.5t-31.5 -26.5t-26.5 -27.5t-23.5 -37t-7.5 -40.5q0 -26 16 -42t44 -16q60 0 97 61h87l-30 -132
q-83 -31 -175 -31q-93 0 -144.5 40.5t-51.5 110.5q0 63 34 107.5t101 86.5q45 29 62.5 41t41.5 32.5t32.5 39.5t10.5 44h84z" />
    <glyph glyph-name="Agrave" unicode="&#xc0;" horiz-adv-x="717" 
d="M411 737l-87 88l12 50h125l27 -138h-77zM-50 0l19 83h22q28 0 46 31l270 469q18 31 -6 31h-58l20 86h295l56 -589q2 -12 10 -20t18 -8h24l-19 -83h-295l19 83h91l-11 133h-238l-24 -43q-50 -90 13 -90h40l-19 -83h-273zM421 592l-160 -289h184l-22 289h-2z" />
    <glyph glyph-name="Aacute" unicode="&#xc1;" horiz-adv-x="717" 
d="M398 737l49 138h147l-12 -50l-102 -88h-82zM-50 0l19 83h22q28 0 46 31l270 469q18 31 -6 31h-58l20 86h295l56 -589q2 -12 10 -20t18 -8h24l-19 -83h-295l19 83h91l-11 133h-238l-24 -43q-50 -90 13 -90h40l-19 -83h-273zM421 592l-160 -289h184l-22 289h-2z" />
    <glyph glyph-name="Acircumflex" unicode="&#xc2;" horiz-adv-x="717" 
d="M313 737l8 37l87 101h117l54 -101l-8 -37h-51l-66 60l-90 -60h-51zM-50 0l19 83h22q28 0 46 31l270 469q18 31 -6 31h-58l20 86h295l56 -589q2 -12 10 -20t18 -8h24l-19 -83h-295l19 83h91l-11 133h-238l-24 -43q-50 -90 13 -90h40l-19 -83h-273zM421 592l-160 -289h184
l-22 289h-2z" />
    <glyph glyph-name="Atilde" unicode="&#xc3;" horiz-adv-x="717" 
d="M275 737l16 71q39 62 104 62q26 0 74.5 -11.5t59.5 -11.5q29 0 45 28h69l-17 -71q-38 -64 -105 -64q-26 0 -74 13.5t-59 13.5q-29 0 -44 -30h-69zM-50 0l19 83h22q28 0 46 31l270 469q18 31 -6 31h-58l20 86h295l56 -589q2 -12 10 -20t18 -8h24l-19 -83h-295l19 83h91
l-11 133h-238l-24 -43q-50 -90 13 -90h40l-19 -83h-273zM421 592l-160 -289h184l-22 289h-2z" />
    <glyph glyph-name="Adieresis" unicode="&#xc4;" horiz-adv-x="717" 
d="M-50 0l19 83h22q28 0 46 31l270 469q18 31 -6 31h-58l20 86h295l56 -589q2 -12 10 -20t18 -8h24l-19 -83h-295l19 83h91l-11 133h-238l-24 -43q-50 -90 13 -90h40l-19 -83h-273zM421 592l-160 -289h184l-22 289h-2zM361 742q-30 0 -50 20t-20 50q0 31 23.5 52.5
t54.5 21.5t51 -20.5t20 -49.5q0 -31 -23.5 -52.5t-55.5 -21.5zM551 742q-30 0 -50 20t-20 50q0 31 23.5 52.5t54.5 21.5t51 -20.5t20 -49.5q0 -31 -23.5 -52.5t-55.5 -21.5z" />
    <glyph glyph-name="Aring" unicode="&#xc5;" horiz-adv-x="717" 
d="M445 741q-44 0 -72.5 26t-28.5 69q0 48 32.5 77t77.5 29q43 0 71.5 -26.5t28.5 -68.5q0 -49 -32 -77.5t-77 -28.5zM446 787q24 0 40 15.5t16 41.5q0 23 -13.5 37.5t-36.5 14.5q-24 0 -39.5 -15.5t-15.5 -43.5q0 -23 13 -36.5t36 -13.5zM-50 0l19 83h22q28 0 46 31
l270 469q18 31 -6 31h-58l20 86h295l56 -589q2 -12 10 -20t18 -8h24l-19 -83h-295l19 83h91l-11 133h-238l-24 -43q-50 -90 13 -90h40l-19 -83h-273zM421 592l-160 -289h184l-22 289h-2z" />
    <glyph glyph-name="AE" unicode="&#xc6;" horiz-adv-x="951" 
d="M701 232l9 80h-87l-51 -222h216l42 123h99l-48 -213h-553l19 83h67l30 133h-215l-34 -45q-31 -43 -26.5 -65.5t42.5 -22.5h36l-19 -83h-280l19 83h20q25 0 48 31l355 469q9 12 5 21.5t-16 9.5h-51l20 86h681l-46 -200h-94l8 107h-206l-48 -208h86l27 80h90l-57 -247h-88z
M524 607l-230 -304h170l71 304h-11z" />
    <glyph glyph-name="Ccedilla" unicode="&#xc7;" horiz-adv-x="612" 
d="M222 -175q-47 0 -81 18l13 57h34q9 -15 32 -15q33 0 33 23q0 9 -9 15t-25 6h-19l17 75q-90 25 -137 93t-47 170q0 186 120.5 313.5t300.5 127.5q61 0 93 -8h139l-52 -226h-101l4 115q-40 17 -81 17q-114 0 -190 -92t-76 -248q0 -175 139 -175q55 0 92 18.5t76 57.5h75
l-27 -115q-95 -60 -228 -60q-14 0 -40 2l-4 -19q33 -2 50.5 -19t17.5 -45q0 -40 -32.5 -63t-86.5 -23z" />
    <glyph glyph-name="Egrave" unicode="&#xc8;" horiz-adv-x="581" 
d="M371 737l-87 88l12 50h125l27 -138h-77zM-48 0l19 83h38q11 0 22.5 10.5t13.5 20.5l107 469q2 12 -2 21.5t-15 9.5h-43l20 86h547l-46 -200h-94l8 107h-213l-48 -208h93l27 80h90l-57 -247h-88l9 80h-94l-51 -222h223l42 123h99l-48 -213h-559z" />
    <glyph glyph-name="Eacute" unicode="&#xc9;" horiz-adv-x="581" 
d="M358 737l49 138h147l-12 -50l-102 -88h-82zM-48 0l19 83h38q11 0 22.5 10.5t13.5 20.5l107 469q2 12 -2 21.5t-15 9.5h-43l20 86h547l-46 -200h-94l8 107h-213l-48 -208h93l27 80h90l-57 -247h-88l9 80h-94l-51 -222h223l42 123h99l-48 -213h-559z" />
    <glyph glyph-name="Ecircumflex" unicode="&#xca;" horiz-adv-x="581" 
d="M273 737l8 37l87 101h117l54 -101l-8 -37h-51l-66 60l-90 -60h-51zM-48 0l19 83h38q11 0 22.5 10.5t13.5 20.5l107 469q2 12 -2 21.5t-15 9.5h-43l20 86h547l-46 -200h-94l8 107h-213l-48 -208h93l27 80h90l-57 -247h-88l9 80h-94l-51 -222h223l42 123h99l-48 -213h-559z
" />
    <glyph glyph-name="Edieresis" unicode="&#xcb;" horiz-adv-x="581" 
d="M-48 0l19 83h38q11 0 22.5 10.5t13.5 20.5l107 469q2 12 -2 21.5t-15 9.5h-43l20 86h547l-46 -200h-94l8 107h-213l-48 -208h93l27 80h90l-57 -247h-88l9 80h-94l-51 -222h223l42 123h99l-48 -213h-559zM321 742q-30 0 -50 20t-20 50q0 31 23.5 52.5t54.5 21.5t51 -20.5
t20 -49.5q0 -31 -23.5 -52.5t-55.5 -21.5zM511 742q-30 0 -50 20t-20 50q0 31 23.5 52.5t54.5 21.5t51 -20.5t20 -49.5q0 -31 -23.5 -52.5t-55.5 -21.5z" />
    <glyph glyph-name="Igrave" unicode="&#xcc;" horiz-adv-x="327" 
d="M-48 0l19 83h46q10 0 21.5 10.5t13.5 20.5l107 469q2 11 -2 21t-14 10h-51l20 86h305l-20 -86h-46q-11 0 -22 -10t-13 -21l-107 -469q-3 -11 1.5 -21t14.5 -10h51l-19 -83h-305zM241 737l-87 88l12 50h125l27 -138h-77z" />
    <glyph glyph-name="Iacute" unicode="&#xcd;" horiz-adv-x="327" 
d="M228 737l49 138h147l-12 -50l-102 -88h-82zM-48 0l19 83h46q10 0 21.5 10.5t13.5 20.5l107 469q2 11 -2 21t-14 10h-51l20 86h305l-20 -86h-46q-11 0 -22 -10t-13 -21l-107 -469q-3 -11 1.5 -21t14.5 -10h51l-19 -83h-305z" />
    <glyph glyph-name="Icircumflex" unicode="&#xce;" horiz-adv-x="327" 
d="M143 737l8 37l87 101h117l54 -101l-8 -37h-51l-66 60l-90 -60h-51zM-48 0l19 83h46q10 0 21.5 10.5t13.5 20.5l107 469q2 11 -2 21t-14 10h-51l20 86h305l-20 -86h-46q-11 0 -22 -10t-13 -21l-107 -469q-3 -11 1.5 -21t14.5 -10h51l-19 -83h-305z" />
    <glyph glyph-name="Idieresis" unicode="&#xcf;" horiz-adv-x="327" 
d="M191 742q-30 0 -50 20t-20 50q0 31 23.5 52.5t54.5 21.5t51 -20.5t20 -49.5q0 -31 -23.5 -52.5t-55.5 -21.5zM381 742q-30 0 -50 20t-20 50q0 31 23.5 52.5t54.5 21.5t51 -20.5t20 -49.5q0 -31 -23.5 -52.5t-55.5 -21.5zM-48 0l19 83h46q10 0 21.5 10.5t13.5 20.5
l107 469q2 11 -2 21t-14 10h-51l20 86h305l-20 -86h-46q-11 0 -22 -10t-13 -21l-107 -469q-3 -11 1.5 -21t14.5 -10h51l-19 -83h-305z" />
    <glyph glyph-name="Eth" unicode="&#xd0;" horiz-adv-x="685" 
d="M21 302l20 87h67l44 194q2 12 -2 21.5t-15 9.5h-43l20 86h268q151 0 233 -72t82 -210q0 -194 -116.5 -306t-318.5 -112h-308l19 83h38q11 0 22.5 10.5t13.5 20.5l43 188h-67zM195 87h74q126 0 198 91t72 252q0 178 -179 178h-46l-50 -219h143l-20 -87h-143z" />
    <glyph glyph-name="Ntilde" unicode="&#xd1;" horiz-adv-x="705" 
d="M294 737l16 71q39 62 104 62q26 0 74.5 -11.5t59.5 -11.5q29 0 45 28h69l-17 -71q-38 -64 -105 -64q-26 0 -74 13.5t-59 13.5q-29 0 -44 -30h-69zM-48 0l19 83h38q11 0 22.5 10.5t13.5 20.5l107 469q2 12 -2 21.5t-15 9.5h-43l20 86h224l170 -466h3l88 380h-78l20 86h258
l-20 -86h-37q-10 0 -21.5 -10t-13.5 -21l-133 -583h-132l-189 505h-3l-96 -422h80l-19 -83h-261z" />
    <glyph glyph-name="Ograve" unicode="&#xd2;" horiz-adv-x="698" 
d="M326 -8q-136 0 -215.5 75t-79.5 210q0 182 110.5 306t272.5 124q134 0 213 -76t79 -208q0 -190 -108 -310.5t-272 -120.5zM330 92q100 0 160 97.5t60 235.5q0 86 -36.5 132.5t-105.5 46.5q-100 0 -160.5 -96t-60.5 -236q0 -86 37.5 -133t105.5 -47zM409 747l-87 88l12 50
h125l27 -138h-77z" />
    <glyph glyph-name="Oacute" unicode="&#xd3;" horiz-adv-x="698" 
d="M326 -8q-136 0 -215.5 75t-79.5 210q0 182 110.5 306t272.5 124q134 0 213 -76t79 -208q0 -190 -108 -310.5t-272 -120.5zM330 92q100 0 160 97.5t60 235.5q0 86 -36.5 132.5t-105.5 46.5q-100 0 -160.5 -96t-60.5 -236q0 -86 37.5 -133t105.5 -47zM396 747l49 138h147
l-12 -50l-102 -88h-82z" />
    <glyph glyph-name="Ocircumflex" unicode="&#xd4;" horiz-adv-x="698" 
d="M326 -8q-136 0 -215.5 75t-79.5 210q0 182 110.5 306t272.5 124q134 0 213 -76t79 -208q0 -190 -108 -310.5t-272 -120.5zM330 92q100 0 160 97.5t60 235.5q0 86 -36.5 132.5t-105.5 46.5q-100 0 -160.5 -96t-60.5 -236q0 -86 37.5 -133t105.5 -47zM311 747l8 37l87 101
h117l54 -101l-8 -37h-51l-66 60l-90 -60h-51z" />
    <glyph glyph-name="Otilde" unicode="&#xd5;" horiz-adv-x="698" 
d="M273 747l16 71q39 62 104 62q26 0 74.5 -11.5t59.5 -11.5q29 0 45 28h69l-17 -71q-38 -64 -105 -64q-26 0 -74 13.5t-59 13.5q-29 0 -44 -30h-69zM326 -8q-136 0 -215.5 75t-79.5 210q0 182 110.5 306t272.5 124q134 0 213 -76t79 -208q0 -190 -108 -310.5t-272 -120.5z
M330 92q100 0 160 97.5t60 235.5q0 86 -36.5 132.5t-105.5 46.5q-100 0 -160.5 -96t-60.5 -236q0 -86 37.5 -133t105.5 -47z" />
    <glyph glyph-name="Odieresis" unicode="&#xd6;" horiz-adv-x="698" 
d="M326 -8q-136 0 -215.5 75t-79.5 210q0 182 110.5 306t272.5 124q134 0 213 -76t79 -208q0 -190 -108 -310.5t-272 -120.5zM330 92q100 0 160 97.5t60 235.5q0 86 -36.5 132.5t-105.5 46.5q-100 0 -160.5 -96t-60.5 -236q0 -86 37.5 -133t105.5 -47zM353 725q-30 0 -50 20
t-20 50q0 31 23.5 52.5t54.5 21.5t51 -20.5t20 -49.5q0 -31 -23.5 -52.5t-55.5 -21.5zM543 725q-30 0 -50 20t-20 50q0 31 23.5 52.5t54.5 21.5t51 -20.5t20 -49.5q0 -31 -23.5 -52.5t-55.5 -21.5z" />
    <glyph glyph-name="multiply" unicode="&#xd7;" horiz-adv-x="513" 
d="M93 116l-65 78l173 148l-115 148l89 72l112 -146l171 146l63 -78l-172 -148l114 -148l-87 -72l-113 146z" />
    <glyph glyph-name="Oslash" unicode="&#xd8;" horiz-adv-x="698" 
d="M326 -8q-114 0 -187 51l-65 -72h-89l106 117q-60 72 -60 189q0 182 110.5 306t272.5 124q115 0 188 -55l63 69h89l-105 -115q57 -72 57 -183q0 -190 -108 -310.5t-272 -120.5zM184 272q0 -44 8 -72l324 356q-39 48 -108 48q-101 0 -162.5 -96.5t-61.5 -235.5zM330 92
q101 0 162 98t61 235q0 33 -7 66l-322 -354q38 -45 106 -45z" />
    <glyph glyph-name="Ugrave" unicode="&#xd9;" horiz-adv-x="706" 
d="M442 737l-87 88l12 50h125l27 -138h-77zM331 -8q-149 0 -213.5 73t-35.5 203l71 315q2 12 -2 21.5t-15 9.5h-44l20 86h303l-20 -86h-79l-82 -363q-20 -89 10.5 -124t97.5 -35q77 0 114.5 37t58.5 128l81 357h-79l20 86h260l-20 -86h-38q-11 0 -22.5 -10t-13.5 -21
l-78 -338q-20 -84 -52 -137.5t-92 -84.5t-150 -31z" />
    <glyph glyph-name="Uacute" unicode="&#xda;" horiz-adv-x="706" 
d="M429 737l49 138h147l-12 -50l-102 -88h-82zM331 -8q-149 0 -213.5 73t-35.5 203l71 315q2 12 -2 21.5t-15 9.5h-44l20 86h303l-20 -86h-79l-82 -363q-20 -89 10.5 -124t97.5 -35q77 0 114.5 37t58.5 128l81 357h-79l20 86h260l-20 -86h-38q-11 0 -22.5 -10t-13.5 -21
l-78 -338q-20 -84 -52 -137.5t-92 -84.5t-150 -31z" />
    <glyph glyph-name="Ucircumflex" unicode="&#xdb;" horiz-adv-x="706" 
d="M344 737l8 37l87 101h117l54 -101l-8 -37h-51l-66 60l-90 -60h-51zM331 -8q-149 0 -213.5 73t-35.5 203l71 315q2 12 -2 21.5t-15 9.5h-44l20 86h303l-20 -86h-79l-82 -363q-20 -89 10.5 -124t97.5 -35q77 0 114.5 37t58.5 128l81 357h-79l20 86h260l-20 -86h-38
q-11 0 -22.5 -10t-13.5 -21l-78 -338q-20 -84 -52 -137.5t-92 -84.5t-150 -31z" />
    <glyph glyph-name="Udieresis" unicode="&#xdc;" horiz-adv-x="706" 
d="M392 742q-30 0 -50 20t-20 50q0 31 23.5 52.5t54.5 21.5t51 -20.5t20 -49.5q0 -31 -23.5 -52.5t-55.5 -21.5zM582 742q-30 0 -50 20t-20 50q0 31 23.5 52.5t54.5 21.5t51 -20.5t20 -49.5q0 -31 -23.5 -52.5t-55.5 -21.5zM331 -8q-149 0 -213.5 73t-35.5 203l71 315
q2 12 -2 21.5t-15 9.5h-44l20 86h303l-20 -86h-79l-82 -363q-20 -89 10.5 -124t97.5 -35q77 0 114.5 37t58.5 128l81 357h-79l20 86h260l-20 -86h-38q-11 0 -22.5 -10t-13.5 -21l-78 -338q-20 -84 -52 -137.5t-92 -84.5t-150 -31z" />
    <glyph glyph-name="Yacute" unicode="&#xdd;" horiz-adv-x="655" 
d="M399 737l49 138h147l-12 -50l-102 -88h-82zM126 0l19 83h44q11 0 22.5 10.5t13.5 20.5l40 181l-123 296q-10 23 -24 23h-26l20 86h283l-20 -86h-79l90 -231h2l122 161q24 34 18 52t-39 18h-26l20 86h264l-20 -86h-17q-24 0 -46 -27l-245 -303l-38 -170q-3 -11 2 -21
t15 -10h49l-19 -83h-302z" />
    <glyph glyph-name="Thorn" unicode="&#xde;" horiz-adv-x="597" 
d="M-48 0l19 83h38q11 0 22.5 10.5t13.5 20.5l107 469q2 12 -2 21.5t-15 9.5h-43l20 86h303l-20 -86h-79l-17 -73h64q243 0 243 -156q0 -111 -83 -166.5t-217 -55.5h-94l-18 -80h87l-19 -83h-310zM347 449h-70l-46 -199h84q66 0 98 32.5t32 87.5q0 40 -23.5 59.5t-74.5 19.5
z" />
    <glyph glyph-name="germandbls" unicode="&#xdf;" horiz-adv-x="601" 
d="M142 20q-32 -139 -147 -182h-94l18 78q60 16 79 107l105 492q19 87 88.5 141t189.5 54q85 0 147 -36t62 -97q0 -38 -23 -66.5t-67 -58.5q-51 -34 -77.5 -57t-26.5 -39q0 -4 1 -7.5t4.5 -8t6.5 -7.5t11 -9t14.5 -10.5t19.5 -14t24 -17.5q26 -19 42 -34t30.5 -41t14.5 -54
q0 -69 -58.5 -114t-153.5 -45q-76 0 -144 33l26 110h77q9 -57 60 -57q25 0 43 12.5t18 35.5q0 8 -3.5 15t-11.5 14.5t-14.5 12.5t-21 14.5t-21.5 14.5q-49 35 -68 58t-19 60q0 66 94 145q38 32 55 54t17 45q0 24 -18.5 38.5t-49.5 14.5q-97 0 -120 -104z" />
    <glyph glyph-name="agrave" unicode="&#xe0;" horiz-adv-x="514" 
d="M130 -6q-64 0 -101 34.5t-37 101.5q0 85 62 133.5t166 48.5q49 0 94 -13l13 56q8 37 -10.5 57.5t-64.5 20.5q-30 0 -52.5 -7.5t-33 -14.5t-30.5 -24h-67l27 117q89 29 184 29q112 0 162.5 -46t29.5 -135l-56 -244q-2 -9 4 -17t15 -8h28l-15 -70q-38 -20 -87 -20
q-82 0 -92 68q-58 -67 -139 -67zM189 80q44 0 84 42l24 105q-38 8 -65 8q-49 0 -76 -26.5t-27 -66.5q0 -62 60 -62zM276 562l-87 88l12 50h125l27 -138h-77z" />
    <glyph glyph-name="aacute" unicode="&#xe1;" horiz-adv-x="514" 
d="M130 -6q-64 0 -101 34.5t-37 101.5q0 85 62 133.5t166 48.5q49 0 94 -13l13 56q8 37 -10.5 57.5t-64.5 20.5q-30 0 -52.5 -7.5t-33 -14.5t-30.5 -24h-67l27 117q89 29 184 29q112 0 162.5 -46t29.5 -135l-56 -244q-2 -9 4 -17t15 -8h28l-15 -70q-38 -20 -87 -20
q-82 0 -92 68q-58 -67 -139 -67zM189 80q44 0 84 42l24 105q-38 8 -65 8q-49 0 -76 -26.5t-27 -66.5q0 -62 60 -62zM263 562l49 138h147l-12 -50l-102 -88h-82z" />
    <glyph glyph-name="acircumflex" unicode="&#xe2;" horiz-adv-x="514" 
d="M178 562l8 37l87 101h117l54 -101l-8 -37h-51l-66 60l-90 -60h-51zM130 -6q-64 0 -101 34.5t-37 101.5q0 85 62 133.5t166 48.5q49 0 94 -13l13 56q8 37 -10.5 57.5t-64.5 20.5q-30 0 -52.5 -7.5t-33 -14.5t-30.5 -24h-67l27 117q89 29 184 29q112 0 162.5 -46t29.5 -135
l-56 -244q-2 -9 4 -17t15 -8h28l-15 -70q-38 -20 -87 -20q-82 0 -92 68q-58 -67 -139 -67zM189 80q44 0 84 42l24 105q-38 8 -65 8q-49 0 -76 -26.5t-27 -66.5q0 -62 60 -62z" />
    <glyph glyph-name="atilde" unicode="&#xe3;" horiz-adv-x="514" 
d="M140 562l16 71q39 62 104 62q26 0 74.5 -11.5t59.5 -11.5q29 0 45 28h69l-17 -71q-38 -64 -105 -64q-26 0 -74 13.5t-59 13.5q-29 0 -44 -30h-69zM130 -6q-64 0 -101 34.5t-37 101.5q0 85 62 133.5t166 48.5q49 0 94 -13l13 56q8 37 -10.5 57.5t-64.5 20.5
q-30 0 -52.5 -7.5t-33 -14.5t-30.5 -24h-67l27 117q89 29 184 29q112 0 162.5 -46t29.5 -135l-56 -244q-2 -9 4 -17t15 -8h28l-15 -70q-38 -20 -87 -20q-82 0 -92 68q-58 -67 -139 -67zM189 80q44 0 84 42l24 105q-38 8 -65 8q-49 0 -76 -26.5t-27 -66.5q0 -62 60 -62z" />
    <glyph glyph-name="adieresis" unicode="&#xe4;" horiz-adv-x="514" 
d="M130 -6q-64 0 -101 34.5t-37 101.5q0 85 62 133.5t166 48.5q49 0 94 -13l13 56q8 37 -10.5 57.5t-64.5 20.5q-30 0 -52.5 -7.5t-33 -14.5t-30.5 -24h-67l27 117q89 29 184 29q112 0 162.5 -46t29.5 -135l-56 -244q-2 -9 4 -17t15 -8h28l-15 -70q-38 -20 -87 -20
q-82 0 -92 68q-58 -67 -139 -67zM189 80q44 0 84 42l24 105q-38 8 -65 8q-49 0 -76 -26.5t-27 -66.5q0 -62 60 -62zM226 567q-30 0 -50 20t-20 50q0 31 23.5 52.5t54.5 21.5t51 -20.5t20 -49.5q0 -31 -23.5 -52.5t-55.5 -21.5zM416 567q-30 0 -50 20t-20 50q0 31 23.5 52.5
t54.5 21.5t51 -20.5t20 -49.5q0 -31 -23.5 -52.5t-55.5 -21.5z" />
    <glyph glyph-name="aring" unicode="&#xe5;" horiz-adv-x="514" 
d="M310 566q-44 0 -72.5 26t-28.5 69q0 48 32.5 77t77.5 29q43 0 71.5 -26.5t28.5 -68.5q0 -49 -32 -77.5t-77 -28.5zM311 612q24 0 40 15.5t16 41.5q0 23 -13.5 37.5t-36.5 14.5q-24 0 -39.5 -15.5t-15.5 -43.5q0 -23 13 -36.5t36 -13.5zM130 -6q-64 0 -101 34.5t-37 101.5
q0 85 62 133.5t166 48.5q49 0 94 -13l13 56q8 37 -10.5 57.5t-64.5 20.5q-30 0 -52.5 -7.5t-33 -14.5t-30.5 -24h-67l27 117q89 29 184 29q112 0 162.5 -46t29.5 -135l-56 -244q-2 -9 4 -17t15 -8h28l-15 -70q-38 -20 -87 -20q-82 0 -92 68q-58 -67 -139 -67zM189 80
q44 0 84 42l24 105q-38 8 -65 8q-49 0 -76 -26.5t-27 -66.5q0 -62 60 -62z" />
    <glyph glyph-name="ae" unicode="&#xe6;" horiz-adv-x="776" 
d="M601 533q84 0 133 -39t49 -102q0 -94 -85 -132t-260 -46q0 -71 21 -100.5t76 -29.5q67 0 102 52h77l-25 -109q-79 -34 -169 -34q-145 0 -197 93q-68 -92 -182 -92q-72 0 -110.5 36.5t-38.5 105.5q0 82 58 129t160 47q52 0 98 -10l12 53q8 37 -8.5 57.5t-59.5 20.5
q-15 0 -28.5 -2t-22 -4t-19.5 -7.5t-15.5 -8.5t-15 -11t-14.5 -10h-67l26 114q89 29 184 29q115 0 148 -60q72 60 173 60zM189 80q61 0 113 60q-6 29 -6 64v26q-25 5 -74 5q-47 0 -70 -26t-23 -67q0 -62 60 -62zM587 446q-53 0 -89 -42t-51 -111q105 6 152 26.5t47 66.5
q0 27 -15 43.5t-44 16.5z" />
    <glyph glyph-name="ccedilla" unicode="&#xe7;" horiz-adv-x="464" 
d="M144 -175q-47 0 -81 18l13 57h34q9 -15 32 -15q33 0 33 23q0 9 -9 15t-25 6h-19l16 76q-129 41 -129 186q0 149 92 245.5t226 96.5q99 0 168 -33l-26 -113h-74q-10 26 -26.5 39.5t-51.5 13.5q-74 0 -120 -76t-46 -178t88 -102q65 0 100 56h79l-26 -113q-79 -34 -162 -34
q-12 0 -32 2l-3 -20q33 -2 50.5 -19t17.5 -45q0 -40 -32.5 -63t-86.5 -23z" />
    <glyph glyph-name="egrave" unicode="&#xe8;" horiz-adv-x="491" 
d="M287 562l-87 88l12 50h125l27 -138h-77zM233 -7q-108 0 -165 56t-57 155q0 136 90.5 232.5t214.5 96.5q84 0 133 -39t49 -102q0 -50 -23 -84.5t-70 -55t-107.5 -31t-144.5 -14.5q0 -123 88 -123q70 0 112 56h77l-26 -113q-72 -34 -171 -34zM162 289q104 7 151.5 29
t47.5 68q0 27 -15 43.5t-44 16.5q-53 0 -89.5 -44t-50.5 -113z" />
    <glyph glyph-name="eacute" unicode="&#xe9;" horiz-adv-x="491" 
d="M274 562l49 138h147l-12 -50l-102 -88h-82zM233 -7q-108 0 -165 56t-57 155q0 136 90.5 232.5t214.5 96.5q84 0 133 -39t49 -102q0 -50 -23 -84.5t-70 -55t-107.5 -31t-144.5 -14.5q0 -123 88 -123q70 0 112 56h77l-26 -113q-72 -34 -171 -34zM162 289q104 7 151.5 29
t47.5 68q0 27 -15 43.5t-44 16.5q-53 0 -89.5 -44t-50.5 -113z" />
    <glyph glyph-name="ecircumflex" unicode="&#xea;" horiz-adv-x="491" 
d="M189 562l8 37l87 101h117l54 -101l-8 -37h-51l-66 60l-90 -60h-51zM233 -7q-108 0 -165 56t-57 155q0 136 90.5 232.5t214.5 96.5q84 0 133 -39t49 -102q0 -50 -23 -84.5t-70 -55t-107.5 -31t-144.5 -14.5q0 -123 88 -123q70 0 112 56h77l-26 -113q-72 -34 -171 -34z
M162 289q104 7 151.5 29t47.5 68q0 27 -15 43.5t-44 16.5q-53 0 -89.5 -44t-50.5 -113z" />
    <glyph glyph-name="edieresis" unicode="&#xeb;" horiz-adv-x="491" 
d="M237 567q-30 0 -50 20t-20 50q0 31 23.5 52.5t54.5 21.5t51 -20.5t20 -49.5q0 -31 -23.5 -52.5t-55.5 -21.5zM427 567q-30 0 -50 20t-20 50q0 31 23.5 52.5t54.5 21.5t51 -20.5t20 -49.5q0 -31 -23.5 -52.5t-55.5 -21.5zM233 -7q-108 0 -165 56t-57 155q0 136 90.5 232.5
t214.5 96.5q84 0 133 -39t49 -102q0 -50 -23 -84.5t-70 -55t-107.5 -31t-144.5 -14.5q0 -123 88 -123q70 0 112 56h77l-26 -113q-72 -34 -171 -34zM162 289q104 7 151.5 29t47.5 68q0 27 -15 43.5t-44 16.5q-53 0 -89.5 -44t-50.5 -113z" />
    <glyph glyph-name="igrave" unicode="&#xec;" horiz-adv-x="276" 
d="M100 410q2 9 -3.5 18t-14.5 9h-35l17 78q46 16 104 16q51 0 72.5 -27t9.5 -80l-73 -316q-2 -9 4 -17t15 -8h30l-16 -74q-38 -16 -89 -16q-60 0 -81 33t-8 90zM166 562l-87 88l12 50h125l27 -138h-77z" />
    <glyph glyph-name="iacute" unicode="&#xed;" horiz-adv-x="276" 
d="M100 410q2 9 -3.5 18t-14.5 9h-35l17 78q46 16 104 16q51 0 72.5 -27t9.5 -80l-73 -316q-2 -9 4 -17t15 -8h30l-16 -74q-38 -16 -89 -16q-60 0 -81 33t-8 90zM153 562l49 138h147l-12 -50l-102 -88h-82z" />
    <glyph glyph-name="icircumflex" unicode="&#xee;" horiz-adv-x="276" 
d="M100 410q2 9 -3.5 18t-14.5 9h-35l17 78q46 16 104 16q51 0 72.5 -27t9.5 -80l-73 -316q-2 -9 4 -17t15 -8h30l-16 -74q-38 -16 -89 -16q-60 0 -81 33t-8 90zM68 562l8 37l87 101h117l54 -101l-8 -37h-51l-66 60l-90 -60h-51z" />
    <glyph glyph-name="idieresis" unicode="&#xef;" horiz-adv-x="276" 
d="M100 410q2 9 -3.5 18t-14.5 9h-35l17 78q46 16 104 16q51 0 72.5 -27t9.5 -80l-73 -316q-2 -9 4 -17t15 -8h30l-16 -74q-38 -16 -89 -16q-60 0 -81 33t-8 90zM116 567q-30 0 -50 20t-20 50q0 31 23.5 52.5t54.5 21.5t51 -20.5t20 -49.5q0 -31 -23.5 -52.5t-55.5 -21.5z
M306 567q-30 0 -50 20t-20 50q0 31 23.5 52.5t54.5 21.5t51 -20.5t20 -49.5q0 -31 -23.5 -52.5t-55.5 -21.5z" />
    <glyph glyph-name="eth" unicode="&#xf0;" horiz-adv-x="535" 
d="M169 529l6 24l55 42q-19 7 -38 12l22 93h49q43 -15 67 -27l34 27h74l-5 -24l-46 -36q144 -102 144 -306q0 -163 -83 -251.5t-210 -88.5q-108 0 -168.5 60t-60.5 163q0 123 77.5 206t169.5 83q69 0 107 -38q-25 58 -75 95l-45 -34h-74zM244 85q66 0 104.5 66.5t38.5 156.5
q0 109 -91 109q-65 0 -104.5 -64.5t-39.5 -152.5q0 -115 92 -115z" />
    <glyph glyph-name="ntilde" unicode="&#xf1;" horiz-adv-x="580" 
d="M180 562l16 71q39 62 104 62q26 0 74.5 -11.5t59.5 -11.5q29 0 45 28h69l-17 -71q-38 -64 -105 -64q-26 0 -74 13.5t-59 13.5q-29 0 -44 -30h-69zM64 515q46 16 99 16q89 0 83 -95q105 97 204 97q65 0 89.5 -37.5t10.5 -97.5l-67 -290q-2 -9 4 -17t15 -8h28l-16 -74
q-38 -16 -86 -16q-60 0 -81 33t-8 90l57 249q12 56 -32 56q-58 0 -131 -53l-84 -368h-115q-14 0 -21 10t-3 25l86 375q2 9 -3.5 18t-14.5 9h-31z" />
    <glyph glyph-name="ograve" unicode="&#xf2;" horiz-adv-x="538" 
d="M284 562l-87 88l12 50h125l27 -138h-77zM238 -6q-108 0 -168.5 60t-60.5 163q0 141 86.5 228.5t205.5 87.5q108 0 168 -60t60 -163q0 -142 -83.5 -229t-207.5 -87zM244 85q65 0 104 69.5t39 167.5q0 115 -91 115q-63 0 -103.5 -70.5t-40.5 -166.5q0 -115 92 -115z" />
    <glyph glyph-name="oacute" unicode="&#xf3;" horiz-adv-x="538" 
d="M271 562l49 138h147l-12 -50l-102 -88h-82zM238 -6q-108 0 -168.5 60t-60.5 163q0 141 86.5 228.5t205.5 87.5q108 0 168 -60t60 -163q0 -142 -83.5 -229t-207.5 -87zM244 85q65 0 104 69.5t39 167.5q0 115 -91 115q-63 0 -103.5 -70.5t-40.5 -166.5q0 -115 92 -115z" />
    <glyph glyph-name="ocircumflex" unicode="&#xf4;" horiz-adv-x="538" 
d="M186 562l8 37l87 101h117l54 -101l-8 -37h-51l-66 60l-90 -60h-51zM238 -6q-108 0 -168.5 60t-60.5 163q0 141 86.5 228.5t205.5 87.5q108 0 168 -60t60 -163q0 -142 -83.5 -229t-207.5 -87zM244 85q65 0 104 69.5t39 167.5q0 115 -91 115q-63 0 -103.5 -70.5
t-40.5 -166.5q0 -115 92 -115z" />
    <glyph glyph-name="otilde" unicode="&#xf5;" horiz-adv-x="538" 
d="M148 562l16 71q39 62 104 62q26 0 74.5 -11.5t59.5 -11.5q29 0 45 28h69l-17 -71q-38 -64 -105 -64q-26 0 -74 13.5t-59 13.5q-29 0 -44 -30h-69zM238 -6q-108 0 -168.5 60t-60.5 163q0 141 86.5 228.5t205.5 87.5q108 0 168 -60t60 -163q0 -142 -83.5 -229t-207.5 -87z
M244 85q65 0 104 69.5t39 167.5q0 115 -91 115q-63 0 -103.5 -70.5t-40.5 -166.5q0 -115 92 -115z" />
    <glyph glyph-name="odieresis" unicode="&#xf6;" horiz-adv-x="538" 
d="M234 567q-30 0 -50 20t-20 50q0 31 23.5 52.5t54.5 21.5t51 -20.5t20 -49.5q0 -31 -23.5 -52.5t-55.5 -21.5zM424 567q-30 0 -50 20t-20 50q0 31 23.5 52.5t54.5 21.5t51 -20.5t20 -49.5q0 -31 -23.5 -52.5t-55.5 -21.5zM238 -6q-108 0 -168.5 60t-60.5 163
q0 141 86.5 228.5t205.5 87.5q108 0 168 -60t60 -163q0 -142 -83.5 -229t-207.5 -87zM244 85q65 0 104 69.5t39 167.5q0 115 -91 115q-63 0 -103.5 -70.5t-40.5 -166.5q0 -115 92 -115z" />
    <glyph glyph-name="divide" unicode="&#xf7;" horiz-adv-x="509" 
d="M22 288l27 115h477l-27 -115h-477zM238 86q-34 0 -56 22.5t-22 55.5q0 35 26 59t61 24q34 0 56.5 -23t22.5 -55q0 -35 -26.5 -59t-61.5 -24zM301 444q-34 0 -56 22.5t-22 55.5q0 35 26 59t61 24q34 0 56.5 -23t22.5 -55q0 -35 -26.5 -59t-61.5 -24z" />
    <glyph glyph-name="oslash" unicode="&#xf8;" horiz-adv-x="538" 
d="M-33 -29l89 98q-47 58 -47 149q0 138 86.5 226.5t205.5 88.5q84 0 142 -39l47 52h82l-85 -94q42 -58 42 -142q0 -139 -84 -227.5t-207 -88.5q-81 0 -136 35l-53 -58h-82zM151 173l214 236q-25 28 -67 28q-65 0 -107 -71.5t-42 -165.5zM244 85q67 0 106.5 70.5t39.5 167.5
l-1 21l-212 -233q24 -26 67 -26z" />
    <glyph glyph-name="ugrave" unicode="&#xf9;" horiz-adv-x="576" 
d="M314 562l-87 88l12 50h125l27 -138h-77zM510 9q-38 -16 -88 -16q-49 0 -72 20t-22 63q-89 -84 -184 -84q-69 0 -97 45t-12 116l59 257q2 9 -3.5 18t-14.5 9h-29l17 78q49 17 97 17q54 0 73 -33.5t6 -89.5l-57 -249q-13 -60 37 -60q51 0 119 46l87 379h115q14 0 21 -10
t3 -25l-88 -382q-2 -9 4 -17t15 -8h30z" />
    <glyph glyph-name="uacute" unicode="&#xfa;" horiz-adv-x="576" 
d="M301 562l49 138h147l-12 -50l-102 -88h-82zM510 9q-38 -16 -88 -16q-49 0 -72 20t-22 63q-89 -84 -184 -84q-69 0 -97 45t-12 116l59 257q2 9 -3.5 18t-14.5 9h-29l17 78q49 17 97 17q54 0 73 -33.5t6 -89.5l-57 -249q-13 -60 37 -60q51 0 119 46l87 379h115q14 0 21 -10
t3 -25l-88 -382q-2 -9 4 -17t15 -8h30z" />
    <glyph glyph-name="ucircumflex" unicode="&#xfb;" horiz-adv-x="576" 
d="M216 562l8 37l87 101h117l54 -101l-8 -37h-51l-66 60l-90 -60h-51zM510 9q-38 -16 -88 -16q-49 0 -72 20t-22 63q-89 -84 -184 -84q-69 0 -97 45t-12 116l59 257q2 9 -3.5 18t-14.5 9h-29l17 78q49 17 97 17q54 0 73 -33.5t6 -89.5l-57 -249q-13 -60 37 -60q51 0 119 46
l87 379h115q14 0 21 -10t3 -25l-88 -382q-2 -9 4 -17t15 -8h30z" />
    <glyph glyph-name="udieresis" unicode="&#xfc;" horiz-adv-x="576" 
d="M264 567q-30 0 -50 20t-20 50q0 31 23.5 52.5t54.5 21.5t51 -20.5t20 -49.5q0 -31 -23.5 -52.5t-55.5 -21.5zM454 567q-30 0 -50 20t-20 50q0 31 23.5 52.5t54.5 21.5t51 -20.5t20 -49.5q0 -31 -23.5 -52.5t-55.5 -21.5zM510 9q-38 -16 -88 -16q-49 0 -72 20t-22 63
q-89 -84 -184 -84q-69 0 -97 45t-12 116l59 257q2 9 -3.5 18t-14.5 9h-29l17 78q49 17 97 17q54 0 73 -33.5t6 -89.5l-57 -249q-13 -60 37 -60q51 0 119 46l87 379h115q14 0 21 -10t3 -25l-88 -382q-2 -9 4 -17t15 -8h30z" />
    <glyph glyph-name="yacute" unicode="&#xfd;" horiz-adv-x="561" 
d="M426 525h115q14 0 21 -10t3 -25l-109 -471q-23 -100 -92.5 -145.5t-193.5 -45.5q-114 0 -190 28l26 107h84q24 -49 92 -49q105 0 126 91l20 88q-80 -71 -174 -71q-70 0 -100 42t-14 111l54 235q2 9 -3.5 18t-14.5 9h-29l17 78q49 17 97 17q54 0 73 -33.5t6 -89.5
l-52 -227q-13 -60 37 -60q52 0 120 46zM293 562l49 138h147l-12 -50l-102 -88h-82z" />
    <glyph glyph-name="thorn" unicode="&#xfe;" horiz-adv-x="560" 
d="M110 -84h67l-18 -78h-273l18 78h35q9 0 19 8t12 17l147 646q2 8 -4 17.5t-15 9.5h-31l20 86h177q25 0 17 -34l-49 -216q80 84 175 84q67 0 107.5 -45t40.5 -133q0 -67 -23 -139.5t-68 -122.5q-74 -84 -189 -84q-85 0 -134 43zM334 430q-61 0 -118 -50l-61 -266
q34 -19 85 -19q83 0 126.5 70t43.5 169q0 46 -20.5 71t-55.5 25z" />
    <glyph glyph-name="ydieresis" unicode="&#xff;" horiz-adv-x="561" 
d="M426 525h115q14 0 21 -10t3 -25l-109 -471q-23 -100 -92.5 -145.5t-193.5 -45.5q-114 0 -190 28l26 107h84q24 -49 92 -49q105 0 126 91l20 88q-80 -71 -174 -71q-70 0 -100 42t-14 111l54 235q2 9 -3.5 18t-14.5 9h-29l17 78q49 17 97 17q54 0 73 -33.5t6 -89.5
l-52 -227q-13 -60 37 -60q52 0 120 46zM256 567q-30 0 -50 20t-20 50q0 31 23.5 52.5t54.5 21.5t51 -20.5t20 -49.5q0 -31 -23.5 -52.5t-55.5 -21.5zM446 567q-30 0 -50 20t-20 50q0 31 23.5 52.5t54.5 21.5t51 -20.5t20 -49.5q0 -31 -23.5 -52.5t-55.5 -21.5z" />
    <glyph glyph-name="Amacron" unicode="&#x100;" horiz-adv-x="717" 
d="M305 760l22 94h266l-22 -94h-266zM-50 0l19 83h22q28 0 46 31l270 469q18 31 -6 31h-58l20 86h295l56 -589q2 -12 10 -20t18 -8h24l-19 -83h-295l19 83h91l-11 133h-238l-24 -43q-50 -90 13 -90h40l-19 -83h-273zM421 592l-160 -289h184l-22 289h-2z" />
    <glyph glyph-name="amacron" unicode="&#x101;" horiz-adv-x="514" 
d="M180 585l22 94h266l-22 -94h-266zM130 -6q-64 0 -101 34.5t-37 101.5q0 85 62 133.5t166 48.5q49 0 94 -13l13 56q8 37 -10.5 57.5t-64.5 20.5q-30 0 -52.5 -7.5t-33 -14.5t-30.5 -24h-67l27 117q89 29 184 29q112 0 162.5 -46t29.5 -135l-56 -244q-2 -9 4 -17t15 -8h28
l-15 -70q-38 -20 -87 -20q-82 0 -92 68q-58 -67 -139 -67zM189 80q44 0 84 42l24 105q-38 8 -65 8q-49 0 -76 -26.5t-27 -66.5q0 -62 60 -62z" />
    <glyph glyph-name="Abreve" unicode="&#x102;" horiz-adv-x="717" 
d="M446 737q-55 0 -87 27.5t-39 64.5l11 46h78q2 -43 45 -43q42 0 57 43h86l-13 -56q-47 -82 -138 -82zM-50 0l19 83h22q28 0 46 31l270 469q18 31 -6 31h-58l20 86h295l56 -589q2 -12 10 -20t18 -8h24l-19 -83h-295l19 83h91l-11 133h-238l-24 -43q-50 -90 13 -90h40
l-19 -83h-273zM421 592l-160 -289h184l-22 289h-2z" />
    <glyph glyph-name="abreve" unicode="&#x103;" horiz-adv-x="514" 
d="M294 562q-55 0 -87 27.5t-39 64.5l11 46h78q2 -43 45 -43q42 0 57 43h86l-13 -56q-47 -82 -138 -82zM130 -6q-64 0 -101 34.5t-37 101.5q0 85 62 133.5t166 48.5q49 0 94 -13l13 56q8 37 -10.5 57.5t-64.5 20.5q-30 0 -52.5 -7.5t-33 -14.5t-30.5 -24h-67l27 117
q89 29 184 29q112 0 162.5 -46t29.5 -135l-56 -244q-2 -9 4 -17t15 -8h28l-15 -70q-38 -20 -87 -20q-82 0 -92 68q-58 -67 -139 -67zM189 80q44 0 84 42l24 105q-38 8 -65 8q-49 0 -76 -26.5t-27 -66.5q0 -62 60 -62z" />
    <glyph glyph-name="Aogonek" unicode="&#x104;" horiz-adv-x="717" 
d="M532 -165q-42 0 -64 18t-22 49q0 64 100 98h-194l19 83h91l-11 133h-238l-24 -43q-50 -90 13 -90h40l-19 -83h-273l19 83h22q28 0 46 31l270 469q18 31 -6 31h-58l20 86h295l56 -589q2 -12 10 -20t18 -8h24l-19 -83h-38q-19 -16 -25 -21.5t-14 -17t-8 -22.5q0 -23 36 -23
h19l-15 -64q-34 -17 -70 -17zM421 592l-160 -289h184l-22 289h-2z" />
    <glyph glyph-name="aogonek" unicode="&#x105;" horiz-adv-x="514" 
d="M346 -165q-42 0 -64 18t-22 49q0 55 86 92q-67 5 -77 67q-58 -67 -139 -67q-63 0 -100.5 37t-37.5 105q0 81 62 128.5t166 47.5q52 0 94 -14l13 57q8 37 -10.5 57.5t-64.5 20.5q-30 0 -52.5 -7.5t-33 -14.5t-30.5 -24h-67l27 117q89 29 184 29q112 0 162.5 -46t29.5 -135
l-56 -244q-2 -9 4 -17t15 -8h28l-15 -70q-72 -41 -72 -74q0 -23 36 -23h19l-15 -64q-34 -17 -70 -17zM189 80q44 0 84 42l24 105q-38 8 -65 8q-49 0 -76 -26.5t-27 -66.5q0 -62 60 -62z" />
    <glyph glyph-name="Cacute" unicode="&#x106;" horiz-adv-x="612" 
d="M418 747l49 138h147l-12 -50l-102 -88h-82zM317 -8q-136 0 -210 73t-74 202q0 186 120.5 313.5t300.5 127.5q61 0 93 -8h139l-52 -226h-101l4 115q-40 17 -81 17q-114 0 -190 -92t-76 -248q0 -175 139 -175q55 0 92 18.5t76 57.5h75l-27 -115q-95 -60 -228 -60z" />
    <glyph glyph-name="cacute" unicode="&#x107;" horiz-adv-x="464" 
d="M282 562l49 138h147l-12 -50l-102 -88h-82zM230 -7q-108 0 -164.5 53t-56.5 145q0 149 92 245.5t226 96.5q99 0 168 -33l-26 -113h-74q-10 26 -26.5 39.5t-51.5 13.5q-74 0 -120 -76t-46 -178t88 -102q65 0 100 56h79l-26 -113q-79 -34 -162 -34z" />
    <glyph glyph-name="Ccircumflex" unicode="&#x108;" horiz-adv-x="612" 
d="M317 -8q-136 0 -210 73t-74 202q0 186 120.5 313.5t300.5 127.5q61 0 93 -8h139l-52 -226h-101l4 115q-40 17 -81 17q-114 0 -190 -92t-76 -248q0 -175 139 -175q55 0 92 18.5t76 57.5h75l-27 -115q-95 -60 -228 -60zM333 747l8 37l87 101h117l54 -101l-8 -37h-51l-66 60
l-90 -60h-51z" />
    <glyph glyph-name="ccircumflex" unicode="&#x109;" horiz-adv-x="464" 
d="M230 -7q-108 0 -164.5 53t-56.5 145q0 149 92 245.5t226 96.5q99 0 168 -33l-26 -113h-74q-10 26 -26.5 39.5t-51.5 13.5q-74 0 -120 -76t-46 -178t88 -102q65 0 100 56h79l-26 -113q-79 -34 -162 -34zM197 562l8 37l87 101h117l54 -101l-8 -37h-51l-66 60l-90 -60h-51z
" />
    <glyph glyph-name="Cdotaccent" unicode="&#x10a;" horiz-adv-x="612" 
d="M465 752q-32 0 -53 21.5t-21 52.5q0 33 24.5 56t58.5 23q32 0 53.5 -21.5t21.5 -52.5q0 -34 -25 -56.5t-59 -22.5zM317 -8q-136 0 -210 73t-74 202q0 186 120.5 313.5t300.5 127.5q61 0 93 -8h139l-52 -226h-101l4 115q-40 17 -81 17q-114 0 -190 -92t-76 -248
q0 -175 139 -175q55 0 92 18.5t76 57.5h75l-27 -115q-95 -60 -228 -60z" />
    <glyph glyph-name="cdotaccent" unicode="&#x10b;" horiz-adv-x="464" 
d="M329 567q-32 0 -53 21.5t-21 52.5q0 33 24.5 56t58.5 23q32 0 53.5 -21.5t21.5 -52.5q0 -34 -25 -56.5t-59 -22.5zM230 -7q-108 0 -164.5 53t-56.5 145q0 149 92 245.5t226 96.5q99 0 168 -33l-26 -113h-74q-10 26 -26.5 39.5t-51.5 13.5q-74 0 -120 -76t-46 -178
t88 -102q65 0 100 56h79l-26 -113q-79 -34 -162 -34z" />
    <glyph glyph-name="Ccaron" unicode="&#x10c;" horiz-adv-x="612" 
d="M623 885l-8 -37l-87 -101h-117l-54 101l8 37h51l66 -60l90 60h51zM317 -8q-136 0 -210 73t-74 202q0 186 120.5 313.5t300.5 127.5q61 0 93 -8h139l-52 -226h-101l4 115q-40 17 -81 17q-114 0 -190 -92t-76 -248q0 -175 139 -175q55 0 92 18.5t76 57.5h75l-27 -115
q-95 -60 -228 -60z" />
    <glyph glyph-name="ccaron" unicode="&#x10d;" horiz-adv-x="464" 
d="M487 700l-8 -37l-87 -101h-117l-54 101l8 37h51l66 -60l90 60h51zM230 -7q-108 0 -164.5 53t-56.5 145q0 149 92 245.5t226 96.5q99 0 168 -33l-26 -113h-74q-10 26 -26.5 39.5t-51.5 13.5q-74 0 -120 -76t-46 -178t88 -102q65 0 100 56h79l-26 -113q-79 -34 -162 -34z
" />
    <glyph glyph-name="Dcaron" unicode="&#x10e;" horiz-adv-x="685" 
d="M547 875l-8 -37l-87 -101h-117l-54 101l8 37h51l66 -60l90 60h51zM-48 0l19 83h38q11 0 22.5 10.5t13.5 20.5l107 469q2 12 -2 21.5t-15 9.5h-43l20 86h268q151 0 233 -72t82 -210q0 -194 -116.5 -306t-318.5 -112h-308zM195 87h74q126 0 198 91t72 252q0 178 -179 178
h-46z" />
    <glyph glyph-name="dcaron" unicode="&#x10f;" horiz-adv-x="577" 
d="M612 556l43 144h110l-11 -50l-68 -94h-74zM159 -8q-71 0 -112.5 44.5t-41.5 129.5q0 68 25.5 144t70.5 128q83 95 194 95q83 0 126 -46l30 127h-68l20 86h189q25 0 17 -34l-129 -558q-2 -9 4 -17t15 -8h28l-16 -74q-38 -16 -71 -16q-96 0 -104 82q-74 -83 -177 -83z
M218 84q60 0 125 61l62 272q-29 20 -79 20q-85 0 -130.5 -77.5t-45.5 -195.5q0 -80 68 -80z" />
    <glyph glyph-name="Dcroat" unicode="&#x110;" horiz-adv-x="685" 
d="M21 302l20 87h67l44 194q2 12 -2 21.5t-15 9.5h-43l20 86h268q151 0 233 -72t82 -210q0 -194 -116.5 -306t-318.5 -112h-308l19 83h38q11 0 22.5 10.5t13.5 20.5l43 188h-67zM195 87h74q126 0 198 91t72 252q0 178 -179 178h-46l-50 -219h143l-20 -87h-143z" />
    <glyph glyph-name="dcroat" unicode="&#x111;" horiz-adv-x="577" 
d="M440 -7q-96 0 -104 82q-74 -83 -177 -83q-71 0 -112.5 44.5t-41.5 129.5q0 68 25.5 144t70.5 128q83 95 194 95q83 0 126 -46l17 72h-92l17 73h92l16 68h121q25 0 17 -34l-8 -34h56l-17 -73h-56l-104 -451q-2 -9 4 -17t15 -8h28l-16 -74q-38 -16 -71 -16zM218 84
q60 0 125 61l62 272q-29 20 -79 20q-85 0 -130.5 -77.5t-45.5 -195.5q0 -80 68 -80z" />
    <glyph glyph-name="Emacron" unicode="&#x112;" horiz-adv-x="581" 
d="M275 760l22 94h266l-22 -94h-266zM-48 0l19 83h38q11 0 22.5 10.5t13.5 20.5l107 469q2 12 -2 21.5t-15 9.5h-43l20 86h547l-46 -200h-94l8 107h-213l-48 -208h93l27 80h90l-57 -247h-88l9 80h-94l-51 -222h223l42 123h99l-48 -213h-559z" />
    <glyph glyph-name="emacron" unicode="&#x113;" horiz-adv-x="491" 
d="M191 585l22 94h266l-22 -94h-266zM233 -7q-108 0 -165 56t-57 155q0 136 90.5 232.5t214.5 96.5q84 0 133 -39t49 -102q0 -50 -23 -84.5t-70 -55t-107.5 -31t-144.5 -14.5q0 -123 88 -123q70 0 112 56h77l-26 -113q-72 -34 -171 -34zM162 289q104 7 151.5 29t47.5 68
q0 27 -15 43.5t-44 16.5q-53 0 -89.5 -44t-50.5 -113z" />
    <glyph glyph-name="Ebreve" unicode="&#x114;" horiz-adv-x="581" 
d="M-48 0l19 83h38q11 0 22.5 10.5t13.5 20.5l107 469q2 12 -2 21.5t-15 9.5h-43l20 86h547l-46 -200h-94l8 107h-213l-48 -208h93l27 80h90l-57 -247h-88l9 80h-94l-51 -222h223l42 123h99l-48 -213h-559zM402 742q-55 0 -87 27.5t-39 64.5l11 46h78q2 -43 45 -43
q42 0 57 43h86l-13 -56q-47 -82 -138 -82z" />
    <glyph glyph-name="ebreve" unicode="&#x115;" horiz-adv-x="491" 
d="M233 -7q-108 0 -165 56t-57 155q0 136 90.5 232.5t214.5 96.5q84 0 133 -39t49 -102q0 -50 -23 -84.5t-70 -55t-107.5 -31t-144.5 -14.5q0 -123 88 -123q70 0 112 56h77l-26 -113q-72 -34 -171 -34zM162 289q104 7 151.5 29t47.5 68q0 27 -15 43.5t-44 16.5
q-53 0 -89.5 -44t-50.5 -113zM308 562q-55 0 -87 27.5t-39 64.5l11 46h78q2 -43 45 -43q42 0 57 43h86l-13 -56q-47 -82 -138 -82z" />
    <glyph glyph-name="Edotaccent" unicode="&#x116;" horiz-adv-x="581" 
d="M405 742q-32 0 -53 21.5t-21 52.5q0 33 24.5 56t58.5 23q32 0 53.5 -21.5t21.5 -52.5q0 -34 -25 -56.5t-59 -22.5zM-48 0l19 83h38q11 0 22.5 10.5t13.5 20.5l107 469q2 12 -2 21.5t-15 9.5h-43l20 86h547l-46 -200h-94l8 107h-213l-48 -208h93l27 80h90l-57 -247h-88
l9 80h-94l-51 -222h223l42 123h99l-48 -213h-559z" />
    <glyph glyph-name="edotaccent" unicode="&#x117;" horiz-adv-x="491" 
d="M321 567q-32 0 -53 21.5t-21 52.5q0 33 24.5 56t58.5 23q32 0 53.5 -21.5t21.5 -52.5q0 -34 -25 -56.5t-59 -22.5zM233 -7q-108 0 -165 56t-57 155q0 136 90.5 232.5t214.5 96.5q84 0 133 -39t49 -102q0 -50 -23 -84.5t-70 -55t-107.5 -31t-144.5 -14.5q0 -123 88 -123
q70 0 112 56h77l-26 -113q-72 -34 -171 -34zM162 289q104 7 151.5 29t47.5 68q0 27 -15 43.5t-44 16.5q-53 0 -89.5 -44t-50.5 -113z" />
    <glyph glyph-name="Eogonek" unicode="&#x118;" horiz-adv-x="581" 
d="M-48 0l19 83h38q11 0 22.5 10.5t13.5 20.5l107 469q2 12 -2 21.5t-15 9.5h-43l20 86h547l-46 -200h-94l8 107h-213l-48 -208h93l27 80h90l-57 -247h-88l9 80h-94l-51 -222h223l42 123h99l-48 -213h-33q-19 -16 -25 -21.5t-14 -17t-8 -22.5q0 -23 36 -23h19l-15 -64
q-34 -17 -70 -17q-42 0 -64 18t-22 49q0 64 100 98h-463z" />
    <glyph glyph-name="eogonek" unicode="&#x119;" horiz-adv-x="491" 
d="M290 -165q-42 0 -64 18t-22 49q0 62 85 94q-25 -3 -56 -3q-108 0 -165 56t-57 155q0 140 90 234.5t215 94.5q84 0 133 -39t49 -102q0 -50 -23 -84.5t-70 -55t-107.5 -31t-144.5 -14.5q0 -123 88 -123q70 0 112 56h77l-26 -113q-40 -25 -62 -45.5t-22 -42.5q0 -23 36 -23
h19l-15 -64q-34 -17 -70 -17zM162 289q104 7 151.5 29t47.5 68q0 27 -15 43.5t-44 16.5q-54 0 -90 -43t-50 -114z" />
    <glyph glyph-name="Ecaron" unicode="&#x11a;" horiz-adv-x="581" 
d="M-48 0l19 83h38q11 0 22.5 10.5t13.5 20.5l107 469q2 12 -2 21.5t-15 9.5h-43l20 86h547l-46 -200h-94l8 107h-213l-48 -208h93l27 80h90l-57 -247h-88l9 80h-94l-51 -222h223l42 123h99l-48 -213h-559zM563 875l-8 -37l-87 -101h-117l-54 101l8 37h51l66 -60l90 60h51z
" />
    <glyph glyph-name="ecaron" unicode="&#x11b;" horiz-adv-x="491" 
d="M479 700l-8 -37l-87 -101h-117l-54 101l8 37h51l66 -60l90 60h51zM233 -7q-108 0 -165 56t-57 155q0 136 90.5 232.5t214.5 96.5q84 0 133 -39t49 -102q0 -50 -23 -84.5t-70 -55t-107.5 -31t-144.5 -14.5q0 -123 88 -123q70 0 112 56h77l-26 -113q-72 -34 -171 -34z
M162 289q104 7 151.5 29t47.5 68q0 27 -15 43.5t-44 16.5q-53 0 -89.5 -44t-50.5 -113z" />
    <glyph glyph-name="Gcircumflex" unicode="&#x11c;" horiz-adv-x="660" 
d="M330 747l8 37l87 101h117l54 -101l-8 -37h-51l-66 60l-90 -60h-51zM298 -8q-127 0 -196 71t-69 200q0 185 121.5 315t297.5 130q70 0 102 -8h137l-51 -220h-102l5 108q-38 18 -90 18q-111 0 -187 -92t-76 -248q0 -91 32.5 -133t100.5 -42q47 0 87 12l32 144h-69l20 86
h275l-20 -86h-24q-11 0 -22 -10.5t-13 -20.5l-50 -216h-82q-6 22 -23 22q-27 -12 -41.5 -17t-38.5 -9t-56 -4z" />
    <glyph glyph-name="gcircumflex" unicode="&#x11d;" horiz-adv-x="470" 
d="M186 562l8 37l87 101h117l54 -101l-8 -37h-51l-66 60l-90 -60h-51zM157 -175q-107 0 -163.5 31.5t-56.5 81.5q0 46 32.5 72t90.5 43q-17 9 -28 27t-11 40q0 65 93 110q-62 40 -62 114q0 85 65 137t152 52q33 0 63 -8h184l-20 -88h-21q-7 0 -15 -5.5t-11 -12.5
q5 -20 5 -37q0 -85 -64 -135t-152 -50q-44 0 -85 13q-22 -19 -22 -36q0 -29 39 -29h120q70 0 105 -33t35 -87q0 -90 -64.5 -145t-208.5 -55zM232 26h-142q-25 -28 -25 -60q0 -24 23 -39.5t72 -15.5q69 0 101 20.5t32 52.5q0 42 -61 42zM237 272q36 0 63 32t27 86
q0 29 -16 45.5t-44 16.5q-36 0 -62 -32t-26 -87q0 -28 14.5 -44.5t43.5 -16.5z" />
    <glyph glyph-name="Gbreve" unicode="&#x11e;" horiz-adv-x="660" 
d="M298 -8q-127 0 -196 71t-69 200q0 185 121.5 315t297.5 130q70 0 102 -8h137l-51 -220h-102l5 108q-38 18 -90 18q-111 0 -187 -92t-76 -248q0 -91 32.5 -133t100.5 -42q47 0 87 12l32 144h-69l20 86h275l-20 -86h-24q-11 0 -22 -10.5t-13 -20.5l-50 -216h-82
q-6 22 -23 22q-27 -12 -41.5 -17t-38.5 -9t-56 -4zM446 747q-55 0 -87 27.5t-39 64.5l11 46h78q2 -43 45 -43q42 0 57 43h86l-13 -56q-47 -82 -138 -82z" />
    <glyph glyph-name="gbreve" unicode="&#x11f;" horiz-adv-x="470" 
d="M302 562q-55 0 -87 27.5t-39 64.5l11 46h78q2 -43 45 -43q42 0 57 43h86l-13 -56q-47 -82 -138 -82zM157 -175q-107 0 -163.5 31.5t-56.5 81.5q0 46 32.5 72t90.5 43q-17 9 -28 27t-11 40q0 65 93 110q-62 40 -62 114q0 85 65 137t152 52q33 0 63 -8h184l-20 -88h-21
q-7 0 -15 -5.5t-11 -12.5q5 -20 5 -37q0 -85 -64 -135t-152 -50q-44 0 -85 13q-22 -19 -22 -36q0 -29 39 -29h120q70 0 105 -33t35 -87q0 -90 -64.5 -145t-208.5 -55zM232 26h-142q-25 -28 -25 -60q0 -24 23 -39.5t72 -15.5q69 0 101 20.5t32 52.5q0 42 -61 42zM237 272
q36 0 63 32t27 86q0 29 -16 45.5t-44 16.5q-36 0 -62 -32t-26 -87q0 -28 14.5 -44.5t43.5 -16.5z" />
    <glyph glyph-name="Gdotaccent" unicode="&#x120;" horiz-adv-x="660" 
d="M462 752q-32 0 -53 21.5t-21 52.5q0 33 24.5 56t58.5 23q32 0 53.5 -21.5t21.5 -52.5q0 -34 -25 -56.5t-59 -22.5zM298 -8q-127 0 -196 71t-69 200q0 185 121.5 315t297.5 130q70 0 102 -8h137l-51 -220h-102l5 108q-38 18 -90 18q-111 0 -187 -92t-76 -248
q0 -91 32.5 -133t100.5 -42q47 0 87 12l32 144h-69l20 86h275l-20 -86h-24q-11 0 -22 -10.5t-13 -20.5l-50 -216h-82q-6 22 -23 22q-27 -12 -41.5 -17t-38.5 -9t-56 -4z" />
    <glyph glyph-name="gdotaccent" unicode="&#x121;" horiz-adv-x="470" 
d="M318 567q-32 0 -53 21.5t-21 52.5q0 33 24.5 56t58.5 23q32 0 53.5 -21.5t21.5 -52.5q0 -34 -25 -56.5t-59 -22.5zM157 -175q-107 0 -163.5 31.5t-56.5 81.5q0 46 32.5 72t90.5 43q-17 9 -28 27t-11 40q0 65 93 110q-62 40 -62 114q0 85 65 137t152 52q33 0 63 -8h184
l-20 -88h-21q-7 0 -15 -5.5t-11 -12.5q5 -20 5 -37q0 -85 -64 -135t-152 -50q-44 0 -85 13q-22 -19 -22 -36q0 -29 39 -29h120q70 0 105 -33t35 -87q0 -90 -64.5 -145t-208.5 -55zM232 26h-142q-25 -28 -25 -60q0 -24 23 -39.5t72 -15.5q69 0 101 20.5t32 52.5q0 42 -61 42z
M237 272q36 0 63 32t27 86q0 29 -16 45.5t-44 16.5q-36 0 -62 -32t-26 -87q0 -28 14.5 -44.5t43.5 -16.5z" />
    <glyph glyph-name="Gcommaaccent" unicode="&#x122;" horiz-adv-x="660" 
d="M298 -8q-127 0 -196 71t-69 200q0 185 121.5 315t297.5 130q70 0 102 -8h137l-51 -220h-102l5 108q-38 18 -90 18q-111 0 -187 -92t-76 -248q0 -91 32.5 -133t100.5 -42q47 0 87 12l32 144h-69l20 86h275l-20 -86h-24q-11 0 -22 -10.5t-13 -20.5l-50 -216h-82
q-6 22 -23 22q-27 -12 -41.5 -17t-38.5 -9t-56 -4zM179 -166q57 5 57 27q0 3 -1.5 5.5t-2.5 4t-5.5 4.5t-6.5 5q-19 14 -19 38q0 28 19 46t45 18q27 0 45 -18t18 -48q0 -64 -42.5 -98t-117.5 -37z" />
    <glyph glyph-name="gcommaaccent" unicode="&#x123;" horiz-adv-x="470" 
d="M301 567q-27 0 -45 18t-18 48q0 64 42.5 98t117.5 37l-11 -53q-57 -5 -57 -27q0 -7 9 -13t17.5 -16t8.5 -28q0 -28 -19 -46t-45 -18zM157 -175q-107 0 -163.5 31.5t-56.5 81.5q0 46 32.5 72t90.5 43q-17 9 -28 27t-11 40q0 65 93 110q-62 40 -62 114q0 85 65 137t152 52
q33 0 63 -8h184l-20 -88h-21q-7 0 -15 -5.5t-11 -12.5q5 -20 5 -37q0 -85 -64 -135t-152 -50q-44 0 -85 13q-22 -19 -22 -36q0 -29 39 -29h120q70 0 105 -33t35 -87q0 -90 -64.5 -145t-208.5 -55zM232 26h-142q-25 -28 -25 -60q0 -24 23 -39.5t72 -15.5q69 0 101 20.5
t32 52.5q0 42 -61 42zM237 272q36 0 63 32t27 86q0 29 -16 45.5t-44 16.5q-36 0 -62 -32t-26 -87q0 -28 14.5 -44.5t43.5 -16.5z" />
    <glyph glyph-name="Hcircumflex" unicode="&#x124;" horiz-adv-x="726" 
d="M343 737l8 37l87 101h117l54 -101l-8 -37h-51l-66 60l-90 -60h-51zM-48 0l19 83h38q11 0 22.5 10.5t13.5 20.5l107 469q2 12 -2 21.5t-15 9.5h-43l20 86h302l-20 -86h-79l-48 -212h257l48 212h-79l20 86h303l-20 -86h-39q-11 0 -22.5 -10t-13.5 -21l-107 -469
q-3 -11 2 -21t15 -10h44l-19 -83h-303l19 83h79l52 230h-257l-52 -230h79l-19 -83h-302z" />
    <glyph glyph-name="hcircumflex" unicode="&#x125;" horiz-adv-x="580" 
d="M245 715l8 37l87 101h117l54 -101l-8 -37h-51l-66 60l-90 -60h-51zM137 587q2 8 -4 17.5t-15 9.5h-31l20 86h177q25 0 17 -34l-52 -226q105 93 201 93q65 0 89.5 -37.5t10.5 -97.5l-67 -290q-2 -9 4 -17t15 -8h28l-16 -74q-38 -16 -86 -16q-60 0 -81 33t-8 90l57 249
q12 56 -32 56q-58 0 -131 -53l-84 -368h-115q-14 0 -21 10t-3 25z" />
    <glyph glyph-name="Hbar" unicode="&#x126;" horiz-adv-x="726" 
d="M353 0l19 83h79l52 230h-257l-52 -230h79l-19 -83h-302l19 83h38q11 0 22.5 10.5t13.5 20.5l83 364h-71l15 63h70l10 42q2 12 -2 21.5t-15 9.5h-43l20 86h302l-20 -86h-79l-17 -73h257l17 73h-79l20 86h303l-20 -86h-39q-11 0 -22.5 -10t-13.5 -21l-10 -42h71l-15 -63
h-70l-83 -364q-3 -11 2 -21t15 -10h44l-19 -83h-303zM284 478l-18 -76h258l17 76h-257z" />
    <glyph glyph-name="hbar" unicode="&#x127;" horiz-adv-x="580" 
d="M74 559l17 73h56l16 68h121q25 0 17 -34l-8 -34h92l-17 -73h-92l-27 -119q105 93 201 93q65 0 89.5 -37.5t10.5 -97.5l-67 -290q-2 -9 4 -17t15 -8h28l-16 -74q-38 -16 -86 -16q-60 0 -81 33t-8 90l57 249q12 56 -32 56q-58 0 -131 -53l-84 -368h-115q-14 0 -21 10t-3 25
l120 524h-56z" />
    <glyph glyph-name="Imacron" unicode="&#x12a;" horiz-adv-x="327" 
d="M145 760l22 94h266l-22 -94h-266zM-48 0l19 83h46q10 0 21.5 10.5t13.5 20.5l107 469q2 11 -2 21t-14 10h-51l20 86h305l-20 -86h-46q-11 0 -22 -10t-13 -21l-107 -469q-3 -11 1.5 -21t14.5 -10h51l-19 -83h-305z" />
    <glyph glyph-name="imacron" unicode="&#x12b;" horiz-adv-x="276" 
d="M100 410q2 9 -3.5 18t-14.5 9h-35l17 78q46 16 104 16q51 0 72.5 -27t9.5 -80l-73 -316q-2 -9 4 -17t15 -8h30l-16 -74q-38 -16 -89 -16q-60 0 -81 33t-8 90zM70 585l22 94h236l-22 -94h-236z" />
    <glyph glyph-name="Iogonek" unicode="&#x12e;" horiz-adv-x="327" 
d="M-48 0l19 83h46q10 0 21.5 10.5t13.5 20.5l107 469q2 11 -2 21t-14 10h-51l20 86h305l-20 -86h-46q-11 0 -22 -10t-13 -21l-107 -469q-3 -11 1.5 -21t14.5 -10h51l-19 -83h-49q-19 -16 -25 -21.5t-14 -17t-8 -22.5q0 -23 36 -23h19l-15 -64q-34 -17 -70 -17q-42 0 -64 18
t-22 49q0 64 100 98h-193z" />
    <glyph glyph-name="iogonek" unicode="&#x12f;" horiz-adv-x="276" 
d="M114 -165q-42 0 -64 18t-22 49q0 57 85 92q-54 3 -74 35.5t-7 86.5l68 294q2 9 -3.5 18t-14.5 9h-35l17 78q46 16 104 16q51 0 72.5 -27t9.5 -80l-73 -316q-2 -9 4 -17t15 -8h30l-16 -74q-66 -35 -66 -70q0 -23 36 -23h19l-15 -64q-34 -17 -70 -17zM221 567
q-32 0 -53 21.5t-21 52.5q0 33 24.5 56t58.5 23q32 0 53.5 -21.5t21.5 -52.5q0 -34 -25 -56.5t-59 -22.5z" />
    <glyph glyph-name="Idotaccent" unicode="&#x130;" horiz-adv-x="327" 
d="M275 742q-32 0 -53 21.5t-21 52.5q0 33 24.5 56t58.5 23q32 0 53.5 -21.5t21.5 -52.5q0 -34 -25 -56.5t-59 -22.5zM-48 0l19 83h46q10 0 21.5 10.5t13.5 20.5l107 469q2 11 -2 21t-14 10h-51l20 86h305l-20 -86h-46q-11 0 -22 -10t-13 -21l-107 -469q-3 -11 1.5 -21
t14.5 -10h51l-19 -83h-305z" />
    <glyph glyph-name="dotlessi" unicode="&#x131;" horiz-adv-x="276" 
d="M100 410q2 9 -3.5 18t-14.5 9h-35l17 78q46 16 104 16q51 0 72.5 -27t9.5 -80l-73 -316q-2 -9 4 -17t15 -8h30l-16 -74q-38 -16 -89 -16q-60 0 -81 33t-8 90z" />
    <glyph glyph-name="Jcircumflex" unicode="&#x134;" horiz-adv-x="472" 
d="M296 737l8 37l87 101h117l54 -101l-8 -37h-51l-66 60l-90 -60h-51zM131 -8q-103 0 -173 35l25 108h83q21 -43 71 -43q35 0 54 20.5t29 64.5l92 406q2 11 -2 21t-14 10h-44l20 86h290l-20 -86h-38q-11 0 -22 -10t-13 -21l-94 -409q-22 -95 -78.5 -138.5t-165.5 -43.5z" />
    <glyph glyph-name="jcircumflex" unicode="&#x135;" horiz-adv-x="258" 
d="M82 437h-35l17 78q46 16 104 16q51 0 72.5 -27t9.5 -80l-101 -446q-18 -80 -60.5 -113t-116.5 -33q-50 0 -89 14l17 70h27q36 0 52 16t25 55l96 423q2 9 -3.5 18t-14.5 9zM58 562l8 37l87 101h117l54 -101l-8 -37h-51l-66 60l-90 -60h-51z" />
    <glyph glyph-name="Kcommaaccent" unicode="&#x136;" horiz-adv-x="682" 
d="M198 -166q57 5 57 27q0 3 -1.5 5.5t-2.5 4t-5.5 4.5t-6.5 5q-19 14 -19 38q0 28 19 46t45 18q27 0 45 -18t18 -48q0 -64 -42.5 -98t-117.5 -37zM-48 0l19 83h38q11 0 22.5 10.5t13.5 20.5l107 469q2 12 -2 21.5t-15 9.5h-43l20 86h291l-20 -86h-68l-60 -262l226 200
q30 28 26.5 45t-31.5 17h-2l20 86h259l-20 -86h-16q-19 0 -43 -19l-228 -187l133 -298q11 -27 26 -27h26l-19 -83h-201l17 75l-100 236l-101 -83l-33 -145h68l-19 -83h-291z" />
    <glyph glyph-name="kcommaaccent" unicode="&#x137;" horiz-adv-x="524" 
d="M126 -166q57 5 57 27q0 3 -1.5 5.5t-2.5 4t-5.5 4.5t-6.5 5q-19 14 -19 38q0 28 19 46t45 18q27 0 45 -18t18 -48q0 -64 -42.5 -98t-117.5 -37zM408 -7q-22 0 -37.5 5.5t-26.5 18.5t-17 25t-15 33l-57 136q-37 -22 -68 -38l-39 -173h-115q-14 0 -21 10t-3 25l127 552
q2 8 -4 17.5t-15 9.5h-31l20 86h177q25 0 17 -34l-87 -378q175 116 202 237h138l-15 -68q-61 -79 -172 -168l84 -181q12 -25 31 -25h17l-16 -74q-34 -16 -74 -16z" />
    <glyph glyph-name="Lacute" unicode="&#x139;" horiz-adv-x="567" 
d="M233 737l49 138h147l-12 -50l-102 -88h-82zM-48 0l19 83h38q11 0 22.5 10.5t13.5 20.5l107 469q2 12 -2 21.5t-15 9.5h-43l20 86h317l-20 -86h-94l-120 -524h204l51 143h100l-53 -233h-545z" />
    <glyph glyph-name="lacute" unicode="&#x13a;" horiz-adv-x="278" 
d="M180 715l49 138h147l-12 -50l-102 -88h-82zM141 587q2 8 -4 17.5t-15 9.5h-35l20 86h181q25 0 17 -34l-129 -558q-2 -9 4 -17t15 -8h33l-16 -74q-40 -16 -90 -16q-60 0 -81.5 33t-8.5 90z" />
    <glyph glyph-name="Lcommaaccent" unicode="&#x13b;" horiz-adv-x="567" 
d="M142 -166q57 5 57 27q0 3 -1.5 5.5t-2.5 4t-5.5 4.5t-6.5 5q-19 14 -19 38q0 28 19 46t45 18q27 0 45 -18t18 -48q0 -64 -42.5 -98t-117.5 -37zM-48 0l19 83h38q11 0 22.5 10.5t13.5 20.5l107 469q2 12 -2 21.5t-15 9.5h-43l20 86h317l-20 -86h-94l-120 -524h204l51 143
h100l-53 -233h-545z" />
    <glyph glyph-name="lcommaaccent" unicode="&#x13c;" horiz-adv-x="278" 
d="M-11 -166q57 5 57 27q0 3 -1.5 5.5t-2.5 4t-5.5 4.5t-6.5 5q-19 14 -19 38q0 28 19 46t45 18q27 0 45 -18t18 -48q0 -64 -42.5 -98t-117.5 -37zM141 587q2 8 -4 17.5t-15 9.5h-35l20 86h181q25 0 17 -34l-129 -558q-2 -9 4 -17t15 -8h33l-16 -74q-40 -16 -90 -16
q-60 0 -81.5 33t-8.5 90z" />
    <glyph glyph-name="Lcaron" unicode="&#x13d;" horiz-adv-x="567" 
d="M442 556l43 144h110l-11 -50l-68 -94h-74zM-48 0l19 83h38q11 0 22.5 10.5t13.5 20.5l107 469q2 12 -2 21.5t-15 9.5h-43l20 86h317l-20 -86h-94l-120 -524h204l51 143h100l-53 -233h-545z" />
    <glyph glyph-name="lcaron" unicode="&#x13e;" horiz-adv-x="278" 
d="M308 556l43 144h110l-11 -50l-68 -94h-74zM141 587q2 8 -4 17.5t-15 9.5h-35l20 86h181q25 0 17 -34l-129 -558q-2 -9 4 -17t15 -8h33l-16 -74q-40 -16 -90 -16q-60 0 -81.5 33t-8.5 90z" />
    <glyph glyph-name="Lslash" unicode="&#x141;" horiz-adv-x="567" 
d="M3 225l21 93l73 23l55 242q2 12 -2 21.5t-15 9.5h-43l20 86h317l-20 -86h-94l-51 -220l199 64l-22 -93l-198 -63l-48 -212h204l51 143h100l-53 -233h-545l19 83h38q11 0 22.5 10.5t13.5 20.5l30 134z" />
    <glyph glyph-name="lslash" unicode="&#x142;" horiz-adv-x="278" 
d="M7 260l21 91l66 36l47 200q2 8 -4 17.5t-15 9.5h-35l20 86h181q25 0 17 -34l-44 -188l65 35l-21 -91l-65 -35l-64 -279q-2 -9 4 -17t15 -8h33l-16 -74q-40 -16 -90 -16q-60 0 -81.5 33t-8.5 90l41 180z" />
    <glyph glyph-name="Nacute" unicode="&#x143;" horiz-adv-x="705" 
d="M-48 0l19 83h38q11 0 22.5 10.5t13.5 20.5l107 469q2 12 -2 21.5t-15 9.5h-43l20 86h224l170 -466h3l88 380h-78l20 86h258l-20 -86h-37q-10 0 -21.5 -10t-13.5 -21l-133 -583h-132l-189 505h-3l-96 -422h80l-19 -83h-261zM417 737l49 138h147l-12 -50l-102 -88h-82z" />
    <glyph glyph-name="nacute" unicode="&#x144;" horiz-adv-x="580" 
d="M64 515q46 16 99 16q89 0 83 -95q105 97 204 97q65 0 89.5 -37.5t10.5 -97.5l-67 -290q-2 -9 4 -17t15 -8h28l-16 -74q-38 -16 -86 -16q-60 0 -81 33t-8 90l57 249q12 56 -32 56q-58 0 -131 -53l-84 -368h-115q-14 0 -21 10t-3 25l86 375q2 9 -3.5 18t-14.5 9h-31z
M295 562l49 138h147l-12 -50l-102 -88h-82z" />
    <glyph glyph-name="Ncommaaccent" unicode="&#x145;" horiz-adv-x="705" 
d="M-48 0l19 83h38q11 0 22.5 10.5t13.5 20.5l107 469q2 12 -2 21.5t-15 9.5h-43l20 86h224l170 -466h3l88 380h-78l20 86h258l-20 -86h-37q-10 0 -21.5 -10t-13.5 -21l-133 -583h-132l-189 505h-3l-96 -422h80l-19 -83h-261zM222 -166q57 5 57 27q0 3 -1.5 5.5t-2.5 4
t-5.5 4.5t-6.5 5q-19 14 -19 38q0 28 19 46t45 18q27 0 45 -18t18 -48q0 -64 -42.5 -98t-117.5 -37z" />
    <glyph glyph-name="ncommaaccent" unicode="&#x146;" horiz-adv-x="580" 
d="M64 515q46 16 99 16q89 0 83 -95q105 97 204 97q65 0 89.5 -37.5t10.5 -97.5l-67 -290q-2 -9 4 -17t15 -8h28l-16 -74q-38 -16 -86 -16q-60 0 -81 33t-8 90l57 249q12 56 -32 56q-58 0 -131 -53l-84 -368h-115q-14 0 -21 10t-3 25l86 375q2 9 -3.5 18t-14.5 9h-31z
M152 -166q57 5 57 27q0 3 -1.5 5.5t-2.5 4t-5.5 4.5t-6.5 5q-19 14 -19 38q0 28 19 46t45 18q27 0 45 -18t18 -48q0 -64 -42.5 -98t-117.5 -37z" />
    <glyph glyph-name="Ncaron" unicode="&#x147;" horiz-adv-x="705" 
d="M622 875l-8 -37l-87 -101h-117l-54 101l8 37h51l66 -60l90 60h51zM-48 0l19 83h38q11 0 22.5 10.5t13.5 20.5l107 469q2 12 -2 21.5t-15 9.5h-43l20 86h224l170 -466h3l88 380h-78l20 86h258l-20 -86h-37q-10 0 -21.5 -10t-13.5 -21l-133 -583h-132l-189 505h-3l-96 -422
h80l-19 -83h-261z" />
    <glyph glyph-name="ncaron" unicode="&#x148;" horiz-adv-x="580" 
d="M64 515q46 16 99 16q89 0 83 -95q105 97 204 97q65 0 89.5 -37.5t10.5 -97.5l-67 -290q-2 -9 4 -17t15 -8h28l-16 -74q-38 -16 -86 -16q-60 0 -81 33t-8 90l57 249q12 56 -32 56q-58 0 -131 -53l-84 -368h-115q-14 0 -21 10t-3 25l86 375q2 9 -3.5 18t-14.5 9h-31z
M488 700l-8 -37l-87 -101h-117l-54 101l8 37h51l66 -60l90 60h51z" />
    <glyph glyph-name="Omacron" unicode="&#x14c;" horiz-adv-x="698" 
d="M318 792l22 94h266l-22 -94h-266zM326 -8q-136 0 -215.5 75t-79.5 210q0 182 110.5 306t272.5 124q134 0 213 -76t79 -208q0 -190 -108 -310.5t-272 -120.5zM330 92q100 0 160 97.5t60 235.5q0 86 -36.5 132.5t-105.5 46.5q-100 0 -160.5 -96t-60.5 -236q0 -86 37.5 -133
t105.5 -47z" />
    <glyph glyph-name="omacron" unicode="&#x14d;" horiz-adv-x="538" 
d="M188 585l22 94h266l-22 -94h-266zM238 -6q-108 0 -168.5 60t-60.5 163q0 141 86.5 228.5t205.5 87.5q108 0 168 -60t60 -163q0 -142 -83.5 -229t-207.5 -87zM244 85q65 0 104 69.5t39 167.5q0 115 -91 115q-63 0 -103.5 -70.5t-40.5 -166.5q0 -115 92 -115z" />
    <glyph glyph-name="Ohungarumlaut" unicode="&#x150;" horiz-adv-x="698" 
d="M326 -8q-136 0 -215.5 75t-79.5 210q0 182 110.5 306t272.5 124q134 0 213 -76t79 -208q0 -190 -108 -310.5t-272 -120.5zM330 92q100 0 160 97.5t60 235.5q0 86 -36.5 132.5t-105.5 46.5q-100 0 -160.5 -96t-60.5 -236q0 -86 37.5 -133t105.5 -47zM469 737l46 138h121
l-12 -50l-78 -88h-77zM306 737l46 138h121l-12 -50l-78 -88h-77z" />
    <glyph glyph-name="ohungarumlaut" unicode="&#x151;" horiz-adv-x="538" 
d="M238 -6q-108 0 -168.5 60t-60.5 163q0 141 86.5 228.5t205.5 87.5q108 0 168 -60t60 -163q0 -142 -83.5 -229t-207.5 -87zM244 85q65 0 104 69.5t39 167.5q0 115 -91 115q-63 0 -103.5 -70.5t-40.5 -166.5q0 -115 92 -115zM349 562l46 138h121l-12 -50l-78 -88h-77z
M186 562l46 138h121l-12 -50l-78 -88h-77z" />
    <glyph glyph-name="OE" unicode="&#x152;" horiz-adv-x="944" 
d="M1022 700l-46 -200h-94l8 107h-207l-48 -208h87l27 80h90l-57 -247h-88l9 80h-88l-51 -222h217l42 123h99l-48 -213h-525q-151 0 -234 72t-83 210q0 192 120 305t317 113h553zM527 607h-68q-126 0 -197.5 -89t-71.5 -249q0 -179 179 -179h40z" />
    <glyph glyph-name="oe" unicode="&#x153;" horiz-adv-x="853" 
d="M236 -6q-108 0 -167.5 60t-59.5 163q0 141 85.5 228.5t204.5 87.5q124 0 171 -90q79 90 208 90q84 0 133 -39t49 -102q0 -50 -23 -84.5t-70 -55t-107.5 -31t-144.5 -14.5q0 -66 21 -94.5t76 -28.5q67 0 102 52h77l-25 -109q-79 -34 -169 -34q-125 0 -173 78
q-71 -77 -188 -77zM242 85q67 0 103.5 68.5t36.5 168.5q0 115 -88 115q-65 0 -103.5 -69.5t-38.5 -167.5q0 -115 90 -115zM664 446q-54 0 -90 -43t-50 -114q104 7 151.5 29t47.5 68q0 27 -15 43.5t-44 16.5z" />
    <glyph glyph-name="Racute" unicode="&#x154;" horiz-adv-x="660" 
d="M336 737l49 138h147l-12 -50l-102 -88h-82zM-48 0l19 83h38q11 0 22.5 10.5t13.5 20.5l107 469q2 12 -2 21.5t-15 9.5h-43l20 86h286q117 0 181 -44t64 -122q0 -84 -51.5 -133t-147.5 -62v-4q55 -12 77 -42.5t32 -112.5l9 -72q3 -25 18 -25h29l-19 -83h-179l-11 190
q-4 68 -21.5 89.5t-76.5 21.5h-58l-50 -218h87l-19 -83h-310zM314 608l-52 -229h74q149 0 149 146q0 83 -105 83h-66z" />
    <glyph glyph-name="racute" unicode="&#x155;" horiz-adv-x="381" 
d="M64 515q46 16 99 16q92 0 82 -100q68 99 153 99q15 0 30 -5l-24 -108h-18q-89 0 -155 -58l-82 -359h-115q-14 0 -21 10t-3 25l86 375q2 9 -3.5 18t-14.5 9h-31zM215 562l49 138h147l-12 -50l-102 -88h-82z" />
    <glyph glyph-name="Rcommaaccent" unicode="&#x156;" horiz-adv-x="660" 
d="M206 -166q57 5 57 27q0 3 -1.5 5.5t-2.5 4t-5.5 4.5t-6.5 5q-19 14 -19 38q0 28 19 46t45 18q27 0 45 -18t18 -48q0 -64 -42.5 -98t-117.5 -37zM-48 0l19 83h38q11 0 22.5 10.5t13.5 20.5l107 469q2 12 -2 21.5t-15 9.5h-43l20 86h286q117 0 181 -44t64 -122
q0 -84 -51.5 -133t-147.5 -62v-4q55 -12 77 -42.5t32 -112.5l9 -72q3 -25 18 -25h29l-19 -83h-179l-11 190q-4 68 -21.5 89.5t-76.5 21.5h-58l-50 -218h87l-19 -83h-310zM314 608l-52 -229h74q149 0 149 146q0 83 -105 83h-66z" />
    <glyph glyph-name="rcommaaccent" unicode="&#x157;" horiz-adv-x="381" 
d="M64 515q46 16 99 16q92 0 82 -100q68 99 153 99q15 0 30 -5l-24 -108h-18q-89 0 -155 -58l-82 -359h-115q-14 0 -21 10t-3 25l86 375q2 9 -3.5 18t-14.5 9h-31zM-30 -166q57 5 57 27q0 3 -1.5 5.5t-2.5 4t-5.5 4.5t-6.5 5q-19 14 -19 38q0 28 19 46t45 18q27 0 45 -18
t18 -48q0 -64 -42.5 -98t-117.5 -37z" />
    <glyph glyph-name="Rcaron" unicode="&#x158;" horiz-adv-x="660" 
d="M541 875l-8 -37l-87 -101h-117l-54 101l8 37h51l66 -60l90 60h51zM-48 0l19 83h38q11 0 22.5 10.5t13.5 20.5l107 469q2 12 -2 21.5t-15 9.5h-43l20 86h286q117 0 181 -44t64 -122q0 -84 -51.5 -133t-147.5 -62v-4q55 -12 77 -42.5t32 -112.5l9 -72q3 -25 18 -25h29
l-19 -83h-179l-11 190q-4 68 -21.5 89.5t-76.5 21.5h-58l-50 -218h87l-19 -83h-310zM314 608l-52 -229h74q149 0 149 146q0 83 -105 83h-66z" />
    <glyph glyph-name="rcaron" unicode="&#x159;" horiz-adv-x="381" 
d="M420 700l-8 -37l-87 -101h-117l-54 101l8 37h51l66 -60l90 60h51zM64 515q46 16 99 16q92 0 82 -100q68 99 153 99q15 0 30 -5l-24 -108h-18q-89 0 -155 -58l-82 -359h-115q-14 0 -21 10t-3 25l86 375q2 9 -3.5 18t-14.5 9h-31z" />
    <glyph glyph-name="Sacute" unicode="&#x15a;" horiz-adv-x="516" 
d="M323 747l49 138h147l-12 -50l-102 -88h-82zM205 -8q-52 0 -106 8h-135l48 209h104l-10 -107q43 -15 102 -15q135 0 135 105q0 15 -5 28t-10.5 21t-21 18.5t-24.5 15.5t-33.5 17t-36.5 18q-65 33 -97.5 71.5t-32.5 110.5q0 97 65.5 156.5t191.5 59.5q66 0 112 -8h114
l-45 -191h-100l5 93q-33 14 -91 14q-121 0 -121 -97q0 -36 20 -54.5t74 -44.5q6 -3 31 -14.5t33 -16t29 -16.5t29 -20t21.5 -23t19 -30t10.5 -36t5 -45q0 -103 -71.5 -165t-208.5 -62z" />
    <glyph glyph-name="sacute" unicode="&#x15b;" horiz-adv-x="410" 
d="M230 562l49 138h147l-12 -50l-102 -88h-82zM152 -6q-117 0 -185 41l24 105h74q10 -30 28.5 -45t55.5 -15q38 0 62 17.5t24 48.5q0 10 -4 18t-8.5 13.5t-15.5 11.5t-17 8.5t-21 8.5l-20 8q-49 21 -76 51.5t-27 84.5q0 86 58 133t156 47q94 0 168 -35l-25 -108h-69
q-22 56 -86 56q-78 0 -78 -62q0 -13 5 -23t19 -18.5t23 -13t33 -14.5q28 -12 44.5 -21t37 -25.5t30.5 -40.5t10 -55q0 -82 -60.5 -129t-159.5 -47z" />
    <glyph glyph-name="Scircumflex" unicode="&#x15c;" horiz-adv-x="516" 
d="M205 -8q-52 0 -106 8h-135l48 209h104l-10 -107q43 -15 102 -15q135 0 135 105q0 15 -5 28t-10.5 21t-21 18.5t-24.5 15.5t-33.5 17t-36.5 18q-65 33 -97.5 71.5t-32.5 110.5q0 97 65.5 156.5t191.5 59.5q66 0 112 -8h114l-45 -191h-100l5 93q-33 14 -91 14
q-121 0 -121 -97q0 -36 20 -54.5t74 -44.5q6 -3 31 -14.5t33 -16t29 -16.5t29 -20t21.5 -23t19 -30t10.5 -36t5 -45q0 -103 -71.5 -165t-208.5 -62zM238 747l8 37l87 101h117l54 -101l-8 -37h-51l-66 60l-90 -60h-51z" />
    <glyph glyph-name="scircumflex" unicode="&#x15d;" horiz-adv-x="410" 
d="M152 -6q-117 0 -185 41l24 105h74q10 -30 28.5 -45t55.5 -15q38 0 62 17.5t24 48.5q0 10 -4 18t-8.5 13.5t-15.5 11.5t-17 8.5t-21 8.5l-20 8q-49 21 -76 51.5t-27 84.5q0 86 58 133t156 47q94 0 168 -35l-25 -108h-69q-22 56 -86 56q-78 0 -78 -62q0 -13 5 -23t19 -18.5
t23 -13t33 -14.5q28 -12 44.5 -21t37 -25.5t30.5 -40.5t10 -55q0 -82 -60.5 -129t-159.5 -47zM145 562l8 37l87 101h117l54 -101l-8 -37h-51l-66 60l-90 -60h-51z" />
    <glyph glyph-name="Scedilla" unicode="&#x15e;" horiz-adv-x="516" 
d="M174 -175q-47 0 -81 18l13 57h34q9 -15 32 -15q33 0 33 23q0 9 -9 15t-25 6h-19l14 64q-26 1 -67 7h-135l48 209h104l-10 -107q43 -15 102 -15q135 0 135 105q0 15 -5 28t-10.5 21t-21 18.5t-24.5 15.5t-33.5 17t-36.5 18q-65 33 -97.5 71.5t-32.5 110.5q0 97 65.5 156.5
t191.5 59.5q66 0 112 -8h114l-45 -191h-100l5 93q-33 14 -91 14q-121 0 -121 -97q0 -36 20 -54.5t74 -44.5q6 -3 31 -14.5t33 -16t29 -16.5t29 -20t21.5 -23t19 -30t10.5 -36t5 -45q0 -99 -65.5 -160t-190.5 -66l-4 -18q33 -2 50.5 -19t17.5 -45q0 -40 -32.5 -63t-86.5 -23z
" />
    <glyph glyph-name="scedilla" unicode="&#x15f;" horiz-adv-x="410" 
d="M109 -175q-47 0 -81 18l13 57h34q9 -15 32 -15q33 0 33 23q0 9 -9 15t-25 6h-19l15 67q-81 7 -135 39l24 105h74q10 -30 28.5 -45t55.5 -15q38 0 62 17.5t24 48.5q0 10 -4 18t-8.5 13.5t-15.5 11.5t-17 8.5t-21 8.5l-20 8q-49 21 -76 51.5t-27 84.5q0 86 58 133t156 47
q94 0 168 -35l-25 -108h-69q-22 56 -86 56q-78 0 -78 -62q0 -13 5 -23t19 -18.5t23 -13t33 -14.5q28 -12 44.5 -21t37 -25.5t30.5 -40.5t10 -55q0 -80 -57 -126.5t-151 -49.5l-4 -19q33 -2 50.5 -19t17.5 -45q0 -40 -32.5 -63t-86.5 -23z" />
    <glyph glyph-name="Scaron" unicode="&#x160;" horiz-adv-x="516" 
d="M205 -8q-52 0 -106 8h-135l48 209h104l-10 -107q43 -15 102 -15q135 0 135 105q0 15 -5 28t-10.5 21t-21 18.5t-24.5 15.5t-33.5 17t-36.5 18q-65 33 -97.5 71.5t-32.5 110.5q0 97 65.5 156.5t191.5 59.5q66 0 112 -8h114l-45 -191h-100l5 93q-33 14 -91 14
q-121 0 -121 -97q0 -36 20 -54.5t74 -44.5q6 -3 31 -14.5t33 -16t29 -16.5t29 -20t21.5 -23t19 -30t10.5 -36t5 -45q0 -103 -71.5 -165t-208.5 -62zM528 885l-8 -37l-87 -101h-117l-54 101l8 37h51l66 -60l90 60h51z" />
    <glyph glyph-name="scaron" unicode="&#x161;" horiz-adv-x="410" 
d="M152 -6q-117 0 -185 41l24 105h74q10 -30 28.5 -45t55.5 -15q38 0 62 17.5t24 48.5q0 10 -4 18t-8.5 13.5t-15.5 11.5t-17 8.5t-21 8.5l-20 8q-49 21 -76 51.5t-27 84.5q0 86 58 133t156 47q94 0 168 -35l-25 -108h-69q-22 56 -86 56q-78 0 -78 -62q0 -13 5 -23t19 -18.5
t23 -13t33 -14.5q28 -12 44.5 -21t37 -25.5t30.5 -40.5t10 -55q0 -82 -60.5 -129t-159.5 -47zM435 700l-8 -37l-87 -101h-117l-54 101l8 37h51l66 -60l90 60h51z" />
    <glyph glyph-name="Tcommaaccent" unicode="&#x162;" horiz-adv-x="624" 
d="M150 -166q57 5 57 27q0 3 -1.5 5.5t-2.5 4t-5.5 4.5t-6.5 5q-19 14 -19 38q0 28 19 46t45 18q27 0 45 -18t18 -48q0 -64 -42.5 -98t-117.5 -37zM102 0l19 83h44q11 0 22.5 10.5t13.5 20.5l113 496h-108l-46 -146h-97l54 236h593l-54 -236h-96l20 146h-110l-113 -496
q-3 -11 2 -21t15 -10h49l-19 -83h-302z" />
    <glyph glyph-name="tcommaaccent" unicode="&#x163;" horiz-adv-x="318" 
d="M9 -166q57 5 57 27q0 3 -1.5 5.5t-2.5 4t-5.5 4.5t-6.5 5q-19 14 -19 38q0 28 19 46t45 18q27 0 45 -18t18 -48q0 -64 -42.5 -98t-117.5 -37zM47 437l19 88h58l32 140h146l-32 -140h94l-19 -88h-96l-63 -277q-17 -77 57 -77h25l-17 -78q-37 -13 -79 -13q-84 0 -116.5 45
t-14.5 126l63 274h-57z" />
    <glyph glyph-name="Tcaron" unicode="&#x164;" horiz-adv-x="624" 
d="M565 875l-8 -37l-87 -101h-117l-54 101l8 37h51l66 -60l90 60h51zM102 0l19 83h44q11 0 22.5 10.5t13.5 20.5l113 496h-108l-46 -146h-97l54 236h593l-54 -236h-96l20 146h-110l-113 -496q-3 -11 2 -21t15 -10h49l-19 -83h-302z" />
    <glyph glyph-name="tcaron" unicode="&#x165;" horiz-adv-x="318" 
d="M305 556l43 144h110l-11 -50l-68 -94h-74zM47 437l19 88h58l32 140h146l-32 -140h94l-19 -88h-96l-63 -277q-17 -77 57 -77h25l-17 -78q-37 -13 -79 -13q-84 0 -116.5 45t-14.5 126l63 274h-57z" />
    <glyph glyph-name="Umacron" unicode="&#x16a;" horiz-adv-x="706" 
d="M346 760l22 94h266l-22 -94h-266zM331 -8q-149 0 -213.5 73t-35.5 203l71 315q2 12 -2 21.5t-15 9.5h-44l20 86h303l-20 -86h-79l-82 -363q-20 -89 10.5 -124t97.5 -35q77 0 114.5 37t58.5 128l81 357h-79l20 86h260l-20 -86h-38q-11 0 -22.5 -10t-13.5 -21l-78 -338
q-20 -84 -52 -137.5t-92 -84.5t-150 -31z" />
    <glyph glyph-name="umacron" unicode="&#x16b;" horiz-adv-x="576" 
d="M218 585l22 94h266l-22 -94h-266zM510 9q-38 -16 -88 -16q-49 0 -72 20t-22 63q-89 -84 -184 -84q-69 0 -97 45t-12 116l59 257q2 9 -3.5 18t-14.5 9h-29l17 78q49 17 97 17q54 0 73 -33.5t6 -89.5l-57 -249q-13 -60 37 -60q51 0 119 46l87 379h115q14 0 21 -10t3 -25
l-88 -382q-2 -9 4 -17t15 -8h30z" />
    <glyph glyph-name="Ubreve" unicode="&#x16c;" horiz-adv-x="706" 
d="M460 737q-55 0 -87 27.5t-39 64.5l11 46h78q2 -43 45 -43q42 0 57 43h86l-13 -56q-47 -82 -138 -82zM331 -8q-149 0 -213.5 73t-35.5 203l71 315q2 12 -2 21.5t-15 9.5h-44l20 86h303l-20 -86h-79l-82 -363q-20 -89 10.5 -124t97.5 -35q77 0 114.5 37t58.5 128l81 357
h-79l20 86h260l-20 -86h-38q-11 0 -22.5 -10t-13.5 -21l-78 -338q-20 -84 -52 -137.5t-92 -84.5t-150 -31z" />
    <glyph glyph-name="ubreve" unicode="&#x16d;" horiz-adv-x="576" 
d="M332 562q-55 0 -87 27.5t-39 64.5l11 46h78q2 -43 45 -43q42 0 57 43h86l-13 -56q-47 -82 -138 -82zM510 9q-38 -16 -88 -16q-49 0 -72 20t-22 63q-89 -84 -184 -84q-69 0 -97 45t-12 116l59 257q2 9 -3.5 18t-14.5 9h-29l17 78q49 17 97 17q54 0 73 -33.5t6 -89.5
l-57 -249q-13 -60 37 -60q51 0 119 46l87 379h115q14 0 21 -10t3 -25l-88 -382q-2 -9 4 -17t15 -8h30z" />
    <glyph glyph-name="Uring" unicode="&#x16e;" horiz-adv-x="706" 
d="M476 727q-44 0 -72.5 26t-28.5 69q0 48 32.5 77t77.5 29q43 0 71.5 -26.5t28.5 -68.5q0 -49 -32 -77.5t-77 -28.5zM477 773q24 0 40 15.5t16 41.5q0 23 -13.5 37.5t-36.5 14.5q-24 0 -39.5 -15.5t-15.5 -43.5q0 -23 13 -36.5t36 -13.5zM331 -8q-149 0 -213.5 73
t-35.5 203l71 315q2 12 -2 21.5t-15 9.5h-44l20 86h303l-20 -86h-79l-82 -363q-20 -89 10.5 -124t97.5 -35q77 0 114.5 37t58.5 128l81 357h-79l20 86h260l-20 -86h-38q-11 0 -22.5 -10t-13.5 -21l-78 -338q-20 -84 -52 -137.5t-92 -84.5t-150 -31z" />
    <glyph glyph-name="uring" unicode="&#x16f;" horiz-adv-x="576" 
d="M348 566q-44 0 -72.5 26t-28.5 69q0 48 32.5 77t77.5 29q43 0 71.5 -26.5t28.5 -68.5q0 -49 -32 -77.5t-77 -28.5zM349 612q24 0 40 15.5t16 41.5q0 23 -13.5 37.5t-36.5 14.5q-24 0 -39.5 -15.5t-15.5 -43.5q0 -23 13 -36.5t36 -13.5zM510 9q-38 -16 -88 -16
q-49 0 -72 20t-22 63q-89 -84 -184 -84q-69 0 -97 45t-12 116l59 257q2 9 -3.5 18t-14.5 9h-29l17 78q49 17 97 17q54 0 73 -33.5t6 -89.5l-57 -249q-13 -60 37 -60q51 0 119 46l87 379h115q14 0 21 -10t3 -25l-88 -382q-2 -9 4 -17t15 -8h30z" />
    <glyph glyph-name="Uhungarumlaut" unicode="&#x170;" horiz-adv-x="706" 
d="M507 737l46 138h121l-12 -50l-78 -88h-77zM344 737l46 138h121l-12 -50l-78 -88h-77zM331 -8q-149 0 -213.5 73t-35.5 203l71 315q2 12 -2 21.5t-15 9.5h-44l20 86h303l-20 -86h-79l-82 -363q-20 -89 10.5 -124t97.5 -35q77 0 114.5 37t58.5 128l81 357h-79l20 86h260
l-20 -86h-38q-11 0 -22.5 -10t-13.5 -21l-78 -338q-20 -84 -52 -137.5t-92 -84.5t-150 -31z" />
    <glyph glyph-name="uhungarumlaut" unicode="&#x171;" horiz-adv-x="576" 
d="M379 562l46 138h121l-12 -50l-78 -88h-77zM216 562l46 138h121l-12 -50l-78 -88h-77zM510 9q-38 -16 -88 -16q-49 0 -72 20t-22 63q-89 -84 -184 -84q-69 0 -97 45t-12 116l59 257q2 9 -3.5 18t-14.5 9h-29l17 78q49 17 97 17q54 0 73 -33.5t6 -89.5l-57 -249
q-13 -60 37 -60q51 0 119 46l87 379h115q14 0 21 -10t3 -25l-88 -382q-2 -9 4 -17t15 -8h30z" />
    <glyph glyph-name="Uogonek" unicode="&#x172;" horiz-adv-x="706" 
d="M330 -165q-42 0 -64 18t-22 49q0 58 79 90q-145 2 -207.5 75.5t-33.5 200.5l71 315q2 12 -2 21.5t-15 9.5h-44l20 86h303l-20 -86h-79l-82 -363q-20 -89 10.5 -124t98.5 -35q76 0 113.5 37t58.5 128l81 357h-79l20 86h260l-20 -86h-38q-11 0 -22.5 -10t-13.5 -21
l-78 -338q-24 -104 -68 -159t-135 -85q-26 -9 -44 -27t-18 -35q0 -23 36 -23h19l-15 -64q-34 -17 -70 -17z" />
    <glyph glyph-name="uogonek" unicode="&#x173;" horiz-adv-x="576" 
d="M144 -8q-69 0 -97 45t-12 116l59 257q2 9 -3.5 18t-14.5 9h-29l17 78q49 17 97 17q54 0 73 -33.5t6 -89.5l-57 -249q-13 -60 37 -60q51 0 119 46l87 379h115q14 0 21 -10t3 -25l-88 -382q-2 -9 4 -17t15 -8h30l-15 -69q-25 -15 -44.5 -36.5t-19.5 -38.5q0 -23 36 -23h19
l-15 -64q-34 -17 -70 -17q-42 0 -64 18t-22 49q0 58 82 91q-44 2 -65 22t-20 61q-89 -84 -184 -84z" />
    <glyph glyph-name="Ydieresis" unicode="&#x178;" horiz-adv-x="655" 
d="M126 0l19 83h44q11 0 22.5 10.5t13.5 20.5l40 181l-123 296q-10 23 -24 23h-26l20 86h283l-20 -86h-79l90 -231h2l122 161q24 34 18 52t-39 18h-26l20 86h264l-20 -86h-17q-24 0 -46 -27l-245 -303l-38 -170q-3 -11 2 -21t15 -10h49l-19 -83h-302zM362 742q-30 0 -50 20
t-20 50q0 31 23.5 52.5t54.5 21.5t51 -20.5t20 -49.5q0 -31 -23.5 -52.5t-55.5 -21.5zM552 742q-30 0 -50 20t-20 50q0 31 23.5 52.5t54.5 21.5t51 -20.5t20 -49.5q0 -31 -23.5 -52.5t-55.5 -21.5z" />
    <glyph glyph-name="Zacute" unicode="&#x179;" horiz-adv-x="542" 
d="M333 737l49 138h147l-12 -50l-102 -88h-82zM-49 0l24 103l454 500v4h-212l-40 -107h-94l46 200h494l-25 -106l-454 -500v-4h234l42 123h99l-48 -213h-520z" />
    <glyph glyph-name="zacute" unicode="&#x17a;" horiz-adv-x="466" 
d="M258 562l49 138h147l-12 -50l-102 -88h-82zM-49 0l21 91l354 345h-160l-35 -88h-84l41 177h426l-21 -94l-355 -344h169l32 88h87l-40 -175h-435z" />
    <glyph glyph-name="Zdotaccent" unicode="&#x17b;" horiz-adv-x="542" 
d="M380 742q-32 0 -53 21.5t-21 52.5q0 33 24.5 56t58.5 23q32 0 53.5 -21.5t21.5 -52.5q0 -34 -25 -56.5t-59 -22.5zM-49 0l24 103l454 500v4h-212l-40 -107h-94l46 200h494l-25 -106l-454 -500v-4h234l42 123h99l-48 -213h-520z" />
    <glyph glyph-name="zdotaccent" unicode="&#x17c;" horiz-adv-x="466" 
d="M305 567q-32 0 -53 21.5t-21 52.5q0 33 24.5 56t58.5 23q32 0 53.5 -21.5t21.5 -52.5q0 -34 -25 -56.5t-59 -22.5zM-49 0l21 91l354 345h-160l-35 -88h-84l41 177h426l-21 -94l-355 -344h169l32 88h87l-40 -175h-435z" />
    <glyph glyph-name="Zcaron" unicode="&#x17d;" horiz-adv-x="542" 
d="M532 875l-8 -37l-87 -101h-117l-54 101l8 37h51l66 -60l90 60h51zM-49 0l24 103l454 500v4h-212l-40 -107h-94l46 200h494l-25 -106l-454 -500v-4h234l42 123h99l-48 -213h-520z" />
    <glyph glyph-name="zcaron" unicode="&#x17e;" horiz-adv-x="466" 
d="M463 700l-8 -37l-87 -101h-117l-54 101l8 37h51l66 -60l90 60h51zM-49 0l21 91l354 345h-160l-35 -88h-84l41 177h426l-21 -94l-355 -344h169l32 88h87l-40 -175h-435z" />
    <glyph glyph-name="florin" unicode="&#x192;" horiz-adv-x="364" 
d="M51 351l20 87h61l29 127q33 145 204 145q39 0 77 -14l-19 -82h-29q-66 0 -78 -54l-29 -122h94l-20 -87h-94l-72 -305q-13 -54 -54 -92t-103 -54h-72l19 83q48 16 60 72l67 296h-61z" />
    <glyph glyph-name="Scommaaccent" unicode="&#x218;" horiz-adv-x="516" 
d="M106 -166q57 5 57 27q0 3 -1.5 5.5t-2.5 4t-5.5 4.5t-6.5 5q-19 14 -19 38q0 28 19 46t45 18q27 0 45 -18t18 -48q0 -64 -42.5 -98t-117.5 -37zM205 -8q-52 0 -106 8h-135l48 209h104l-10 -107q43 -15 102 -15q135 0 135 105q0 15 -5 28t-10.5 21t-21 18.5t-24.5 15.5
t-33.5 17t-36.5 18q-65 33 -97.5 71.5t-32.5 110.5q0 97 65.5 156.5t191.5 59.5q66 0 112 -8h114l-45 -191h-100l5 93q-33 14 -91 14q-121 0 -121 -97q0 -36 20 -54.5t74 -44.5q6 -3 31 -14.5t33 -16t29 -16.5t29 -20t21.5 -23t19 -30t10.5 -36t5 -45q0 -103 -71.5 -165
t-208.5 -62z" />
    <glyph glyph-name="scommaaccent" unicode="&#x219;" horiz-adv-x="410" 
d="M152 -6q-117 0 -185 41l24 105h74q10 -30 28.5 -45t55.5 -15q38 0 62 17.5t24 48.5q0 10 -4 18t-8.5 13.5t-15.5 11.5t-17 8.5t-21 8.5l-20 8q-49 21 -76 51.5t-27 84.5q0 86 58 133t156 47q94 0 168 -35l-25 -108h-69q-22 56 -86 56q-78 0 -78 -62q0 -13 5 -23t19 -18.5
t23 -13t33 -14.5q28 -12 44.5 -21t37 -25.5t30.5 -40.5t10 -55q0 -82 -60.5 -129t-159.5 -47zM37 -166q57 5 57 27q0 3 -1.5 5.5t-2.5 4t-5.5 4.5t-6.5 5q-19 14 -19 38q0 28 19 46t45 18q27 0 45 -18t18 -48q0 -64 -42.5 -98t-117.5 -37z" />
    <glyph glyph-name="uni0237" unicode="&#x237;" horiz-adv-x="258" 
d="M82 437h-35l17 78q46 16 104 16q51 0 72.5 -27t9.5 -80l-101 -446q-18 -80 -60.5 -113t-116.5 -33q-50 0 -89 14l17 70h27q36 0 52 16t25 55l96 423q2 9 -3.5 18t-14.5 9z" />
    <glyph glyph-name="circumflex" unicode="&#x2c6;" horiz-adv-x="400" 
d="M140 562l8 37l87 101h117l54 -101l-8 -37h-51l-66 60l-90 -60h-51z" />
    <glyph glyph-name="caron" unicode="&#x2c7;" horiz-adv-x="400" 
d="M430 700l-8 -37l-87 -101h-117l-54 101l8 37h51l66 -60l90 60h51z" />
    <glyph glyph-name="breve" unicode="&#x2d8;" horiz-adv-x="400" 
d="M284 562q-55 0 -87 27.5t-39 64.5l11 46h78q2 -43 45 -43q42 0 57 43h86l-13 -56q-47 -82 -138 -82z" />
    <glyph glyph-name="dotaccent" unicode="&#x2d9;" horiz-adv-x="400" 
d="M283 567q-32 0 -53 21.5t-21 52.5q0 33 24.5 56t58.5 23q32 0 53.5 -21.5t21.5 -52.5q0 -34 -25 -56.5t-59 -22.5z" />
    <glyph glyph-name="ring" unicode="&#x2da;" horiz-adv-x="400" 
d="M290 566q-44 0 -72.5 26t-28.5 69q0 48 32.5 77t77.5 29q43 0 71.5 -26.5t28.5 -68.5q0 -49 -32 -77.5t-77 -28.5zM291 612q24 0 40 15.5t16 41.5q0 23 -13.5 37.5t-36.5 14.5q-24 0 -39.5 -15.5t-15.5 -43.5q0 -23 13 -36.5t36 -13.5z" />
    <glyph glyph-name="ogonek" unicode="&#x2db;" horiz-adv-x="400" 
d="M134 -165q-42 0 -64 18t-22 49q0 64 100 98h63q-19 -16 -25 -21.5t-14 -17t-8 -22.5q0 -23 36 -23h19l-15 -64q-34 -17 -70 -17z" />
    <glyph glyph-name="tilde" unicode="&#x2dc;" horiz-adv-x="400" 
d="M102 562l16 71q39 62 104 62q26 0 74.5 -11.5t59.5 -11.5q29 0 45 28h69l-17 -71q-38 -64 -105 -64q-26 0 -74 13.5t-59 13.5q-29 0 -44 -30h-69z" />
    <glyph glyph-name="hungarumlaut" unicode="&#x2dd;" horiz-adv-x="400" 
d="M303 562l46 138h121l-12 -50l-78 -88h-77zM140 562l46 138h121l-12 -50l-78 -88h-77z" />
    <glyph glyph-name="uni2009" unicode="&#x2009;" horiz-adv-x="101" 
 />
    <glyph glyph-name="endash" unicode="&#x2013;" horiz-adv-x="413" 
d="M22 241l23 103h361l-23 -103h-361z" />
    <glyph glyph-name="emdash" unicode="&#x2014;" horiz-adv-x="673" 
d="M22 241l23 103h621l-23 -103h-621z" />
    <glyph glyph-name="quoteleft" unicode="&#x2018;" horiz-adv-x="183" 
d="M260 641q-31 -3 -50.5 -14t-19.5 -25q0 -3 0.5 -5.5t1.5 -4t3 -3.5t3.5 -3t5.5 -3t6 -4q24 -16 24 -47q0 -34 -23.5 -56.5t-55.5 -22.5q-33 0 -55 21.5t-22 56.5q0 79 53 123.5t143 48.5z" />
    <glyph glyph-name="quoteright" unicode="&#x2019;" horiz-adv-x="183" 
d="M71 519q31 3 50.5 14t19.5 25q0 3 -0.5 5.5t-1.5 4t-3 3.5t-3.5 3t-5.5 3t-6 4q-24 16 -24 47q0 34 23.5 56.5t55.5 22.5q33 0 55 -21.5t22 -56.5q0 -79 -53 -123.5t-143 -48.5z" />
    <glyph glyph-name="quotesinglbase" unicode="&#x201a;" horiz-adv-x="182" 
d="M-58 -37q31 3 50.5 14t19.5 25q0 3 -0.5 5.5t-1.5 4t-3 3.5t-3.5 3t-5.5 3t-6 4q-24 16 -24 47q0 34 23.5 56.5t55.5 22.5q33 0 55 -21.5t22 -56.5q0 -79 -53 -123.5t-143 -48.5z" />
    <glyph glyph-name="quotedblleft" unicode="&#x201c;" horiz-adv-x="365" 
d="M260 641q-31 -3 -50.5 -14t-19.5 -25q0 -3 0.5 -5.5t1.5 -4t3 -3.5t3.5 -3t5.5 -3t6 -4q24 -16 24 -47q0 -34 -23.5 -56.5t-55.5 -22.5q-33 0 -55 21.5t-22 56.5q0 79 53 123.5t143 48.5zM442 641q-31 -3 -50.5 -14t-19.5 -25q0 -3 0.5 -5.5t1.5 -4t3 -3.5t3.5 -3t5.5 -3
t6 -4q24 -16 24 -47q0 -34 -23.5 -56.5t-55.5 -22.5q-33 0 -55 21.5t-22 56.5q0 79 53 123.5t143 48.5z" />
    <glyph glyph-name="quotedblright" unicode="&#x201d;" horiz-adv-x="365" 
d="M253 519q31 3 50.5 14t19.5 25q0 3 -0.5 5.5t-1.5 4t-3 3.5t-3.5 3t-5.5 3t-6 4q-24 16 -24 47q0 34 23.5 56.5t55.5 22.5q33 0 55 -21.5t22 -56.5q0 -79 -53 -123.5t-143 -48.5zM71 519q31 3 50.5 14t19.5 25q0 3 -0.5 5.5t-1.5 4t-3 3.5t-3.5 3t-5.5 3t-6 4
q-24 16 -24 47q0 34 23.5 56.5t55.5 22.5q33 0 55 -21.5t22 -56.5q0 -79 -53 -123.5t-143 -48.5z" />
    <glyph glyph-name="quotedblbase" unicode="&#x201e;" horiz-adv-x="364" 
d="M124 -37q31 3 50.5 14t19.5 25q0 3 -0.5 5.5t-1.5 4t-3 3.5t-3.5 3t-5.5 3t-6 4q-24 16 -24 47q0 34 23.5 56.5t55.5 22.5q33 0 55 -21.5t22 -56.5q0 -79 -53 -123.5t-143 -48.5zM-58 -37q31 3 50.5 14t19.5 25q0 3 -0.5 5.5t-1.5 4t-3 3.5t-3.5 3t-5.5 3t-6 4
q-24 16 -24 47q0 34 23.5 56.5t55.5 22.5q33 0 55 -21.5t22 -56.5q0 -79 -53 -123.5t-143 -48.5z" />
    <glyph glyph-name="dagger" unicode="&#x2020;" horiz-adv-x="443" 
d="M92 412l-38 33l19 85l53 26l127 -67l-20 133l7 30l35 48h93l15 -61l-7 -29l-82 -125l153 42l39 -33l-20 -86l-53 -25l-127 67l28 -141l-9 -41l-126 -317h-53l18 329l9 41l91 132z" />
    <glyph glyph-name="daggerdbl" unicode="&#x2021;" horiz-adv-x="443" 
d="M92 409l-39 33l20 86l53 25l127 -67l-20 133l7 30l36 51h93l14 -64l-7 -29l-82 -125l153 42l39 -33l-19 -85l-54 -26l-125 66l29 -98l-13 -58l-73 -89l150 41l39 -33l-20 -86l-53 -25l-127 67l20 -133l-7 -30l-35 -51h-93l-15 64l7 29l81 124l-152 -41l-39 33l20 85
l53 26l124 -66l-28 98l13 58l73 89z" />
    <glyph glyph-name="bullet" unicode="&#x2022;" horiz-adv-x="320" 
d="M152 145q-54 0 -90.5 32.5t-36.5 85.5q0 69 44.5 110.5t108.5 41.5q53 0 89 -32.5t36 -83.5q0 -71 -43 -112.5t-108 -41.5z" />
    <glyph glyph-name="ellipsis" unicode="&#x2026;" horiz-adv-x="589" 
d="M54 -6q-34 0 -56 22.5t-22 55.5q0 35 26 59t61 24q34 0 56.5 -23t22.5 -55q0 -35 -26.5 -59t-61.5 -24zM247 -6q-34 0 -56 22.5t-22 55.5q0 35 26 59t61 24q34 0 56.5 -23t22.5 -55q0 -35 -26.5 -59t-61.5 -24zM440 -6q-34 0 -56 22.5t-22 55.5q0 35 26 59t61 24
q34 0 56.5 -23t22.5 -55q0 -35 -26.5 -59t-61.5 -24z" />
    <glyph glyph-name="perthousand" unicode="&#x2030;" horiz-adv-x="1143" 
d="M778 729l-649 -763h-92l649 763h92zM212 334q-66 0 -104.5 37.5t-38.5 104.5q0 100 60.5 166t142.5 66q67 0 106 -38.5t39 -105.5q0 -99 -61 -164.5t-144 -65.5zM223 407q34 0 59.5 49t25.5 117q0 60 -43 60q-36 0 -62 -49.5t-26 -119.5q0 -57 46 -57zM543 -8
q-66 0 -104.5 37.5t-38.5 104.5q0 100 60.5 166t142.5 66q67 0 106 -38.5t39 -105.5q0 -99 -61 -164.5t-144 -65.5zM554 65q34 0 59.5 49t25.5 117q0 60 -43 60q-36 0 -62 -49.5t-26 -119.5q0 -57 46 -57zM910 -8q-66 0 -104.5 37.5t-38.5 104.5q0 100 60.5 166t142.5 66
q67 0 106 -38.5t39 -105.5q0 -99 -61 -164.5t-144 -65.5zM921 65q34 0 59.5 49t25.5 117q0 60 -43 60q-36 0 -62 -49.5t-26 -119.5q0 -57 46 -57z" />
    <glyph glyph-name="guilsinglleft" unicode="&#x2039;" horiz-adv-x="279" 
d="M300 480l-12 -51l-136 -172v-3l58 -161l-12 -53h-72l-103 190l18 77l173 173h86z" />
    <glyph glyph-name="guilsinglright" unicode="&#x203a;" horiz-adv-x="279" 
d="M-21 40l12 51l136 172v3l-58 161l12 53h72l103 -190l-18 -77l-173 -173h-86z" />
    <glyph glyph-name="fraction" unicode="&#x2044;" horiz-adv-x="165" 
d="M473 729l-649 -763h-92l649 763h92z" />
    <glyph glyph-name="Euro" unicode="&#x20ac;" horiz-adv-x="582" 
d="M44 374l17 72h43q20 58 51 103q110 159 288 159q119 0 200 -37l-34 -145h-84q-14 44 -35.5 62t-55.5 18q-87 0 -142 -97q-14 -24 -28 -63h203l-32 -72h-192q-4 -20 -10 -60h176l-31 -72h-152q-1 -9 -1 -25q0 -126 111 -126q72 0 125 65h79l-26 -120q-90 -44 -188 -44
q-120 0 -187 65.5t-67 184.5h-58l16 72h45q3 30 9 60h-40z" />
    <glyph glyph-name="trademark" unicode="&#x2122;" horiz-adv-x="679" 
d="M330 420l9 41h14q4 0 9 4t6 9l40 171q2 12 -6 12h-17l10 43h138l7 -159h1l82 159h146l-10 -43h-15q-4 0 -8.5 -4t-5.5 -8l-40 -171q-2 -13 5 -13h18l-9 -41h-134l9 41h27l42 180h-1l-116 -221h-51l-13 221h-1l-42 -180h27l-9 -41h-112zM115 420l9 41h15q5 0 9.5 4t5.5 9
l42 181h-35l-17 -55h-50l23 100h264l-23 -100h-50l6 55h-35l-42 -181q-2 -13 6 -13h19l-9 -41h-138z" />
    <glyph glyph-name="onethird" unicode="&#x2153;" horiz-adv-x="712" 
d="M25 315l14 60h45q4 0 10 5.5t8 10.5l51 222l-44 -21h-26l15 63l107 45h82l-71 -309q-2 -5 0.5 -10.5t7.5 -5.5h48l-14 -60h-233zM732 729l-649 -763h-92l649 763h92zM496 -5q-80 0 -132 25l19 80h56q11 -36 55 -36q27 0 44.5 14.5t17.5 44.5q0 38 -52 38h-29l15 65h30
q32 0 49 15.5t17 38.5q0 37 -42 37q-33 0 -56 -30h-55l20 84q59 19 108 19q61 0 95.5 -24.5t34.5 -66.5q0 -84 -94 -105v-2q31 -5 49 -24t18 -48q0 -58 -45 -91.5t-123 -33.5z" />
    <glyph glyph-name="twothirds" unicode="&#x2154;" horiz-adv-x="757" 
d="M20 315l11 45q12 49 42 81t83 63q8 5 25 15t24.5 14.5t19.5 13t17 15t9 16t4 19.5q0 34 -38 34q-39 0 -64 -37h-56l21 91q56 20 114 20q64 0 98.5 -24.5t34.5 -71.5q0 -28 -10 -50.5t-32.5 -40.5t-40 -28t-49.5 -26q-80 -39 -94 -69h102l14 31h66l-25 -111h-276zM770 729
l-649 -763h-92l649 763h92zM541 -5q-80 0 -132 25l19 80h56q11 -36 55 -36q27 0 44.5 14.5t17.5 44.5q0 38 -52 38h-29l15 65h30q32 0 49 15.5t17 38.5q0 37 -42 37q-33 0 -56 -30h-55l20 84q59 19 108 19q61 0 95.5 -24.5t34.5 -66.5q0 -84 -94 -105v-2q31 -5 49 -24
t18 -48q0 -58 -45 -91.5t-123 -33.5z" />
    <glyph glyph-name="oneeighth" unicode="&#x215b;" horiz-adv-x="726" 
d="M25 315l14 60h45q4 0 10 5.5t8 10.5l51 222l-44 -21h-26l15 63l107 45h82l-71 -309q-2 -5 0.5 -10.5t7.5 -5.5h48l-14 -60h-233zM729 729l-649 -763h-92l649 763h92zM506 -6q-75 0 -113 28t-38 73q0 43 26.5 72.5t73.5 40.5v2q-43 18 -43 63q0 54 45 86t110 32
q63 0 98 -26t35 -67q0 -35 -21.5 -59.5t-58.5 -35.5v-2q57 -21 57 -73q0 -61 -46.5 -97.5t-124.5 -36.5zM548 232q23 0 36.5 14.5t13.5 40.5q0 15 -9.5 25.5t-26.5 10.5q-24 0 -38 -16t-14 -41q0 -15 10 -24.5t28 -9.5zM509 61q29 0 47 21t18 49q0 45 -49 45
q-28 0 -45.5 -21t-17.5 -49q0 -45 47 -45z" />
    <glyph glyph-name="threeeighths" unicode="&#x215c;" horiz-adv-x="733" 
d="M156 310q-80 0 -132 25l19 80h56q11 -36 55 -36q27 0 44.5 14.5t17.5 44.5q0 38 -52 38h-29l15 65h30q32 0 49 15.5t17 38.5q0 37 -42 37q-33 0 -56 -30h-55l20 84q59 19 108 19q61 0 95.5 -24.5t34.5 -66.5q0 -84 -94 -105v-2q31 -5 49 -24t18 -48q0 -58 -45 -91.5
t-123 -33.5zM739 729l-649 -763h-92l649 763h92zM513 -6q-75 0 -113 28t-38 73q0 43 26.5 72.5t73.5 40.5v2q-43 18 -43 63q0 54 45 86t110 32q63 0 98 -26t35 -67q0 -35 -21.5 -59.5t-58.5 -35.5v-2q57 -21 57 -73q0 -61 -46.5 -97.5t-124.5 -36.5zM555 232q23 0 36.5 14.5
t13.5 40.5q0 15 -9.5 25.5t-26.5 10.5q-24 0 -38 -16t-14 -41q0 -15 10 -24.5t28 -9.5zM516 61q29 0 47 21t18 49q0 45 -49 45q-28 0 -45.5 -21t-17.5 -49q0 -45 47 -45z" />
    <glyph glyph-name="fiveeighths" unicode="&#x215d;" horiz-adv-x="729" 
d="M154 309q-76 0 -130 26l18 78h58q11 -34 54 -34q27 0 46.5 19t19.5 52q0 43 -45 43q-29 0 -50 -23h-63l54 230h251l-24 -102h-66l-3 24h-99l-20 -86h1q29 21 70 21q46 0 75 -26t29 -69q0 -70 -48 -111.5t-128 -41.5zM733 729l-649 -763h-92l649 763h92zM509 -6
q-75 0 -113 28t-38 73q0 43 26.5 72.5t73.5 40.5v2q-43 18 -43 63q0 54 45 86t110 32q63 0 98 -26t35 -67q0 -35 -21.5 -59.5t-58.5 -35.5v-2q57 -21 57 -73q0 -61 -46.5 -97.5t-124.5 -36.5zM551 232q23 0 36.5 14.5t13.5 40.5q0 15 -9.5 25.5t-26.5 10.5q-24 0 -38 -16
t-14 -41q0 -15 10 -24.5t28 -9.5zM512 61q29 0 47 21t18 49q0 45 -49 45q-28 0 -45.5 -21t-17.5 -49q0 -45 47 -45z" />
    <glyph glyph-name="seveneighths" unicode="&#x215e;" horiz-adv-x="708" 
d="M70 315l11 46l211 256v2h-126l-21 -46h-67l30 127h277l-20 -87l-182 -298h-113zM706 729l-649 -763h-92l649 763h92zM488 -6q-75 0 -113 28t-38 73q0 43 26.5 72.5t73.5 40.5v2q-43 18 -43 63q0 54 45 86t110 32q63 0 98 -26t35 -67q0 -35 -21.5 -59.5t-58.5 -35.5v-2
q57 -21 57 -73q0 -61 -46.5 -97.5t-124.5 -36.5zM530 232q23 0 36.5 14.5t13.5 40.5q0 15 -9.5 25.5t-26.5 10.5q-24 0 -38 -16t-14 -41q0 -15 10 -24.5t28 -9.5zM491 61q29 0 47 21t18 49q0 45 -49 45q-28 0 -45.5 -21t-17.5 -49q0 -45 47 -45z" />
    <glyph glyph-name="minus" unicode="&#x2212;" horiz-adv-x="509" 
d="M22 288l27 115h477l-27 -115h-477z" />
    <glyph glyph-name="quotedblleft.cap" unicode="&#x2264;" horiz-adv-x="1013" 
d="M248 -8q-110 0 -172.5 63.5t-62.5 172.5q0 93 37 175t106.5 147t179.5 106t246 47l-20 -89q-136 -14 -197.5 -64t-61.5 -109q0 -24 14 -39t49 -34t50 -30q61 -44 61 -128q0 -96 -66.5 -157t-162.5 -61zM756 -8q-110 0 -172.5 63.5t-62.5 172.5q0 93 37 175t106.5 147
t179.5 106t246 47l-20 -89q-136 -14 -197.5 -64t-61.5 -109q0 -24 14 -39t49 -34t50 -30q61 -44 61 -128q0 -96 -66.5 -157t-162.5 -61z" />
    <glyph glyph-name="quotedblright.cap" unicode="&#x2265;" horiz-adv-x="1012" 
d="M805 708q110 0 173 -63.5t63 -172.5q0 -93 -37 -175t-106.5 -147t-179.5 -106t-246 -47l20 86q71 8 124 27t81 44.5t41 51.5t13 53q0 24 -14 39t-49 34t-50 30q-61 44 -61 128q0 96 66 157t162 61zM297 708q110 0 173 -63.5t63 -172.5q0 -93 -37 -175t-106.5 -147
t-179.5 -106t-246 -47l20 86q71 8 124 27t81 44.5t41 51.5t13 53q0 24 -14 39t-49 34t-50 30q-61 44 -61 128q0 96 66 157t162 61z" />
    <glyph glyph-name="space_uni0326" unicode="&#xf6c3;" horiz-adv-x="400" 
d="M47 -166q57 5 57 27q0 3 -1.5 5.5t-2.5 4t-5.5 4.5t-6.5 5q-19 14 -19 38q0 28 19 46t45 18q27 0 45 -18t18 -48q0 -64 -42.5 -98t-117.5 -37z" />
    <glyph glyph-name="paragraph.cap" horiz-adv-x="551" 
d="M177 0l70 303q-85 7 -132.5 46.5t-47.5 112.5q0 121 80 179.5t206 58.5h289l-20 -86h-38q-11 0 -22.5 -10.5t-13.5 -20.5l-135 -583h-84l140 608h-68l-140 -608h-84z" />
    <glyph glyph-name="bullet.cap" horiz-adv-x="320" 
d="M164 192q-54 0 -90.5 31t-36.5 83q0 69 44.5 112.5t108.5 43.5q53 0 89 -30.5t36 -81.5q0 -72 -43 -115t-108 -43z" />
    <glyph glyph-name="at.cap" horiz-adv-x="791" 
d="M411 -9q-73 0 -137.5 20t-117 59.5t-83.5 106t-31 151.5q0 89 36.5 164t95.5 122t128 72.5t137 25.5q146 0 248 -80t102 -217q0 -119 -63 -182.5t-152 -63.5q-98 0 -122 66q-41 -66 -114 -66q-52 0 -83 33.5t-31 90.5q0 97 58 167q54 65 141 65q56 0 92 -39q40 34 67 34
h36l-52 -226q-8 -26 -3 -43t29 -17q52 0 82.5 45t30.5 133q0 106 -73 166.5t-192 60.5q-77 0 -144.5 -32.5t-113.5 -105.5t-46 -174q0 -135 75 -200t202 -65q126 0 210 53h54l-13 -59q-93 -65 -253 -65zM377 242q32 0 68 38l38 163q-23 7 -43 7q-49 0 -75.5 -44t-26.5 -112
q0 -52 39 -52z" />
    <glyph glyph-name="dagger.cap" horiz-adv-x="443" 
d="M93 432l-39 33l20 85l53 26l130 -67l-24 114l7 29l35 48h93l15 -61l-7 -29l-76 -105l156 42l39 -33l-20 -86l-53 -25l-130 67l31 -121l-9 -41l-124 -308h-53l16 320l9 41l86 112z" />
    <glyph glyph-name="daggerdbl.cap" horiz-adv-x="443" 
d="M97 428l-39 34l20 85l53 25l126 -67l-25 115l7 29l36 51h93l15 -63l-7 -30l-76 -106l152 42l39 -33l-20 -85l-53 -26l-125 66l28 -102l-9 -39l-75 -93l151 41l39 -34l-20 -85l-53 -25l-126 67l24 -115l-7 -29l-35 -51h-93l-15 63l7 30l75 105l-151 -41l-39 33l20 85
l53 26l124 -66l-28 102l9 39l75 93z" />
    <glyph glyph-name="less.cap" horiz-adv-x="443" 
d="M319 0l-292 314l23 97l424 289h50l-20 -86l-313 -267v-3l190 -262l-18 -82h-44z" />
    <glyph glyph-name="greater.cap" horiz-adv-x="443" 
d="M165 700l292 -314l-23 -97l-424 -289h-50l18 83l316 270v3l-193 259l20 85h44z" />
    <glyph glyph-name="guillemotleft.cap" horiz-adv-x="696" 
d="M287 0l-260 314l23 97l392 289h49l-20 -86l-283 -269v-3l160 -260l-18 -82h-43zM573 0l-260 314l23 97l392 289h49l-20 -86l-283 -269v-3l160 -260l-18 -82h-43z" />
    <glyph glyph-name="guillemotright.cap" horiz-adv-x="696" 
d="M449 700l260 -314l-23 -97l-392 -289h-49l19 83l283 270v3l-160 259l19 85h43zM163 700l260 -314l-23 -97l-392 -289h-49l19 83l283 270v3l-160 259l19 85h43z" />
    <glyph glyph-name="quoteleft.cap" horiz-adv-x="505" 
d="M248 -8q-110 0 -172.5 63.5t-62.5 172.5q0 93 37 175t106.5 147t179.5 106t246 47l-20 -89q-136 -14 -197.5 -64t-61.5 -109q0 -24 14 -39t49 -34t50 -30q61 -44 61 -128q0 -96 -66.5 -157t-162.5 -61z" />
    <glyph glyph-name="quoteright.cap" horiz-adv-x="504" 
d="M290 708q110 0 176.5 -64t66.5 -172q0 -93 -37 -175t-106.5 -147t-179.5 -106t-246 -47l20 86q71 8 124 27t81 44.5t41 51.5t13 53q0 24 -14 39t-49 34t-50 30q-61 44 -61 128q0 96 63 157t158 61z" />
    <glyph glyph-name="hyphen.cap" horiz-adv-x="283" 
d="M30 278l25 109h231l-25 -109h-231z" />
    <glyph glyph-name="endash.cap" horiz-adv-x="413" 
d="M31 281l24 103h361l-24 -103h-361z" />
    <glyph glyph-name="emdash.cap" horiz-adv-x="673" 
d="M31 281l24 103h621l-24 -103h-621z" />
    <glyph glyph-name="questiondown.cap" horiz-adv-x="428" 
d="M333 706q34 0 56 -22.5t22 -55.5q0 -35 -26 -59t-61 -24q-34 0 -56.5 23t-22.5 55q0 35 26.5 59t61.5 24zM356 494q0 -61 -17.5 -100.5t-78.5 -91.5q-3 -2 -24 -18.5t-31.5 -26.5t-26.5 -27.5t-23.5 -37t-7.5 -40.5q0 -26 16 -42t44 -16q60 0 97 61h87l-30 -132
q-83 -31 -175 -31q-93 0 -144.5 40.5t-51.5 110.5q0 63 34 107.5t101 86.5q45 29 62.5 41t41.5 32.5t32.5 39.5t10.5 44h84z" />
    <glyph glyph-name="exclamdown.cap" horiz-adv-x="204" 
d="M197 494l-58 -408l-20 -86h-156l20 86l142 408h72zM191 706q34 0 56 -22.5t22 -55.5q0 -35 -26 -59t-61 -24q-34 0 -56.5 23t-22.5 55q0 35 26.5 59t61.5 24z" />
    <glyph glyph-name="R.alt" horiz-adv-x="666" 
d="M400 194q-1 64 -26.5 85.5t-80.5 21.5h-49l-50 -218h87l-19 -83h-310l19 83h38q11 0 22.5 10.5t13.5 20.5l107 469q2 11 -4.5 21t-17.5 10h-38l20 86h286q117 0 181 -44t64 -122q0 -84 -52.5 -135t-147.5 -64v-4q46 -14 72.5 -45.5t38.5 -105.5l12 -77q3 -20 25 -20h23
l-16 -73q-42 -17 -78 -17q-62 0 -89 30t-29 98zM314 608l-52 -229h74q149 0 149 146q0 83 -105 83h-66z" />
    <glyph glyph-name="a.alt" horiz-adv-x="568" 
d="M163 -8q-72 0 -114.5 45t-42.5 131q0 67 24 139t69 125q85 101 206 101q82 0 133 -54q53 46 100 46h29l-96 -417q-2 -9 4 -17t15 -8h28l-16 -74q-38 -16 -71 -16q-92 0 -104 78q-68 -79 -164 -79zM220 84q54 0 113 57l65 283q-32 13 -71 13q-83 0 -129.5 -77t-46.5 -188
q0 -42 18 -65t51 -23z" />
    <glyph glyph-name="f.alt" horiz-adv-x="317" 
d="M47 437l19 88h62l9 40q32 145 183 145q58 0 90 -14l-18 -82h-31q-35 0 -53.5 -11.5t-25.5 -42.5l-8 -35h90l-19 -88h-91l-102 -458q-33 -145 -171 -145q-47 0 -78 14l18 82h19q30 0 46 12t23 42l100 453h-62z" />
    <glyph glyph-name="g.alt" horiz-adv-x="565" 
d="M164 22q-71 0 -112.5 44.5t-41.5 129.5q0 134 84 238q38 48 92 73.5t111 25.5q52 0 82.5 -15t56.5 -47q47 54 95 54h46l-117 -506q-23 -100 -94 -145.5t-196 -45.5q-114 0 -190 28l26 107h84q24 -49 92 -49q109 0 130 91l21 94q-72 -77 -169 -77zM223 112q61 0 128 67
l54 239q-30 19 -78 19q-56 0 -96.5 -38t-58 -91.5t-17.5 -113.5q0 -40 18 -61t50 -21z" />
    <glyph glyph-name="y.alt" horiz-adv-x="508" 
d="M-40 -162l17 77q118 32 183 100l-70 399q-1 10 -8 16.5t-15 6.5h-20l17 78q49 17 86 17q43 0 59.5 -23t24.5 -69l36 -278q106 171 148 363h125l-20 -88q-38 -93 -82 -173t-133 -205q-106 -148 -229 -221h-119z" />
    <glyph glyph-name="z.alt" horiz-adv-x="458" 
d="M488 445l-343 -320v-4q29 0 70 -3t62 -3q43 0 62 39h74l-33 -142q-34 -19 -87 -19q-42 0 -105.5 24t-92.5 24q-39 0 -69 -41h-75l18 80l344 320v4q-29 0 -75 2.5t-66 2.5q-23 0 -33.5 -7.5t-18.5 -23.5h-74l32 142q37 12 85 12q42 0 108.5 -21.5t95.5 -21.5q38 0 64 36
h75z" />
    <glyph glyph-name="germandbls.alt" horiz-adv-x="601" 
d="M133 -21q-33 -145 -172 -145q-47 0 -78 14l18 82h19q30 0 46 12t23 42l114 531q19 87 88.5 141t189.5 54q85 0 147 -36t62 -97q0 -38 -23 -66.5t-67 -58.5q-51 -34 -77.5 -57t-26.5 -39q0 -4 1 -7.5t4.5 -8t6.5 -7.5t11 -9t14.5 -10.5t19.5 -14t24 -17.5q26 -19 42 -34
t30.5 -41t14.5 -54q0 -69 -58.5 -114t-153.5 -45q-76 0 -144 33l26 110h77q9 -57 60 -57q25 0 43 12.5t18 35.5q0 8 -3.5 15t-11.5 14.5t-14.5 12.5t-21 14.5t-21.5 14.5q-49 35 -68 58t-19 60q0 66 94 145q38 32 55 54t17 45q0 24 -18.5 38.5t-49.5 14.5q-97 0 -120 -104z
" />
    <glyph glyph-name="ampersand.alt" horiz-adv-x="680" 
d="M233 -8q-114 0 -176 48.5t-62 126.5q0 150 193 222q-28 51 -28 105q0 98 64.5 156t176.5 58q63 0 90 -8h118l-42 -180h-100l-4 74q-26 12 -60 12q-44 0 -68.5 -23.5t-24.5 -67.5q0 -48 36 -96l129 -175q42 72 67 169h128l-17 -75q-59 -116 -113 -182l35 -46
q8 -11 12 -15.5t10 -8t13 -3.5h18l-19 -83h-139l-40 53q-91 -61 -197 -61zM254 91q66 0 120 38l-145 196q-72 -49 -72 -137q0 -43 23.5 -70t73.5 -27z" />
    <glyph glyph-name="f_i.alt" horiz-adv-x="559" 
d="M282 560l-8 -35h179q106 0 82 -101l-73 -316q-2 -9 4 -17t15 -8h30l-16 -74q-38 -16 -89 -16q-60 0 -81 33t-8 90l74 321h-137l-102 -458q-33 -145 -171 -145q-47 0 -78 14l18 82h19q30 0 46 12t23 42l100 453h-62l19 88h62l9 40q32 145 183 145q58 0 90 -14l-18 -82h-31
q-35 0 -53.5 -11.5t-25.5 -42.5zM506 567q-32 0 -53 21.5t-21 52.5q0 33 24.5 56t58.5 23q32 0 53.5 -21.5t21.5 -52.5q0 -34 -25 -56.5t-59 -22.5z" />
    <glyph glyph-name="f_l.alt" horiz-adv-x="561" 
d="M47 437l19 88h62l9 40q32 145 183 145q48 0 85 -10h166q25 0 17 -34l-129 -558q-2 -9 4 -17t15 -8h33l-16 -74q-40 -16 -90 -16q-60 0 -81.5 33t-8.5 90l115 498h-69q-35 0 -53.5 -11.5t-25.5 -42.5l-8 -35h90l-19 -88h-91l-102 -458q-33 -145 -171 -145q-47 0 -78 14
l18 82h19q30 0 46 12t23 42l100 453h-62z" />
    <glyph glyph-name="f_f.alt" horiz-adv-x="597" 
d="M47 437l19 88h62l8 36q33 145 181 145q55 0 87 -14l-18 -82h-26q-35 0 -53.5 -11.5t-25.5 -42.5l-7 -31h134l9 40q32 145 183 145q58 0 90 -14l-18 -82h-31q-35 0 -53.5 -11.5t-25.5 -42.5l-8 -35h90l-19 -88h-91l-100 -452q-33 -145 -171 -145q-43 0 -74 14l18 82h15
q30 0 46 12t23 42l98 447h-135l-102 -458q-33 -145 -171 -145q-47 0 -78 14l18 82h19q30 0 46 12t23 42l99 453h-61z" />
    <glyph glyph-name="f_b.alt" horiz-adv-x="861" 
d="M708 534q67 0 107.5 -45t40.5 -133q0 -67 -25.5 -145.5t-69.5 -129.5q-77 -88 -194 -88q-88 0 -137 59q-19 -21 -42 -36.5t-34 -15.5h-64l140 614h-69q-35 0 -53.5 -11.5t-25.5 -42.5l-8 -35h90l-19 -88h-91l-102 -458q-33 -145 -171 -145q-47 0 -78 14l18 82h19
q30 0 46 12t23 42l100 453h-62l19 88h62l9 40q32 145 183 145q48 0 85 -10h166q25 0 17 -34l-47 -208q76 76 167 76zM635 430q-53 0 -111 -44l-66 -288q30 -18 77 -18q85 0 130.5 73.5t45.5 182.5q0 46 -20.5 70t-55.5 24z" />
    <glyph glyph-name="f_h.alt" horiz-adv-x="867" 
d="M683 365q12 56 -32 56q-58 0 -131 -53l-84 -368h-115q-14 0 -21 10t-3 25l133 579h-69q-35 0 -53.5 -11.5t-25.5 -42.5l-8 -35h90l-19 -88h-91l-102 -458q-33 -145 -171 -145q-47 0 -78 14l18 82h19q30 0 46 12t23 42l100 453h-62l19 88h62l9 40q32 145 183 145
q48 0 85 -10h166q25 0 17 -34l-52 -226q105 93 201 93q65 0 89.5 -37.5t10.5 -97.5l-67 -290q-2 -9 4 -17t15 -8h28l-16 -74q-38 -16 -86 -16q-60 0 -81 33t-8 90z" />
    <glyph glyph-name="f_j.alt" horiz-adv-x="541" 
d="M504 567q-32 0 -53 21.5t-21 52.5q0 33 24.5 56t58.5 23q32 0 53.5 -21.5t21.5 -52.5q0 -34 -25 -56.5t-59 -22.5zM287 -13l102 450h-135l-102 -458q-33 -145 -171 -145q-47 0 -78 14l18 82h19q30 0 46 12t23 42l100 453h-62l19 88h62l9 40q32 145 181 145q56 0 88 -14
l-18 -82h-29q-35 0 -52.5 -11t-24.5 -43l-8 -35h177q47 0 70 -25t12 -76l-101 -446q-18 -80 -59.5 -113t-114.5 -33q-46 0 -84 14l17 70h19q36 0 52 16t25 55z" />
    <glyph glyph-name="f_k.alt" horiz-adv-x="812" 
d="M600 75l-57 136q-37 -22 -68 -38l-39 -173h-115q-14 0 -21 10t-3 25l133 579h-69q-35 0 -53.5 -11.5t-25.5 -42.5l-8 -35h90l-19 -88h-91l-102 -458q-33 -145 -171 -145q-47 0 -78 14l18 82h19q30 0 46 12t23 42l100 453h-62l19 88h62l9 40q32 145 183 145q48 0 85 -10
h166q25 0 17 -34l-87 -378q175 116 202 237h138l-15 -68q-61 -79 -172 -168l84 -181q12 -25 31 -25h17l-16 -74q-34 -16 -74 -16q-22 0 -37.5 5.5t-26.5 18.5t-17 25t-15 33z" />
    <glyph glyph-name="f_t.alt" horiz-adv-x="594" 
d="M47 437l19 88h62l9 40q32 145 181 145q52 0 84 -14l-18 -82h-25q-35 0 -52.5 -11t-24.5 -43l-8 -35h126l32 140h146l-32 -140h94l-19 -88h-96l-63 -277q-17 -77 57 -77h25l-17 -78q-37 -13 -79 -13q-84 0 -116.5 45t-14.5 126l63 274h-126l-102 -458q-33 -145 -171 -145
q-47 0 -78 14l18 82h19q30 0 46 12t23 42l100 453h-62z" />
    <glyph glyph-name="f_f_i.alt" horiz-adv-x="839" 
d="M671 437h-137l-100 -452q-33 -145 -171 -145q-43 0 -74 14l18 82h15q30 0 46 12t23 42l98 447h-135l-102 -458q-33 -145 -171 -145q-47 0 -78 14l18 82h19q30 0 46 12t23 42l99 453h-61l19 88h62l8 36q32 145 181 145q55 0 87 -14l-18 -82h-26q-35 0 -53.5 -11.5
t-25.5 -42.5l-7 -31h134l9 40q33 145 183 145q58 0 90 -14l-18 -82h-31q-35 0 -53.5 -11.5t-25.5 -42.5l-8 -35h179q106 0 82 -101l-73 -316q-2 -9 4 -17t15 -8h30l-16 -74q-38 -16 -89 -16q-60 0 -81 33t-8 90zM786 567q-32 0 -53 21.5t-21 52.5q0 33 24.5 56t58.5 23
q32 0 53.5 -21.5t21.5 -52.5q0 -34 -25 -56.5t-59 -22.5z" />
    <glyph glyph-name="f_f_l.alt" horiz-adv-x="841" 
d="M47 437l19 88h62l8 36q33 145 181 145q55 0 87 -14l-18 -82h-26q-35 0 -53.5 -11.5t-25.5 -42.5l-7 -31h134l9 40q32 145 183 145q48 0 85 -10h166q25 0 17 -34l-129 -558q-2 -9 4 -17t15 -8h33l-16 -74q-40 -16 -90 -16q-60 0 -81.5 33t-8.5 90l115 498h-69
q-35 0 -53.5 -11.5t-25.5 -42.5l-8 -35h90l-19 -88h-91l-100 -452q-33 -145 -171 -145q-43 0 -74 14l18 82h15q30 0 46 12t23 42l98 447h-135l-102 -458q-33 -145 -171 -145q-47 0 -78 14l18 82h19q30 0 46 12t23 42l99 453h-61z" />
    <glyph glyph-name="f_f_b.alt" horiz-adv-x="1141" 
d="M988 534q67 0 107.5 -45t40.5 -133q0 -67 -25.5 -145.5t-69.5 -129.5q-77 -88 -194 -88q-88 0 -137 59q-19 -21 -42 -36.5t-34 -15.5h-64l140 614h-69q-35 0 -53.5 -11.5t-25.5 -42.5l-8 -35h90l-19 -88h-91l-100 -452q-33 -145 -171 -145q-43 0 -74 14l18 82h15
q30 0 46 12t23 42l98 447h-135l-102 -458q-33 -145 -171 -145q-47 0 -78 14l18 82h19q30 0 46 12t23 42l99 453h-61l19 88h62l8 36q33 145 181 145q55 0 87 -14l-18 -82h-26q-35 0 -53.5 -11.5t-25.5 -42.5l-7 -31h134l9 40q32 145 183 145q48 0 85 -10h166q25 0 17 -34
l-47 -208q76 76 167 76zM915 430q-53 0 -111 -44l-66 -288q30 -18 77 -18q85 0 130.5 73.5t45.5 182.5q0 46 -20.5 70t-55.5 24z" />
    <glyph glyph-name="f_f_h.alt" horiz-adv-x="1147" 
d="M963 365q12 56 -32 56q-58 0 -131 -53l-84 -368h-115q-14 0 -21 10t-3 25l133 579h-69q-35 0 -53.5 -11.5t-25.5 -42.5l-8 -35h90l-19 -88h-91l-100 -452q-33 -145 -171 -145q-43 0 -74 14l18 82h15q30 0 46 12t23 42l98 447h-135l-102 -458q-33 -145 -171 -145
q-47 0 -78 14l18 82h19q30 0 46 12t23 42l99 453h-61l19 88h62l8 36q33 145 181 145q55 0 87 -14l-18 -82h-26q-35 0 -53.5 -11.5t-25.5 -42.5l-7 -31h134l9 40q32 145 183 145q48 0 85 -10h166q25 0 17 -34l-52 -226q105 93 201 93q65 0 89.5 -37.5t10.5 -97.5l-67 -290
q-2 -9 4 -17t15 -8h28l-16 -74q-38 -16 -86 -16q-60 0 -81 33t-8 90z" />
    <glyph glyph-name="f_f_j.alt" horiz-adv-x="821" 
d="M813 424l-102 -446q-18 -80 -59.5 -113t-115.5 -33q-44 0 -83 14l17 70h19q36 0 52 16t25 55l104 450h-136l-100 -452q-33 -145 -171 -145q-43 0 -74 14l18 82h15q30 0 46 12t23 42l98 447h-135l-102 -458q-33 -145 -171 -145q-47 0 -78 14l18 82h19q30 0 46 12t23 42
l99 453h-61l19 88h62l8 36q33 145 181 145q55 0 87 -14l-18 -82h-26q-35 0 -53.5 -11.5t-25.5 -42.5l-7 -31h134l9 40q32 145 181 145q56 0 88 -14l-18 -82h-29q-35 0 -52.5 -11t-24.5 -43l-8 -35h177q47 0 70 -25t12 -76zM784 567q-32 0 -53 21.5t-21 52.5q0 33 24.5 56
t58.5 23q32 0 53.5 -21.5t21.5 -52.5q0 -34 -25 -56.5t-59 -22.5z" />
    <glyph glyph-name="f_f_k.alt" horiz-adv-x="1092" 
d="M880 75l-57 136q-37 -22 -68 -38l-39 -173h-115q-14 0 -21 10t-3 25l133 579h-69q-35 0 -53.5 -11.5t-25.5 -42.5l-8 -35h90l-19 -88h-91l-100 -452q-33 -145 -171 -145q-43 0 -74 14l18 82h15q30 0 46 12t23 42l98 447h-135l-102 -458q-33 -145 -171 -145q-47 0 -78 14
l18 82h19q30 0 46 12t23 42l99 453h-61l19 88h62l8 36q33 145 181 145q55 0 87 -14l-18 -82h-26q-35 0 -53.5 -11.5t-25.5 -42.5l-7 -31h134l9 40q32 145 183 145q48 0 85 -10h166q25 0 17 -34l-87 -378q175 116 202 237h138l-15 -68q-61 -79 -172 -168l84 -181
q12 -25 31 -25h17l-16 -74q-34 -16 -74 -16q-22 0 -37.5 5.5t-26.5 18.5t-17 25t-15 33z" />
    <glyph glyph-name="f_f_t.alt" horiz-adv-x="874" 
d="M47 437l19 88h62l8 36q33 145 181 145q55 0 87 -14l-18 -82h-26q-35 0 -53.5 -11.5t-25.5 -42.5l-7 -31h134l9 40q32 145 181 145q52 0 84 -14l-18 -82h-25q-35 0 -52.5 -11t-24.5 -43l-8 -35h126l32 140h146l-32 -140h94l-19 -88h-96l-63 -277q-17 -77 57 -77h25
l-17 -78q-37 -13 -79 -13q-84 0 -116.5 45t-14.5 126l63 274h-126l-102 -458q-33 -145 -171 -145q-47 0 -78 14l18 82h19q30 0 46 12t23 42l100 453h-135l-102 -458q-33 -145 -171 -145q-47 0 -78 14l18 82h19q30 0 46 12t23 42l99 453h-61z" />
    <glyph glyph-name="f_igrave.alt" horiz-adv-x="559" 
d="M406 -7q-60 0 -81 33t-8 90l74 321h-137l-102 -458q-33 -145 -171 -145q-47 0 -78 14l18 82h19q30 0 46 12t23 42l100 453h-62l19 88h62l9 40q17 73 61.5 109t106.5 36q44 0 76 -14l-18 -82h-12q-31 0 -46.5 -11t-22.5 -43l-8 -35h179q106 0 82 -101l-73 -316
q-2 -9 4 -17t15 -8h30l-16 -74q-38 -16 -89 -16zM465 562l-69 88l11 50h122l13 -138h-77z" />
    <glyph glyph-name="f_iacute.alt" horiz-adv-x="559" 
d="M406 -7q-60 0 -81 33t-8 90l74 321h-137l-102 -458q-33 -145 -171 -145q-47 0 -78 14l18 82h19q30 0 46 12t23 42l100 453h-62l19 88h62l9 40q33 145 183 145q58 0 90 -14l-18 -82h-31q-35 0 -53.5 -11.5t-25.5 -42.5l-8 -35h179q106 0 82 -101l-73 -316q-2 -9 4 -17
t15 -8h30l-16 -74q-38 -16 -89 -16zM438 562l49 138h147l-12 -50l-102 -88h-82z" />
    <glyph glyph-name="f_icircumflex.alt" horiz-adv-x="559" 
d="M406 -7q-60 0 -81 33t-8 90l74 321h-137l-102 -458q-33 -145 -171 -145q-47 0 -78 14l18 82h19q30 0 46 12t23 42l100 453h-62l19 88h62l9 40q33 145 175 145q48 0 80 -14l-18 -82h-21q-31 0 -47.5 -11.5t-23.5 -42.5l-8 -35h179q106 0 82 -101l-73 -316q-2 -9 4 -17
t15 -8h30l-16 -74q-38 -16 -89 -16zM378 562l9 37l71 101h114l39 -101l-9 -37h-50l-47 60l-69 -60h-58z" />
    <glyph glyph-name="f_idieresis.alt" horiz-adv-x="559" 
d="M406 -7q-60 0 -81 33t-8 90l74 321h-137l-102 -458q-33 -145 -171 -145q-47 0 -78 14l18 82h19q30 0 46 12t23 42l100 453h-62l19 88h62l9 40q33 145 168 145q45 0 75 -14l-18 -82h-10q-31 0 -47 -11t-23 -43l-8 -35h179q106 0 82 -101l-73 -316q-2 -9 4 -17t15 -8h30
l-16 -74q-38 -16 -89 -16zM446 571q-28 0 -46 18t-18 43q0 32 21 53t50 21q28 0 47.5 -18.5t19.5 -42.5q0 -33 -22 -53.5t-52 -20.5zM597 571q-28 0 -46 18t-18 43q0 32 21 53t50 21q28 0 47.5 -18.5t19.5 -42.5q0 -33 -22 -53.5t-52 -20.5z" />
    <glyph glyph-name="f_iogonek.alt" horiz-adv-x="559" 
d="M-19 -166q-47 0 -78 14l18 82h19q30 0 46 12t23 42l100 453h-62l19 88h62l9 40q32 145 183 145q58 0 90 -14l-18 -82h-31q-35 0 -53.5 -11.5t-25.5 -42.5l-8 -35h179q106 0 82 -101l-73 -316q-2 -9 4 -17t15 -8h30l-16 -74q-66 -35 -66 -70q0 -23 36 -23h19l-15 -64
q-34 -17 -70 -17q-42 0 -64 18t-22 49q0 57 85 92q-54 3 -74 35.5t-7 86.5l74 321h-137l-102 -458q-33 -145 -171 -145zM506 567q-32 0 -53 21.5t-21 52.5q0 33 24.5 56t58.5 23q32 0 53.5 -21.5t21.5 -52.5q0 -34 -25 -56.5t-59 -22.5z" />
    <glyph glyph-name="f_imacron.alt" horiz-adv-x="559" 
d="M406 -7q-60 0 -81 33t-8 90l74 321h-137l-102 -458q-33 -145 -171 -145q-47 0 -78 14l18 82h19q30 0 46 12t23 42l100 453h-62l19 88h62l9 40q33 145 175 145q48 0 80 -14l-18 -82h-21q-32 0 -48 -11t-23 -43l-8 -35h179q106 0 82 -101l-73 -316q-2 -9 4 -17t15 -8h30
l-16 -74q-38 -16 -89 -16zM393 585l21 94h213l-21 -94h-213z" />
    <glyph glyph-name="f_f_igrave.alt" horiz-adv-x="839" 
d="M263 -160q-43 0 -74 14l18 82h15q30 0 46 12t23 42l98 447h-135l-102 -458q-33 -145 -171 -145q-47 0 -78 14l18 82h19q30 0 46 12t23 42l99 453h-61l19 88h62l8 36q32 145 181 145q55 0 87 -14l-18 -82h-26q-35 0 -53.5 -11.5t-25.5 -42.5l-7 -31h134l9 40
q17 73 61.5 109t106.5 36q44 0 76 -14l-18 -82h-12q-31 0 -46.5 -11t-22.5 -43l-8 -35h179q106 0 82 -101l-73 -316q-2 -9 4 -17t15 -8h30l-16 -74q-38 -16 -89 -16q-60 0 -81 33t-8 90l74 321h-137l-100 -452q-32 -145 -171 -145zM745 562l-69 88l11 50h122l13 -138h-77z
" />
    <glyph glyph-name="f_f_iacute.alt" horiz-adv-x="839" 
d="M263 -160q-43 0 -74 14l18 82h15q30 0 46 12t23 42l98 447h-135l-102 -458q-33 -145 -171 -145q-47 0 -78 14l18 82h19q30 0 46 12t23 42l99 453h-61l19 88h62l8 36q32 145 181 145q55 0 87 -14l-18 -82h-26q-35 0 -53.5 -11.5t-25.5 -42.5l-7 -31h134l9 40
q33 145 183 145q58 0 90 -14l-18 -82h-31q-35 0 -53.5 -11.5t-25.5 -42.5l-8 -35h179q106 0 82 -101l-73 -316q-2 -9 4 -17t15 -8h30l-16 -74q-38 -16 -89 -16q-60 0 -81 33t-8 90l74 321h-137l-100 -452q-33 -145 -171 -145zM718 562l49 138h147l-12 -50l-102 -88h-82z" />
    <glyph glyph-name="f_f_icircumflex.alt" horiz-adv-x="839" 
d="M263 -160q-43 0 -74 14l18 82h15q30 0 46 12t23 42l98 447h-135l-102 -458q-33 -145 -171 -145q-47 0 -78 14l18 82h19q30 0 46 12t23 42l99 453h-61l19 88h62l8 36q32 145 181 145q55 0 87 -14l-18 -82h-26q-35 0 -53.5 -11.5t-25.5 -42.5l-7 -31h134l9 40
q33 145 175 145q48 0 80 -14l-18 -82h-21q-31 0 -47.5 -11.5t-23.5 -42.5l-8 -35h179q106 0 82 -101l-73 -316q-2 -9 4 -17t15 -8h30l-16 -74q-38 -16 -89 -16q-60 0 -81 33t-8 90l74 321h-137l-100 -452q-33 -145 -171 -145zM658 562l9 37l71 101h114l39 -101l-9 -37h-50
l-47 60l-69 -60h-58z" />
    <glyph glyph-name="f_f_idieresis.alt" horiz-adv-x="839" 
d="M263 -160q-43 0 -74 14l18 82h15q30 0 46 12t23 42l98 447h-135l-102 -458q-33 -145 -171 -145q-47 0 -78 14l18 82h19q30 0 46 12t23 42l99 453h-61l19 88h62l8 36q32 145 181 145q55 0 87 -14l-18 -82h-26q-35 0 -53.5 -11.5t-25.5 -42.5l-7 -31h134l9 40
q33 145 168 145q45 0 75 -14l-18 -82h-10q-31 0 -47 -11t-23 -43l-8 -35h179q106 0 82 -101l-73 -316q-2 -9 4 -17t15 -8h30l-16 -74q-38 -16 -89 -16q-60 0 -81 33t-8 90l74 321h-137l-100 -452q-33 -145 -171 -145zM726 571q-28 0 -46 18t-18 43q0 32 21 53t50 21
q28 0 47.5 -18.5t19.5 -42.5q0 -33 -22 -53.5t-52 -20.5zM877 571q-28 0 -46 18t-18 43q0 32 21 53t50 21q28 0 47.5 -18.5t19.5 -42.5q0 -33 -22 -53.5t-52 -20.5z" />
    <glyph glyph-name="f_f_iogonek.alt" horiz-adv-x="839" 
d="M-19 -166q-47 0 -78 14l18 82h19q30 0 46 12t23 42l99 453h-61l19 88h62l8 36q32 145 181 145q55 0 87 -14l-18 -82h-26q-35 0 -53.5 -11.5t-25.5 -42.5l-7 -31h134l9 40q33 145 183 145q58 0 90 -14l-18 -82h-31q-35 0 -53.5 -11.5t-25.5 -42.5l-8 -35h179
q106 0 82 -101l-73 -316q-2 -9 4 -17t15 -8h30l-16 -74q-66 -35 -66 -70q0 -23 36 -23h19l-15 -64q-34 -17 -70 -17q-42 0 -64 18t-22 49q0 57 85 92q-54 3 -74 35.5t-7 86.5l74 321h-137l-100 -452q-33 -145 -171 -145q-43 0 -74 14l18 82h15q30 0 46 12t23 42l98 447h-135
l-102 -458q-33 -145 -171 -145zM786 567q-32 0 -53 21.5t-21 52.5q0 33 24.5 56t58.5 23q32 0 53.5 -21.5t21.5 -52.5q0 -34 -25 -56.5t-59 -22.5z" />
    <glyph glyph-name="f_f_imacron.alt" horiz-adv-x="839" 
d="M263 -160q-43 0 -74 14l18 82h15q30 0 46 12t23 42l98 447h-135l-102 -458q-33 -145 -171 -145q-47 0 -78 14l18 82h19q30 0 46 12t23 42l99 453h-61l19 88h62l8 36q32 145 181 145q55 0 87 -14l-18 -82h-26q-35 0 -53.5 -11.5t-25.5 -42.5l-7 -31h134l9 40
q33 145 175 145q48 0 80 -14l-18 -82h-21q-32 0 -48 -11t-23 -43l-8 -35h179q106 0 82 -101l-73 -316q-2 -9 4 -17t15 -8h30l-16 -74q-38 -16 -89 -16q-60 0 -81 33t-8 90l74 321h-137l-100 -452q-33 -145 -171 -145zM673 585l21 94h213l-21 -94h-213z" />
    <glyph glyph-name="zero.num" horiz-adv-x="383" 
d="M218 309q-70 0 -110.5 41t-40.5 112q0 94 55 164q61 79 156 79q68 0 108.5 -42.5t40.5 -112.5q0 -99 -56 -167q-61 -74 -153 -74zM222 379q44 0 68 55q27 59 27 131q0 66 -46 66q-42 0 -67 -56q-28 -63 -28 -129q0 -67 46 -67z" />
    <glyph glyph-name="one.num" horiz-adv-x="253" 
d="M25 315l14 60h45q4 0 10 5.5t8 10.5l51 222l-44 -21h-26l15 63l107 45h82l-71 -309q-2 -5 0.5 -10.5t7.5 -5.5h48l-14 -60h-233z" />
    <glyph glyph-name="two.num" horiz-adv-x="303" 
d="M20 315l11 45q12 49 42 81t83 63q8 5 25 15t24.5 14.5t19.5 13t17 15t9 16t4 19.5q0 34 -38 34q-39 0 -64 -37h-56l21 91q56 20 114 20q64 0 98.5 -24.5t34.5 -71.5q0 -28 -10 -50.5t-32.5 -40.5t-40 -28t-49.5 -26q-80 -39 -94 -69h102l14 31h66l-25 -111h-276z" />
    <glyph glyph-name="three.num" horiz-adv-x="301" 
d="M156 310q-80 0 -132 25l19 80h56q11 -36 55 -36q27 0 44.5 14.5t17.5 44.5q0 38 -52 38h-29l15 65h30q32 0 49 15.5t17 38.5q0 37 -42 37q-33 0 -56 -30h-55l20 84q59 19 108 19q61 0 95.5 -24.5t34.5 -66.5q0 -84 -94 -105v-2q31 -5 49 -24t18 -48q0 -58 -45 -91.5
t-123 -33.5z" />
    <glyph glyph-name="four.num" horiz-adv-x="330" 
d="M138 315l14 60h29q4 0 10 5.5t7 10.5l5 24h-160l18 76l211 209h107l-51 -221h45l-15 -64h-45l-5 -24q-2 -5 0.5 -10.5t7.5 -5.5h33l-14 -60h-197zM128 479h93l28 123h-2l-119 -121v-2z" />
    <glyph glyph-name="five.num" horiz-adv-x="301" 
d="M154 309q-76 0 -130 26l18 78h58q11 -34 54 -34q27 0 46.5 19t19.5 52q0 43 -45 43q-29 0 -50 -23h-63l54 230h251l-24 -102h-66l-3 24h-99l-20 -86h1q29 21 70 21q46 0 75 -26t29 -69q0 -70 -48 -111.5t-128 -41.5z" />
    <glyph glyph-name="six.num" horiz-adv-x="349" 
d="M206 309q-67 0 -104.5 36.5t-37.5 99.5q0 117 69 191q64 69 168 69q65 0 106 -17l-18 -79h-55q-13 20 -44 20q-50 0 -79 -42q-17 -27 -28 -62q40 34 96 34q47 0 73.5 -24t26.5 -67q0 -69 -48 -114t-125 -45zM225 495q-27 0 -52 -14q-4 -24 -4 -53q0 -55 40 -55
q29 0 44.5 23.5t15.5 59.5q0 39 -44 39z" />
    <glyph glyph-name="seven.num" horiz-adv-x="293" 
d="M70 315l11 46l211 256v2h-126l-21 -46h-67l30 127h277l-20 -87l-182 -298h-113z" />
    <glyph glyph-name="eight.num" horiz-adv-x="346" 
d="M201 309q-75 0 -113 28t-38 73q0 43 26.5 72.5t73.5 40.5v2q-43 18 -43 63q0 54 45 86t110 32q63 0 98 -26t35 -67q0 -35 -21.5 -59.5t-58.5 -35.5v-2q57 -21 57 -73q0 -61 -46.5 -97.5t-124.5 -36.5zM243 547q23 0 36.5 14.5t13.5 40.5q0 15 -9.5 25.5t-26.5 10.5
q-24 0 -38 -16t-14 -41q0 -15 10 -24.5t28 -9.5zM204 376q29 0 47 21t18 49q0 45 -49 45q-28 0 -45.5 -21t-17.5 -49q0 -45 47 -45z" />
    <glyph glyph-name="nine.num" horiz-adv-x="349" 
d="M256 705q66 0 104 -39t38 -102q0 -115 -67 -187q-62 -67 -170 -67q-66 0 -110 17l18 77h55q16 -20 48 -20q54 0 81 42q17 24 27 65q-39 -37 -94 -37q-48 0 -75.5 24.5t-27.5 67.5q0 69 48 114t125 45zM237 518q24 0 52 15q4 36 4 53q0 55 -40 55q-29 0 -45 -22.5
t-16 -59.5q0 -41 45 -41z" />
    <glyph glyph-name="zero.den" horiz-adv-x="383" 
d="M145 -6q-70 0 -110.5 41t-40.5 112q0 94 55 164q61 79 156 79q68 0 108.5 -42.5t40.5 -112.5q0 -99 -56 -167q-61 -74 -153 -74zM149 64q44 0 68 55q27 59 27 131q0 66 -46 66q-42 0 -67 -56q-28 -63 -28 -129q0 -67 46 -67z" />
    <glyph glyph-name="one.den" horiz-adv-x="253" 
d="M-48 0l14 60h45q4 0 10 5.5t8 10.5l51 222l-44 -21h-26l15 63l107 45h82l-71 -309q-2 -5 0.5 -10.5t7.5 -5.5h48l-14 -60h-233z" />
    <glyph glyph-name="two.den" horiz-adv-x="303" 
d="M-53 0l11 45q12 49 42 81t83 63q8 5 25 15t24.5 14.5t19.5 13t17 15t9 16t4 19.5q0 34 -38 34q-39 0 -64 -37h-56l21 91q56 20 114 20q64 0 98.5 -24.5t34.5 -71.5q0 -28 -10 -50.5t-32.5 -40.5t-40 -28t-49.5 -26q-80 -39 -94 -69h102l14 31h66l-25 -111h-276z" />
    <glyph glyph-name="three.den" horiz-adv-x="301" 
d="M84 -5q-80 0 -132 25l19 80h56q11 -36 55 -36q27 0 44.5 14.5t17.5 44.5q0 38 -52 38h-29l15 65h30q32 0 49 15.5t17 38.5q0 37 -42 37q-33 0 -56 -30h-55l20 84q59 19 108 19q61 0 95.5 -24.5t34.5 -66.5q0 -84 -94 -105v-2q31 -5 49 -24t18 -48q0 -58 -45 -91.5
t-123 -33.5z" />
    <glyph glyph-name="four.den" horiz-adv-x="330" 
d="M65 0l14 60h29q4 0 10 5.5t7 10.5l5 24h-160l18 76l211 209h107l-51 -221h45l-15 -64h-45l-5 -24q-2 -5 0.5 -10.5t7.5 -5.5h33l-14 -60h-197zM55 166v-2h93l28 123h-2z" />
    <glyph glyph-name="five.den" horiz-adv-x="302" 
d="M82 -6q-76 0 -130 26l18 78h58q11 -34 54 -34q27 0 46.5 19t19.5 52q0 43 -45 43q-29 0 -50 -23h-63l54 230h251l-24 -102h-66l-3 24h-99l-20 -86h1q29 21 70 21q46 0 75 -26t29 -69q0 -70 -48 -111.5t-128 -41.5z" />
    <glyph glyph-name="six.den" horiz-adv-x="349" 
d="M133 -6q-67 0 -104.5 36.5t-37.5 99.5q0 117 69 191q64 69 168 69q65 0 106 -17l-18 -79h-55q-13 20 -44 20q-51 0 -79 -42q-17 -27 -28 -62q40 34 96 34q47 0 73.5 -24t26.5 -67q0 -69 -48 -114t-125 -45zM152 180q-28 0 -52 -14q-4 -24 -4 -53q0 -55 40 -55
q29 0 44.5 23.5t15.5 59.5q0 39 -44 39z" />
    <glyph glyph-name="seven.den" horiz-adv-x="294" 
d="M-2 0l11 46l211 256v2h-126l-21 -46h-67l30 127h277l-20 -87l-182 -298h-113z" />
    <glyph glyph-name="eight.den" horiz-adv-x="345" 
d="M128 -6q-75 0 -113 28t-38 73q0 43 26.5 72.5t73.5 40.5v2q-43 18 -43 63q0 54 45 86t110 32q63 0 98 -26t35 -67q0 -35 -21.5 -59.5t-58.5 -35.5v-2q57 -21 57 -73q0 -61 -46.5 -97.5t-124.5 -36.5zM170 232q23 0 36.5 14.5t13.5 40.5q0 15 -9.5 25.5t-26.5 10.5
q-24 0 -38 -16t-14 -41q0 -15 10 -24.5t28 -9.5zM131 61q29 0 47 21t18 49q0 45 -49 45q-28 0 -45.5 -21t-17.5 -49q0 -45 47 -45z" />
    <glyph glyph-name="nine.den" horiz-adv-x="349" 
d="M183 390q66 0 104 -39t38 -102q0 -115 -67 -187q-62 -67 -170 -67q-66 0 -110 17l18 77h55q16 -20 48 -20q54 0 81 42q17 24 27 65q-39 -37 -94 -37q-48 0 -75.5 24.5t-27.5 67.5q0 69 48 114t125 45zM164 203q24 0 52 15q4 36 4 53q0 55 -40 55q-29 0 -45 -22.5
t-16 -59.5q0 -41 45 -41z" />
    <glyph glyph-name="dollar.tab" 
d="M381 764h74l-14 -60q57 -6 152 -34l-33 -142h-81q-15 60 -60 78l-46 -199q39 -18 58 -29t45.5 -33.5t38 -53t11.5 -72.5q0 -100 -68.5 -161.5t-195.5 -65.5l-22 -94h-74l22 97q-94 7 -177 43l32 140h88q12 -40 30 -60.5t50 -27.5l49 214l-10 6q-67 34 -101 72t-34 110
q0 95 65 154.5t188 61.5zM384 192q0 28 -14.5 46t-43.5 33l-42 -182q100 14 100 103zM246 519q0 -28 14.5 -45.5t45.5 -34.5l40 176q-47 -5 -73.5 -29.5t-26.5 -66.5z" />
    <glyph glyph-name="Euro.tab" 
d="M57 374l17 72h43q22 64 49 103q50 75 125 117t168 42q106 0 187 -37l-34 -145h-84q-17 80 -81 80q-50 0 -83.5 -24t-60.5 -73q-10 -19 -26 -63h193l-32 -72h-182q-4 -20 -10 -60h166l-31 -72h-142q-1 -9 -1 -25q0 -126 106 -126q40 0 67 16.5t53 48.5h79l-26 -120
q-90 -44 -183 -44q-115 0 -182 66t-67 184h-58l16 72h45q3 30 9 60h-40z" />
    <glyph glyph-name="sterling.tab" 
d="M425 0q-159 0 -260 48q-34 -26 -88 -48h-77l19 82q60 11 93.5 64.5t33.5 141.5v21h-75l20 87h51q-1 17 -1 50q0 73 23 125.5t63.5 81t86.5 41.5t101 13q124 0 204 -45l-31 -137h-86q-19 81 -98 81q-81 0 -101 -90q-4 -18 -12 -120h161l-20 -87h-148q-7 -65 -16 -102
q-11 -44 -29 -76q80 -16 156 -16l30 76h97l-44 -191h-53z" />
    <glyph glyph-name="yen.tab" 
d="M61 313l17 72h138l-73 206q-8 23 -28 23h-11l20 86h253l-20 -86h-55l54 -195h2l85 125q22 34 16 52t-34 18h-9l20 86h244l-20 -86h-19q-22 0 -44 -27l-156 -202h139l-17 -72h-173l-14 -60h173l-16 -72h-174l-15 -67q-3 -11 2 -21t15 -10h49l-19 -83h-302l19 83h44
q11 0 22.5 10.5t13.5 20.5l15 67h-172l16 72h173l14 60h-173z" />
    <glyph glyph-name="zero.tab" 
d="M252 -7q-98 0 -153.5 61t-55.5 163t30.5 200.5t83.5 168.5q91 122 226 122q103 0 156 -62t53 -166q0 -88 -25.5 -181t-69.5 -162q-95 -146 -245 -144zM191 197q0 -105 73 -105q36 0 63 27t51 87q27 71 46 157t19 142q0 101 -72 101q-63 0 -107 -98q-30 -68 -51.5 -160
t-21.5 -151z" />
    <glyph glyph-name="one.tab" 
d="M41 0l19 83h96q10 0 21.5 10.5t13.5 20.5l102 448l-99 -40h-35l19 83l199 95h105l-134 -586q-3 -11 1.5 -21t14.5 -10h108l-19 -83h-412z" />
    <glyph glyph-name="two.tab" 
d="M-7 0l15 63q21 88 76.5 146.5t159.5 123.5q10 7 47 29t48.5 30t37 28t34.5 33.5t18 35t9 44.5q0 33 -18.5 53t-54.5 20q-81 0 -133 -79h-87l33 145q103 36 196 36q102 0 163 -43.5t61 -123.5q0 -52 -21 -94.5t-61 -75t-79.5 -56t-93.5 -50.5q-10 -5 -15 -7
q-147 -75 -175 -143h232l28 76h99l-43 -191h-476z" />
    <glyph glyph-name="three.tab" 
d="M226 -8q-122 0 -220 43l30 132h83q9 -34 38.5 -54.5t74.5 -20.5q60 0 97.5 32t37.5 98q0 42 -28.5 65t-81.5 23h-45l20 93h47q71 0 107.5 35t36.5 86q0 80 -85 80q-71 0 -115 -65h-85l31 133q38 13 58.5 19t54.5 11.5t71 5.5q103 0 162.5 -44t59.5 -119q0 -148 -176 -191
v-4q58 -8 89.5 -43.5t31.5 -88.5q0 -105 -79 -165.5t-215 -60.5z" />
    <glyph glyph-name="four.tab" 
d="M186 0l19 83h46q10 0 21.5 10.5t13.5 20.5l12 53h-271l26 119l375 414h145l-100 -435h75l-22 -98h-75l-12 -53q-3 -11 1.5 -21t14.5 -10h51l-19 -83h-301zM143 269v-4h177l61 268h-4z" />
    <glyph glyph-name="five.tab" 
d="M227 -8q-124 0 -216 45l29 126h87q21 -71 107 -71q60 0 100 41t40 116q0 94 -91 94q-65 0 -105 -47h-93l93 404h428l-39 -167h-97l-3 53h-203l-41 -178h3q46 35 120 35q83 0 133.5 -45.5t50.5 -129.5q0 -124 -81.5 -200t-221.5 -76z" />
    <glyph glyph-name="six.tab" 
d="M277 -8q-106 0 -167 64t-61 177q0 107 36 204t98 161q52 53 113.5 81t150.5 28q95 0 170 -28l-26 -113h-84q-24 42 -80 42q-91 0 -148 -86q-34 -52 -58 -149q73 71 163 71q82 0 129.5 -44.5t47.5 -122.5q0 -122 -78.5 -203.5t-205.5 -81.5zM317 346q-53 0 -109 -36
q-9 -52 -9 -105q0 -61 20 -90.5t65 -29.5q57 0 88.5 52.5t31.5 121.5q0 87 -87 87z" />
    <glyph glyph-name="seven.tab" 
d="M82 0l13 61l419 519l1 4h-277l-39 -91h-95l47 207h494l-30 -127l-376 -573h-157z" />
    <glyph glyph-name="eight.tab" 
d="M270 -8q-118 0 -180 50.5t-62 128.5q0 80 48 135t134 76q-80 38 -80 119q0 92 75 149.5t176 57.5t158 -45.5t57 -116.5q0 -63 -40 -110t-110 -67q105 -42 105 -141q0 -106 -79.5 -171t-201.5 -65zM275 88q57 0 91.5 42.5t34.5 103.5q0 42 -24 67t-74 25
q-54 0 -87.5 -42.5t-33.5 -102.5q0 -42 23 -67.5t70 -25.5zM344 419q42 0 72.5 32t30.5 86q0 32 -18.5 52t-52.5 20q-43 0 -71.5 -33t-28.5 -87q0 -70 68 -70z" />
    <glyph glyph-name="nine.tab" 
d="M359 707q107 0 167.5 -64t60.5 -177q0 -108 -34.5 -207t-95.5 -162q-102 -105 -273 -105q-93 0 -165 28l26 113h84q24 -42 72 -42q101 0 154 79q40 60 63 159q-72 -74 -166 -74q-82 0 -129.5 44.5t-47.5 122.5q0 122 79 203.5t205 81.5zM319 353q52 0 110 36q8 56 8 105
q0 61 -20 90.5t-65 29.5q-57 0 -88.5 -52.5t-31.5 -121.5q0 -42 19 -64.5t68 -22.5z" />
    <glyph glyph-name="plus.tab" 
d="M545 288h-177l-43 -188h-122l43 188h-178l27 115h178l43 188h122l-43 -188h177z" />
    <glyph glyph-name="minus.tab" 
d="M68 288l27 115h477l-27 -115h-477z" />
    <glyph glyph-name="multiply.tab" 
d="M137 116l-65 78l173 148l-115 148l89 72l112 -146l171 146l63 -78l-172 -148l114 -148l-87 -72l-113 146z" />
    <glyph glyph-name="divide.tab" 
d="M68 288l27 115h477l-27 -115h-477zM284 86q-34 0 -56 22.5t-22 55.5q0 35 26 59t61 24q34 0 56.5 -23t22.5 -55q0 -35 -26.5 -59t-61.5 -24zM347 444q-34 0 -56 22.5t-22 55.5q0 35 26 59t61 24q34 0 56.5 -23t22.5 -55q0 -35 -26.5 -59t-61.5 -24z" />
    <glyph glyph-name="less.tab" 
d="M99 284l22 97l420 190h34l-27 -114l-293 -130v-3l232 -132l-24 -104h-34z" />
    <glyph glyph-name="equal.tab" 
d="M548 362h-447l26 115h447zM499 152h-447l27 115h447z" />
    <glyph glyph-name="greater.tab" 
d="M533 375l-22 -97l-420 -190h-34l26 114l293 130v3l-231 132l24 104h34z" />
    <glyph glyph-name="comma.tab" horiz-adv-x="300" 
d="M-7 -46q33 3 54 15t21 28q0 4 -1 6.5t-3 4.5t-4 3.5t-6.5 4.5l-7.5 5q-25 17 -25 50q0 37 24.5 60.5t59.5 23.5t58.5 -23t23.5 -60q0 -83 -56 -130t-152 -52z" />
    <glyph glyph-name="period.tab" horiz-adv-x="300" 
d="M99 -6q-34 0 -56 22.5t-22 55.5q0 35 26 59t61 24q34 0 56.5 -23t22.5 -55q0 -35 -26.5 -59t-61.5 -24z" />
    <glyph glyph-name="colon.tab" horiz-adv-x="300" 
d="M99 -6q-34 0 -56 22.5t-22 55.5q0 35 26 59t61 24q34 0 56.5 -23t22.5 -55q0 -35 -26.5 -59t-61.5 -24zM166 284q-34 0 -56 22.5t-22 55.5q0 35 26 59t61 24q34 0 56.5 -23t22.5 -55q0 -35 -26.5 -59t-61.5 -24z" />
    <glyph glyph-name="semicolon.tab" horiz-adv-x="300" 
d="M166 284q-34 0 -56 22.5t-22 55.5q0 35 26 59t61 24q34 0 56.5 -23t22.5 -55q0 -35 -26.5 -59t-61.5 -24zM-8 -46q33 3 54 15t21 28q0 4 -1 6.5t-3 4.5t-4 3.5t-6.5 4.5l-7.5 5q-25 17 -25 50q0 37 25 60.5t60 23.5q34 0 57.5 -23t23.5 -60q0 -83 -56 -130t-152 -52z" />
    <glyph glyph-name="percent.tab" horiz-adv-x="800" 
d="M790 729l-649 -763h-92l649 763h92zM224 334q-66 0 -104.5 37.5t-38.5 104.5q0 100 60.5 166t142.5 66q67 0 106 -38.5t39 -105.5q0 -99 -61 -164.5t-144 -65.5zM235 407q34 0 59.5 49t25.5 117q0 60 -43 60q-36 0 -62 -49.5t-26 -119.5q0 -57 46 -57zM555 -8
q-66 0 -104.5 37.5t-38.5 104.5q0 100 60.5 166t142.5 66q67 0 106 -38.5t39 -105.5q0 -99 -61 -164.5t-144 -65.5zM566 65q34 0 59.5 49t25.5 117q0 60 -43 60q-36 0 -62 -49.5t-26 -119.5q0 -57 46 -57z" />
    <glyph glyph-name="perthousand.tab" horiz-adv-x="1200" 
d="M807 729l-649 -763h-92l649 763h92zM241 334q-66 0 -104.5 37.5t-38.5 104.5q0 100 60.5 166t142.5 66q67 0 106 -38.5t39 -105.5q0 -99 -61 -164.5t-144 -65.5zM252 407q34 0 59.5 49t25.5 117q0 60 -43 60q-36 0 -62 -49.5t-26 -119.5q0 -57 46 -57zM572 -8
q-66 0 -104.5 37.5t-38.5 104.5q0 100 60.5 166t142.5 66q67 0 106 -38.5t39 -105.5q0 -99 -61 -164.5t-144 -65.5zM583 65q34 0 59.5 49t25.5 117q0 60 -43 60q-36 0 -62 -49.5t-26 -119.5q0 -57 46 -57zM939 -8q-66 0 -104.5 37.5t-38.5 104.5q0 100 60.5 166t142.5 66
q67 0 106 -38.5t39 -105.5q0 -99 -61 -164.5t-144 -65.5zM950 65q34 0 59.5 49t25.5 117q0 60 -43 60q-36 0 -62 -49.5t-26 -119.5q0 -57 46 -57z" />
    <glyph glyph-name="cent.tab" 
d="M383 589h74l-14 -58q75 -7 126 -31l-26 -115h-75q-14 39 -47 50l-81 -349q44 8 72 50h77l-25 -109q-69 -31 -145 -33l-22 -96h-74l23 99q-86 13 -132 65t-46 132q0 146 85.5 237.5t216.5 100.5zM210 189q0 -78 58 -98l79 344q-62 -18 -99.5 -85.5t-37.5 -160.5z" />
    <glyph glyph-name="florin.tab" 
d="M144 351l20 87h76l26 114q19 86 70.5 122t132.5 36q56 0 96 -17l-18 -79h-45q-33 0 -53 -15t-29 -53l-25 -108h114l-20 -87h-114l-72 -305q-13 -54 -54 -92t-103 -54h-72l19 83q48 16 60 72l67 296h-76z" />
    <glyph glyph-name="space.tab" horiz-adv-x="300" 
 />
    <glyph glyph-name="idotaccent" horiz-adv-x="276" 
d="M121 -7q-60 0 -81 33t-8 90l68 294q2 9 -3.5 18t-14.5 9h-35l17 78q46 16 104 16q51 0 72.5 -27t9.5 -80l-73 -316q-2 -9 4 -17t15 -8h30l-16 -74q-38 -16 -89 -16zM221 567q-32 0 -53 21.5t-21 52.5q0 33 24.5 56t58.5 23q32 0 53.5 -21.5t21.5 -52.5q0 -34 -25 -56.5
t-59 -22.5z" />
    <glyph glyph-name="Racute.alt" horiz-adv-x="666" 
d="M346 737l49 138h147l-12 -50l-102 -88h-82zM400 194q-1 64 -26.5 85.5t-80.5 21.5h-49l-50 -218h87l-19 -83h-310l19 83h38q11 0 22.5 10.5t13.5 20.5l107 469q2 11 -4.5 21t-17.5 10h-38l20 86h286q117 0 181 -44t64 -122q0 -84 -52.5 -135t-147.5 -64v-4
q46 -14 72.5 -45.5t38.5 -105.5l12 -77q3 -20 25 -20h23l-16 -73q-42 -17 -78 -17q-62 0 -89 30t-29 98zM314 608l-52 -229h74q149 0 149 146q0 83 -105 83h-66z" />
    <glyph glyph-name="Rcommaaccent.alt" horiz-adv-x="666" 
d="M211 -166q57 5 57 27q0 3 -1.5 5.5t-2.5 4t-5.5 4.5t-6.5 5q-19 14 -19 38q0 28 19 46t45 18q27 0 45 -18t18 -48q0 -64 -42.5 -98t-117.5 -37zM400 194q-1 64 -26.5 85.5t-80.5 21.5h-49l-50 -218h87l-19 -83h-310l19 83h38q11 0 22.5 10.5t13.5 20.5l107 469
q2 11 -4.5 21t-17.5 10h-38l20 86h286q117 0 181 -44t64 -122q0 -84 -52.5 -135t-147.5 -64v-4q46 -14 72.5 -45.5t38.5 -105.5l12 -77q3 -20 25 -20h23l-16 -73q-42 -17 -78 -17q-62 0 -89 30t-29 98zM314 608l-52 -229h74q149 0 149 146q0 83 -105 83h-66z" />
    <glyph glyph-name="Rcaron.alt" horiz-adv-x="666" 
d="M546 875l-8 -37l-87 -101h-117l-54 101l8 37h51l66 -60l90 60h51zM402 121l-2 73q-1 64 -26.5 85.5t-80.5 21.5h-49l-50 -218h87l-19 -83h-310l19 83h38q11 0 22.5 10.5t13.5 20.5l107 469q2 11 -4.5 21t-17.5 10h-38l20 86h286q117 0 181 -44t64 -122q0 -84 -52.5 -135
t-147.5 -64v-4q46 -14 72.5 -45.5t38.5 -105.5l12 -77q3 -20 25 -20h23l-16 -73q-42 -17 -78 -17q-62 0 -89 30t-29 98zM314 608l-52 -229h74q149 0 149 146q0 83 -105 83h-66z" />
    <glyph glyph-name="aacute.alt" horiz-adv-x="568" 
d="M298 562l49 138h147l-12 -50l-102 -88h-82zM163 -8q-72 0 -114.5 45t-42.5 131q0 67 24 139t69 125q85 101 206 101q82 0 133 -54q53 46 100 46h29l-96 -417q-2 -9 4 -17t15 -8h28l-16 -74q-38 -16 -71 -16q-92 0 -104 78q-68 -79 -164 -79zM220 84q54 0 113 57l65 283
q-32 13 -71 13q-83 0 -129.5 -77t-46.5 -188q0 -42 18 -65t51 -23z" />
    <glyph glyph-name="agrave.alt" horiz-adv-x="568" 
d="M311 562l-87 88l12 50h125l27 -138h-77zM163 -8q-72 0 -114.5 45t-42.5 131q0 67 24 139t69 125q85 101 206 101q82 0 133 -54q53 46 100 46h29l-96 -417q-2 -9 4 -17t15 -8h28l-16 -74q-38 -16 -71 -16q-92 0 -104 78q-68 -79 -164 -79zM220 84q54 0 113 57l65 283
q-32 13 -71 13q-83 0 -129.5 -77t-46.5 -188q0 -42 18 -65t51 -23z" />
    <glyph glyph-name="acircumflex.alt" horiz-adv-x="568" 
d="M213 562l8 37l87 101h117l54 -101l-8 -37h-51l-66 60l-90 -60h-51zM163 -8q-72 0 -114.5 45t-42.5 131q0 67 24 139t69 125q85 101 206 101q82 0 133 -54q53 46 100 46h29l-96 -417q-2 -9 4 -17t15 -8h28l-16 -74q-38 -16 -71 -16q-92 0 -104 78q-68 -79 -164 -79z
M220 84q54 0 113 57l65 283q-32 13 -71 13q-83 0 -129.5 -77t-46.5 -188q0 -42 18 -65t51 -23z" />
    <glyph glyph-name="adieresis.alt" horiz-adv-x="568" 
d="M163 -8q-72 0 -114.5 45t-42.5 131q0 67 24 139t69 125q85 101 206 101q82 0 133 -54q53 46 100 46h29l-96 -417q-2 -9 4 -17t15 -8h28l-16 -74q-38 -16 -71 -16q-92 0 -104 78q-68 -79 -164 -79zM220 84q54 0 113 57l65 283q-32 13 -71 13q-83 0 -129.5 -77t-46.5 -188
q0 -42 18 -65t51 -23zM261 567q-30 0 -50 20t-20 50q0 31 23.5 52.5t54.5 21.5t51 -20.5t20 -49.5q0 -31 -23.5 -52.5t-55.5 -21.5zM451 567q-30 0 -50 20t-20 50q0 31 23.5 52.5t54.5 21.5t51 -20.5t20 -49.5q0 -31 -23.5 -52.5t-55.5 -21.5z" />
    <glyph glyph-name="atilde.alt" horiz-adv-x="568" 
d="M175 562l16 71q39 62 104 62q26 0 74.5 -11.5t59.5 -11.5q29 0 45 28h69l-17 -71q-38 -64 -105 -64q-26 0 -74 13.5t-59 13.5q-29 0 -44 -30h-69zM163 -8q-72 0 -114.5 45t-42.5 131q0 67 24 139t69 125q85 101 206 101q82 0 133 -54q53 46 100 46h29l-96 -417
q-2 -9 4 -17t15 -8h28l-16 -74q-38 -16 -71 -16q-92 0 -104 78q-68 -79 -164 -79zM220 84q54 0 113 57l65 283q-32 13 -71 13q-83 0 -129.5 -77t-46.5 -188q0 -42 18 -65t51 -23z" />
    <glyph glyph-name="aring.alt" horiz-adv-x="568" 
d="M345 566q-44 0 -72.5 26t-28.5 69q0 48 32.5 77t77.5 29q43 0 71.5 -26.5t28.5 -68.5q0 -49 -32 -77.5t-77 -28.5zM346 612q24 0 40 15.5t16 41.5q0 23 -13.5 37.5t-36.5 14.5q-24 0 -39.5 -15.5t-15.5 -43.5q0 -23 13 -36.5t36 -13.5zM163 -8q-72 0 -114.5 45t-42.5 131
q0 67 24 139t69 125q85 101 206 101q82 0 133 -54q53 46 100 46h29l-96 -417q-2 -9 4 -17t15 -8h28l-16 -74q-38 -16 -71 -16q-92 0 -104 78q-68 -79 -164 -79zM220 84q54 0 113 57l65 283q-32 13 -71 13q-83 0 -129.5 -77t-46.5 -188q0 -42 18 -65t51 -23z" />
    <glyph glyph-name="aogonek.alt" horiz-adv-x="568" 
d="M403 -165q-42 0 -64 18t-22 49q0 59 86 93q-66 9 -76 76q-68 -79 -164 -79q-72 0 -114.5 45t-42.5 131q0 67 25 140.5t70 125.5q86 99 204 99q82 0 133 -54q53 46 100 46h29l-96 -417q-2 -9 4 -17t15 -8h28l-15 -70q-27 -12 -48.5 -33.5t-21.5 -40.5q0 -23 36 -23h19
l-15 -64q-34 -17 -70 -17zM220 84q54 0 113 57l65 283q-32 13 -71 13q-83 0 -129.5 -77t-46.5 -188q0 -42 18 -65t51 -23z" />
    <glyph glyph-name="amacron.alt" horiz-adv-x="568" 
d="M215 585l22 94h266l-22 -94h-266zM163 -8q-72 0 -114.5 45t-42.5 131q0 67 24 139t69 125q85 101 206 101q82 0 133 -54q53 46 100 46h29l-96 -417q-2 -9 4 -17t15 -8h28l-16 -74q-38 -16 -71 -16q-92 0 -104 78q-68 -79 -164 -79zM220 84q54 0 113 57l65 283
q-32 13 -71 13q-83 0 -129.5 -77t-46.5 -188q0 -42 18 -65t51 -23z" />
    <glyph glyph-name="abreve.alt" horiz-adv-x="568" 
d="M329 562q-55 0 -87 27.5t-39 64.5l11 46h78q2 -43 45 -43q42 0 57 43h86l-13 -56q-47 -82 -138 -82zM163 -8q-72 0 -114.5 45t-42.5 131q0 67 24 139t69 125q85 101 206 101q82 0 133 -54q53 46 100 46h29l-96 -417q-2 -9 4 -17t15 -8h28l-16 -74q-38 -16 -71 -16
q-92 0 -104 78q-68 -79 -164 -79zM220 84q54 0 113 57l65 283q-32 13 -71 13q-83 0 -129.5 -77t-46.5 -188q0 -42 18 -65t51 -23z" />
    <glyph glyph-name="gcircumflex.alt" horiz-adv-x="565" 
d="M208 562l8 37l87 101h117l54 -101l-8 -37h-51l-66 60l-90 -60h-51zM164 22q-71 0 -112.5 44.5t-41.5 129.5q0 134 84 238q38 48 92 73.5t111 25.5q52 0 82.5 -15t56.5 -47q47 54 95 54h46l-117 -506q-23 -100 -94 -145.5t-196 -45.5q-114 0 -190 28l26 107h84
q24 -49 92 -49q109 0 130 91l21 94q-72 -77 -169 -77zM223 112q61 0 128 67l54 239q-30 19 -78 19q-56 0 -96.5 -38t-58 -91.5t-17.5 -113.5q0 -40 18 -61t50 -21z" />
    <glyph glyph-name="gbreve.alt" horiz-adv-x="565" 
d="M350 562q-55 0 -87 27.5t-39 64.5l11 46h78q2 -43 45 -43q42 0 57 43h86l-13 -56q-47 -82 -138 -82zM164 22q-71 0 -112.5 44.5t-41.5 129.5q0 134 84 238q38 48 92 73.5t111 25.5q52 0 82.5 -15t56.5 -47q47 54 95 54h46l-117 -506q-23 -100 -94 -145.5t-196 -45.5
q-114 0 -190 28l26 107h84q24 -49 92 -49q109 0 130 91l21 94q-72 -77 -169 -77zM223 112q61 0 128 67l54 239q-30 19 -78 19q-56 0 -96.5 -38t-58 -91.5t-17.5 -113.5q0 -40 18 -61t50 -21z" />
    <glyph glyph-name="gdotaccent.alt" horiz-adv-x="565" 
d="M350 567q-32 0 -53 21.5t-21 52.5q0 33 24.5 56t58.5 23q32 0 53.5 -21.5t21.5 -52.5q0 -34 -25 -56.5t-59 -22.5zM164 22q-71 0 -112.5 44.5t-41.5 129.5q0 134 84 238q38 48 92 73.5t111 25.5q52 0 82.5 -15t56.5 -47q47 54 95 54h46l-117 -506q-23 -100 -94 -145.5
t-196 -45.5q-114 0 -190 28l26 107h84q24 -49 92 -49q109 0 130 91l21 94q-72 -77 -169 -77zM223 112q61 0 128 67l54 239q-30 19 -78 19q-56 0 -96.5 -38t-58 -91.5t-17.5 -113.5q0 -40 18 -61t50 -21z" />
    <glyph glyph-name="gcommaaccent.alt" horiz-adv-x="565" 
d="M356 567q-27 0 -45 18t-18 48q0 64 42.5 98t117.5 37l-11 -53q-57 -5 -57 -27q0 -7 8.5 -13t17.5 -16t9 -28q0 -28 -19 -46t-45 -18zM164 22q-71 0 -112.5 44.5t-41.5 129.5q0 134 84 238q38 48 92 73.5t111 25.5q52 0 82.5 -15t56.5 -47q47 54 95 54h46l-117 -506
q-23 -100 -94 -145.5t-196 -45.5q-114 0 -190 28l26 107h84q24 -49 92 -49q109 0 130 91l21 94q-72 -77 -169 -77zM223 112q61 0 128 67l54 239q-30 19 -78 19q-56 0 -96.5 -38t-58 -91.5t-17.5 -113.5q0 -40 18 -61t50 -21z" />
    <glyph glyph-name="yacute.alt" horiz-adv-x="508" 
d="M277 562l49 138h147l-12 -50l-102 -88h-82zM-40 -162l17 77q118 32 183 100l-70 399q-1 10 -8 16.5t-15 6.5h-20l17 78q49 17 86 17q43 0 59.5 -23t24.5 -69l36 -278q106 171 148 363h125l-20 -88q-38 -93 -82 -173t-133 -205q-106 -148 -229 -221h-119z" />
    <glyph glyph-name="ydieresis.alt" horiz-adv-x="508" 
d="M240 567q-30 0 -50 20t-20 50q0 31 23.5 52.5t54.5 21.5t51 -20.5t20 -49.5q0 -31 -23.5 -52.5t-55.5 -21.5zM430 567q-30 0 -50 20t-20 50q0 31 23.5 52.5t54.5 21.5t51 -20.5t20 -49.5q0 -31 -23.5 -52.5t-55.5 -21.5zM-40 -162l17 77q118 32 183 100l-70 399
q-1 10 -8 16.5t-15 6.5h-20l17 78q49 17 86 17q43 0 59.5 -23t24.5 -69l36 -278q106 171 148 363h125l-20 -88q-38 -93 -82 -173t-133 -205q-106 -148 -229 -221h-119z" />
    <glyph glyph-name="zcaron.alt" horiz-adv-x="458" 
d="M455 700l-8 -37l-87 -101h-117l-54 101l8 37h51l66 -60l90 60h51zM488 445l-343 -320v-4q29 0 70 -3t62 -3q43 0 62 39h74l-33 -142q-34 -19 -87 -19q-42 0 -105.5 24t-92.5 24q-39 0 -69 -41h-75l18 80l344 320v4q-29 0 -75 2.5t-66 2.5q-23 0 -33.5 -7.5t-18.5 -23.5
h-74l32 142q37 12 85 12q42 0 108.5 -21.5t95.5 -21.5q38 0 64 36h75z" />
    <glyph glyph-name="zacute.alt" horiz-adv-x="458" 
d="M250 562l49 138h147l-12 -50l-102 -88h-82zM488 445l-343 -320v-4q29 0 70 -3t62 -3q43 0 62 39h74l-33 -142q-34 -19 -87 -19q-42 0 -105.5 24t-92.5 24q-39 0 -69 -41h-75l18 80l344 320v4q-29 0 -75 2.5t-66 2.5q-23 0 -33.5 -7.5t-18.5 -23.5h-74l32 142q37 12 85 12
q42 0 108.5 -21.5t95.5 -21.5q38 0 64 36h75z" />
    <glyph glyph-name="zdotaccent.alt" horiz-adv-x="458" 
d="M297 567q-32 0 -53 21.5t-21 52.5q0 33 24.5 56t58.5 23q32 0 53.5 -21.5t21.5 -52.5q0 -34 -25 -56.5t-59 -22.5zM488 445l-343 -320v-4q29 0 70 -3t62 -3q43 0 62 39h74l-33 -142q-34 -19 -87 -19q-42 0 -105.5 24t-92.5 24q-39 0 -69 -41h-75l18 80l344 320v4
q-29 0 -75 2.5t-66 2.5q-23 0 -33.5 -7.5t-18.5 -23.5h-74l32 142q37 12 85 12q42 0 108.5 -21.5t95.5 -21.5q38 0 64 36h75z" />
    <glyph glyph-name="Scaron.titling" horiz-adv-x="524" 
d="M205 -8q-52 0 -106 8h-135l48 209h104l-10 -107q43 -15 102 -15q135 0 135 105q0 15 -5 28t-10.5 21t-21 18.5t-24.5 15.5t-33.5 17t-36.5 18q-65 33 -97.5 71.5t-32.5 110.5q0 97 65.5 156.5t191.5 59.5q66 0 112 -8h114l-45 -191h-100l5 93q-33 14 -91 14
q-121 0 -121 -97q0 -36 20 -54.5t74 -44.5q6 -3 31 -14.5t33 -16t29 -16.5t29 -20t21.5 -23t19 -30t10.5 -36t5 -45q0 -103 -71.5 -165t-208.5 -62zM499 858l-8 -37l-87 -101h-117l-54 101l8 37h51l66 -60l90 60h51z" />
    <glyph glyph-name="Yacute.titling" horiz-adv-x="668" 
d="M392 715l49 138h147l-12 -50l-102 -88h-82zM126 0l19 83h44q11 0 22.5 10.5t13.5 20.5l40 181l-123 296q-10 23 -24 23h-26l20 86h283l-20 -86h-79l90 -231h2l122 161q24 34 18 52t-39 18h-26l20 86h264l-20 -86h-17q-24 0 -46 -27l-245 -303l-38 -170q-3 -11 2 -21
t15 -10h49l-19 -83h-302z" />
    <glyph glyph-name="Zcaron.titling" horiz-adv-x="542" 
d="M525 853l-8 -37l-87 -101h-117l-54 101l8 37h51l66 -60l90 60h51zM-49 0l24 103l454 500v4h-212l-40 -107h-94l46 200h494l-25 -106l-454 -500v-4h234l42 123h99l-48 -213h-520z" />
    <glyph glyph-name="Adieresis.titling" horiz-adv-x="729" 
d="M333 720q-30 0 -50 20t-20 50q0 31 23.5 52.5t54.5 21.5t51 -20.5t20 -49.5q0 -31 -23.5 -52.5t-55.5 -21.5zM523 720q-30 0 -50 20t-20 50q0 31 23.5 52.5t54.5 21.5t51 -20.5t20 -49.5q0 -31 -23.5 -52.5t-55.5 -21.5zM-50 0l19 83h22q28 0 46 31l270 469q18 31 -6 31
h-58l20 86h295l56 -589q2 -12 10 -20t18 -8h24l-19 -83h-295l19 83h91l-11 133h-238l-24 -43q-50 -90 13 -90h40l-19 -83h-273zM421 592l-160 -289h184l-22 289h-2z" />
    <glyph glyph-name="Aring.titling" horiz-adv-x="729" 
d="M435 719q-44 0 -72.5 26t-28.5 69q0 48 32.5 77t77.5 29q43 0 71.5 -26.5t28.5 -68.5q0 -49 -32 -77.5t-77 -28.5zM436 765q24 0 40 15.5t16 41.5q0 23 -13.5 37.5t-36.5 14.5q-24 0 -39.5 -15.5t-15.5 -43.5q0 -23 13 -36.5t36 -13.5zM-50 0l19 83h22q28 0 46 31
l270 469q18 31 -6 31h-58l20 86h295l56 -589q2 -12 10 -20t18 -8h24l-19 -83h-295l19 83h91l-11 133h-238l-24 -43q-50 -90 13 -90h40l-19 -83h-273zM421 592l-160 -289h184l-22 289h-2z" />
    <glyph glyph-name="Eacute.titling" horiz-adv-x="591" 
d="M-48 0l19 83h38q11 0 22.5 10.5t13.5 20.5l107 469q2 12 -2 21.5t-15 9.5h-43l20 86h547l-46 -200h-94l8 107h-213l-48 -208h93l27 80h90l-57 -247h-88l9 80h-94l-51 -222h223l42 123h99l-48 -213h-559zM340 715l49 138h147l-12 -50l-102 -88h-82z" />
    <glyph glyph-name="Ntilde.titling" horiz-adv-x="707" 
d="M270 715l16 71q39 62 104 62q26 0 74.5 -11.5t59.5 -11.5q29 0 45 28h69l-17 -71q-38 -64 -105 -64q-26 0 -74 13.5t-59 13.5q-29 0 -44 -30h-69zM-48 0l19 83h38q11 0 22.5 10.5t13.5 20.5l107 469q2 12 -2 21.5t-15 9.5h-43l20 86h224l170 -466h3l88 380h-78l20 86h258
l-20 -86h-37q-10 0 -21.5 -10t-13.5 -21l-133 -583h-132l-189 505h-3l-96 -422h80l-19 -83h-261z" />
    <glyph glyph-name="Odieresis.titling" horiz-adv-x="722" 
d="M326 -8q-136 0 -215.5 75t-79.5 210q0 182 110.5 306t272.5 124q134 0 213 -76t79 -208q0 -190 -108 -310.5t-272 -120.5zM330 92q100 0 160 97.5t60 235.5q0 86 -36.5 132.5t-105.5 46.5q-100 0 -160.5 -96t-60.5 -236q0 -86 37.5 -133t105.5 -47zM329 725q-30 0 -50 20
t-20 50q0 31 23.5 52.5t54.5 21.5t51 -20.5t20 -49.5q0 -31 -23.5 -52.5t-55.5 -21.5zM519 725q-30 0 -50 20t-20 50q0 31 23.5 52.5t54.5 21.5t51 -20.5t20 -49.5q0 -31 -23.5 -52.5t-55.5 -21.5z" />
    <glyph glyph-name="Udieresis.titling" horiz-adv-x="706" 
d="M385 720q-30 0 -50 20t-20 50q0 31 23.5 52.5t54.5 21.5t51 -20.5t20 -49.5q0 -31 -23.5 -52.5t-55.5 -21.5zM575 720q-30 0 -50 20t-20 50q0 31 23.5 52.5t54.5 21.5t51 -20.5t20 -49.5q0 -31 -23.5 -52.5t-55.5 -21.5zM331 -8q-149 0 -213.5 73t-35.5 203l71 315
q2 12 -2 21.5t-15 9.5h-44l20 86h303l-20 -86h-79l-82 -363q-20 -89 10.5 -124t97.5 -35q77 0 114.5 37t58.5 128l81 357h-79l20 86h260l-20 -86h-38q-11 0 -22.5 -10t-13.5 -21l-78 -338q-20 -84 -52 -137.5t-92 -84.5t-150 -31z" />
    <glyph glyph-name="Agrave.titling" horiz-adv-x="729" 
d="M393 715l-87 88l12 50h125l27 -138h-77zM-50 0l19 83h22q28 0 46 31l270 469q18 31 -6 31h-58l20 86h295l56 -589q2 -12 10 -20t18 -8h24l-19 -83h-295l19 83h91l-11 133h-238l-24 -43q-50 -90 13 -90h40l-19 -83h-273zM421 592l-160 -289h184l-22 289h-2z" />
    <glyph glyph-name="Atilde.titling" horiz-adv-x="729" 
d="M243 715l16 71q39 62 104 62q26 0 74.5 -11.5t59.5 -11.5q29 0 45 28h69l-17 -71q-38 -64 -105 -64q-26 0 -74 13.5t-59 13.5q-29 0 -44 -30h-69zM-50 0l19 83h22q28 0 46 31l270 469q18 31 -6 31h-58l20 86h295l56 -589q2 -12 10 -20t18 -8h24l-19 -83h-295l19 83h91
l-11 133h-238l-24 -43q-50 -90 13 -90h40l-19 -83h-273zM421 592l-160 -289h184l-22 289h-2z" />
    <glyph glyph-name="Otilde.titling" horiz-adv-x="722" 
d="M243 720l16 71q39 62 104 62q26 0 74.5 -11.5t59.5 -11.5q29 0 45 28h69l-17 -71q-38 -64 -105 -64q-26 0 -74 13.5t-59 13.5q-29 0 -44 -30h-69zM326 -8q-136 0 -215.5 75t-79.5 210q0 182 110.5 306t272.5 124q134 0 213 -76t79 -208q0 -190 -108 -310.5t-272 -120.5z
M330 92q100 0 160 97.5t60 235.5q0 86 -36.5 132.5t-105.5 46.5q-100 0 -160.5 -96t-60.5 -236q0 -86 37.5 -133t105.5 -47z" />
    <glyph glyph-name="Acircumflex.titling" horiz-adv-x="729" 
d="M-50 0l19 83h22q28 0 46 31l270 469q18 31 -6 31h-58l20 86h295l56 -589q2 -12 10 -20t18 -8h24l-19 -83h-295l19 83h91l-11 133h-238l-24 -43q-50 -90 13 -90h40l-19 -83h-273zM421 592l-160 -289h184l-22 289h-2zM285 715l8 37l87 101h117l54 -101l-8 -37h-51l-66 60
l-90 -60h-51z" />
    <glyph glyph-name="Ecircumflex.titling" horiz-adv-x="591" 
d="M-48 0l19 83h38q11 0 22.5 10.5t13.5 20.5l107 469q2 12 -2 21.5t-15 9.5h-43l20 86h547l-46 -200h-94l8 107h-213l-48 -208h93l27 80h90l-57 -247h-88l9 80h-94l-51 -222h223l42 123h99l-48 -213h-559zM265 715l8 37l87 101h117l54 -101l-8 -37h-51l-66 60l-90 -60h-51z
" />
    <glyph glyph-name="Aacute.titling" horiz-adv-x="729" 
d="M-50 0l19 83h22q28 0 46 31l270 469q18 31 -6 31h-58l20 86h295l56 -589q2 -12 10 -20t18 -8h24l-19 -83h-295l19 83h91l-11 133h-238l-24 -43q-50 -90 13 -90h40l-19 -83h-273zM421 592l-160 -289h184l-22 289h-2zM380 715l49 138h147l-12 -50l-102 -88h-82z" />
    <glyph glyph-name="Edieresis.titling" horiz-adv-x="591" 
d="M-48 0l19 83h38q11 0 22.5 10.5t13.5 20.5l107 469q2 12 -2 21.5t-15 9.5h-43l20 86h547l-46 -200h-94l8 107h-213l-48 -208h93l27 80h90l-57 -247h-88l9 80h-94l-51 -222h223l42 123h99l-48 -213h-559zM313 720q-30 0 -50 20t-20 50q0 31 23.5 52.5t54.5 21.5t51 -20.5
t20 -49.5q0 -31 -23.5 -52.5t-55.5 -21.5zM503 720q-30 0 -50 20t-20 50q0 31 23.5 52.5t54.5 21.5t51 -20.5t20 -49.5q0 -31 -23.5 -52.5t-55.5 -21.5z" />
    <glyph glyph-name="Egrave.titling" horiz-adv-x="591" 
d="M363 715l-87 88l12 50h125l27 -138h-77zM-48 0l19 83h38q11 0 22.5 10.5t13.5 20.5l107 469q2 12 -2 21.5t-15 9.5h-43l20 86h547l-46 -200h-94l8 107h-213l-48 -208h93l27 80h90l-57 -247h-88l9 80h-94l-51 -222h223l42 123h99l-48 -213h-559z" />
    <glyph glyph-name="Iacute.titling" horiz-adv-x="327" 
d="M213 715l49 138h147l-12 -50l-102 -88h-82zM-48 0l19 83h46q10 0 21.5 10.5t13.5 20.5l107 469q2 11 -2 21t-14 10h-51l20 86h305l-20 -86h-46q-11 0 -22 -10t-13 -21l-107 -469q-3 -11 1.5 -21t14.5 -10h51l-19 -83h-305z" />
    <glyph glyph-name="Icircumflex.titling" horiz-adv-x="327" 
d="M138 715l8 37l87 101h117l54 -101l-8 -37h-51l-66 60l-90 -60h-51zM-48 0l19 83h46q10 0 21.5 10.5t13.5 20.5l107 469q2 11 -2 21t-14 10h-51l20 86h305l-20 -86h-46q-11 0 -22 -10t-13 -21l-107 -469q-3 -11 1.5 -21t14.5 -10h51l-19 -83h-305z" />
    <glyph glyph-name="Idieresis.titling" horiz-adv-x="327" 
d="M178 720q-30 0 -50 20t-20 50q0 31 23.5 52.5t54.5 21.5t51 -20.5t20 -49.5q0 -31 -23.5 -52.5t-55.5 -21.5zM368 720q-30 0 -50 20t-20 50q0 31 23.5 52.5t54.5 21.5t51 -20.5t20 -49.5q0 -31 -23.5 -52.5t-55.5 -21.5zM-48 0l19 83h46q10 0 21.5 10.5t13.5 20.5
l107 469q2 11 -2 21t-14 10h-51l20 86h305l-20 -86h-46q-11 0 -22 -10t-13 -21l-107 -469q-3 -11 1.5 -21t14.5 -10h51l-19 -83h-305z" />
    <glyph glyph-name="Igrave.titling" horiz-adv-x="327" 
d="M231 715l-87 88l12 50h125l27 -138h-77zM-48 0l19 83h46q10 0 21.5 10.5t13.5 20.5l107 469q2 11 -2 21t-14 10h-51l20 86h305l-20 -86h-46q-11 0 -22 -10t-13 -21l-107 -469q-3 -11 1.5 -21t14.5 -10h51l-19 -83h-305z" />
    <glyph glyph-name="Oacute.titling" horiz-adv-x="722" 
d="M326 -8q-136 0 -215.5 75t-79.5 210q0 182 110.5 306t272.5 124q134 0 213 -76t79 -208q0 -190 -108 -310.5t-272 -120.5zM330 92q100 0 160 97.5t60 235.5q0 86 -36.5 132.5t-105.5 46.5q-100 0 -160.5 -96t-60.5 -236q0 -86 37.5 -133t105.5 -47zM366 720l49 138h147
l-12 -50l-102 -88h-82z" />
    <glyph glyph-name="Ocircumflex.titling" horiz-adv-x="722" 
d="M277 720l8 37l87 101h117l54 -101l-8 -37h-51l-66 60l-90 -60h-51zM326 -8q-136 0 -215.5 75t-79.5 210q0 182 110.5 306t272.5 124q134 0 213 -76t79 -208q0 -190 -108 -310.5t-272 -120.5zM330 92q100 0 160 97.5t60 235.5q0 86 -36.5 132.5t-105.5 46.5
q-100 0 -160.5 -96t-60.5 -236q0 -86 37.5 -133t105.5 -47z" />
    <glyph glyph-name="Ograve.titling" horiz-adv-x="722" 
d="M326 -8q-136 0 -215.5 75t-79.5 210q0 182 110.5 306t272.5 124q134 0 213 -76t79 -208q0 -190 -108 -310.5t-272 -120.5zM330 92q100 0 160 97.5t60 235.5q0 86 -36.5 132.5t-105.5 46.5q-100 0 -160.5 -96t-60.5 -236q0 -86 37.5 -133t105.5 -47zM379 720l-87 88l12 50
h125l27 -138h-77z" />
    <glyph glyph-name="Uacute.titling" horiz-adv-x="706" 
d="M426 715l49 138h147l-12 -50l-102 -88h-82zM331 -8q-149 0 -213.5 73t-35.5 203l71 315q2 12 -2 21.5t-15 9.5h-44l20 86h303l-20 -86h-79l-82 -363q-20 -89 10.5 -124t97.5 -35q77 0 114.5 37t58.5 128l81 357h-79l20 86h260l-20 -86h-38q-11 0 -22.5 -10t-13.5 -21
l-78 -338q-20 -84 -52 -137.5t-92 -84.5t-150 -31z" />
    <glyph glyph-name="Ucircumflex.titling" horiz-adv-x="706" 
d="M350 715l8 37l87 101h117l54 -101l-8 -37h-51l-66 60l-90 -60h-51zM331 -8q-149 0 -213.5 73t-35.5 203l71 315q2 12 -2 21.5t-15 9.5h-44l20 86h303l-20 -86h-79l-82 -363q-20 -89 10.5 -124t97.5 -35q77 0 114.5 37t58.5 128l81 357h-79l20 86h260l-20 -86h-38
q-11 0 -22.5 -10t-13.5 -21l-78 -338q-20 -84 -52 -137.5t-92 -84.5t-150 -31z" />
    <glyph glyph-name="Ugrave.titling" horiz-adv-x="706" 
d="M445 715l-87 88l12 50h125l27 -138h-77zM331 -8q-149 0 -213.5 73t-35.5 203l71 315q2 12 -2 21.5t-15 9.5h-44l20 86h303l-20 -86h-79l-82 -363q-20 -89 10.5 -124t97.5 -35q77 0 114.5 37t58.5 128l81 357h-79l20 86h260l-20 -86h-38q-11 0 -22.5 -10t-13.5 -21
l-78 -338q-20 -84 -52 -137.5t-92 -84.5t-150 -31z" />
    <glyph glyph-name="Ydieresis.titling" horiz-adv-x="668" 
d="M126 0l19 83h44q11 0 22.5 10.5t13.5 20.5l40 181l-123 296q-10 23 -24 23h-26l20 86h283l-20 -86h-79l90 -231h2l122 161q24 34 18 52t-39 18h-26l20 86h264l-20 -86h-17q-24 0 -46 -27l-245 -303l-38 -170q-3 -11 2 -21t15 -10h49l-19 -83h-302zM355 720q-30 0 -50 20
t-20 50q0 31 23.5 52.5t54.5 21.5t51 -20.5t20 -49.5q0 -31 -23.5 -52.5t-55.5 -21.5zM545 720q-30 0 -50 20t-20 50q0 31 23.5 52.5t54.5 21.5t51 -20.5t20 -49.5q0 -31 -23.5 -52.5t-55.5 -21.5z" />
    <glyph glyph-name="Amacron.titling" horiz-adv-x="729" 
d="M287 738l22 94h266l-22 -94h-266zM-50 0l19 83h22q28 0 46 31l270 469q18 31 -6 31h-58l20 86h295l56 -589q2 -12 10 -20t18 -8h24l-19 -83h-295l19 83h91l-11 133h-238l-24 -43q-50 -90 13 -90h40l-19 -83h-273zM421 592l-160 -289h184l-22 289h-2z" />
    <glyph glyph-name="Abreve.titling" horiz-adv-x="729" 
d="M435 715q-55 0 -87 27.5t-39 64.5l11 46h78q2 -43 45 -43q42 0 57 43h86l-13 -56q-47 -82 -138 -82zM-50 0l19 83h22q28 0 46 31l270 469q18 31 -6 31h-58l20 86h295l56 -589q2 -12 10 -20t18 -8h24l-19 -83h-295l19 83h91l-11 133h-238l-24 -43q-50 -90 13 -90h40
l-19 -83h-273zM421 592l-160 -289h184l-22 289h-2z" />
    <glyph glyph-name="Cacute.titling" horiz-adv-x="626" 
d="M317 -8q-136 0 -210 73t-74 202q0 186 120.5 313.5t300.5 127.5q61 0 93 -8h139l-52 -226h-101l4 115q-40 17 -81 17q-114 0 -190 -92t-76 -248q0 -175 139 -175q55 0 92 18.5t76 57.5h75l-27 -115q-95 -60 -228 -60zM391 720l49 138h147l-12 -50l-102 -88h-82z" />
    <glyph glyph-name="Ccircumflex.titling" horiz-adv-x="626" 
d="M317 -8q-136 0 -210 73t-74 202q0 186 120.5 313.5t300.5 127.5q61 0 93 -8h139l-52 -226h-101l4 115q-40 17 -81 17q-114 0 -190 -92t-76 -248q0 -175 139 -175q55 0 92 18.5t76 57.5h75l-27 -115q-95 -60 -228 -60zM336 720l8 37l87 101h117l54 -101l-8 -37h-51l-66 60
l-90 -60h-51z" />
    <glyph glyph-name="Cdotaccent.titling" horiz-adv-x="626" 
d="M459 725q-32 0 -53 21.5t-21 52.5q0 33 24.5 56t58.5 23q32 0 53.5 -21.5t21.5 -52.5q0 -34 -25 -56.5t-59 -22.5zM317 -8q-136 0 -210 73t-74 202q0 186 120.5 313.5t300.5 127.5q61 0 93 -8h139l-52 -226h-101l4 115q-40 17 -81 17q-114 0 -190 -92t-76 -248
q0 -175 139 -175q55 0 92 18.5t76 57.5h75l-27 -115q-95 -60 -228 -60z" />
    <glyph glyph-name="Ccaron.titling" horiz-adv-x="626" 
d="M317 -8q-136 0 -210 73t-74 202q0 186 120.5 313.5t300.5 127.5q61 0 93 -8h139l-52 -226h-101l4 115q-40 17 -81 17q-114 0 -190 -92t-76 -248q0 -175 139 -175q55 0 92 18.5t76 57.5h75l-27 -115q-95 -60 -228 -60zM616 858l-8 -37l-87 -101h-117l-54 101l8 37h51
l66 -60l90 60h51z" />
    <glyph glyph-name="Dcaron.titling" horiz-adv-x="689" 
d="M531 853l-8 -37l-87 -101h-117l-54 101l8 37h51l66 -60l90 60h51zM-48 0l19 83h38q11 0 22.5 10.5t13.5 20.5l107 469q2 12 -2 21.5t-15 9.5h-43l20 86h268q151 0 233 -72t82 -210q0 -194 -116.5 -306t-318.5 -112h-308zM195 87h74q126 0 198 91t72 252q0 178 -179 178
h-46z" />
    <glyph glyph-name="Emacron.titling" horiz-adv-x="591" 
d="M257 738l22 94h266l-22 -94h-266zM-48 0l19 83h38q11 0 22.5 10.5t13.5 20.5l107 469q2 12 -2 21.5t-15 9.5h-43l20 86h547l-46 -200h-94l8 107h-213l-48 -208h93l27 80h90l-57 -247h-88l9 80h-94l-51 -222h223l42 123h99l-48 -213h-559z" />
    <glyph glyph-name="Edotaccent.titling" horiz-adv-x="591" 
d="M398 720q-32 0 -53 21.5t-21 52.5q0 33 24.5 56t58.5 23q32 0 53.5 -21.5t21.5 -52.5q0 -34 -25 -56.5t-59 -22.5zM-48 0l19 83h38q11 0 22.5 10.5t13.5 20.5l107 469q2 12 -2 21.5t-15 9.5h-43l20 86h547l-46 -200h-94l8 107h-213l-48 -208h93l27 80h90l-57 -247h-88
l9 80h-94l-51 -222h223l42 123h99l-48 -213h-559z" />
    <glyph glyph-name="Ecaron.titling" horiz-adv-x="591" 
d="M-48 0l19 83h38q11 0 22.5 10.5t13.5 20.5l107 469q2 12 -2 21.5t-15 9.5h-43l20 86h547l-46 -200h-94l8 107h-213l-48 -208h93l27 80h90l-57 -247h-88l9 80h-94l-51 -222h223l42 123h99l-48 -213h-559zM545 853l-8 -37l-87 -101h-117l-54 101l8 37h51l66 -60l90 60h51z
" />
    <glyph glyph-name="Ebreve.titling" horiz-adv-x="581" 
d="M-48 0l19 83h38q11 0 22.5 10.5t13.5 20.5l107 469q2 12 -2 21.5t-15 9.5h-43l20 86h547l-46 -200h-94l8 107h-213l-48 -208h93l27 80h90l-57 -247h-88l9 80h-94l-51 -222h223l42 123h99l-48 -213h-559zM405 720q-55 0 -87 27.5t-39 64.5l11 46h78q2 -43 45 -43
q42 0 57 43h86l-13 -56q-47 -82 -138 -82z" />
    <glyph glyph-name="Gcircumflex.titling" horiz-adv-x="660" 
d="M298 -8q-127 0 -196 71t-69 200q0 185 121.5 315t297.5 130q70 0 102 -8h137l-51 -220h-102l5 108q-38 18 -90 18q-111 0 -187 -92t-76 -248q0 -91 32.5 -133t100.5 -42q47 0 87 12l32 144h-69l20 86h275l-20 -86h-24q-11 0 -22 -10.5t-13 -20.5l-50 -216h-82
q-6 22 -23 22q-27 -12 -41.5 -17t-38.5 -9t-56 -4zM330 720l8 37l87 101h117l54 -101l-8 -37h-51l-66 60l-90 -60h-51z" />
    <glyph glyph-name="Gbreve.titling" horiz-adv-x="660" 
d="M298 -8q-127 0 -196 71t-69 200q0 185 121.5 315t297.5 130q70 0 102 -8h137l-51 -220h-102l5 108q-38 18 -90 18q-111 0 -187 -92t-76 -248q0 -91 32.5 -133t100.5 -42q47 0 87 12l32 144h-69l20 86h275l-20 -86h-24q-11 0 -22 -10.5t-13 -20.5l-50 -216h-82
q-6 22 -23 22q-27 -12 -41.5 -17t-38.5 -9t-56 -4zM464 720q-55 0 -87 27.5t-39 64.5l11 46h78q2 -43 45 -43q42 0 57 43h86l-13 -56q-47 -82 -138 -82z" />
    <glyph glyph-name="Gdotaccent.titling" horiz-adv-x="660" 
d="M463 725q-32 0 -53 21.5t-21 52.5q0 33 24.5 56t58.5 23q32 0 53.5 -21.5t21.5 -52.5q0 -34 -25 -56.5t-59 -22.5zM298 -8q-127 0 -196 71t-69 200q0 185 121.5 315t297.5 130q70 0 102 -8h137l-51 -220h-102l5 108q-38 18 -90 18q-111 0 -187 -92t-76 -248
q0 -91 32.5 -133t100.5 -42q47 0 87 12l32 144h-69l20 86h275l-20 -86h-24q-11 0 -22 -10.5t-13 -20.5l-50 -216h-82q-6 22 -23 22q-27 -12 -41.5 -17t-38.5 -9t-56 -4z" />
    <glyph glyph-name="Hcircumflex.titling" horiz-adv-x="726" 
d="M-48 0l19 83h38q11 0 22.5 10.5t13.5 20.5l107 469q2 12 -2 21.5t-15 9.5h-43l20 86h302l-20 -86h-79l-48 -212h257l48 212h-79l20 86h303l-20 -86h-39q-11 0 -22.5 -10t-13.5 -21l-107 -469q-3 -11 2 -21t15 -10h44l-19 -83h-303l19 83h79l52 230h-257l-52 -230h79
l-19 -83h-302zM338 715l8 37l87 101h117l54 -101l-8 -37h-51l-66 60l-90 -60h-51z" />
    <glyph glyph-name="Imacron.titling" horiz-adv-x="327" 
d="M140 738l22 94h266l-22 -94h-266zM-48 0l19 83h46q10 0 21.5 10.5t13.5 20.5l107 469q2 11 -2 21t-14 10h-51l20 86h305l-20 -86h-46q-11 0 -22 -10t-13 -21l-107 -469q-3 -11 1.5 -21t14.5 -10h51l-19 -83h-305z" />
    <glyph glyph-name="Idotaccent.titling" horiz-adv-x="327" 
d="M264 720q-32 0 -53 21.5t-21 52.5q0 33 24.5 56t58.5 23q32 0 53.5 -21.5t21.5 -52.5q0 -34 -25 -56.5t-59 -22.5zM-48 0l19 83h46q10 0 21.5 10.5t13.5 20.5l107 469q2 11 -2 21t-14 10h-51l20 86h305l-20 -86h-46q-11 0 -22 -10t-13 -21l-107 -469q-3 -11 1.5 -21
t14.5 -10h51l-19 -83h-305z" />
    <glyph glyph-name="Jcircumflex.titling" horiz-adv-x="472" 
d="M292 715l8 37l87 101h117l54 -101l-8 -37h-51l-66 60l-90 -60h-51zM131 -8q-103 0 -173 35l25 108h83q21 -43 71 -43q35 0 54 20.5t29 64.5l92 406q2 11 -2 21t-14 10h-44l20 86h290l-20 -86h-38q-11 0 -22 -10t-13 -21l-94 -409q-22 -95 -78.5 -138.5t-165.5 -43.5z" />
    <glyph glyph-name="Lacute.titling" horiz-adv-x="567" 
d="M200 715l49 138h147l-12 -50l-102 -88h-82zM-48 0l19 83h38q11 0 22.5 10.5t13.5 20.5l107 469q2 12 -2 21.5t-15 9.5h-43l20 86h317l-20 -86h-94l-120 -524h204l51 143h100l-53 -233h-545z" />
    <glyph glyph-name="Nacute.titling" horiz-adv-x="707" 
d="M-48 0l19 83h38q11 0 22.5 10.5t13.5 20.5l107 469q2 12 -2 21.5t-15 9.5h-43l20 86h224l170 -466h3l88 380h-78l20 86h258l-20 -86h-37q-10 0 -21.5 -10t-13.5 -21l-133 -583h-132l-189 505h-3l-96 -422h80l-19 -83h-261zM390 715l49 138h147l-12 -50l-102 -88h-82z" />
    <glyph glyph-name="Ncaron.titling" horiz-adv-x="707" 
d="M-48 0l19 83h38q11 0 22.5 10.5t13.5 20.5l107 469q2 12 -2 21.5t-15 9.5h-43l20 86h224l170 -466h3l88 380h-78l20 86h258l-20 -86h-37q-10 0 -21.5 -10t-13.5 -21l-133 -583h-132l-189 505h-3l-96 -422h80l-19 -83h-261zM595 853l-8 -37l-87 -101h-117l-54 101l8 37h51
l66 -60l90 60h51z" />
    <glyph glyph-name="Omacron.titling" horiz-adv-x="722" 
d="M289 743l22 94h266l-22 -94h-266zM326 -8q-136 0 -215.5 75t-79.5 210q0 182 110.5 306t272.5 124q134 0 213 -76t79 -208q0 -190 -108 -310.5t-272 -120.5zM330 92q100 0 160 97.5t60 235.5q0 86 -36.5 132.5t-105.5 46.5q-100 0 -160.5 -96t-60.5 -236q0 -86 37.5 -133
t105.5 -47z" />
    <glyph glyph-name="Ohungarumlaut.titling" horiz-adv-x="722" 
d="M326 -8q-136 0 -215.5 75t-79.5 210q0 182 110.5 306t272.5 124q134 0 213 -76t79 -208q0 -190 -108 -310.5t-272 -120.5zM330 92q100 0 160 97.5t60 235.5q0 86 -36.5 132.5t-105.5 46.5q-100 0 -160.5 -96t-60.5 -236q0 -86 37.5 -133t105.5 -47zM450 720l46 138h121
l-12 -50l-78 -88h-77zM287 720l46 138h121l-12 -50l-78 -88h-77z" />
    <glyph glyph-name="Racute.titling" horiz-adv-x="662" 
d="M329 715l49 138h147l-12 -50l-102 -88h-82zM-48 0l19 83h38q11 0 22.5 10.5t13.5 20.5l107 469q2 12 -2 21.5t-15 9.5h-43l20 86h286q117 0 181 -44t64 -122q0 -84 -51.5 -133t-147.5 -62v-4q55 -12 77 -42.5t32 -112.5l9 -72q3 -25 18 -25h29l-19 -83h-179l-11 190
q-4 68 -21.5 89.5t-76.5 21.5h-58l-50 -218h87l-19 -83h-310zM314 608l-52 -229h74q149 0 149 146q0 83 -105 83h-66z" />
    <glyph glyph-name="Rcaron.titling" horiz-adv-x="662" 
d="M534 853l-8 -37l-87 -101h-117l-54 101l8 37h51l66 -60l90 60h51zM-48 0l19 83h38q11 0 22.5 10.5t13.5 20.5l107 469q2 12 -2 21.5t-15 9.5h-43l20 86h286q117 0 181 -44t64 -122q0 -84 -51.5 -133t-147.5 -62v-4q55 -12 77 -42.5t32 -112.5l9 -72q3 -25 18 -25h29
l-19 -83h-179l-11 190q-4 68 -21.5 89.5t-76.5 21.5h-58l-50 -218h87l-19 -83h-310zM314 608l-52 -229h74q149 0 149 146q0 83 -105 83h-66z" />
    <glyph glyph-name="Sacute.titling" horiz-adv-x="524" 
d="M205 -8q-52 0 -106 8h-135l48 209h104l-10 -107q43 -15 102 -15q135 0 135 105q0 15 -5 28t-10.5 21t-21 18.5t-24.5 15.5t-33.5 17t-36.5 18q-65 33 -97.5 71.5t-32.5 110.5q0 97 65.5 156.5t191.5 59.5q66 0 112 -8h114l-45 -191h-100l5 93q-33 14 -91 14
q-121 0 -121 -97q0 -36 20 -54.5t74 -44.5q6 -3 31 -14.5t33 -16t29 -16.5t29 -20t21.5 -23t19 -30t10.5 -36t5 -45q0 -103 -71.5 -165t-208.5 -62zM304 720l49 138h147l-12 -50l-102 -88h-82z" />
    <glyph glyph-name="Scircumflex.titling" horiz-adv-x="524" 
d="M221 720l8 37l87 101h117l54 -101l-8 -37h-51l-66 60l-90 -60h-51zM205 -8q-52 0 -106 8h-135l48 209h104l-10 -107q43 -15 102 -15q135 0 135 105q0 15 -5 28t-10.5 21t-21 18.5t-24.5 15.5t-33.5 17t-36.5 18q-65 33 -97.5 71.5t-32.5 110.5q0 97 65.5 156.5
t191.5 59.5q66 0 112 -8h114l-45 -191h-100l5 93q-33 14 -91 14q-121 0 -121 -97q0 -36 20 -54.5t74 -44.5q6 -3 31 -14.5t33 -16t29 -16.5t29 -20t21.5 -23t19 -30t10.5 -36t5 -45q0 -103 -71.5 -165t-208.5 -62z" />
    <glyph glyph-name="Tcaron.titling" horiz-adv-x="633" 
d="M561 853l-8 -37l-87 -101h-117l-54 101l8 37h51l66 -60l90 60h51zM102 0l19 83h44q11 0 22.5 10.5t13.5 20.5l113 496h-108l-46 -146h-97l54 236h593l-54 -236h-96l20 146h-110l-113 -496q-3 -11 2 -21t15 -10h49l-19 -83h-302z" />
    <glyph glyph-name="Umacron.titling" horiz-adv-x="706" 
d="M348 738l22 94h266l-22 -94h-266zM331 -8q-149 0 -213.5 73t-35.5 203l71 315q2 12 -2 21.5t-15 9.5h-44l20 86h303l-20 -86h-79l-82 -363q-20 -89 10.5 -124t97.5 -35q77 0 114.5 37t58.5 128l81 357h-79l20 86h260l-20 -86h-38q-11 0 -22.5 -10t-13.5 -21l-78 -338
q-20 -84 -52 -137.5t-92 -84.5t-150 -31z" />
    <glyph glyph-name="Ubreve.titling" horiz-adv-x="706" 
d="M479 715q-55 0 -87 27.5t-39 64.5l11 46h78q2 -43 45 -43q42 0 57 43h86l-13 -56q-47 -82 -138 -82zM331 -8q-149 0 -213.5 73t-35.5 203l71 315q2 12 -2 21.5t-15 9.5h-44l20 86h303l-20 -86h-79l-82 -363q-20 -89 10.5 -124t97.5 -35q77 0 114.5 37t58.5 128l81 357
h-79l20 86h260l-20 -86h-38q-11 0 -22.5 -10t-13.5 -21l-78 -338q-20 -84 -52 -137.5t-92 -84.5t-150 -31z" />
    <glyph glyph-name="Uring.titling" horiz-adv-x="706" 
d="M473 701q-44 0 -72.5 26t-28.5 69q0 48 32.5 77t77.5 29q43 0 71.5 -26.5t28.5 -68.5q0 -49 -32 -77.5t-77 -28.5zM474 747q24 0 40 15.5t16 41.5q0 23 -13.5 37.5t-36.5 14.5q-24 0 -39.5 -15.5t-15.5 -43.5q0 -23 13 -36.5t36 -13.5zM331 -8q-149 0 -213.5 73
t-35.5 203l71 315q2 12 -2 21.5t-15 9.5h-44l20 86h303l-20 -86h-79l-82 -363q-20 -89 10.5 -124t97.5 -35q77 0 114.5 37t58.5 128l81 357h-79l20 86h260l-20 -86h-38q-11 0 -22.5 -10t-13.5 -21l-78 -338q-20 -84 -52 -137.5t-92 -84.5t-150 -31z" />
    <glyph glyph-name="Uhungarumlaut.titling" horiz-adv-x="706" 
d="M520 715l46 138h121l-12 -50l-78 -88h-77zM357 715l46 138h121l-12 -50l-78 -88h-77zM331 -8q-149 0 -213.5 73t-35.5 203l71 315q2 12 -2 21.5t-15 9.5h-44l20 86h303l-20 -86h-79l-82 -363q-20 -89 10.5 -124t97.5 -35q77 0 114.5 37t58.5 128l81 357h-79l20 86h260
l-20 -86h-38q-11 0 -22.5 -10t-13.5 -21l-78 -338q-20 -84 -52 -137.5t-92 -84.5t-150 -31z" />
    <glyph glyph-name="Zacute.titling" horiz-adv-x="542" 
d="M320 715l49 138h147l-12 -50l-102 -88h-82zM-49 0l24 103l454 500v4h-212l-40 -107h-94l46 200h494l-25 -106l-454 -500v-4h234l42 123h99l-48 -213h-520z" />
    <glyph glyph-name="Zdotaccent.titling" horiz-adv-x="542" 
d="M378 720q-32 0 -53 21.5t-21 52.5q0 33 24.5 56t58.5 23q32 0 53.5 -21.5t21.5 -52.5q0 -34 -25 -56.5t-59 -22.5zM-49 0l24 103l454 500v4h-212l-40 -107h-94l46 200h494l-25 -106l-454 -500v-4h234l42 123h99l-48 -213h-520z" />
    <glyph glyph-name="Racute.titlingalt" horiz-adv-x="666" 
d="M329 715l49 138h147l-12 -50l-102 -88h-82zM400 194q-1 64 -26.5 85.5t-80.5 21.5h-49l-50 -218h87l-19 -83h-310l19 83h38q11 0 22.5 10.5t13.5 20.5l107 469q2 11 -4.5 21t-17.5 10h-38l20 86h286q117 0 181 -44t64 -122q0 -84 -52.5 -135t-147.5 -64v-4
q46 -14 72.5 -45.5t38.5 -105.5l12 -77q3 -20 25 -20h23l-16 -73q-42 -17 -78 -17q-62 0 -89 30t-29 98zM314 608l-52 -229h74q149 0 149 146q0 83 -105 83h-66z" />
    <glyph glyph-name="Rcaron.titlingalt" horiz-adv-x="666" 
d="M534 853l-8 -37l-87 -101h-117l-54 101l8 37h51l66 -60l90 60h51zM400 194q-1 64 -26.5 85.5t-80.5 21.5h-49l-50 -218h87l-19 -83h-310l19 83h38q11 0 22.5 10.5t13.5 20.5l107 469q2 11 -4.5 21t-17.5 10h-38l20 86h286q117 0 181 -44t64 -122q0 -84 -52.5 -135
t-147.5 -64v-4q46 -14 72.5 -45.5t38.5 -105.5l12 -77q3 -20 25 -20h23l-16 -73q-42 -17 -78 -17q-62 0 -89 30t-29 98zM314 608l-52 -229h74q149 0 149 146q0 83 -105 83h-66z" />
    </font>
</defs>
</svg>
